<svg width="40" height="41" viewBox="0 0 40 41" fill="none" xmlns="http://www.w3.org/2000/svg">
<rect x="0.75" y="1.58643" width="38.5004" height="38.5004" rx="7.25" stroke="#7F56D9" stroke-width="1.5"/>
<path d="M24.2004 16.0367C23.1785 16.0332 22.1659 16.2312 21.2206 16.6194C20.2752 17.0077 19.4158 17.5785 18.6913 18.2993C17.9668 19.02 17.3916 19.8766 16.9985 20.8199C16.6054 21.7632 16.4021 22.7747 16.4004 23.7967V31.6367C16.4004 31.9549 16.5268 32.2602 16.7519 32.4852C16.9769 32.7102 17.2821 32.8367 17.6004 32.8367H20.4004C20.7187 32.8367 21.0239 32.7102 21.2489 32.4852C21.474 32.2602 21.6004 31.9549 21.6004 31.6367V23.7967C21.6001 23.4332 21.6765 23.0738 21.8244 22.7418C21.9724 22.4098 22.1887 22.1127 22.4591 21.8699C22.7296 21.6271 23.0482 21.4441 23.3942 21.3326C23.7402 21.2212 24.1057 21.184 24.4671 21.2233C25.1151 21.305 25.7106 21.6216 26.1407 22.1131C26.5708 22.6046 26.8055 23.2369 26.8004 23.89V31.6367C26.8004 31.9549 26.9268 32.2602 27.1519 32.4852C27.3769 32.7102 27.6821 32.8367 28.0004 32.8367H30.8004C31.1186 32.8367 31.4239 32.7102 31.6489 32.4852C31.874 32.2602 32.0004 31.9549 32.0004 31.6367V23.7967C31.9986 22.7747 31.7954 21.7632 31.4023 20.8199C31.0092 19.8766 30.434 19.02 29.7095 18.2993C28.985 17.5785 28.1255 17.0077 27.1802 16.6194C26.2349 16.2312 25.2223 16.0332 24.2004 16.0367Z" fill="#7F56D9"/>
<path d="M12.8 17.2368H9.2C8.53726 17.2368 8 17.7741 8 18.4368V31.6368C8 32.2996 8.53726 32.8368 9.2 32.8368H12.8C13.4627 32.8368 14 32.2996 14 31.6368V18.4368C14 17.7741 13.4627 17.2368 12.8 17.2368Z" fill="#7F56D9"/>
<path d="M11 14.8364C12.6569 14.8364 14 13.4933 14 11.8364C14 10.1796 12.6569 8.83643 11 8.83643C9.34315 8.83643 8 10.1796 8 11.8364C8 13.4933 9.34315 14.8364 11 14.8364Z" fill="#7F56D9"/>
</svg>
