<svg width="40" height="41" viewBox="0 0 40 41" fill="none" xmlns="http://www.w3.org/2000/svg">
<rect x="0.75" y="1.58643" width="38.5" height="38.5" rx="7.25" stroke="#7F56D9" stroke-width="1.5"/>
<path d="M20 8.83643C13.3832 8.83643 8 14.2196 8 20.8364C8 27.4532 13.3832 32.8364 20 32.8364C26.6168 32.8364 32 27.4532 32 20.8364C32 14.2196 26.6168 8.83643 20 8.83643ZM29.5172 19.6364H26.2004C26.0512 17.0101 25.3164 14.4505 24.05 12.1448C25.5192 12.831 26.791 13.8777 27.7469 15.1876C28.7028 16.4975 29.3118 18.0279 29.5172 19.6364ZM20.636 11.2688C21.878 12.9056 23.5484 15.8048 23.7884 19.6364H16.436C16.6028 16.5212 17.6288 13.6028 19.3772 11.2676C19.5836 11.2556 19.79 11.2364 20 11.2364C20.2148 11.2364 20.4248 11.2556 20.636 11.2688ZM16.0256 12.1088C14.8448 14.378 14.1632 16.9508 14.036 19.6364H10.4828C10.6898 18.0137 11.3075 16.4707 12.2775 15.1534C13.2474 13.8361 14.5375 12.7882 16.0256 12.1088ZM10.4828 22.0364H14.0516C14.2148 24.8912 14.8496 27.41 15.9188 29.5124C14.4574 28.8236 13.1933 27.7774 12.2432 26.4708C11.293 25.1641 10.6876 23.639 10.4828 22.0364ZM19.34 30.404C17.6588 28.3664 16.6664 25.5116 16.4492 22.0364H23.7848C23.5352 25.364 22.4444 28.2716 20.6612 30.4028C20.4428 30.4172 20.2244 30.4364 20 30.4364C19.7768 30.4364 19.5596 30.4172 19.34 30.404ZM24.1532 29.4776C25.2992 27.3248 25.9988 24.7964 26.1824 22.0364H29.516C29.314 23.6257 28.7175 25.1392 27.7808 26.4389C26.8441 27.7387 25.597 28.7833 24.1532 29.4776Z" fill="#7F56D9"/>
</svg>
