<svg width="1310" height="866" viewBox="0 0 100 100" fill="none" xmlns="http://www.w3.org/2000/svg">
<path d="M270.759 237.921C274.255 239.26 279.387 240.971 282.288 241.64C285.784 242.533 290.618 242.979 297.015 243.053C304.007 243.128 307.949 242.756 312.264 241.714C315.388 240.896 324.016 238.293 331.38 235.764C338.744 233.309 357.116 227.061 372.29 221.929C387.464 216.722 406.654 210.177 415.059 207.424C423.464 204.598 438.192 199.614 447.787 196.416C457.383 193.143 467.424 189.945 470.102 189.201C472.78 188.531 478.433 187.713 482.747 187.341C487.284 186.969 494.053 186.969 498.739 187.341C503.202 187.713 509.524 188.68 512.723 189.498C515.847 190.391 520.533 191.879 523.136 192.846C525.665 193.813 529.756 195.598 532.211 196.862C534.665 198.052 539.649 201.251 543.294 203.78C547.161 206.606 553.409 212.259 558.393 217.466C563.005 222.375 566.798 226.02 566.798 225.648C566.798 225.202 566.426 224.532 565.906 224.012C565.162 223.342 565.906 221.78 569.773 216.573C572.377 213.003 579.369 203.482 585.245 195.523C591.047 187.564 598.857 177.002 602.427 172.093C606.072 167.184 614.626 155.431 621.543 146.059C628.386 136.613 639.99 120.77 647.205 110.728C654.494 100.686 661.561 91.24 662.9 89.678C664.238 88.1159 664.908 86.8514 664.462 86.9258C663.941 86.9258 662.751 87.9672 661.858 89.1573C660.891 90.4218 659.701 91.3887 659.255 91.3887C658.734 91.3887 655.015 89.3804 651.073 86.8514C647.056 84.3225 637.312 78.2231 629.428 73.2396C622.159 68.7137 610.781 61.5326 603.045 56.6503L601.163 55.4623C593.501 50.6275 583.534 44.3794 579.071 41.5529C574.608 38.7264 567.021 34.6354 562.335 32.3296C557.649 30.0981 550.583 27.1972 546.715 25.9328C542.847 24.6683 536.822 23.0319 533.326 22.2137C529.83 21.4698 524.326 20.4285 521.053 19.9822C517.781 19.6103 508.78 18.8665 500.97 18.4946C494.104 18.1022 481.433 17.4225 470.939 16.8596L466.755 16.635C455.672 16.04 441.167 15.2218 434.399 14.7755C427.63 14.4036 416.249 14.0317 409.109 14.0317C399.588 14.0317 393.935 14.4036 387.91 15.4449C383.447 16.1887 371.992 19.0896 362.62 21.8418C353.248 24.5939 343.876 27.2716 341.793 27.7923C339.785 28.3874 334.727 29.875 330.636 31.0651C326.545 32.3296 322.603 33.3709 321.933 33.3709C321.189 33.3709 319.181 32.0321 317.47 30.3213C315.685 28.6105 312.636 26.3047 310.553 25.1146C307.875 23.5525 305.792 22.9575 303.115 22.9575C300.363 22.8831 298.875 23.3294 297.238 24.5939C296.048 25.5608 294.635 27.4204 294.04 28.6849C293.519 30.0238 293.073 32.999 293.073 35.2305C293.073 37.4619 292.85 39.4703 292.552 39.6934C292.181 39.8422 287.941 40.6604 283.032 41.4786C278.122 42.2224 269.271 43.6356 263.32 44.5282C257.37 45.3464 252.461 46.0159 252.386 45.8671C252.312 45.7183 251.94 42.5943 251.568 38.9496C251.122 35.2305 250.08 30.0982 249.188 27.4204C248.295 24.7427 246.436 20.7261 245.097 18.4946C243.684 16.2631 241.006 12.7672 238.998 10.7589C237.064 8.82496 234.088 6.29598 232.452 5.18025C230.816 4.06452 228.435 2.72566 227.245 2.20498C225.832 1.60992 224.047 1.46116 222.41 1.83306C220.997 2.1306 218.989 3.09756 217.947 3.99014C216.906 4.88272 215.642 7.11418 215.195 8.89935C214.675 10.6845 213.038 17.6764 211.625 24.4451C210.137 31.2139 208.501 38.7265 207.906 41.181C207.311 43.6356 206.79 47.5035 206.79 49.735C206.79 53.7516 206.716 53.9003 203.294 56.4293C201.286 57.8426 198.608 60.7435 197.269 62.7518C195.93 64.8345 194.443 67.8097 193.997 69.4461C193.625 71.0825 193.401 74.7272 193.55 77.6281C193.699 81.1241 194.443 84.1737 195.707 86.9259C196.749 89.1573 198.683 92.4301 200.096 94.2153C201.509 96.0004 204.633 98.8269 207.013 100.538C209.319 102.249 211.253 103.662 211.327 103.662C211.327 103.662 211.476 105.67 211.699 108.125C211.848 110.579 212.146 113.703 212.369 114.968C212.592 116.307 212.518 117.571 212.22 117.794C211.848 117.943 209.765 117.422 207.534 116.604C205.303 115.786 202.402 114.745 201.212 114.373C200.021 114.001 198.311 113.406 197.492 113.034C196.674 112.662 192.509 111.1 188.195 109.538C183.881 108.05 179.79 106.265 178.971 105.596C178.228 104.926 176.442 102.695 175.104 100.686C173.69 98.6038 170.641 94.2897 168.26 90.9425C165.955 87.6697 161.715 81.6448 158.888 77.5538C156.062 73.5371 152.566 68.4792 151.078 66.4709C149.665 64.3882 144.235 56.7269 139.103 49.3631C133.896 41.9993 127.797 33.2966 125.491 30.0238C123.185 26.751 120.135 22.3625 118.722 20.3541C117.309 18.2715 114.259 14.7011 111.805 12.2465C109.424 9.86631 105.482 6.81666 103.028 5.47779C100.573 4.13891 96.7051 2.50251 94.4736 1.83308C92.2422 1.23803 88.2256 0.494194 85.5478 0.196678C82.8701 -0.026466 79.746 -0.100852 78.4815 0.196679C77.2914 0.419824 75.2831 1.53553 74.1674 2.65127C72.6798 4.13889 72.0847 5.47779 72.1591 7.33734C72.1591 8.75059 75.7294 21.6186 80.0436 35.9743C84.3577 50.2556 88.6719 63.6444 89.7132 65.727C90.6802 67.7354 91.424 69.5205 91.3496 69.6693C91.2008 69.7437 86.9611 65.4295 81.8287 60.074C76.6964 54.6442 67.1755 45.7183 60.6299 40.2885C54.0843 34.7842 47.5387 29.5031 46.1254 28.5362C44.7122 27.4948 41.365 25.8584 38.6873 24.8914C36.0095 23.9245 31.3235 22.8088 28.2738 22.5856C24.7779 22.2137 20.7612 22.3625 17.4884 22.8831C14.6619 23.4038 10.4966 24.5939 8.41386 25.6353C5.78571 26.8254 3.72781 28.4618 2.24017 30.5444C0.306245 33.2222 -0.0656641 34.4123 0.00871803 37.9826C0.00871824 40.3629 0.455009 43.1894 1.05006 44.3051C1.64512 45.4952 13.5462 60.5947 27.53 78.0001C41.4394 95.4054 62.1175 121.142 73.4236 135.274C84.7296 149.407 95.3662 162.423 97.0026 164.134C98.7134 165.919 101.912 168.82 104.143 170.605C106.375 172.316 110.763 175.143 113.813 176.779C116.863 178.416 124.45 181.688 130.549 183.92C136.723 186.226 142.376 188.457 143.194 188.829C144.012 189.201 150.558 191.73 157.698 194.408C164.839 197.085 171.384 199.614 172.203 199.986C173.021 200.358 179.566 202.962 186.707 205.639C193.848 208.391 206.195 213.077 214.005 216.053C221.89 219.102 234.981 224.086 243.014 227.21L243.018 227.211C251.124 230.335 259.23 233.458 261.089 234.202C262.948 234.946 267.263 236.582 270.759 237.921Z" fill="#101828"/>
<path d="M275.22 110.43C274.401 110.728 277.302 114.001 284.889 121.513C295.303 131.852 295.749 132.224 298.278 131.852C299.691 131.629 301.105 131.257 301.402 131.108C301.774 130.96 301.997 130.513 301.997 130.067C301.997 129.621 300.881 127.538 299.468 125.455C298.055 123.298 296.27 119.877 295.452 117.794C294.633 115.786 293.815 112.662 293.518 110.951C293.071 107.901 292.923 107.752 290.691 107.752C289.352 107.752 285.559 108.273 282.286 108.868C279.013 109.463 275.815 110.207 275.22 110.43Z" fill="#EAECF5"/>
<path d="M72.1582 59.0327C71.2656 63.198 68.811 64.4873 67.6953 64.6113M96.3323 76.1405C107.242 88.4135 130.027 113.926 133.895 117.794C138.73 122.629 145.052 121.885 148.4 121.885C151.747 121.885 163.276 121.514 175.549 124.489C185.367 126.869 227.74 140.605 247.699 147.175M247.699 147.175C251.047 144.2 291.957 134.53 295.676 132.671M247.699 147.175C246.832 150.027 245.022 156.027 244.724 157.217M130.92 127.464L135.383 123.001M307.205 130.067C323.197 127.836 338.445 119.654 344.024 107.009M297.535 105.521C303.486 103.439 342.412 105.645 361.132 107.009C366.71 108.373 379.876 113.257 387.909 121.885M377.496 134.158L373.405 124.489M272.245 109.984C246.212 112.216 220.55 107.381 212.368 104.406M208.649 59.7766C196.376 68.7024 197.12 85.9396 212.368 96.9675C216.955 95.9758 227.691 93.4716 233.939 91.3889C241.749 88.7855 244.724 82.0911 244.724 75.0249C244.724 69.3719 243.98 60.0245 243.608 56.0575M207.533 53.8261C211.401 52.0409 238.402 48.3714 251.418 46.7598" stroke="#9E77ED" stroke-width="1.48764"/>
<path d="M564.937 221.929L603.988 266.558M657.171 97.339C669.072 77.9997 675.766 85.066 683.948 89.5289C690.494 93.0992 712.709 107.133 722.999 113.703" stroke="black" stroke-width="1.48764"/>
</svg>
