<svg width="570" height="543" viewBox="0 0 570 543" fill="none" xmlns="http://www.w3.org/2000/svg">
<path d="M103.529 105.746C103.359 98.436 103.868 91.8056 104.718 91.2955C105.567 90.6155 112.191 90.1055 119.495 90.1055C129.686 90.1055 132.913 90.6155 133.592 92.6556C134.102 94.0157 134.442 99.456 134.442 104.556C134.442 109.657 134.102 115.097 133.592 116.457C132.913 118.497 129.686 119.007 103.868 119.007L103.529 105.746Z" fill="#06081A"/>
<path d="M132.742 75.655C132.742 70.5547 133.252 65.1143 133.761 63.7543C134.271 62.3942 136.649 61.2041 138.857 61.2041C141.065 61.2041 143.273 62.2242 143.783 63.4142C144.462 65.1143 144.802 65.1143 145.481 63.4142C145.991 62.0542 149.388 61.2041 153.974 61.2041C159.239 61.2041 161.957 62.0542 162.466 63.7543C162.976 65.1143 163.315 70.5547 163.315 75.655C163.315 80.7553 162.976 86.1956 162.466 87.5557C161.957 89.2558 159.239 90.1059 153.974 90.1059C149.388 90.1059 145.991 89.2558 145.481 88.0657C144.802 86.3656 144.462 86.3656 143.783 87.8957C143.273 89.0858 141.065 90.1059 138.687 90.1059C136.309 90.1059 134.101 88.9158 133.591 87.5557C133.082 86.1956 132.742 80.7553 132.742 75.655Z" fill="#06081A"/>
<path d="M215.12 37.4023C216.479 37.4023 232.445 29.0718 250.449 18.7011H250.28C268.284 8.50052 283.74 0 284.759 0C285.609 0 292.233 3.40021 299.197 7.48046C306.161 11.5607 314.993 16.661 318.73 18.7011C322.466 20.7413 332.658 26.5216 341.15 31.6219C349.813 36.7222 356.946 41.8226 356.777 42.8426C356.777 44.0327 356.097 46.5828 355.248 48.453C354.399 50.3231 353.719 50.8331 353.719 49.643C353.549 48.623 352.53 47.6029 351.341 47.6029C350.322 47.6029 335.205 55.9334 286.458 84.4952L285.609 149.609L298.687 157.26C305.991 161.34 312.445 164.91 313.125 164.91C313.974 164.91 322.976 160.15 333.507 154.199C344.377 148.249 353.21 141.959 354.229 139.919C355.418 137.538 356.777 136.688 357.796 137.708C358.815 138.558 371.893 132.098 425.736 101.496L435.078 106.426C440.174 109.147 453.932 116.967 465.651 123.768C477.371 130.738 490.28 138.218 494.526 140.599C498.773 142.979 517.286 153.689 569.261 183.611V262.666C569.261 314.859 568.751 341.381 567.562 340.871C566.543 340.361 565.864 313.329 565.864 265.216C565.864 216.423 565.354 190.412 564.165 190.412C563.146 190.412 558.9 192.452 554.314 194.832C549.898 197.382 535.8 205.373 499.622 226.114L499.112 303.298C498.942 345.801 498.433 380.993 497.923 381.503C497.414 382.183 495.715 382.183 494.017 381.673C491.469 380.993 491.469 380.483 493.677 378.273C495.036 376.913 496.055 374.703 495.715 373.683C495.376 372.493 493.677 371.133 491.809 370.963C490.11 370.623 487.562 371.643 486.373 373.513C485.015 375.553 483.769 376.006 482.637 374.873C481.278 373.683 481.618 372.323 483.486 370.623C485.015 369.263 486.204 368.752 486.034 369.773C486.034 370.793 487.902 369.603 494.696 362.972L494.526 287.828C494.526 239.375 493.847 212.173 492.828 211.663C491.809 211.153 484.845 214.553 477.032 219.143C469.388 223.734 459.707 229.344 455.46 231.554C451.214 233.934 443.401 238.185 437.966 241.075C432.7 244.135 428.284 247.195 428.284 248.215C428.284 249.235 427.095 249.915 425.736 249.915C424.378 249.915 423.189 249.405 423.189 248.725C423.358 247.875 409.091 239.205 391.766 229.174C374.441 218.973 358.985 210.983 357.286 211.323C355.078 211.493 354.229 210.303 353.889 205.713C353.549 202.482 352.7 199.082 351.851 198.062C350.832 196.929 349.586 196.985 348.114 198.232C346.925 199.252 332.997 207.583 317.031 216.763C301.065 225.944 287.647 234.274 286.967 235.294C286.288 236.314 285.609 242.775 285.609 249.575C285.609 256.546 286.288 261.816 287.307 261.816C288.156 261.816 301.745 254.506 317.371 245.495C333.167 236.484 347.944 227.644 350.492 225.944C353.21 224.074 355.927 222.714 356.946 222.714C357.796 222.714 358.815 223.394 358.985 224.074C359.324 224.924 370.535 232.064 384.123 240.055C397.711 248.045 411.809 256.206 415.545 258.076C420.811 260.966 422.849 261.136 424.547 259.606C426.246 258.076 426.586 258.076 426.755 260.116C426.755 261.476 426.925 294.288 427.095 332.71C427.265 371.303 426.925 402.925 426.076 402.925C425.397 402.925 424.887 373.513 424.887 337.471C424.887 286.297 424.378 272.017 422.679 272.017C421.66 272.017 410.959 277.797 398.9 284.767C387.01 291.738 376.989 297.518 376.479 297.518C375.97 297.518 371.384 300.238 356.946 309.419V386.264C356.946 428.596 356.607 463.618 356.097 464.128C355.588 464.638 355.248 440.327 355.248 410.235C355.248 379.973 354.908 354.132 354.399 352.772C353.889 351.411 352.7 350.221 351.851 350.221C350.832 350.221 339.961 356.002 327.562 363.142C315.333 370.283 300.725 378.613 285.609 387.624L285.948 464.978C286.458 537.743 286.288 542.333 283.401 542.333C281.872 542.333 280.173 541.483 279.664 540.633C279.154 539.783 279.494 538.933 280.513 538.933C281.702 538.933 282.212 512.751 282.212 463.788C282.382 393.574 282.042 388.304 279.324 385.754C277.626 384.223 265.226 376.573 251.638 368.922C238.05 361.272 225.481 353.792 223.613 352.601C221.744 351.241 219.197 350.221 218.008 350.221C216.479 350.221 215.969 362.802 215.969 407.515C215.969 457.498 215.63 464.978 213.422 464.978C212.063 464.978 210.874 464.298 210.874 463.278V403.435C210.874 371.303 211.214 343.931 211.723 342.571C212.233 341.211 213.592 340.021 214.611 340.021C215.8 340.021 221.744 337.471 227.859 334.24C233.974 331.18 248.411 322.85 281.362 303.298L281.872 289.018C282.042 281.027 281.702 273.887 281.023 273.207C280.173 272.527 273.21 275.587 265.226 280.177C257.243 284.767 243.146 292.928 233.804 298.368C224.462 303.809 216.479 308.909 215.969 309.759C215.46 310.609 211.214 308.909 206.628 305.849C201.872 302.958 187.095 294.118 173.507 286.297C159.918 278.477 147.859 272.017 146.67 272.017C145.141 272.017 144.632 284.257 144.802 327.78C144.802 372.323 144.292 383.373 142.594 383.203C141.405 383.203 138.008 382.693 135.29 382.013C132.402 381.333 128.326 379.123 125.948 377.083C123.57 374.873 118.814 371.473 115.247 369.433C110.831 366.542 107.604 365.862 104.207 366.712C101.659 367.222 97.7527 369.092 95.3748 370.623C92.9968 372.153 86.8822 376.063 72.4448 384.563L63.2728 379.803C58.3471 377.083 42.381 367.902 1.10707 343.931L0.257812 181.061L9.93936 175.451C15.3746 172.561 24.0371 167.63 29.1326 164.74C34.2282 161.85 45.6082 155.389 54.1008 150.289C62.7632 145.189 70.2367 140.429 70.7463 139.408C71.2558 138.388 72.7845 138.728 74.483 140.089C76.1815 141.449 84.3344 146.379 108.114 159.64L119.154 153.519C125.269 150.119 133.422 145.189 137.328 142.469C141.405 139.919 144.971 138.388 145.481 139.408C145.991 140.429 154.653 146.039 165.014 152.159C175.375 158.28 185.056 163.21 186.585 163.21C188.284 163.21 191.341 162.02 193.379 160.66C195.587 159.3 197.626 158.45 198.135 158.96C198.645 159.47 197.456 160.49 195.587 161.51C193.719 162.53 192.19 164.23 192.19 165.42C192.19 166.44 193.549 168.31 195.078 169.33C196.776 170.18 201.023 172.731 210.874 178.511V110.507C210.874 73.1045 211.214 41.3125 211.723 39.9524C212.233 38.5924 213.761 37.4023 215.12 37.4023Z" fill="#9E77ED"/>
<path d="M76.3504 379.124C75.5012 379.124 74.9916 371.813 75.1615 362.803L75.162 362.754C75.3313 346.991 75.3349 346.653 78.8982 347.842C80.9364 348.352 83.8239 349.712 85.1827 350.902C86.5415 351.922 90.618 354.302 94.1848 356.172C98.9407 358.552 100.469 360.423 100.13 362.973C99.7899 365.013 95.3738 368.753 88.5797 372.663C82.4651 376.234 77.0298 379.124 76.3504 379.124Z" fill="#06081A"/>
<path d="M285.268 287.147C285.098 279.157 285.607 272.187 286.117 271.506C286.796 270.996 295.968 275.587 306.499 281.707C316.86 287.827 329.259 294.968 334.015 297.518C338.601 300.068 345.056 303.638 353.548 308.569V324.38C353.548 338.491 353.208 339.851 350.491 339.171C348.962 338.661 333.675 329.99 285.607 301.768L285.268 287.147Z" fill="#6941C6"/>
<path d="M219.026 226.113C216.479 224.753 215.969 222.202 216.309 210.642C216.479 198.741 216.818 197.041 219.196 198.061C220.725 198.571 233.464 205.711 247.392 213.702C261.489 221.692 274.908 229.683 277.625 231.553C281.872 234.443 282.211 235.293 282.211 247.364C282.211 254.334 281.702 260.455 281.022 260.795C280.173 261.135 266.755 253.994 250.789 244.644C234.993 235.463 220.555 227.133 219.026 226.113Z" fill="#6941C6"/>
<path d="M162.467 214.723C170.79 209.963 184.888 201.972 193.72 196.702C202.382 191.432 210.026 187.521 210.705 187.861C211.215 188.201 211.554 196.702 210.705 225.264L179.792 243.285C162.807 253.145 147.86 260.966 146.671 260.626C145.312 260.286 144.633 255.356 144.633 243.625C144.633 234.444 145.312 226.114 145.992 225.094C146.671 224.074 154.145 219.313 162.467 214.723Z" fill="#06081A"/>
<path d="M74.8242 340.87L75.1639 263.856L75.5036 186.671L85.0153 192.111C90.2807 195.171 105.737 204.182 144.633 226.963V244.474C144.633 254.845 143.954 261.815 142.935 261.815C141.916 261.815 141.066 282.727 140.387 378.953L123.062 368.752C108.285 360.421 105.058 359.061 102.85 360.932C101.321 361.952 100.302 362.292 100.472 361.272C100.642 360.421 100.812 358.551 100.642 357.531C100.642 356.341 99.9623 355.321 99.2829 355.491C98.4336 355.661 96.2255 355.151 94.1873 354.641C91.9792 354.131 90.6204 352.941 91.13 351.921C91.6395 351.071 91.2998 350.221 90.2807 350.221C89.4315 350.221 87.9028 350.051 87.0535 349.881C86.3741 349.541 83.147 347.501 74.8242 340.87Z" fill="#6941C6"/>
<path d="M3.31417 264.195C3.14432 223.053 3.65387 188.711 4.33328 188.201C5.18254 187.521 6.20165 187.35 6.88106 187.691C7.39061 188.031 20.1295 195.341 35.0764 204.012C50.0234 212.682 63.9512 220.843 69.896 224.413V300.917C69.896 350.73 69.3865 377.422 68.1975 377.422C67.1784 377.422 57.8366 372.322 47.3058 366.201C36.9448 360.081 24.0361 352.601 18.9405 349.88C13.845 346.99 8.23987 343.42 6.54135 341.89C3.82372 339.34 3.48402 333.729 3.31417 264.195Z" fill="#6941C6"/>
<path d="M380.727 185.312V170.861V156.41H409.601V185.312H380.727Z" fill="#06081A"/>
<path d="M217.328 187.011C216.478 187.011 215.969 155.729 215.969 117.307C215.969 71.914 216.478 47.6025 217.667 47.6025C218.686 47.6025 232.105 54.913 247.731 63.9235C263.527 72.9341 277.625 81.6046 279.323 83.1347C282.041 85.5149 282.381 89.2551 282.211 149.609L277.625 152.839C274.907 154.539 260.64 163.04 245.693 171.54C230.746 180.041 218.007 187.011 217.328 187.011Z" fill="#6941C6"/>
<path d="M286.459 84.4948L317.881 66.1337C335.206 55.933 350.323 47.6025 351.342 47.6025C352.531 47.6025 353.89 48.7926 354.399 50.1527C354.909 51.5128 355.249 71.744 355.249 95.2054C355.249 120.197 354.569 139.068 353.55 141.108C352.531 142.978 343.529 149.099 333.168 154.709C322.807 160.319 313.975 164.91 313.295 164.91C312.446 164.91 305.992 161.339 285.609 149.609L286.459 84.4948Z" fill="#06081A"/>
<path d="M192.869 164.91C193.378 163.55 196.945 160.659 201.022 158.619C205.098 156.579 208.835 154.879 209.684 154.709C210.364 154.709 210.873 159.979 210.873 178.51L203.739 174.26C199.663 171.88 195.417 169.33 194.228 168.65C193.039 167.97 192.529 166.27 192.869 164.91Z" fill="#9E77ED"/>
<path d="M525.27 211.323C539.708 203.162 553.805 195.002 556.523 193.472C559.24 191.941 562.638 190.581 563.826 190.581C565.525 190.411 565.865 206.392 565.015 344.101L558.221 347.671C554.485 349.541 551.088 351.411 550.578 351.921C550.068 352.431 544.973 355.661 539.028 359.232C533.253 362.632 527.818 365.522 526.799 365.522C525.78 365.522 523.062 367.222 520.344 369.432C517.797 371.472 512.871 374.533 509.304 376.233C505.907 377.763 501.661 379.123 499.962 379.123C497.414 379.123 497.245 377.933 498.434 368.582C499.113 362.632 499.453 328.29 499.113 226.454L525.27 211.323Z" fill="#06081A"/>
<path d="M317.032 216.763C332.998 207.752 346.586 199.592 347.435 198.742H347.605C348.455 197.892 349.983 197.382 351.002 197.722C351.852 198.062 353.38 203.672 354.229 210.132C355.588 221.353 355.418 222.033 351.682 224.923C349.52 226.754 334.987 235.265 319.398 244.395L318.391 244.985C302.255 254.165 288.327 261.816 287.308 261.816C286.289 261.816 285.609 256.545 285.609 249.575C285.609 242.774 286.289 236.314 286.968 235.294C287.648 234.274 301.236 225.943 317.032 216.763Z" fill="#06081A"/>
<path d="M354.908 217.103C354.738 214.893 355.247 212.513 356.097 212.003C356.946 211.323 358.135 210.812 358.984 210.812C359.663 210.812 373.931 218.633 390.576 228.154C407.052 237.504 421.999 246.685 423.528 248.555C425.226 250.255 426.585 252.975 426.585 254.675C426.585 256.205 425.736 258.415 424.547 259.605C422.848 261.136 420.81 260.966 415.545 258.075C411.808 256.205 397.71 248.045 384.122 240.054C370.534 232.064 358.474 224.413 357.285 223.223C356.266 222.033 355.077 219.313 354.908 217.103Z" fill="#6941C6"/>
<path d="M457.159 230.705C462.254 227.815 471.766 222.204 478.39 218.124C485.014 214.214 490.959 211.154 491.978 211.494C492.997 211.834 493.847 238.865 494.526 362.973L490.619 366.713C488.581 368.753 486.543 370.453 486.033 370.113C485.524 369.943 481.617 371.813 477.031 374.024C472.615 376.404 469.048 378.614 469.048 379.124C469.218 379.634 465.481 381.674 461.065 383.884C456.649 386.094 448.666 390.345 443.57 393.575C438.475 396.805 432.87 399.525 431.171 399.525C429.643 399.525 427.774 398.165 427.265 396.465C426.755 394.935 426.585 361.443 426.755 322.17C426.925 282.898 427.435 249.746 428.114 248.556C428.623 247.196 433.379 243.796 438.475 240.905C443.57 238.185 452.063 233.425 457.159 230.705Z" fill="#06081A"/>
<path d="M145.479 423.836L144.97 348.011C144.63 287.658 144.97 272.017 146.668 272.017C147.857 272.017 159.917 278.477 173.505 286.297C187.093 294.118 201.531 302.788 213.42 310.269L214.439 324.72C215.119 335.43 214.779 339.681 213.08 341.381C211.382 342.911 210.872 355.832 210.872 401.735C210.872 433.696 210.533 460.388 210.023 461.238C209.514 461.918 206.117 460.558 202.38 458.178C198.643 455.798 195.246 454.438 194.736 455.288C194.227 455.968 193.887 455.458 193.887 454.438C193.887 453.248 192.698 452.228 191.339 452.228C189.981 452.228 188.452 451.038 187.942 449.677C187.433 448.317 185.904 447.127 184.545 447.127C183.187 447.127 177.581 444.577 172.316 441.517C166.881 438.457 158.728 433.186 145.479 423.836Z" fill="#6941C6"/>
<path d="M232.955 298.879C241.788 293.778 255.546 285.618 263.529 280.857C271.512 276.267 278.645 272.527 279.664 272.697C280.684 273.037 281.363 279.667 281.363 303.299L260.132 315.88C248.412 322.85 233.974 331.181 227.86 334.241C217.838 339.511 216.649 339.851 215.63 337.131C214.951 335.431 214.441 329.14 214.441 323.02C214.441 316.9 214.951 311.119 215.63 310.099C216.31 309.079 224.123 304.149 232.955 298.879Z" fill="#06081A"/>
<path d="M376.478 297.518C376.988 297.518 387.009 291.738 399.069 284.767H398.899C410.958 277.797 421.149 272.017 421.829 272.017C422.678 272.017 423.527 273.207 424.037 274.567C424.546 275.927 424.716 305.169 424.716 339.511C424.546 374.023 424.037 407.345 422.338 425.876L411.298 433.186C405.183 437.097 397.71 441.347 394.652 442.537C391.595 443.557 389.217 444.917 389.217 445.427C389.387 445.937 384.291 448.827 378.177 451.718C372.062 454.778 366.797 458.008 366.287 459.028C365.778 460.048 363.909 460.728 362.041 460.728C360.172 460.728 358.304 459.538 357.795 458.178C357.285 456.818 356.945 422.646 356.945 309.419L366.287 303.469C371.383 300.238 375.969 297.518 376.478 297.518Z" fill="#06081A"/>
<path d="M218.859 504.421C215.971 501.021 215.802 495.241 215.971 425.536V425.366C215.971 366.373 216.481 350.222 218.01 350.222C219.199 350.222 221.746 351.242 223.615 352.602C225.483 353.792 238.052 361.272 251.64 368.923C265.228 376.573 277.628 384.224 279.326 385.754C282.044 388.304 282.383 393.574 282.214 463.619C282.214 522.442 281.704 539.103 280.006 539.443C278.986 539.783 276.269 539.273 274.061 538.253C272.023 537.233 270.324 535.873 270.324 535.023C270.324 534.343 266.757 532.303 262.171 530.263C257.755 528.393 253.848 526.182 253.339 525.332C252.829 524.652 245.526 520.402 237.203 516.152C228.88 511.732 220.557 506.461 218.859 504.421Z" fill="#6941C6"/>
<path d="M301.237 378.613C309.899 373.512 324.336 365.012 333.168 359.912C342 354.642 350.323 350.392 351.342 350.222C352.531 350.222 353.89 351.412 354.399 352.772C354.909 354.132 355.249 387.794 355.249 499.831L350.493 504.251C347.945 506.631 339.622 512.412 331.809 517.002C324.166 521.592 317.372 525.332 316.522 525.332C315.843 525.332 309.389 528.903 302.255 532.983C294.951 537.233 288.327 540.293 287.308 539.783C286.289 539.273 285.609 512.072 285.609 387.794L301.236 378.613L301.237 378.613Z" fill="#06081A"/>
<path d="M487.732 377.593C486.204 376.573 485.694 375.043 486.373 373.343C487.053 371.813 489.261 370.623 491.129 370.623C492.998 370.623 494.696 371.303 495.036 372.153C495.206 373.003 495.206 374.873 495.036 376.403C494.696 377.933 493.507 379.124 492.488 379.124C491.299 379.124 489.091 378.444 487.732 377.593Z" fill="#6941C6"/>
<path d="M139.198 404.114C139.028 393.404 139.708 384.223 140.387 383.543C141.236 383.033 142.425 383.033 143.275 383.713C143.954 384.563 144.803 393.914 145.483 424.006L152.617 428.766C156.693 431.316 159.92 434.206 159.92 435.226C159.92 436.076 158.222 436.586 156.183 436.076C153.975 435.566 151.088 434.036 149.729 432.676C148.37 431.316 145.483 428.766 143.445 426.726C139.878 423.666 139.538 421.626 139.198 404.114Z" fill="#D2D2F5"/>
<path d="M423.19 416.186C423.19 405.646 423.36 405.476 429.474 401.905C432.871 400.035 435.929 398.675 436.268 399.015C436.608 399.355 436.438 400.375 435.929 401.225C435.419 402.245 433.89 402.925 432.532 402.925C431.173 402.925 429.984 403.945 429.814 405.136C429.814 406.156 429.474 411.086 428.965 415.676C428.455 420.436 426.757 425.537 425.228 427.237C423.699 428.937 421.321 430.297 420.302 430.127C419.113 430.127 418.094 430.637 418.094 431.487C418.094 432.167 416.226 433.697 413.848 434.887C411.3 436.077 409.602 436.247 409.602 435.227C409.602 434.377 412.659 431.997 423.19 426.727V416.186Z" fill="#D2D2F5"/>
<path d="M394.142 443.217C396.181 443.047 397.709 442.197 397.709 441.177C397.709 440.157 398.219 439.987 398.898 440.837C399.578 441.517 399.578 442.707 398.558 443.557C397.539 444.407 393.972 446.788 390.575 448.658C387.009 450.698 384.121 452.058 384.121 451.718C384.121 451.548 385.48 449.678 387.348 447.468C389.217 445.258 392.274 443.387 394.142 443.217Z" fill="#D2D2F5"/>
<path d="M177.413 446.108C176.564 446.448 174.526 445.768 172.657 444.407C170.11 442.537 169.94 442.027 171.808 442.027C173.167 442.027 175.885 443.047 177.753 444.577C179.621 445.938 182.509 447.128 184.207 447.128C185.736 447.128 187.604 448.318 187.944 449.678C188.454 451.038 189.982 452.228 191.341 452.228C192.7 452.228 193.549 453.078 193.04 453.928C192.53 454.948 193.21 455.458 194.399 455.288C195.418 454.948 199.664 456.818 203.74 459.028C207.647 461.409 210.874 463.789 210.874 464.639C210.874 465.319 210.365 465.829 209.685 465.829C208.836 465.829 207.307 464.979 206.118 463.789C204.929 462.599 204.08 462.429 204.08 463.279C204.08 464.299 202.891 463.279 201.193 461.239C199.494 459.028 197.626 458.008 196.946 458.688C196.097 459.368 194.229 458.688 192.7 457.158C191.001 455.628 187.095 453.418 184.038 452.058C180.98 450.698 178.432 448.658 178.602 447.638C178.602 446.448 178.093 445.768 177.413 446.108Z" fill="#D2D2F5"/>
<path d="M365.27 460.728C365.1 459.708 367.648 457.498 370.705 455.628C373.932 453.758 376.48 452.228 376.65 452.228C376.82 452.228 376.82 453.418 376.65 454.948C376.48 456.308 374.612 458.688 372.234 459.878C369.856 461.238 367.478 462.258 366.629 462.428C365.949 462.428 365.27 461.578 365.27 460.728Z" fill="#BFBFE5"/>
<path d="M354.909 468.889C354.229 467.699 355.079 465.488 356.607 463.958C358.136 462.428 360.344 461.408 361.533 461.408C362.552 461.578 363.062 462.428 362.552 463.278C361.873 464.298 360.344 466.339 358.815 468.039C356.777 470.249 355.758 470.589 354.909 468.889Z" fill="#D2D2F5"/>
<path d="M210.533 485.72C210.363 475.009 210.873 465.829 211.552 465.319C212.401 464.639 213.76 464.639 214.609 465.149C215.628 465.659 216.308 473.649 216.138 483.85C215.968 500.511 216.138 501.701 220.214 505.781C223.272 508.841 223.781 510.031 221.913 510.031C220.554 510.031 218.856 508.841 218.006 507.311C217.327 505.781 216.308 504.761 215.459 504.761C214.779 504.931 213.59 504.931 212.571 504.931C211.552 504.931 210.703 497.111 210.533 485.72Z" fill="#D2D2F5"/>
<path d="M356.435 496.43C356.096 501.53 355.926 497.79 355.926 487.93C355.926 478.069 356.096 473.819 356.435 478.579C356.775 483.169 356.775 491.33 356.435 496.43Z" fill="#BFBFE5"/>
<path d="M250.788 528.222C247.051 526.692 243.484 523.972 242.974 522.102C241.955 519.042 242.295 519.042 246.371 520.742C248.749 521.762 252.316 524.312 254.185 526.522C256.053 528.562 258.091 529.752 258.94 529.072C259.62 528.392 260.129 528.902 260.129 529.922C260.129 531.112 259.62 531.962 258.771 531.622C258.091 531.452 254.524 529.922 250.788 528.222Z" fill="#D2D2F5"/>
<path d="M265.225 537.233C263.357 536.383 261.828 534.343 261.828 532.983C261.828 531.623 262.508 530.433 263.527 530.433C264.546 530.433 266.754 531.963 268.622 533.833C270.491 535.703 274.057 538.423 276.605 539.783C279.323 541.143 280.172 542.163 278.813 542.333C277.454 542.333 274.567 541.143 272.529 539.783C270.321 538.423 268.622 537.573 268.622 538.083C268.622 538.593 267.094 538.083 265.225 537.233Z" fill="#D2D2F5"/>
</svg>
