<svg xmlns="http://www.w3.org/2000/svg" viewBox="0 0 19 14" fill="none">
  <path d="M15.5853 1.44751C14.4338 0.918999 13.2178 0.54439 11.9686 0.333344C11.8094 0.60751 11.6328 0.979177 11.5086 1.27084C10.1801 1.07631 8.83041 1.07631 7.50193 1.27084C7.37777 0.979177 7.1911 0.60751 7.0411 0.333344C5.79074 0.541902 4.57387 0.916606 3.42277 1.44751C1.1336 4.82584 0.514434 8.12501 0.824434 11.3792C2.16577 12.364 3.66417 13.1146 5.2561 13.5992C5.61373 13.1164 5.93038 12.6047 6.20277 12.0692C5.68027 11.8742 5.1861 11.6358 4.70777 11.3525C4.83193 11.2642 4.95527 11.1667 5.07027 11.0692C7.9536 12.3875 11.0761 12.3875 13.9236 11.0692C14.0478 11.1667 14.1628 11.2642 14.2861 11.3525C13.8086 11.6358 13.3136 11.8742 12.7919 12.0692C13.0641 12.6046 13.3804 13.1164 13.7378 13.5992C15.3303 13.116 16.8289 12.3653 18.1694 11.3792C18.5503 7.61251 17.5678 4.33918 15.5861 1.44751H15.5853ZM6.59943 9.37168C5.73277 9.37168 5.02527 8.58418 5.02527 7.62084C5.02527 6.65668 5.71527 5.86918 6.60027 5.86918C7.47527 5.86918 8.19193 6.65668 8.1736 7.62084C8.1736 8.58418 7.47527 9.37168 6.59943 9.37168ZM12.4111 9.37168C11.5444 9.37168 10.8361 8.58418 10.8361 7.62084C10.8361 6.65668 11.5261 5.86918 12.4111 5.86918C13.2861 5.86918 14.0028 6.65668 13.9853 7.62084C13.9853 8.58418 13.2953 9.37084 12.4103 9.37084L12.4111 9.37168Z" fill="white"/>
</svg>