<svg xmlns="http://www.w3.org/2000/svg" width="120" height="120" viewBox="0 0 120 120" fill="none">
  <g opacity="0.75">
    <path opacity="0.2" d="M59.059 110.649C84.9966 110.649 106.023 89.6226 106.023 63.685C106.023 37.7473 84.9966 16.7207 59.059 16.7207C33.1213 16.7207 12.0947 37.7473 12.0947 63.685C12.0947 89.6226 33.1213 110.649 59.059 110.649Z" fill="#E9D7FE"/>
    <path d="M82.3468 22.8624H35.0565C33.2969 22.8624 31.6094 23.5614 30.3651 24.8057C29.1209 26.0499 28.4219 27.7375 28.4219 29.4971V83.3852H28.503V102.309C28.5029 103.039 28.6901 103.758 29.0467 104.396C29.4032 105.033 29.9173 105.569 30.5398 105.952C31.1623 106.334 31.8725 106.551 32.6025 106.581C33.3326 106.611 34.0582 106.454 34.71 106.124L56.5233 95.0658C57.1176 94.7678 57.7733 94.6126 58.4381 94.6126C59.103 94.6126 59.7586 94.7678 60.353 95.0658L82.837 106.205C83.4894 106.528 84.2134 106.679 84.9406 106.644C85.6677 106.609 86.3739 106.389 86.9922 106.005C87.6105 105.621 88.1205 105.085 88.4738 104.448C88.827 103.812 89.0119 103.096 89.011 102.368L88.952 83.3852V29.4786C88.9471 27.7273 88.25 26.0489 87.0127 24.8095C85.7753 23.5701 84.0981 22.8702 82.3468 22.8624Z" fill="#E9D7FE"/>
    <path d="M112 40.3153C112.001 41.7495 111.481 43.1353 110.536 44.2144C109.592 45.2934 108.287 45.992 106.865 46.1799C106.605 46.213 106.343 46.23 106.081 46.2308H86.404C85.9772 46.2299 85.5511 46.1947 85.1298 46.1257C83.3211 45.8136 81.6917 44.8435 80.5553 43.4021C79.419 41.9608 78.8559 40.15 78.9745 38.3184C79.0932 36.4868 79.8851 34.7638 81.1979 33.481C82.5107 32.1983 84.2516 31.4464 86.0855 31.3703C87.0359 29.3065 88.6318 27.6077 90.6322 26.5302C92.6326 25.4527 94.9292 25.0549 97.1755 25.3969C99.4217 25.7389 101.496 26.802 103.085 28.4259C104.674 30.0499 105.692 32.1466 105.986 34.3997H106.075C106.852 34.3985 107.623 34.5505 108.341 34.8473C109.06 35.144 109.714 35.5795 110.264 36.129C110.814 36.6784 111.251 37.3309 111.549 38.0493C111.847 38.7676 112 39.5376 112 40.3153Z" fill="#F4EBFF"/>
    <path d="M11.9414 28.7291C11.9414 29.9119 12.4113 31.0463 13.2476 31.8826C14.084 32.719 15.2184 33.1889 16.4012 33.1889H31.2076C32.6664 33.1812 34.0646 32.6041 35.1043 31.5807C36.144 30.5573 36.743 29.1684 36.7737 27.7099C36.8045 26.2513 36.2645 24.8384 35.2688 23.7721C34.2732 22.7058 32.9005 22.0704 31.4433 22.0012C30.7246 20.4532 29.5231 19.18 28.0193 18.3729C26.5155 17.5658 24.7904 17.2682 23.1031 17.5249C21.4157 17.7816 19.8572 18.5787 18.6614 19.7965C17.4656 21.0143 16.6971 22.5872 16.4713 24.2789H16.4044C15.2227 24.2781 14.0889 24.7462 13.2521 25.5806C12.4154 26.415 11.9439 27.5474 11.9414 28.7291Z" fill="#F4EBFF"/>
    <path d="M60.4563 33.4262L65.705 44.0601C65.8607 44.3754 66.0907 44.6481 66.3751 44.8549C66.6595 45.0616 66.9899 45.1962 67.3379 45.247L79.0701 46.9388C79.4674 46.9997 79.84 47.1696 80.1464 47.4297C80.4528 47.6898 80.681 48.0298 80.8055 48.4119C80.9301 48.794 80.9462 49.2032 80.8519 49.5939C80.7577 49.9846 80.5568 50.3414 80.2717 50.6247L71.7941 58.8996C71.542 59.1449 71.3535 59.4481 71.245 59.7827C71.1364 60.1173 71.1111 60.4734 71.1712 60.82L73.1764 72.5043C73.2451 72.9038 73.2006 73.3146 73.048 73.6901C72.8953 74.0656 72.6406 74.3909 72.3126 74.6291C71.9847 74.8673 71.5965 75.0089 71.1922 75.038C70.7879 75.067 70.3835 74.9822 70.0249 74.7933L59.5311 69.2644C59.2195 69.101 58.873 69.0157 58.5212 69.0157C58.1694 69.0157 57.8228 69.101 57.5112 69.2644L47.0174 74.7933C46.6589 74.9812 46.255 75.0651 45.8513 75.0356C45.4476 75.0061 45.0602 74.8643 44.7328 74.6263C44.4054 74.3882 44.1511 74.0633 43.9986 73.6884C43.846 73.3134 43.8014 72.9033 43.8697 72.5043L45.8711 60.82C45.9312 60.4734 45.9059 60.1173 45.7974 59.7827C45.6888 59.4481 45.5003 59.1449 45.2482 58.8996L36.7706 50.6247C36.4855 50.3414 36.2847 49.9846 36.1904 49.5939C36.0962 49.2032 36.1122 48.794 36.2368 48.4119C36.3614 48.0298 36.5896 47.6898 36.8959 47.4297C37.2023 47.1696 37.5749 46.9997 37.9722 46.9388L49.7045 45.2359C50.0524 45.1851 50.3828 45.0506 50.6672 44.8438C50.9516 44.6371 51.1816 44.3643 51.3373 44.0491L56.5861 33.4152C56.7687 33.0586 57.0465 32.7595 57.3886 32.551C57.7307 32.3425 58.1239 32.2328 58.5246 32.2339C58.9252 32.235 59.3177 32.347 59.6587 32.5575C59.9996 32.7679 60.2757 33.0686 60.4563 33.4262Z" fill="#D6BBFB"/>
    <path d="M8.00001 85.7494C7.9993 87.1777 8.51788 88.5575 9.4591 89.6318C10.4003 90.706 11.7 91.4015 13.116 91.5885C13.3735 91.6243 13.6332 91.6424 13.8933 91.6427H33.4844C33.9112 91.642 34.3374 91.6069 34.7586 91.5375C36.5698 91.236 38.2045 90.2724 39.3455 88.8337C40.4864 87.395 41.0522 85.5838 40.9332 83.7515C40.8141 81.9191 40.0187 80.1963 38.7011 78.9174C37.3836 77.6384 35.638 76.8945 33.8029 76.8299C32.8553 74.7761 31.2658 73.0859 29.2741 72.014C27.2823 70.9421 24.9961 70.5466 22.76 70.887C20.5239 71.2274 18.459 72.2853 16.8764 73.9013C15.2938 75.5173 14.2792 77.6039 13.9856 79.8466H13.8933C13.1185 79.8466 12.3514 79.9993 11.6358 80.2961C10.9202 80.5929 10.2701 81.0278 9.72272 81.5761C9.17536 82.1243 8.74146 82.7751 8.44586 83.4912C8.15026 84.2073 7.99875 84.9747 8.00001 85.7494Z" fill="#F4EBFF"/>
    <path d="M96.0742 52.5092C96.0214 52.302 96.2127 52.1153 96.4185 52.1732L101.143 53.5008C101.349 53.5586 101.415 53.8176 101.262 53.9669L97.7498 57.3945C97.5968 57.5438 97.3395 57.4715 97.2866 57.2643L96.0742 52.5092Z" fill="#E9D7FE"/>
    <path d="M17.7959 52.5092C17.7431 52.302 17.9344 52.1153 18.1402 52.1732L22.8644 53.5008C23.0703 53.5586 23.1363 53.8176 22.9833 53.9669L19.4715 57.3945C19.3184 57.5438 19.0611 57.4715 19.0083 57.2643L17.7959 52.5092Z" fill="#E9D7FE"/>
    <path d="M44.7483 10.6929C44.8304 10.3528 45.3142 10.3528 45.3963 10.6929L46.606 15.7041C46.6353 15.8257 46.7302 15.9206 46.8518 15.9499L51.863 17.1596C52.2031 17.2417 52.2031 17.7255 51.863 17.8076L46.8518 19.0173C46.7302 19.0466 46.6353 19.1415 46.606 19.263L45.3963 24.2743C45.3142 24.6144 44.8304 24.6144 44.7483 24.2743L43.5386 19.263C43.5093 19.1415 43.4144 19.0466 43.2929 19.0173L38.2816 17.8076C37.9415 17.7255 37.9415 17.2417 38.2816 17.1596L43.2929 15.9499C43.4144 15.9206 43.5093 15.8257 43.5386 15.7041L44.7483 10.6929Z" fill="#E9D7FE"/>
    <path d="M62.8249 102.201C62.8249 103.396 61.8562 104.365 60.6611 104.365C59.4661 104.365 58.4974 103.396 58.4974 102.201C58.4974 101.006 59.4661 100.037 60.6611 100.037C61.8562 100.037 62.8249 101.006 62.8249 102.201Z" stroke="#E9D7FE" stroke-width="0.416623"/>
    <path d="M96.2571 84.9053C96.3392 84.5652 96.823 84.5652 96.9051 84.9053L98.1148 89.9166C98.1441 90.0381 98.239 90.133 98.3606 90.1624L103.372 91.372C103.712 91.4542 103.712 91.9379 103.372 92.02L98.3606 93.2297C98.239 93.2591 98.1441 93.354 98.1148 93.4755L96.9051 98.4867C96.823 98.8269 96.3392 98.8269 96.2571 98.4867L95.0474 93.4755C95.0181 93.354 94.9232 93.2591 94.8017 93.2297L89.7904 92.02C89.4503 91.9379 89.4503 91.4542 89.7904 91.372L94.8017 90.1624C94.9232 90.133 95.0181 90.0381 95.0474 89.9166L96.2571 84.9053Z" fill="#E9D7FE"/>
  </g>
</svg>