<svg
                    className="vector5"
                    viewBox="0 0 29 28"
                    fill="none"
                    xmlns="http://www.w3.org/2000/svg"
                  >
                    <path
                      d="M3.22492 28.5087L3.2251 28.5087L27.6961 18.433C27.6962 18.4329 27.6962 18.4329 27.6962 18.4329C28.1157 18.2603 28.4748 17.9676 28.7285 17.5916L28.0126 17.1085L28.7285 17.5916C28.9823 17.2156 29.1193 16.7731 29.1225 16.3195C29.1257 15.8659 28.9949 15.4215 28.7465 15.0419C28.498 14.6624 28.1431 14.3647 27.7261 14.1862L18.7087 10.3216C18.7086 10.3215 18.7086 10.3215 18.7085 10.3215C18.5728 10.2633 18.4646 10.1551 18.4064 10.0193L14.5418 1.00187C14.5418 1.00179 14.5417 1.0017 14.5417 1.00162C14.3631 0.584747 14.0655 0.229866 13.686 -0.0185184C13.3065 -0.266947 12.862 -0.39777 12.4085 -0.394571C11.9549 -0.391373 11.5123 -0.254297 11.1363 -0.000545502L11.6195 0.715311L11.1363 -0.000541687C10.7604 0.253193 10.4677 0.612288 10.2951 1.0317L3.22492 28.5087ZM3.22492 28.5087C2.8044 28.6818 2.34207 28.7264 1.8962 28.6371C1.45033 28.5478 1.04088 28.3285 0.719462 28.0068C0.398044 27.6852 0.179044 27.2755 0.0900645 26.8296C0.00111449 26.3838 0.0460816 25.9217 0.219295 25.5014C0.21934 25.5013 0.219383 25.5012 0.219428 25.5011C0.21944 25.501 0.219453 25.501 0.219465 25.501L10.295 1.03181L3.22492 28.5087Z"
                    />
                  </svg>