<svg xmlns="http://www.w3.org/2000/svg" width="64" height="64" viewBox="0 0 64 64" fill="none">
  <path d="M4 20.1C4 14.4051 4 11.5576 5.12587 9.39026C6.07462 7.56382 7.56382 6.07462 9.39026 5.12587C11.5576 4 14.4051 4 20.1 4H43.9C49.5949 4 52.4424 4 54.6097 5.12587C56.4362 6.07462 57.9254 7.56382 58.8741 9.39026C60 11.5576 60 14.4051 60 20.1V43.9C60 49.5949 60 52.4424 58.8741 54.6097C57.9254 56.4362 56.4362 57.9254 54.6097 58.8741C52.4424 60 49.5949 60 43.9 60H20.1C14.4051 60 11.5576 60 9.39026 58.8741C7.56382 57.9254 6.07462 56.4362 5.12587 54.6097C4 52.4424 4 49.5949 4 43.9V20.1Z" fill="url(#paint0_linear_4923_27153)"/>
  <path opacity="0.5" d="M48 48C48 43.7977 47.1723 39.6365 45.5641 35.7541C43.956 31.8717 41.5989 28.3441 38.6274 25.3726C35.6559 22.4011 32.1283 20.044 28.2459 18.4359C24.3635 16.8277 20.2023 16 16 16L16 48H48Z" fill="white"/>
  <path opacity="0.5" d="M48 16C48 20.2023 47.1723 24.3635 45.5641 28.2459C43.956 32.1283 41.5989 35.6559 38.6274 38.6274C35.6559 41.5989 32.1283 43.956 28.2459 45.5641C24.3635 47.1723 20.2023 48 16 48L16 16H48Z" fill="white"/>
  <defs>
    <linearGradient id="paint0_linear_4923_27153" x1="3.99913" y1="59.9997" x2="59.9993" y2="3.99932" gradientUnits="userSpaceOnUse">
      <stop stop-color="#53389E"/>
      <stop offset="1" stop-color="#7F56D9"/>
    </linearGradient>
  </defs>
</svg>