<svg xmlns="http://www.w3.org/2000/svg" width="32" height="32" viewBox="0 0 32 32" fill="none">
  <path opacity="0.5" d="M32 32C32 27.7977 31.1723 23.6365 29.5641 19.7541C27.956 15.8717 25.5989 12.3441 22.6274 9.37258C19.6559 6.40111 16.1283 4.044 12.2459 2.43585C8.36345 0.827704 4.2023 -1.83688e-07 0 0L1.39876e-06 32H32Z" fill="#6941C6"/>
  <path opacity="0.5" d="M32 0C32 4.2023 31.1723 8.36345 29.5641 12.2459C27.956 16.1283 25.5989 19.6559 22.6274 22.6274C19.6559 25.5989 16.1283 27.956 12.2459 29.5641C8.36345 31.1723 4.2023 32 0 32L1.39876e-06 0H32Z" fill="#6941C6"/>
</svg>