<svg xmlns="http://www.w3.org/2000/svg" width="20" height="20" viewBox="0 0 20 20" fill="none">
  <path d="M7.79496 17.4998C8.38257 18.0185 9.15444 18.3332 9.99981 18.3332C10.8452 18.3332 11.6171 18.0185 12.2047 17.4998M14.9998 6.6665C14.9998 5.34042 14.473 4.06865 13.5353 3.13097C12.5977 2.19329 11.3259 1.6665 9.99981 1.6665C8.67373 1.6665 7.40196 2.19329 6.46428 3.13097C5.5266 4.06865 4.99981 5.34042 4.99981 6.6665C4.99981 9.24166 4.3502 11.0048 3.62453 12.171C3.01242 13.1547 2.70636 13.6466 2.71758 13.7838C2.73001 13.9357 2.7622 13.9937 2.88463 14.0845C2.99519 14.1665 3.49364 14.1665 4.49052 14.1665H15.5091C16.506 14.1665 17.0044 14.1665 17.115 14.0845C17.2374 13.9937 17.2696 13.9357 17.282 13.7838C17.2933 13.6466 16.9872 13.1547 16.3751 12.171C15.6494 11.0048 14.9998 9.24166 14.9998 6.6665Z" stroke="#667085" stroke-width="1.66667" stroke-linecap="round" stroke-linejoin="round"/>
</svg>