<svg width="663" height="424" viewBox="0 0 663 424" fill="none" xmlns="http://www.w3.org/2000/svg">
<rect x="7.21631" y="7.698" width="648.567" height="328.343" rx="3.60816" fill="url(#paint0_linear_17_69881)"/>
<path d="M52.8519 59.9791V67.705H51.6824V61.1486H51.6371L49.7887 62.3557V61.2391L51.7164 59.9791H52.8519ZM57.6315 67.8333C57.0355 67.8308 56.5262 67.6736 56.1037 67.3617C55.6812 67.0499 55.358 66.5959 55.1342 65.9999C54.9103 65.4038 54.7984 64.6858 54.7984 63.8458C54.7984 63.0084 54.9103 62.2929 55.1342 61.6993C55.3605 61.1058 55.6849 60.6531 56.1074 60.3413C56.5325 60.0294 57.0405 59.8735 57.6315 59.8735C58.2225 59.8735 58.7293 60.0307 59.1518 60.345C59.5743 60.6569 59.8975 61.1096 60.1213 61.7031C60.3476 62.2941 60.4608 63.0084 60.4608 63.8458C60.4608 64.6883 60.3489 65.4076 60.1251 66.0037C59.9012 66.5972 59.5781 67.0511 59.1555 67.3655C58.733 67.6774 58.225 67.8333 57.6315 67.8333ZM57.6315 66.826C58.1546 66.826 58.5633 66.5708 58.8575 66.0602C59.1543 65.5497 59.3027 64.8116 59.3027 63.8458C59.3027 63.2045 59.2348 62.6626 59.099 62.2199C58.9657 61.7748 58.7733 61.4378 58.5218 61.2089C58.2728 60.9776 57.976 60.8619 57.6315 60.8619C57.1109 60.8619 56.7022 61.1184 56.4055 61.6314C56.1087 62.1445 55.9591 62.8826 55.9565 63.8458C55.9565 64.4897 56.0232 65.0342 56.1565 65.4793C56.2923 65.9219 56.4847 66.2577 56.7337 66.4865C56.9826 66.7129 57.2819 66.826 57.6315 66.826ZM64.4888 67.8333C63.8927 67.8308 63.3835 67.6736 62.961 67.3617C62.5385 67.0499 62.2153 66.5959 61.9915 65.9999C61.7676 65.4038 61.6557 64.6858 61.6557 63.8458C61.6557 63.0084 61.7676 62.2929 61.9915 61.6993C62.2178 61.1058 62.5422 60.6531 62.9647 60.3413C63.3898 60.0294 63.8978 59.8735 64.4888 59.8735C65.0798 59.8735 65.5866 60.0307 66.0091 60.345C66.4316 60.6569 66.7547 61.1096 66.9786 61.7031C67.2049 62.2941 67.3181 63.0084 67.3181 63.8458C67.3181 64.6883 67.2062 65.4076 66.9824 66.0037C66.7585 66.5972 66.4354 67.0511 66.0128 67.3655C65.5903 67.6774 65.0823 67.8333 64.4888 67.8333ZM64.4888 66.826C65.0119 66.826 65.4206 66.5708 65.7148 66.0602C66.0116 65.5497 66.16 64.8116 66.16 63.8458C66.16 63.2045 66.0921 62.6626 65.9563 62.2199C65.823 61.7748 65.6306 61.4378 65.3791 61.2089C65.1301 60.9776 64.8333 60.8619 64.4888 60.8619C63.9682 60.8619 63.5595 61.1184 63.2628 61.6314C62.966 62.1445 62.8164 62.8826 62.8138 63.8458C62.8138 64.4897 62.8805 65.0342 63.0138 65.4793C63.1496 65.9219 63.342 66.2577 63.591 66.4865C63.8399 66.7129 64.1392 66.826 64.4888 66.826ZM72.6891 66.2564V65.849C72.6891 65.5573 72.7494 65.2907 72.8701 65.0492C72.9934 64.8053 73.1719 64.6104 73.4058 64.4645C73.6422 64.3161 73.9277 64.2419 74.2622 64.2419C74.6042 64.2419 74.8909 64.3149 75.1223 64.4607C75.3536 64.6066 75.5284 64.8015 75.6466 65.0455C75.7673 65.2894 75.8277 65.5573 75.8277 65.849V66.2564C75.8277 66.5481 75.7673 66.816 75.6466 67.0599C75.5259 67.3014 75.3486 67.4963 75.1147 67.6447C74.8833 67.7905 74.5992 67.8635 74.2622 67.8635C73.9226 67.8635 73.6359 67.7905 73.402 67.6447C73.1682 67.4963 72.9909 67.3014 72.8701 67.0599C72.7494 66.816 72.6891 66.5481 72.6891 66.2564ZM73.568 65.849V66.2564C73.568 66.4727 73.6196 66.6689 73.7227 66.8449C73.8258 67.021 74.0056 67.109 74.2622 67.109C74.5162 67.109 74.6935 67.021 74.7941 66.8449C74.8947 66.6689 74.945 66.4727 74.945 66.2564V65.849C74.945 65.6327 74.8959 65.4365 74.7978 65.2605C74.7023 65.0845 74.5237 64.9964 74.2622 64.9964C74.0107 64.9964 73.8321 65.0845 73.7265 65.2605C73.6208 65.4365 73.568 65.6327 73.568 65.849ZM68.8035 61.8351V61.4277C68.8035 61.136 68.8638 60.8682 68.9846 60.6242C69.1078 60.3803 69.2863 60.1853 69.5202 60.0395C69.7566 59.8936 70.0421 59.8207 70.3766 59.8207C70.7186 59.8207 71.0053 59.8936 71.2367 60.0395C71.4681 60.1853 71.6428 60.3803 71.761 60.6242C71.8793 60.8682 71.9384 61.136 71.9384 61.4277V61.8351C71.9384 62.1269 71.878 62.3947 71.7573 62.6387C71.6391 62.8801 71.463 63.075 71.2291 63.2234C70.9978 63.3693 70.7136 63.4422 70.3766 63.4422C70.0345 63.4422 69.7466 63.3693 69.5127 63.2234C69.2813 63.075 69.1053 62.8801 68.9846 62.6387C68.8638 62.3947 68.8035 62.1269 68.8035 61.8351ZM69.6862 61.4277V61.8351C69.6862 62.0514 69.7365 62.2476 69.8371 62.4236C69.9402 62.5997 70.1201 62.6877 70.3766 62.6877C70.6281 62.6877 70.8041 62.5997 70.9047 62.4236C71.0078 62.2476 71.0594 62.0514 71.0594 61.8351V61.4277C71.0594 61.2114 71.0103 61.0153 70.9123 60.8392C70.8142 60.6632 70.6356 60.5752 70.3766 60.5752C70.1251 60.5752 69.9465 60.6632 69.8409 60.8392C69.7378 61.0153 69.6862 61.2114 69.6862 61.4277ZM69.1619 67.705L74.4734 59.9791H75.375L70.0635 67.705H69.1619Z" fill="white"/>
<path d="M84.6777 64.205H614.391" stroke="white" stroke-width="1.32789"/>
<path d="M57.5833 110.688C57.0425 110.688 56.5647 110.595 56.1497 110.409C55.7373 110.223 55.4141 109.966 55.1802 109.639C54.9463 109.312 54.8307 108.94 54.8332 108.523C54.8307 108.196 54.8973 107.895 55.0331 107.621C55.1714 107.345 55.3588 107.114 55.5952 106.931C55.8316 106.745 56.0957 106.627 56.3874 106.576V106.531C56.0026 106.438 55.6945 106.232 55.4632 105.912C55.2318 105.593 55.1174 105.226 55.1199 104.811C55.1174 104.416 55.2217 104.064 55.433 103.754C55.6467 103.443 55.9397 103.197 56.312 103.019C56.6842 102.84 57.1079 102.751 57.5833 102.751C58.0535 102.751 58.4735 102.842 58.8432 103.023C59.2154 103.201 59.5084 103.446 59.7222 103.758C59.936 104.068 60.0441 104.418 60.0466 104.811C60.0441 105.226 59.9259 105.593 59.692 105.912C59.4581 106.232 59.1538 106.438 58.7791 106.531V106.576C59.0683 106.627 59.3286 106.745 59.56 106.931C59.7939 107.114 59.98 107.345 60.1183 107.621C60.2591 107.895 60.3308 108.196 60.3333 108.523C60.3308 108.94 60.2126 109.312 59.9787 109.639C59.7448 109.966 59.4204 110.223 59.0055 110.409C58.593 110.595 58.1189 110.688 57.5833 110.688ZM57.5833 109.734C57.9027 109.734 58.1793 109.681 58.4132 109.575C58.6471 109.467 58.8281 109.318 58.9564 109.126C59.0847 108.933 59.1501 108.706 59.1526 108.447C59.1501 108.178 59.0796 107.941 58.9413 107.734C58.8055 107.528 58.6207 107.366 58.3868 107.248C58.1529 107.13 57.885 107.07 57.5833 107.07C57.2789 107.07 57.0086 107.13 56.7722 107.248C56.5358 107.366 56.3497 107.528 56.2139 107.734C56.0781 107.941 56.0114 108.178 56.0139 108.447C56.0114 108.706 56.073 108.933 56.1988 109.126C56.327 109.318 56.5094 109.467 56.7458 109.575C56.9822 109.681 57.2613 109.734 57.5833 109.734ZM57.5833 106.139C57.8398 106.139 58.0674 106.087 58.2661 105.984C58.4647 105.881 58.6207 105.737 58.7338 105.554C58.8495 105.37 58.9086 105.155 58.9111 104.909C58.9086 104.667 58.8508 104.456 58.7376 104.275C58.627 104.094 58.4723 103.954 58.2736 103.856C58.0749 103.756 57.8448 103.705 57.5833 103.705C57.3167 103.705 57.0828 103.756 56.8816 103.856C56.6829 103.954 56.5282 104.094 56.4176 104.275C56.3069 104.456 56.2529 104.667 56.2554 104.909C56.2529 105.155 56.3082 105.37 56.4214 105.554C56.5345 105.737 56.6904 105.881 56.8891 105.984C57.0903 106.087 57.3217 106.139 57.5833 106.139ZM64.3745 110.711C63.7785 110.708 63.2692 110.551 62.8467 110.239C62.4242 109.927 62.101 109.473 61.8772 108.877C61.6534 108.281 61.5415 107.563 61.5415 106.723C61.5415 105.886 61.6534 105.17 61.8772 104.577C62.1035 103.983 62.428 103.531 62.8505 103.219C63.2755 102.907 63.7835 102.751 64.3745 102.751C64.9655 102.751 65.4723 102.908 65.8948 103.223C66.3173 103.534 66.6405 103.987 66.8643 104.581C67.0907 105.172 67.2038 105.886 67.2038 106.723C67.2038 107.566 67.0919 108.285 66.8681 108.881C66.6443 109.475 66.3211 109.929 65.8986 110.243C65.4761 110.555 64.9681 110.711 64.3745 110.711ZM64.3745 109.704C64.8976 109.704 65.3063 109.448 65.6006 108.938C65.8973 108.427 66.0457 107.689 66.0457 106.723C66.0457 106.082 65.9778 105.54 65.842 105.097C65.7087 104.652 65.5163 104.315 65.2648 104.086C65.0158 103.855 64.7191 103.739 64.3745 103.739C63.8539 103.739 63.4453 103.996 63.1485 104.509C62.8517 105.022 62.7021 105.76 62.6996 106.723C62.6996 107.367 62.7662 107.912 62.8995 108.357C63.0353 108.799 63.2277 109.135 63.4767 109.364C63.7257 109.59 64.025 109.704 64.3745 109.704ZM72.5748 109.134V108.726C72.5748 108.435 72.6352 108.168 72.7559 107.927C72.8791 107.683 73.0577 107.488 73.2916 107.342C73.528 107.194 73.8134 107.119 74.1479 107.119C74.4899 107.119 74.7766 107.192 75.008 107.338C75.2394 107.484 75.4142 107.679 75.5324 107.923C75.6531 108.167 75.7134 108.435 75.7134 108.726V109.134C75.7134 109.426 75.6531 109.693 75.5324 109.937C75.4117 110.179 75.2344 110.374 75.0005 110.522C74.7691 110.668 74.4849 110.741 74.1479 110.741C73.8084 110.741 73.5217 110.668 73.2878 110.522C73.0539 110.374 72.8766 110.179 72.7559 109.937C72.6352 109.693 72.5748 109.426 72.5748 109.134ZM73.4538 108.726V109.134C73.4538 109.35 73.5053 109.546 73.6084 109.722C73.7116 109.898 73.8914 109.986 74.1479 109.986C74.4019 109.986 74.5792 109.898 74.6798 109.722C74.7804 109.546 74.8307 109.35 74.8307 109.134V108.726C74.8307 108.51 74.7817 108.314 74.6836 108.138C74.588 107.962 74.4095 107.874 74.1479 107.874C73.8964 107.874 73.7178 107.962 73.6122 108.138C73.5066 108.314 73.4538 108.51 73.4538 108.726ZM68.6892 104.713V104.305C68.6892 104.013 68.7496 103.746 68.8703 103.502C68.9935 103.258 69.1721 103.063 69.406 102.917C69.6424 102.771 69.9278 102.698 70.2623 102.698C70.6043 102.698 70.8911 102.771 71.1224 102.917C71.3538 103.063 71.5286 103.258 71.6468 103.502C71.765 103.746 71.8241 104.013 71.8241 104.305V104.713C71.8241 105.004 71.7637 105.272 71.643 105.516C71.5248 105.758 71.3488 105.953 71.1149 106.101C70.8835 106.247 70.5993 106.32 70.2623 106.32C69.9203 106.32 69.6323 106.247 69.3984 106.101C69.1671 105.953 68.991 105.758 68.8703 105.516C68.7496 105.272 68.6892 105.004 68.6892 104.713ZM69.572 104.305V104.713C69.572 104.929 69.6223 105.125 69.7229 105.301C69.826 105.477 70.0058 105.565 70.2623 105.565C70.5138 105.565 70.6899 105.477 70.7905 105.301C70.8936 105.125 70.9451 104.929 70.9451 104.713V104.305C70.9451 104.089 70.8961 103.893 70.798 103.717C70.6999 103.541 70.5214 103.453 70.2623 103.453C70.0108 103.453 69.8323 103.541 69.7266 103.717C69.6235 103.893 69.572 104.089 69.572 104.305ZM69.0476 110.583L74.3592 102.857H75.2608L69.9492 110.583H69.0476Z" fill="white"/>
<path d="M84.5635 107.083H614.391" stroke="white" stroke-width="1.32789"/>
<path d="M57.6285 153.566C57.284 153.561 56.9445 153.498 56.61 153.377C56.278 153.256 55.9762 153.055 55.7046 152.773C55.433 152.492 55.2154 152.113 55.052 151.638C54.891 151.163 54.8105 150.569 54.8105 149.857C54.8105 149.183 54.8772 148.585 55.0105 148.062C55.1463 147.539 55.3412 147.097 55.5952 146.738C55.8492 146.375 56.156 146.1 56.5157 145.911C56.8753 145.723 57.2789 145.628 57.7266 145.628C58.1868 145.628 58.5955 145.719 58.9526 145.9C59.3098 146.081 59.599 146.331 59.8203 146.651C60.0441 146.97 60.1862 147.334 60.2466 147.741H59.096C59.018 147.419 58.8634 147.156 58.632 146.953C58.4006 146.749 58.0988 146.647 57.7266 146.647C57.1607 146.647 56.7194 146.893 56.4025 147.386C56.0881 147.879 55.9297 148.565 55.9272 149.442H55.9838C56.117 149.224 56.2805 149.037 56.4742 148.884C56.6703 148.728 56.8891 148.609 57.1306 148.526C57.3745 148.44 57.631 148.397 57.9001 148.397C58.3478 148.397 58.7527 148.507 59.1149 148.726C59.4795 148.942 59.77 149.241 59.9863 149.623C60.2026 150.006 60.3107 150.443 60.3107 150.936C60.3107 151.429 60.1988 151.876 59.975 152.275C59.7536 152.675 59.4418 152.992 59.0394 153.226C58.637 153.457 58.1667 153.571 57.6285 153.566ZM57.6247 152.585C57.9215 152.585 58.1868 152.512 58.4207 152.366C58.6546 152.22 58.8395 152.024 58.9753 151.777C59.1111 151.531 59.179 151.256 59.179 150.951C59.179 150.655 59.1123 150.384 58.979 150.14C58.8483 149.896 58.6672 149.703 58.4358 149.559C58.207 149.416 57.9454 149.344 57.6512 149.344C57.4273 149.344 57.2198 149.387 57.0287 149.473C56.8401 149.558 56.6741 149.676 56.5308 149.827C56.3874 149.978 56.2742 150.152 56.1912 150.348C56.1108 150.541 56.0705 150.746 56.0705 150.963C56.0705 151.252 56.1372 151.52 56.2705 151.766C56.4063 152.013 56.5911 152.211 56.825 152.362C57.0614 152.511 57.328 152.585 57.6247 152.585ZM64.3745 153.588C63.7785 153.586 63.2692 153.429 62.8467 153.117C62.4242 152.805 62.101 152.351 61.8772 151.755C61.6534 151.159 61.5415 150.441 61.5415 149.601C61.5415 148.763 61.6534 148.048 61.8772 147.454C62.1035 146.861 62.428 146.408 62.8505 146.096C63.2755 145.784 63.7835 145.628 64.3745 145.628C64.9655 145.628 65.4723 145.786 65.8948 146.1C66.3173 146.412 66.6405 146.865 66.8643 147.458C67.0907 148.049 67.2038 148.763 67.2038 149.601C67.2038 150.443 67.0919 151.163 66.8681 151.759C66.6443 152.352 66.3211 152.806 65.8986 153.12C65.4761 153.432 64.9681 153.588 64.3745 153.588ZM64.3745 152.581C64.8976 152.581 65.3063 152.326 65.6006 151.815C65.8973 151.305 66.0457 150.567 66.0457 149.601C66.0457 148.959 65.9778 148.418 65.842 147.975C65.7087 147.53 65.5163 147.193 65.2648 146.964C65.0158 146.732 64.7191 146.617 64.3745 146.617C63.8539 146.617 63.4453 146.873 63.1485 147.386C62.8517 147.899 62.7021 148.638 62.6996 149.601C62.6996 150.245 62.7662 150.789 62.8995 151.234C63.0353 151.677 63.2277 152.013 63.4767 152.241C63.7257 152.468 64.025 152.581 64.3745 152.581ZM72.5748 152.011V151.604C72.5748 151.312 72.6352 151.046 72.7559 150.804C72.8791 150.56 73.0577 150.365 73.2916 150.219C73.528 150.071 73.8134 149.997 74.1479 149.997C74.4899 149.997 74.7766 150.07 75.008 150.216C75.2394 150.362 75.4142 150.556 75.5324 150.8C75.6531 151.044 75.7134 151.312 75.7134 151.604V152.011C75.7134 152.303 75.6531 152.571 75.5324 152.815C75.4117 153.056 75.2344 153.251 75.0005 153.4C74.7691 153.545 74.4849 153.618 74.1479 153.618C73.8084 153.618 73.5217 153.545 73.2878 153.4C73.0539 153.251 72.8766 153.056 72.7559 152.815C72.6352 152.571 72.5748 152.303 72.5748 152.011ZM73.4538 151.604V152.011C73.4538 152.228 73.5053 152.424 73.6084 152.6C73.7116 152.776 73.8914 152.864 74.1479 152.864C74.4019 152.864 74.5792 152.776 74.6798 152.6C74.7804 152.424 74.8307 152.228 74.8307 152.011V151.604C74.8307 151.388 74.7817 151.191 74.6836 151.015C74.588 150.839 74.4095 150.751 74.1479 150.751C73.8964 150.751 73.7178 150.839 73.6122 151.015C73.5066 151.191 73.4538 151.388 73.4538 151.604ZM68.6892 147.59V147.183C68.6892 146.891 68.7496 146.623 68.8703 146.379C68.9935 146.135 69.1721 145.94 69.406 145.794C69.6424 145.649 69.9278 145.576 70.2623 145.576C70.6043 145.576 70.8911 145.649 71.1224 145.794C71.3538 145.94 71.5286 146.135 71.6468 146.379C71.765 146.623 71.8241 146.891 71.8241 147.183V147.59C71.8241 147.882 71.7637 148.15 71.643 148.394C71.5248 148.635 71.3488 148.83 71.1149 148.978C70.8835 149.124 70.5993 149.197 70.2623 149.197C69.9203 149.197 69.6323 149.124 69.3984 148.978C69.1671 148.83 68.991 148.635 68.8703 148.394C68.7496 148.15 68.6892 147.882 68.6892 147.59ZM69.572 147.183V147.59C69.572 147.806 69.6223 148.003 69.7229 148.179C69.826 148.355 70.0058 148.443 70.2623 148.443C70.5138 148.443 70.6899 148.355 70.7905 148.179C70.8936 148.003 70.9451 147.806 70.9451 147.59V147.183C70.9451 146.966 70.8961 146.77 70.798 146.594C70.6999 146.418 70.5214 146.33 70.2623 146.33C70.0108 146.33 69.8323 146.418 69.7266 146.594C69.6235 146.77 69.572 146.966 69.572 147.183ZM69.0476 153.46L74.3592 145.734H75.2608L69.9492 153.46H69.0476Z" fill="white"/>
<path d="M84.5635 149.96H614.391" stroke="white" stroke-width="1.32789"/>
<path d="M54.5719 194.829V193.885L57.9105 188.612H58.6537V190H58.1821L55.7942 193.78V193.84H60.3701V194.829H54.5719ZM58.2349 196.337V194.542L58.2425 194.112V188.612H59.3478V196.337H58.2349ZM64.3745 196.466C63.7785 196.463 63.2692 196.306 62.8467 195.994C62.4242 195.682 62.101 195.228 61.8772 194.632C61.6534 194.036 61.5415 193.318 61.5415 192.478C61.5415 191.641 61.6534 190.925 61.8772 190.332C62.1035 189.738 62.428 189.286 62.8505 188.974C63.2755 188.662 63.7835 188.506 64.3745 188.506C64.9655 188.506 65.4723 188.663 65.8948 188.977C66.3173 189.289 66.6405 189.742 66.8643 190.336C67.0907 190.927 67.2038 191.641 67.2038 192.478C67.2038 193.321 67.0919 194.04 66.8681 194.636C66.6443 195.23 66.3211 195.684 65.8986 195.998C65.4761 196.31 64.9681 196.466 64.3745 196.466ZM64.3745 195.458C64.8976 195.458 65.3063 195.203 65.6006 194.693C65.8973 194.182 66.0457 193.444 66.0457 192.478C66.0457 191.837 65.9778 191.295 65.842 190.852C65.7087 190.407 65.5163 190.07 65.2648 189.841C65.0158 189.61 64.7191 189.494 64.3745 189.494C63.8539 189.494 63.4453 189.751 63.1485 190.264C62.8517 190.777 62.7021 191.515 62.6996 192.478C62.6996 193.122 62.7662 193.667 62.8995 194.112C63.0353 194.554 63.2277 194.89 63.4767 195.119C63.7257 195.345 64.025 195.458 64.3745 195.458ZM72.5748 194.889V194.481C72.5748 194.19 72.6352 193.923 72.7559 193.682C72.8791 193.438 73.0577 193.243 73.2916 193.097C73.528 192.949 73.8134 192.874 74.1479 192.874C74.4899 192.874 74.7766 192.947 75.008 193.093C75.2394 193.239 75.4142 193.434 75.5324 193.678C75.6531 193.922 75.7134 194.19 75.7134 194.481V194.889C75.7134 195.181 75.6531 195.448 75.5324 195.692C75.4117 195.934 75.2344 196.129 75.0005 196.277C74.7691 196.423 74.4849 196.496 74.1479 196.496C73.8084 196.496 73.5217 196.423 73.2878 196.277C73.0539 196.129 72.8766 195.934 72.7559 195.692C72.6352 195.448 72.5748 195.181 72.5748 194.889ZM73.4538 194.481V194.889C73.4538 195.105 73.5053 195.301 73.6084 195.477C73.7116 195.653 73.8914 195.741 74.1479 195.741C74.4019 195.741 74.5792 195.653 74.6798 195.477C74.7804 195.301 74.8307 195.105 74.8307 194.889V194.481C74.8307 194.265 74.7817 194.069 74.6836 193.893C74.588 193.717 74.4095 193.629 74.1479 193.629C73.8964 193.629 73.7178 193.717 73.6122 193.893C73.5066 194.069 73.4538 194.265 73.4538 194.481ZM68.6892 190.468V190.06C68.6892 189.768 68.7496 189.501 68.8703 189.257C68.9935 189.013 69.1721 188.818 69.406 188.672C69.6424 188.526 69.9278 188.453 70.2623 188.453C70.6043 188.453 70.8911 188.526 71.1224 188.672C71.3538 188.818 71.5286 189.013 71.6468 189.257C71.765 189.501 71.8241 189.768 71.8241 190.06V190.468C71.8241 190.759 71.7637 191.027 71.643 191.271C71.5248 191.513 71.3488 191.707 71.1149 191.856C70.8835 192.002 70.5993 192.075 70.2623 192.075C69.9203 192.075 69.6323 192.002 69.3984 191.856C69.1671 191.707 68.991 191.513 68.8703 191.271C68.7496 191.027 68.6892 190.759 68.6892 190.468ZM69.572 190.06V190.468C69.572 190.684 69.6223 190.88 69.7229 191.056C69.826 191.232 70.0058 191.32 70.2623 191.32C70.5138 191.32 70.6899 191.232 70.7905 191.056C70.8936 190.88 70.9451 190.684 70.9451 190.468V190.06C70.9451 189.844 70.8961 189.648 70.798 189.472C70.6999 189.296 70.5214 189.208 70.2623 189.208C70.0108 189.208 69.8323 189.296 69.7266 189.472C69.6235 189.648 69.572 189.844 69.572 190.06ZM69.0476 196.337L74.3592 188.612H75.2608L69.9492 196.337H69.0476Z" fill="white"/>
<path d="M84.5635 192.837H614.391" stroke="white" stroke-width="1.32789"/>
<path d="M55.1699 239.215V238.37L57.7841 235.661C58.0633 235.367 58.2934 235.109 58.4745 234.888C58.6581 234.664 58.7951 234.452 58.8857 234.25C58.9762 234.049 59.0215 233.836 59.0215 233.609C59.0215 233.353 58.9611 233.131 58.8404 232.945C58.7197 232.757 58.555 232.612 58.3462 232.511C58.1375 232.408 57.9023 232.357 57.6408 232.357C57.3641 232.357 57.1227 232.413 56.9165 232.526C56.7103 232.64 56.5518 232.799 56.4412 233.006C56.3305 233.212 56.2752 233.453 56.2752 233.73H55.1623C55.1623 233.26 55.2705 232.848 55.4867 232.496C55.703 232.144 55.9998 231.871 56.377 231.678C56.7543 231.482 57.1831 231.383 57.6634 231.383C58.1488 231.383 58.5763 231.48 58.946 231.674C59.3182 231.865 59.6087 232.127 59.8175 232.459C60.0262 232.788 60.1306 233.16 60.1306 233.575C60.1306 233.862 60.0765 234.142 59.9684 234.416C59.8627 234.691 59.6779 234.996 59.4138 235.333C59.1497 235.668 58.7826 236.074 58.3123 236.552L56.7769 238.159V238.215H60.2551V239.215H55.1699ZM64.3745 239.343C63.7785 239.341 63.2692 239.184 62.8467 238.872C62.4242 238.56 62.101 238.106 61.8772 237.51C61.6534 236.914 61.5415 236.196 61.5415 235.356C61.5415 234.518 61.6534 233.803 61.8772 233.209C62.1035 232.616 62.428 232.163 62.8505 231.851C63.2755 231.539 63.7835 231.383 64.3745 231.383C64.9655 231.383 65.4723 231.541 65.8948 231.855C66.3173 232.167 66.6405 232.62 66.8643 233.213C67.0907 233.804 67.2038 234.518 67.2038 235.356C67.2038 236.198 67.0919 236.918 66.8681 237.514C66.6443 238.107 66.3211 238.561 65.8986 238.875C65.4761 239.187 64.9681 239.343 64.3745 239.343ZM64.3745 238.336C64.8976 238.336 65.3063 238.081 65.6006 237.57C65.8973 237.06 66.0457 236.322 66.0457 235.356C66.0457 234.714 65.9778 234.173 65.842 233.73C65.7087 233.285 65.5163 232.948 65.2648 232.719C65.0158 232.488 64.7191 232.372 64.3745 232.372C63.8539 232.372 63.4453 232.628 63.1485 233.141C62.8517 233.654 62.7021 234.393 62.6996 235.356C62.6996 236 62.7662 236.544 62.8995 236.989C63.0353 237.432 63.2277 237.768 63.4767 237.996C63.7257 238.223 64.025 238.336 64.3745 238.336ZM72.5748 237.766V237.359C72.5748 237.067 72.6352 236.801 72.7559 236.559C72.8791 236.315 73.0577 236.12 73.2916 235.974C73.528 235.826 73.8134 235.752 74.1479 235.752C74.4899 235.752 74.7766 235.825 75.008 235.971C75.2394 236.117 75.4142 236.311 75.5324 236.555C75.6531 236.799 75.7134 237.067 75.7134 237.359V237.766C75.7134 238.058 75.6531 238.326 75.5324 238.57C75.4117 238.811 75.2344 239.006 75.0005 239.155C74.7691 239.3 74.4849 239.373 74.1479 239.373C73.8084 239.373 73.5217 239.3 73.2878 239.155C73.0539 239.006 72.8766 238.811 72.7559 238.57C72.6352 238.326 72.5748 238.058 72.5748 237.766ZM73.4538 237.359V237.766C73.4538 237.983 73.5053 238.179 73.6084 238.355C73.7116 238.531 73.8914 238.619 74.1479 238.619C74.4019 238.619 74.5792 238.531 74.6798 238.355C74.7804 238.179 74.8307 237.983 74.8307 237.766V237.359C74.8307 237.143 74.7817 236.946 74.6836 236.77C74.588 236.594 74.4095 236.506 74.1479 236.506C73.8964 236.506 73.7178 236.594 73.6122 236.77C73.5066 236.946 73.4538 237.143 73.4538 237.359ZM68.6892 233.345V232.938C68.6892 232.646 68.7496 232.378 68.8703 232.134C68.9935 231.89 69.1721 231.695 69.406 231.549C69.6424 231.404 69.9278 231.331 70.2623 231.331C70.6043 231.331 70.8911 231.404 71.1224 231.549C71.3538 231.695 71.5286 231.89 71.6468 232.134C71.765 232.378 71.8241 232.646 71.8241 232.938V233.345C71.8241 233.637 71.7637 233.905 71.643 234.149C71.5248 234.39 71.3488 234.585 71.1149 234.733C70.8835 234.879 70.5993 234.952 70.2623 234.952C69.9203 234.952 69.6323 234.879 69.3984 234.733C69.1671 234.585 68.991 234.39 68.8703 234.149C68.7496 233.905 68.6892 233.637 68.6892 233.345ZM69.572 232.938V233.345C69.572 233.561 69.6223 233.758 69.7229 233.934C69.826 234.11 70.0058 234.198 70.2623 234.198C70.5138 234.198 70.6899 234.11 70.7905 233.934C70.8936 233.758 70.9451 233.561 70.9451 233.345V232.938C70.9451 232.721 70.8961 232.525 70.798 232.349C70.6999 232.173 70.5214 232.085 70.2623 232.085C70.0108 232.085 69.8323 232.173 69.7266 232.349C69.6235 232.525 69.572 232.721 69.572 232.938ZM69.0476 239.215L74.3592 231.489H75.2608L69.9492 239.215H69.0476Z" fill="white"/>
<path d="M84.5635 235.715H614.391" stroke="white" stroke-width="1.32789"/>
<path d="M64.3745 282.221C63.7785 282.218 63.2692 282.061 62.8467 281.749C62.4242 281.437 62.101 280.983 61.8772 280.387C61.6534 279.791 61.5415 279.073 61.5415 278.233C61.5415 277.396 61.6534 276.68 61.8772 276.087C62.1035 275.493 62.428 275.041 62.8505 274.729C63.2755 274.417 63.7835 274.261 64.3745 274.261C64.9655 274.261 65.4723 274.418 65.8948 274.732C66.3173 275.044 66.6405 275.497 66.8643 276.091C67.0907 276.682 67.2038 277.396 67.2038 278.233C67.2038 279.076 67.0919 279.795 66.8681 280.391C66.6443 280.985 66.3211 281.439 65.8986 281.753C65.4761 282.065 64.9681 282.221 64.3745 282.221ZM64.3745 281.213C64.8976 281.213 65.3063 280.958 65.6006 280.448C65.8973 279.937 66.0457 279.199 66.0457 278.233C66.0457 277.592 65.9778 277.05 65.842 276.607C65.7087 276.162 65.5163 275.825 65.2648 275.596C65.0158 275.365 64.7191 275.249 64.3745 275.249C63.8539 275.249 63.4453 275.506 63.1485 276.019C62.8517 276.532 62.7021 277.27 62.6996 278.233C62.6996 278.877 62.7662 279.422 62.8995 279.867C63.0353 280.309 63.2277 280.645 63.4767 280.874C63.7257 281.1 64.025 281.213 64.3745 281.213ZM72.5748 280.644V280.236C72.5748 279.945 72.6352 279.678 72.7559 279.437C72.8791 279.193 73.0577 278.998 73.2916 278.852C73.528 278.704 73.8134 278.629 74.1479 278.629C74.4899 278.629 74.7766 278.702 75.008 278.848C75.2394 278.994 75.4142 279.189 75.5324 279.433C75.6531 279.677 75.7134 279.945 75.7134 280.236V280.644C75.7134 280.936 75.6531 281.203 75.5324 281.447C75.4117 281.689 75.2344 281.884 75.0005 282.032C74.7691 282.178 74.4849 282.251 74.1479 282.251C73.8084 282.251 73.5217 282.178 73.2878 282.032C73.0539 281.884 72.8766 281.689 72.7559 281.447C72.6352 281.203 72.5748 280.936 72.5748 280.644ZM73.4538 280.236V280.644C73.4538 280.86 73.5053 281.056 73.6084 281.232C73.7116 281.408 73.8914 281.496 74.1479 281.496C74.4019 281.496 74.5792 281.408 74.6798 281.232C74.7804 281.056 74.8307 280.86 74.8307 280.644V280.236C74.8307 280.02 74.7817 279.824 74.6836 279.648C74.588 279.472 74.4095 279.384 74.1479 279.384C73.8964 279.384 73.7178 279.472 73.6122 279.648C73.5066 279.824 73.4538 280.02 73.4538 280.236ZM68.6892 276.223V275.815C68.6892 275.523 68.7496 275.256 68.8703 275.012C68.9935 274.768 69.1721 274.573 69.406 274.427C69.6424 274.281 69.9278 274.208 70.2623 274.208C70.6043 274.208 70.8911 274.281 71.1224 274.427C71.3538 274.573 71.5286 274.768 71.6468 275.012C71.765 275.256 71.8241 275.523 71.8241 275.815V276.223C71.8241 276.514 71.7637 276.782 71.643 277.026C71.5248 277.267 71.3488 277.462 71.1149 277.611C70.8835 277.757 70.5993 277.83 70.2623 277.83C69.9203 277.83 69.6323 277.757 69.3984 277.611C69.1671 277.462 68.991 277.267 68.8703 277.026C68.7496 276.782 68.6892 276.514 68.6892 276.223ZM69.572 275.815V276.223C69.572 276.439 69.6223 276.635 69.7229 276.811C69.826 276.987 70.0058 277.075 70.2623 277.075C70.5138 277.075 70.6899 276.987 70.7905 276.811C70.8936 276.635 70.9451 276.439 70.9451 276.223V275.815C70.9451 275.599 70.8961 275.403 70.798 275.227C70.6999 275.051 70.5214 274.963 70.2623 274.963C70.0108 274.963 69.8323 275.051 69.7266 275.227C69.6235 275.403 69.572 275.599 69.572 275.815ZM69.0476 282.092L74.3592 274.367H75.2608L69.9492 282.092H69.0476Z" fill="white"/>
<path d="M84.5635 278.592H614.391" stroke="white" stroke-width="1.32789"/>
<path d="M333.612 120.469C330.414 121.361 179.353 187.722 127.709 243.686L118.162 243.686L83.9692 242.896L84.6332 280.049H614.46V75.0434C564.752 73.0239 417.601 91.6296 417.601 91.6296C376.861 97.0308 336.531 119.656 333.612 120.469Z" fill="#FFD92F"/>
<path d="M333.26 157.29C329.936 157.29 198.832 190.521 147.123 233.572L127.709 244.588L83.9692 243.531V280.048H614.46V136.829C564.689 135.276 419.016 143.612 419.016 143.612C378.225 147.767 346.91 157.29 333.26 157.29Z" fill="#71F596"/>
<path d="M83.9595 246.912V279.196V279.768H614.359V179.667C523.636 180.239 339.688 185.053 323.902 185.053C308.44 185.053 186.015 230.999 127.708 245.49L83.9595 246.912Z" fill="#EE7D31"/>
<path d="M83.9595 252.813V279.403V279.769H614.359V215.745C523.636 216.111 338.339 216.623 322.938 215.745C307.537 214.867 187.368 236.223 129.062 245.491L83.9595 252.813Z" fill="#5B9BD4"/>
<path d="M83.9692 245.732V279.054V279.384H614.46V221.648C523.721 221.978 338.393 222.44 322.989 221.648C307.586 220.856 187.102 237.374 128.785 245.732H83.9692Z" fill="#D68DEF"/>
<path d="M127.817 278.4H83.9692V280.05H614.46V243.08C532.523 242.42 360.077 241.496 325.796 243.08C291.515 244.665 179.526 267.287 127.817 278.4Z" fill="#A398EC"/>
<rect width="18.9429" height="8.11837" transform="matrix(1 0 0 -1 75.3779 380.241)" fill="#FFD92F"/>
<path d="M76.3485 401.869V393.142H81.82V394.276H77.6652V396.935H81.5345V398.064H77.6652V400.736H81.8712V401.869H76.3485ZM86.2338 402.001C85.6002 402.001 85.0548 401.858 84.5974 401.571C84.1428 401.281 83.7934 400.882 83.5491 400.374C83.3048 399.865 83.1826 399.283 83.1826 398.626C83.1826 397.962 83.3076 397.375 83.5576 396.867C83.8076 396.355 84.1599 395.956 84.6144 395.669C85.069 395.382 85.6045 395.239 86.221 395.239C86.7181 395.239 87.1613 395.331 87.5505 395.516C87.9397 395.698 88.2536 395.953 88.4923 396.283C88.7338 396.612 88.8772 396.997 88.9227 397.438H87.6826C87.6144 397.131 87.4582 396.867 87.2139 396.645C86.9724 396.423 86.6485 396.313 86.2423 396.313C85.8872 396.313 85.5761 396.406 85.309 396.594C85.0448 396.778 84.8389 397.043 84.6911 397.386C84.5434 397.727 84.4696 398.131 84.4696 398.597C84.4696 399.074 84.542 399.486 84.6869 399.832C84.8318 400.179 85.0363 400.448 85.3005 400.638C85.5676 400.828 85.8815 400.923 86.2423 400.923C86.4838 400.923 86.7025 400.879 86.8985 400.791C87.0974 400.7 87.2636 400.571 87.3971 400.403C87.5335 400.236 87.6286 400.034 87.6826 399.798H88.9227C88.8772 400.222 88.7394 400.599 88.5093 400.932C88.2792 401.264 87.971 401.526 87.5846 401.716C87.2011 401.906 86.7508 402.001 86.2338 402.001ZM93.0423 402.001C92.4287 402.001 91.8932 401.861 91.4358 401.58C90.9784 401.298 90.6233 400.905 90.3705 400.399C90.1176 399.894 89.9912 399.303 89.9912 398.626C89.9912 397.948 90.1176 397.354 90.3705 396.845C90.6233 396.337 90.9784 395.942 91.4358 395.661C91.8932 395.379 92.4287 395.239 93.0423 395.239C93.656 395.239 94.1915 395.379 94.6489 395.661C95.1063 395.942 95.4614 396.337 95.7142 396.845C95.9671 397.354 96.0935 397.948 96.0935 398.626C96.0935 399.303 95.9671 399.894 95.7142 400.399C95.4614 400.905 95.1063 401.298 94.6489 401.58C94.1915 401.861 93.656 402.001 93.0423 402.001ZM93.0466 400.932C93.4443 400.932 93.7739 400.827 94.0352 400.617C94.2966 400.406 94.4898 400.126 94.6148 399.777C94.7426 399.428 94.8066 399.043 94.8066 398.622C94.8066 398.205 94.7426 397.821 94.6148 397.472C94.4898 397.119 94.2966 396.837 94.0352 396.624C93.7739 396.411 93.4443 396.304 93.0466 396.304C92.646 396.304 92.3137 396.411 92.0495 396.624C91.7881 396.837 91.5935 397.119 91.4656 397.472C91.3406 397.821 91.2781 398.205 91.2781 398.622C91.2781 399.043 91.3406 399.428 91.4656 399.777C91.5935 400.126 91.7881 400.406 92.0495 400.617C92.3137 400.827 92.646 400.932 93.0466 400.932ZM102.421 396.922L101.266 397.126C101.217 396.979 101.141 396.838 101.036 396.705C100.933 396.571 100.794 396.462 100.618 396.376C100.442 396.291 100.222 396.249 99.9575 396.249C99.5967 396.249 99.2955 396.33 99.0541 396.492C98.8126 396.651 98.6918 396.857 98.6918 397.109C98.6918 397.328 98.7728 397.504 98.9347 397.638C99.0967 397.771 99.358 397.881 99.7188 397.966L100.759 398.205C101.361 398.344 101.81 398.558 102.105 398.848C102.401 399.138 102.548 399.514 102.548 399.977C102.548 400.369 102.435 400.719 102.207 401.026C101.983 401.33 101.669 401.568 101.266 401.742C100.865 401.915 100.401 402.001 99.8722 402.001C99.1393 402.001 98.5413 401.845 98.0782 401.533C97.6151 401.217 97.3311 400.77 97.2259 400.19L98.4575 400.003C98.5342 400.324 98.6919 400.567 98.9305 400.732C99.1691 400.894 99.4802 400.974 99.8637 400.974C100.281 400.974 100.615 400.888 100.865 400.715C101.115 400.538 101.24 400.324 101.24 400.071C101.24 399.867 101.163 399.695 101.01 399.555C100.859 399.416 100.628 399.311 100.315 399.24L99.2075 398.997C98.5967 398.858 98.145 398.636 97.8524 398.332C97.5626 398.028 97.4177 397.644 97.4177 397.178C97.4177 396.791 97.5257 396.453 97.7416 396.163C97.9575 395.874 98.2558 395.648 98.6365 395.486C99.0171 395.321 99.4532 395.239 99.9447 395.239C100.652 395.239 101.209 395.392 101.615 395.699C102.021 396.003 102.29 396.411 102.421 396.922ZM104.755 404.324C104.564 404.324 104.391 404.308 104.235 404.277C104.079 404.249 103.962 404.217 103.885 404.183L104.192 403.139C104.425 403.202 104.633 403.229 104.814 403.22C104.996 403.212 105.157 403.144 105.296 403.016C105.438 402.888 105.563 402.679 105.671 402.389L105.829 401.955L103.434 395.324H104.797L106.455 400.403H106.523L108.181 395.324H109.549L106.851 402.743C106.726 403.084 106.567 403.372 106.374 403.608C106.181 403.847 105.951 404.026 105.684 404.145C105.417 404.264 105.107 404.324 104.755 404.324ZM115.651 396.922L114.496 397.126C114.448 396.979 114.371 396.838 114.266 396.705C114.164 396.571 114.025 396.462 113.848 396.376C113.672 396.291 113.452 396.249 113.188 396.249C112.827 396.249 112.526 396.33 112.285 396.492C112.043 396.651 111.922 396.857 111.922 397.109C111.922 397.328 112.003 397.504 112.165 397.638C112.327 397.771 112.589 397.881 112.949 397.966L113.989 398.205C114.591 398.344 115.04 398.558 115.336 398.848C115.631 399.138 115.779 399.514 115.779 399.977C115.779 400.369 115.665 400.719 115.438 401.026C115.214 401.33 114.9 401.568 114.496 401.742C114.096 401.915 113.631 402.001 113.103 402.001C112.37 402.001 111.772 401.845 111.309 401.533C110.846 401.217 110.562 400.77 110.456 400.19L111.688 400.003C111.765 400.324 111.922 400.567 112.161 400.732C112.4 400.894 112.711 400.974 113.094 400.974C113.512 400.974 113.846 400.888 114.096 400.715C114.346 400.538 114.471 400.324 114.471 400.071C114.471 399.867 114.394 399.695 114.241 399.555C114.09 399.416 113.858 399.311 113.546 399.24L112.438 398.997C111.827 398.858 111.375 398.636 111.083 398.332C110.793 398.028 110.648 397.644 110.648 397.178C110.648 396.791 110.756 396.453 110.972 396.163C111.188 395.874 111.486 395.648 111.867 395.486C112.248 395.321 112.684 395.239 113.175 395.239C113.883 395.239 114.439 395.392 114.846 395.699C115.252 396.003 115.52 396.411 115.651 396.922ZM120.235 395.324V396.347H116.66V395.324H120.235ZM117.619 393.756H118.893V399.948C118.893 400.195 118.93 400.381 119.004 400.506C119.078 400.628 119.173 400.712 119.289 400.757C119.408 400.8 119.538 400.821 119.677 400.821C119.779 400.821 119.869 400.814 119.945 400.8C120.022 400.786 120.082 400.774 120.124 400.766L120.354 401.818C120.281 401.847 120.176 401.875 120.039 401.903C119.903 401.935 119.732 401.952 119.528 401.955C119.193 401.96 118.88 401.901 118.59 401.776C118.301 401.651 118.066 401.457 117.887 401.196C117.708 400.935 117.619 400.607 117.619 400.212V393.756ZM124.395 402.001C123.75 402.001 123.195 401.864 122.729 401.588C122.266 401.31 121.908 400.919 121.655 400.416C121.405 399.911 121.28 399.318 121.28 398.639C121.28 397.969 121.405 397.378 121.655 396.867C121.908 396.355 122.26 395.956 122.712 395.669C123.167 395.382 123.698 395.239 124.306 395.239C124.675 395.239 125.033 395.3 125.38 395.422C125.726 395.544 126.037 395.736 126.313 395.997C126.589 396.259 126.806 396.598 126.965 397.016C127.124 397.43 127.204 397.935 127.204 398.528V398.98H122V398.026H125.955C125.955 397.69 125.887 397.394 125.75 397.135C125.614 396.874 125.422 396.668 125.175 396.517C124.931 396.367 124.644 396.291 124.314 396.291C123.956 396.291 123.644 396.379 123.377 396.555C123.113 396.729 122.908 396.956 122.763 397.237C122.621 397.516 122.55 397.818 122.55 398.145V398.891C122.55 399.328 122.627 399.7 122.78 400.007C122.937 400.314 123.154 400.548 123.432 400.71C123.711 400.869 124.036 400.949 124.408 400.949C124.65 400.949 124.87 400.915 125.069 400.847C125.267 400.776 125.439 400.671 125.584 400.531C125.729 400.392 125.84 400.22 125.917 400.016L127.123 400.233C127.026 400.588 126.853 400.899 126.603 401.166C126.356 401.43 126.044 401.636 125.669 401.784C125.297 401.929 124.873 402.001 124.395 402.001ZM128.617 401.869V395.324H129.84V396.389H129.921C130.058 396.028 130.281 395.747 130.59 395.546C130.9 395.341 131.271 395.239 131.703 395.239C132.14 395.239 132.506 395.341 132.802 395.546C133.1 395.75 133.32 396.031 133.462 396.389H133.531C133.687 396.04 133.935 395.761 134.276 395.554C134.617 395.344 135.024 395.239 135.495 395.239C136.089 395.239 136.573 395.425 136.948 395.797C137.326 396.169 137.515 396.73 137.515 397.48V401.869H136.241V397.599C136.241 397.156 136.12 396.835 135.879 396.636C135.637 396.438 135.349 396.338 135.014 396.338C134.599 396.338 134.276 396.466 134.046 396.722C133.816 396.974 133.701 397.3 133.701 397.698V401.869H132.431V397.519C132.431 397.163 132.32 396.878 132.099 396.662C131.877 396.446 131.589 396.338 131.234 396.338C130.992 396.338 130.769 396.402 130.565 396.53C130.363 396.655 130.2 396.83 130.075 397.054C129.953 397.278 129.891 397.538 129.891 397.834V401.869H128.617Z" fill="#3F6091"/>
<rect width="18.9429" height="8.11837" transform="matrix(1 0 0 -1 160.027 380.241)" fill="#5B9BD4"/>
<path d="M162.074 401.869H160.677L163.817 393.142H165.339L168.479 401.869H167.082L164.614 394.727H164.546L162.074 401.869ZM162.309 398.452H166.843V399.56H162.309V398.452ZM171.982 401.997C171.454 401.997 170.982 401.862 170.567 401.592C170.155 401.32 169.832 400.932 169.596 400.429C169.363 399.923 169.246 399.317 169.246 398.609C169.246 397.902 169.364 397.297 169.6 396.794C169.839 396.291 170.165 395.906 170.58 395.639C170.995 395.372 171.465 395.239 171.991 395.239C172.397 395.239 172.724 395.307 172.971 395.443C173.221 395.577 173.414 395.733 173.55 395.912C173.689 396.091 173.797 396.249 173.874 396.385H173.951V393.142H175.225V401.869H173.981V400.851H173.874C173.797 400.99 173.687 401.149 173.542 401.328C173.4 401.507 173.204 401.663 172.954 401.797C172.704 401.93 172.38 401.997 171.982 401.997ZM172.263 400.911C172.63 400.911 172.939 400.814 173.192 400.621C173.448 400.425 173.641 400.153 173.772 399.807C173.905 399.46 173.972 399.057 173.972 398.597C173.972 398.142 173.907 397.744 173.776 397.403C173.645 397.063 173.454 396.797 173.201 396.607C172.948 396.416 172.636 396.321 172.263 396.321C171.88 396.321 171.56 396.421 171.305 396.619C171.049 396.818 170.856 397.09 170.725 397.433C170.597 397.777 170.533 398.165 170.533 398.597C170.533 399.034 170.599 399.428 170.729 399.777C170.86 400.126 171.053 400.403 171.309 400.608C171.567 400.81 171.886 400.911 172.263 400.911ZM182.643 395.324L180.269 401.869H178.906L176.528 395.324H177.896L179.553 400.361H179.622L181.275 395.324H182.643ZM183.84 401.869V395.324H185.115V401.869H183.84ZM184.484 394.314C184.262 394.314 184.072 394.24 183.913 394.092C183.757 393.942 183.678 393.763 183.678 393.555C183.678 393.345 183.757 393.166 183.913 393.019C184.072 392.868 184.262 392.793 184.484 392.793C184.705 392.793 184.894 392.868 185.051 393.019C185.21 393.166 185.289 393.345 185.289 393.555C185.289 393.763 185.21 393.942 185.051 394.092C184.894 394.24 184.705 394.314 184.484 394.314ZM191.734 396.922L190.579 397.126C190.53 396.979 190.454 396.838 190.349 396.705C190.246 396.571 190.107 396.462 189.931 396.376C189.755 396.291 189.535 396.249 189.27 396.249C188.91 396.249 188.609 396.33 188.367 396.492C188.126 396.651 188.005 396.857 188.005 397.109C188.005 397.328 188.086 397.504 188.248 397.638C188.41 397.771 188.671 397.881 189.032 397.966L190.072 398.205C190.674 398.344 191.123 398.558 191.418 398.848C191.714 399.138 191.861 399.514 191.861 399.977C191.861 400.369 191.748 400.719 191.52 401.026C191.296 401.33 190.982 401.568 190.579 401.742C190.178 401.915 189.714 402.001 189.185 402.001C188.452 402.001 187.854 401.845 187.391 401.533C186.928 401.217 186.644 400.77 186.539 400.19L187.77 400.003C187.847 400.324 188.005 400.567 188.243 400.732C188.482 400.894 188.793 400.974 189.177 400.974C189.594 400.974 189.928 400.888 190.178 400.715C190.428 400.538 190.553 400.324 190.553 400.071C190.553 399.867 190.476 399.695 190.323 399.555C190.172 399.416 189.941 399.311 189.628 399.24L188.52 398.997C187.91 398.858 187.458 398.636 187.165 398.332C186.876 398.028 186.731 397.644 186.731 397.178C186.731 396.791 186.839 396.453 187.055 396.163C187.27 395.874 187.569 395.648 187.949 395.486C188.33 395.321 188.766 395.239 189.258 395.239C189.965 395.239 190.522 395.392 190.928 395.699C191.334 396.003 191.603 396.411 191.734 396.922ZM196.019 402.001C195.406 402.001 194.87 401.861 194.413 401.58C193.955 401.298 193.6 400.905 193.348 400.399C193.095 399.894 192.968 399.303 192.968 398.626C192.968 397.948 193.095 397.354 193.348 396.845C193.6 396.337 193.955 395.942 194.413 395.661C194.87 395.379 195.406 395.239 196.019 395.239C196.633 395.239 197.169 395.379 197.626 395.661C198.083 395.942 198.438 396.337 198.691 396.845C198.944 397.354 199.071 397.948 199.071 398.626C199.071 399.303 198.944 399.894 198.691 400.399C198.438 400.905 198.083 401.298 197.626 401.58C197.169 401.861 196.633 402.001 196.019 402.001ZM196.024 400.932C196.421 400.932 196.751 400.827 197.012 400.617C197.274 400.406 197.467 400.126 197.592 399.777C197.72 399.428 197.784 399.043 197.784 398.622C197.784 398.205 197.72 397.821 197.592 397.472C197.467 397.119 197.274 396.837 197.012 396.624C196.751 396.411 196.421 396.304 196.024 396.304C195.623 396.304 195.291 396.411 195.027 396.624C194.765 396.837 194.571 397.119 194.443 397.472C194.318 397.821 194.255 398.205 194.255 398.622C194.255 399.043 194.318 399.428 194.443 399.777C194.571 400.126 194.765 400.406 195.027 400.617C195.291 400.827 195.623 400.932 196.024 400.932ZM200.493 401.869V395.324H201.724V396.364H201.792C201.912 396.011 202.122 395.734 202.423 395.533C202.727 395.328 203.071 395.226 203.454 395.226C203.534 395.226 203.628 395.229 203.736 395.234C203.846 395.24 203.933 395.247 203.996 395.256V396.474C203.944 396.46 203.854 396.445 203.723 396.428C203.592 396.408 203.462 396.398 203.331 396.398C203.03 396.398 202.761 396.462 202.525 396.59C202.292 396.715 202.108 396.889 201.971 397.114C201.835 397.335 201.767 397.588 201.767 397.872V401.869H200.493ZM210.003 396.922L208.848 397.126C208.8 396.979 208.723 396.838 208.618 396.705C208.516 396.571 208.377 396.462 208.201 396.376C208.024 396.291 207.804 396.249 207.54 396.249C207.179 396.249 206.878 396.33 206.637 396.492C206.395 396.651 206.274 396.857 206.274 397.109C206.274 397.328 206.355 397.504 206.517 397.638C206.679 397.771 206.941 397.881 207.301 397.966L208.341 398.205C208.943 398.344 209.392 398.558 209.688 398.848C209.983 399.138 210.131 399.514 210.131 399.977C210.131 400.369 210.017 400.719 209.79 401.026C209.566 401.33 209.252 401.568 208.848 401.742C208.448 401.915 207.983 402.001 207.455 402.001C206.722 402.001 206.124 401.845 205.661 401.533C205.198 401.217 204.914 400.77 204.808 400.19L206.04 400.003C206.117 400.324 206.274 400.567 206.513 400.732C206.752 400.894 207.063 400.974 207.446 400.974C207.864 400.974 208.198 400.888 208.448 400.715C208.698 400.538 208.823 400.324 208.823 400.071C208.823 399.867 208.746 399.695 208.593 399.555C208.442 399.416 208.21 399.311 207.898 399.24L206.79 398.997C206.179 398.858 205.727 398.636 205.435 398.332C205.145 398.028 205 397.644 205 397.178C205 396.791 205.108 396.453 205.324 396.163C205.54 395.874 205.838 395.648 206.219 395.486C206.6 395.321 207.036 395.239 207.527 395.239C208.235 395.239 208.791 395.392 209.198 395.699C209.604 396.003 209.872 396.411 210.003 396.922Z" fill="#3F6091"/>
<rect width="18.9429" height="8.11837" transform="matrix(1 0 0 -1 232.676 380.241)" fill="#D68DEF"/>
<path d="M233.53 394.276V393.142H240.285V394.276H237.562V401.869H236.249V394.276H233.53ZM243.547 402.001C242.902 402.001 242.346 401.864 241.881 401.588C241.417 401.31 241.059 400.919 240.807 400.416C240.557 399.911 240.432 399.318 240.432 398.639C240.432 397.969 240.557 397.378 240.807 396.867C241.059 396.355 241.412 395.956 241.863 395.669C242.318 395.382 242.849 395.239 243.457 395.239C243.827 395.239 244.184 395.3 244.531 395.422C244.878 395.544 245.189 395.736 245.464 395.997C245.74 396.259 245.957 396.598 246.116 397.016C246.275 397.43 246.355 397.935 246.355 398.528V398.98H241.152V398.026H245.106C245.106 397.69 245.038 397.394 244.902 397.135C244.765 396.874 244.574 396.668 244.327 396.517C244.082 396.367 243.795 396.291 243.466 396.291C243.108 396.291 242.795 396.379 242.528 396.555C242.264 396.729 242.059 396.956 241.915 397.237C241.773 397.516 241.702 397.818 241.702 398.145V398.891C241.702 399.328 241.778 399.7 241.932 400.007C242.088 400.314 242.305 400.548 242.584 400.71C242.862 400.869 243.187 400.949 243.559 400.949C243.801 400.949 244.021 400.915 244.22 400.847C244.419 400.776 244.591 400.671 244.736 400.531C244.881 400.392 244.991 400.22 245.068 400.016L246.274 400.233C246.177 400.588 246.004 400.899 245.754 401.166C245.507 401.43 245.196 401.636 244.821 401.784C244.449 401.929 244.024 402.001 243.547 402.001ZM249.673 402.014C249.259 402.014 248.884 401.938 248.548 401.784C248.213 401.628 247.948 401.402 247.752 401.107C247.558 400.811 247.462 400.449 247.462 400.02C247.462 399.651 247.533 399.347 247.675 399.108C247.817 398.869 248.009 398.68 248.25 398.541C248.492 398.402 248.762 398.297 249.06 398.226C249.358 398.155 249.662 398.101 249.972 398.064C250.364 398.019 250.682 397.982 250.926 397.953C251.171 397.922 251.348 397.872 251.459 397.804C251.57 397.736 251.625 397.625 251.625 397.472V397.442C251.625 397.07 251.52 396.781 251.31 396.577C251.102 396.372 250.793 396.27 250.381 396.27C249.952 396.27 249.614 396.365 249.367 396.555C249.122 396.743 248.953 396.952 248.86 397.182L247.662 396.909C247.804 396.511 248.012 396.19 248.284 395.946C248.56 395.699 248.877 395.52 249.235 395.409C249.593 395.296 249.969 395.239 250.364 395.239C250.625 395.239 250.902 395.27 251.195 395.332C251.49 395.392 251.766 395.503 252.021 395.665C252.28 395.827 252.492 396.058 252.656 396.359C252.821 396.658 252.904 397.046 252.904 397.523V401.869H251.659V400.974H251.608C251.526 401.139 251.402 401.301 251.237 401.46C251.073 401.619 250.861 401.751 250.602 401.857C250.344 401.962 250.034 402.014 249.673 402.014ZM249.95 400.992C250.303 400.992 250.604 400.922 250.854 400.783C251.107 400.644 251.298 400.462 251.429 400.237C251.563 400.01 251.629 399.767 251.629 399.509V398.665C251.584 398.71 251.496 398.753 251.365 398.793C251.237 398.83 251.091 398.862 250.926 398.891C250.762 398.916 250.601 398.94 250.445 398.963C250.289 398.983 250.158 399 250.053 399.014C249.806 399.046 249.58 399.098 249.375 399.172C249.173 399.246 249.012 399.352 248.889 399.492C248.77 399.628 248.71 399.81 248.71 400.037C248.71 400.352 248.827 400.591 249.06 400.753C249.293 400.912 249.59 400.992 249.95 400.992ZM254.601 401.869V395.324H255.824V396.389H255.905C256.041 396.028 256.264 395.747 256.574 395.546C256.883 395.341 257.254 395.239 257.686 395.239C258.123 395.239 258.49 395.341 258.785 395.546C259.084 395.75 259.304 396.031 259.446 396.389H259.514C259.67 396.04 259.919 395.761 260.26 395.554C260.601 395.344 261.007 395.239 261.479 395.239C262.072 395.239 262.557 395.425 262.932 395.797C263.309 396.169 263.498 396.73 263.498 397.48V401.869H262.224V397.599C262.224 397.156 262.104 396.835 261.862 396.636C261.621 396.438 261.332 396.338 260.997 396.338C260.582 396.338 260.26 396.466 260.03 396.722C259.8 396.974 259.684 397.3 259.684 397.698V401.869H258.415V397.519C258.415 397.163 258.304 396.878 258.082 396.662C257.861 396.446 257.572 396.338 257.217 396.338C256.976 396.338 256.753 396.402 256.548 396.53C256.346 396.655 256.183 396.83 256.058 397.054C255.936 397.278 255.875 397.538 255.875 397.834V401.869H254.601Z" fill="#3F6091"/>
<rect width="18.9429" height="8.11837" transform="matrix(1 0 0 -1 286.325 380.241)" fill="#A398EC"/>
<path d="M287.328 401.869V393.142H290.439C291.118 393.142 291.681 393.266 292.127 393.513C292.573 393.76 292.907 394.098 293.128 394.527C293.35 394.953 293.461 395.433 293.461 395.967C293.461 396.504 293.348 396.987 293.124 397.416C292.902 397.842 292.567 398.18 292.118 398.43C291.672 398.678 291.111 398.801 290.435 398.801H288.296V397.685H290.316C290.745 397.685 291.093 397.611 291.36 397.463C291.627 397.313 291.823 397.108 291.948 396.849C292.073 396.591 292.135 396.297 292.135 395.967C292.135 395.638 292.073 395.345 291.948 395.09C291.823 394.834 291.625 394.634 291.355 394.489C291.088 394.344 290.736 394.271 290.299 394.271H288.645V401.869H287.328ZM294.902 401.869V395.324H296.133V396.364H296.202C296.321 396.011 296.531 395.734 296.832 395.533C297.136 395.328 297.48 395.226 297.864 395.226C297.943 395.226 298.037 395.229 298.145 395.234C298.256 395.24 298.342 395.247 298.405 395.256V396.474C298.354 396.46 298.263 396.445 298.132 396.428C298.001 396.408 297.871 396.398 297.74 396.398C297.439 396.398 297.17 396.462 296.935 396.59C296.702 396.715 296.517 396.889 296.381 397.114C296.244 397.335 296.176 397.588 296.176 397.872V401.869H294.902ZM299.507 401.869V395.324H300.782V401.869H299.507ZM300.151 394.314C299.929 394.314 299.739 394.24 299.58 394.092C299.424 393.942 299.345 393.763 299.345 393.555C299.345 393.345 299.424 393.166 299.58 393.019C299.739 392.868 299.929 392.793 300.151 392.793C300.372 392.793 300.561 392.868 300.718 393.019C300.877 393.166 300.956 393.345 300.956 393.555C300.956 393.763 300.877 393.942 300.718 394.092C300.561 394.24 300.372 394.314 300.151 394.314ZM308.095 395.324L305.722 401.869H304.358L301.98 395.324H303.348L305.006 400.361H305.074L306.727 395.324H308.095ZM311.01 402.014C310.595 402.014 310.22 401.938 309.885 401.784C309.55 401.628 309.284 401.402 309.088 401.107C308.895 400.811 308.798 400.449 308.798 400.02C308.798 399.651 308.869 399.347 309.011 399.108C309.153 398.869 309.345 398.68 309.587 398.541C309.828 398.402 310.098 398.297 310.396 398.226C310.695 398.155 310.999 398.101 311.308 398.064C311.7 398.019 312.018 397.982 312.263 397.953C312.507 397.922 312.685 397.872 312.795 397.804C312.906 397.736 312.962 397.625 312.962 397.472V397.442C312.962 397.07 312.856 396.781 312.646 396.577C312.439 396.372 312.129 396.27 311.717 396.27C311.288 396.27 310.95 396.365 310.703 396.555C310.459 396.743 310.29 396.952 310.196 397.182L308.999 396.909C309.141 396.511 309.348 396.19 309.621 395.946C309.896 395.699 310.213 395.52 310.571 395.409C310.929 395.296 311.305 395.239 311.7 395.239C311.962 395.239 312.239 395.27 312.531 395.332C312.827 395.392 313.102 395.503 313.358 395.665C313.616 395.827 313.828 396.058 313.993 396.359C314.158 396.658 314.24 397.046 314.24 397.523V401.869H312.996V400.974H312.945C312.862 401.139 312.739 401.301 312.574 401.46C312.409 401.619 312.197 401.751 311.939 401.857C311.68 401.962 311.371 402.014 311.01 402.014ZM311.287 400.992C311.639 400.992 311.94 400.922 312.19 400.783C312.443 400.644 312.635 400.462 312.766 400.237C312.899 400.01 312.966 399.767 312.966 399.509V398.665C312.92 398.71 312.832 398.753 312.702 398.793C312.574 398.83 312.428 398.862 312.263 398.891C312.098 398.916 311.937 398.94 311.781 398.963C311.625 398.983 311.494 399 311.389 399.014C311.142 399.046 310.916 399.098 310.712 399.172C310.51 399.246 310.348 399.352 310.226 399.492C310.106 399.628 310.047 399.81 310.047 400.037C310.047 400.352 310.163 400.591 310.396 400.753C310.629 400.912 310.926 400.992 311.287 400.992ZM318.993 395.324V396.347H315.417V395.324H318.993ZM316.376 393.756H317.65V399.948C317.65 400.195 317.687 400.381 317.761 400.506C317.835 400.628 317.93 400.712 318.046 400.757C318.166 400.8 318.295 400.821 318.434 400.821C318.537 400.821 318.626 400.814 318.703 400.8C318.779 400.786 318.839 400.774 318.882 400.766L319.112 401.818C319.038 401.847 318.933 401.875 318.796 401.903C318.66 401.935 318.49 401.952 318.285 401.955C317.95 401.96 317.637 401.901 317.348 401.776C317.058 401.651 316.823 401.457 316.644 401.196C316.466 400.935 316.376 400.607 316.376 400.212V393.756ZM323.153 402.001C322.508 402.001 321.952 401.864 321.486 401.588C321.023 401.31 320.665 400.919 320.413 400.416C320.163 399.911 320.038 399.318 320.038 398.639C320.038 397.969 320.163 397.378 320.413 396.867C320.665 396.355 321.018 395.956 321.469 395.669C321.924 395.382 322.455 395.239 323.063 395.239C323.432 395.239 323.79 395.3 324.137 395.422C324.484 395.544 324.795 395.736 325.07 395.997C325.346 396.259 325.563 396.598 325.722 397.016C325.881 397.43 325.961 397.935 325.961 398.528V398.98H320.758V398.026H324.712C324.712 397.69 324.644 397.394 324.508 397.135C324.371 396.874 324.18 396.668 323.932 396.517C323.688 396.367 323.401 396.291 323.072 396.291C322.714 396.291 322.401 396.379 322.134 396.555C321.87 396.729 321.665 396.956 321.521 397.237C321.379 397.516 321.307 397.818 321.307 398.145V398.891C321.307 399.328 321.384 399.7 321.538 400.007C321.694 400.314 321.911 400.548 322.19 400.71C322.468 400.869 322.793 400.949 323.165 400.949C323.407 400.949 323.627 400.915 323.826 400.847C324.025 400.776 324.197 400.671 324.342 400.531C324.486 400.392 324.597 400.22 324.674 400.016L325.88 400.233C325.783 400.588 325.61 400.899 325.36 401.166C325.113 401.43 324.802 401.636 324.427 401.784C324.055 401.929 323.63 402.001 323.153 402.001ZM335.413 395.435C335.367 395.031 335.18 394.719 334.85 394.497C334.521 394.273 334.106 394.161 333.606 394.161C333.248 394.161 332.938 394.217 332.677 394.331C332.415 394.442 332.212 394.595 332.067 394.791C331.925 394.984 331.854 395.205 331.854 395.452C331.854 395.659 331.903 395.838 331.999 395.989C332.099 396.139 332.228 396.266 332.387 396.368C332.549 396.467 332.722 396.551 332.907 396.619C333.092 396.685 333.269 396.739 333.44 396.781L334.292 397.003C334.57 397.071 334.856 397.163 335.148 397.28C335.441 397.396 335.712 397.55 335.962 397.74C336.212 397.93 336.414 398.166 336.567 398.448C336.724 398.729 336.802 399.065 336.802 399.457C336.802 399.952 336.674 400.391 336.418 400.774C336.165 401.158 335.798 401.46 335.315 401.682C334.834 401.903 334.254 402.014 333.572 402.014C332.918 402.014 332.353 401.911 331.876 401.703C331.398 401.496 331.025 401.202 330.755 400.821C330.485 400.438 330.336 399.983 330.307 399.457H331.629C331.654 399.773 331.756 400.036 331.935 400.246C332.117 400.453 332.349 400.608 332.63 400.71C332.914 400.81 333.225 400.859 333.563 400.859C333.935 400.859 334.266 400.801 334.556 400.685C334.849 400.565 335.079 400.401 335.246 400.19C335.414 399.977 335.498 399.729 335.498 399.445C335.498 399.186 335.424 398.974 335.276 398.81C335.131 398.645 334.934 398.509 334.684 398.401C334.437 398.293 334.157 398.198 333.844 398.115L332.813 397.834C332.114 397.644 331.56 397.364 331.151 396.994C330.745 396.625 330.542 396.136 330.542 395.528C330.542 395.026 330.678 394.587 330.951 394.212C331.224 393.837 331.593 393.546 332.059 393.338C332.525 393.128 333.05 393.023 333.636 393.023C334.227 393.023 334.748 393.126 335.2 393.334C335.654 393.541 336.012 393.827 336.273 394.19C336.535 394.551 336.671 394.966 336.682 395.435H335.413ZM340.178 402.014C339.763 402.014 339.388 401.938 339.053 401.784C338.718 401.628 338.452 401.402 338.256 401.107C338.063 400.811 337.966 400.449 337.966 400.02C337.966 399.651 338.037 399.347 338.179 399.108C338.321 398.869 338.513 398.68 338.755 398.541C338.996 398.402 339.266 398.297 339.564 398.226C339.863 398.155 340.167 398.101 340.476 398.064C340.868 398.019 341.186 397.982 341.431 397.953C341.675 397.922 341.853 397.872 341.963 397.804C342.074 397.736 342.13 397.625 342.13 397.472V397.442C342.13 397.07 342.024 396.781 341.814 396.577C341.607 396.372 341.297 396.27 340.885 396.27C340.456 396.27 340.118 396.365 339.871 396.555C339.627 396.743 339.458 396.952 339.364 397.182L338.167 396.909C338.309 396.511 338.516 396.19 338.789 395.946C339.064 395.699 339.381 395.52 339.739 395.409C340.097 395.296 340.473 395.239 340.868 395.239C341.13 395.239 341.407 395.27 341.699 395.332C341.995 395.392 342.27 395.503 342.526 395.665C342.784 395.827 342.996 396.058 343.161 396.359C343.326 396.658 343.408 397.046 343.408 397.523V401.869H342.164V400.974H342.113C342.03 401.139 341.907 401.301 341.742 401.46C341.577 401.619 341.365 401.751 341.107 401.857C340.848 401.962 340.539 402.014 340.178 402.014ZM340.455 400.992C340.807 400.992 341.108 400.922 341.358 400.783C341.611 400.644 341.803 400.462 341.934 400.237C342.067 400.01 342.134 399.767 342.134 399.509V398.665C342.088 398.71 342 398.753 341.87 398.793C341.742 398.83 341.595 398.862 341.431 398.891C341.266 398.916 341.105 398.94 340.949 398.963C340.793 398.983 340.662 399 340.557 399.014C340.31 399.046 340.084 399.098 339.88 399.172C339.678 399.246 339.516 399.352 339.394 399.492C339.274 399.628 339.215 399.81 339.215 400.037C339.215 400.352 339.331 400.591 339.564 400.753C339.797 400.912 340.094 400.992 340.455 400.992ZM346.379 393.142V401.869H345.105V393.142H346.379ZM350.914 402.001C350.269 402.001 349.714 401.864 349.248 401.588C348.785 401.31 348.427 400.919 348.174 400.416C347.924 399.911 347.799 399.318 347.799 398.639C347.799 397.969 347.924 397.378 348.174 396.867C348.427 396.355 348.779 395.956 349.231 395.669C349.686 395.382 350.217 395.239 350.825 395.239C351.194 395.239 351.552 395.3 351.899 395.422C352.245 395.544 352.556 395.736 352.832 395.997C353.108 396.259 353.325 396.598 353.484 397.016C353.643 397.43 353.723 397.935 353.723 398.528V398.98H348.519V398.026H352.474C352.474 397.69 352.406 397.394 352.269 397.135C352.133 396.874 351.941 396.668 351.694 396.517C351.45 396.367 351.163 396.291 350.833 396.291C350.475 396.291 350.163 396.379 349.896 396.555C349.632 396.729 349.427 396.956 349.282 397.237C349.14 397.516 349.069 397.818 349.069 398.145V398.891C349.069 399.328 349.146 399.7 349.299 400.007C349.456 400.314 349.673 400.548 349.951 400.71C350.23 400.869 350.555 400.949 350.927 400.949C351.169 400.949 351.389 400.915 351.588 400.847C351.787 400.776 351.958 400.671 352.103 400.531C352.248 400.392 352.359 400.22 352.436 400.016L353.642 400.233C353.545 400.588 353.372 400.899 353.122 401.166C352.875 401.43 352.564 401.636 352.189 401.784C351.816 401.929 351.392 402.001 350.914 402.001Z" fill="#3F6091"/>
<rect width="18.9429" height="8.11837" transform="matrix(1 0 0 -1 375.974 380.241)" fill="#EE7D31"/>
<path d="M378.115 393.142L380.544 400.25H380.642L383.071 393.142H384.494L381.354 401.869H379.832L376.692 393.142H378.115ZM387.817 402.001C387.172 402.001 386.617 401.864 386.151 401.588C385.688 401.31 385.33 400.919 385.077 400.416C384.827 399.911 384.702 399.318 384.702 398.639C384.702 397.969 384.827 397.378 385.077 396.867C385.33 396.355 385.682 395.956 386.134 395.669C386.589 395.382 387.12 395.239 387.728 395.239C388.097 395.239 388.455 395.3 388.802 395.422C389.148 395.544 389.459 395.736 389.735 395.997C390.01 396.259 390.228 396.598 390.387 397.016C390.546 397.43 390.625 397.935 390.625 398.528V398.98H385.422V398.026H389.377C389.377 397.69 389.309 397.394 389.172 397.135C389.036 396.874 388.844 396.668 388.597 396.517C388.353 396.367 388.066 396.291 387.736 396.291C387.378 396.291 387.066 396.379 386.799 396.555C386.535 396.729 386.33 396.956 386.185 397.237C386.043 397.516 385.972 397.818 385.972 398.145V398.891C385.972 399.328 386.049 399.7 386.202 400.007C386.358 400.314 386.576 400.548 386.854 400.71C387.133 400.869 387.458 400.949 387.83 400.949C388.071 400.949 388.292 400.915 388.491 400.847C388.689 400.776 388.861 400.671 389.006 400.531C389.151 400.392 389.262 400.22 389.339 400.016L390.544 400.233C390.448 400.588 390.275 400.899 390.025 401.166C389.777 401.43 389.466 401.636 389.091 401.784C388.719 401.929 388.294 402.001 387.817 402.001ZM393.313 397.983V401.869H392.039V395.324H393.262V396.389H393.343C393.494 396.043 393.729 395.764 394.051 395.554C394.374 395.344 394.782 395.239 395.274 395.239C395.72 395.239 396.11 395.332 396.445 395.52C396.781 395.705 397.041 395.98 397.225 396.347C397.41 396.713 397.502 397.166 397.502 397.706V401.869H396.228V397.859C396.228 397.385 396.104 397.014 395.857 396.747C395.61 396.477 395.271 396.342 394.839 396.342C394.543 396.342 394.281 396.406 394.051 396.534C393.823 396.662 393.643 396.849 393.509 397.097C393.379 397.341 393.313 397.636 393.313 397.983ZM402.266 395.324V396.347H398.691V395.324H402.266ZM399.65 393.756H400.924V399.948C400.924 400.195 400.961 400.381 401.035 400.506C401.109 400.628 401.204 400.712 401.32 400.757C401.44 400.8 401.569 400.821 401.708 400.821C401.81 400.821 401.9 400.814 401.977 400.8C402.053 400.786 402.113 400.774 402.156 400.766L402.386 401.818C402.312 401.847 402.207 401.875 402.07 401.903C401.934 401.935 401.764 401.952 401.559 401.955C401.224 401.96 400.911 401.901 400.622 401.776C400.332 401.651 400.097 401.457 399.918 401.196C399.739 400.935 399.65 400.607 399.65 400.212V393.756ZM407.822 399.155V395.324H409.101V401.869H407.848V400.736H407.78C407.629 401.085 407.388 401.376 407.055 401.609C406.726 401.84 406.315 401.955 405.824 401.955C405.403 401.955 405.031 401.862 404.707 401.678C404.386 401.49 404.133 401.213 403.949 400.847C403.767 400.48 403.676 400.027 403.676 399.487V395.324H404.95V399.334C404.95 399.78 405.074 400.135 405.321 400.399C405.568 400.663 405.889 400.796 406.284 400.796C406.522 400.796 406.76 400.736 406.995 400.617C407.234 400.497 407.432 400.317 407.588 400.075C407.747 399.834 407.825 399.527 407.822 399.155ZM410.813 401.869V395.324H412.044V396.364H412.112C412.232 396.011 412.442 395.734 412.743 395.533C413.047 395.328 413.391 395.226 413.774 395.226C413.854 395.226 413.948 395.229 414.055 395.234C414.166 395.24 414.253 395.247 414.315 395.256V396.474C414.264 396.46 414.173 396.445 414.043 396.428C413.912 396.408 413.781 396.398 413.651 396.398C413.35 396.398 413.081 396.462 412.845 396.59C412.612 396.715 412.428 396.889 412.291 397.114C412.155 397.335 412.087 397.588 412.087 397.872V401.869H410.813ZM418.005 402.001C417.36 402.001 416.804 401.864 416.339 401.588C415.875 401.31 415.517 400.919 415.265 400.416C415.015 399.911 414.89 399.318 414.89 398.639C414.89 397.969 415.015 397.378 415.265 396.867C415.517 396.355 415.87 395.956 416.321 395.669C416.776 395.382 417.307 395.239 417.915 395.239C418.285 395.239 418.642 395.3 418.989 395.422C419.336 395.544 419.647 395.736 419.922 395.997C420.198 396.259 420.415 396.598 420.574 397.016C420.733 397.43 420.813 397.935 420.813 398.528V398.98H415.61V398.026H419.564C419.564 397.69 419.496 397.394 419.36 397.135C419.223 396.874 419.032 396.668 418.785 396.517C418.54 396.367 418.253 396.291 417.924 396.291C417.566 396.291 417.253 396.379 416.986 396.555C416.722 396.729 416.517 396.956 416.373 397.237C416.231 397.516 416.16 397.818 416.16 398.145V398.891C416.16 399.328 416.236 399.7 416.39 400.007C416.546 400.314 416.763 400.548 417.042 400.71C417.32 400.869 417.645 400.949 418.017 400.949C418.259 400.949 418.479 400.915 418.678 400.847C418.877 400.776 419.049 400.671 419.194 400.531C419.339 400.392 419.449 400.22 419.526 400.016L420.732 400.233C420.635 400.588 420.462 400.899 420.212 401.166C419.965 401.43 419.654 401.636 419.279 401.784C418.907 401.929 418.482 402.001 418.005 402.001ZM425.505 401.869V393.142H430.917V394.276H426.821V396.935H430.529V398.064H426.821V401.869H425.505ZM436.17 399.155V395.324H437.448V401.869H436.195V400.736H436.127C435.977 401.085 435.735 401.376 435.403 401.609C435.073 401.84 434.663 401.955 434.171 401.955C433.751 401.955 433.379 401.862 433.055 401.678C432.734 401.49 432.481 401.213 432.296 400.847C432.114 400.48 432.024 400.027 432.024 399.487V395.324H433.298V399.334C433.298 399.78 433.421 400.135 433.668 400.399C433.916 400.663 434.237 400.796 434.631 400.796C434.87 400.796 435.107 400.736 435.343 400.617C435.582 400.497 435.779 400.317 435.935 400.075C436.095 399.834 436.173 399.527 436.17 399.155ZM440.434 397.983V401.869H439.16V395.324H440.383V396.389H440.464C440.615 396.043 440.851 395.764 441.172 395.554C441.495 395.344 441.903 395.239 442.395 395.239C442.841 395.239 443.231 395.332 443.566 395.52C443.902 395.705 444.162 395.98 444.346 396.347C444.531 396.713 444.623 397.166 444.623 397.706V401.869H443.349V397.859C443.349 397.385 443.226 397.014 442.978 396.747C442.731 396.477 442.392 396.342 441.96 396.342C441.665 396.342 441.402 396.406 441.172 396.534C440.944 396.662 440.764 396.849 440.63 397.097C440.5 397.341 440.434 397.636 440.434 397.983ZM448.782 401.997C448.254 401.997 447.782 401.862 447.368 401.592C446.956 401.32 446.632 400.932 446.396 400.429C446.163 399.923 446.047 399.317 446.047 398.609C446.047 397.902 446.165 397.297 446.4 396.794C446.639 396.291 446.966 395.906 447.38 395.639C447.795 395.372 448.265 395.239 448.791 395.239C449.197 395.239 449.524 395.307 449.771 395.443C450.021 395.577 450.214 395.733 450.351 395.912C450.49 396.091 450.598 396.249 450.674 396.385H450.751V393.142H452.025V401.869H450.781V400.851H450.674C450.598 400.99 450.487 401.149 450.342 401.328C450.2 401.507 450.004 401.663 449.754 401.797C449.504 401.93 449.18 401.997 448.782 401.997ZM449.064 400.911C449.43 400.911 449.74 400.814 449.993 400.621C450.248 400.425 450.441 400.153 450.572 399.807C450.706 399.46 450.772 399.057 450.772 398.597C450.772 398.142 450.707 397.744 450.576 397.403C450.446 397.063 450.254 396.797 450.001 396.607C449.748 396.416 449.436 396.321 449.064 396.321C448.68 396.321 448.361 396.421 448.105 396.619C447.849 396.818 447.656 397.09 447.525 397.433C447.397 397.777 447.334 398.165 447.334 398.597C447.334 399.034 447.399 399.428 447.53 399.777C447.66 400.126 447.853 400.403 448.109 400.608C448.368 400.81 448.686 400.911 449.064 400.911ZM453.844 401.869V395.324H455.118V401.869H453.844ZM454.487 394.314C454.266 394.314 454.075 394.24 453.916 394.092C453.76 393.942 453.682 393.763 453.682 393.555C453.682 393.345 453.76 393.166 453.916 393.019C454.075 392.868 454.266 392.793 454.487 392.793C454.709 392.793 454.898 392.868 455.054 393.019C455.213 393.166 455.293 393.345 455.293 393.555C455.293 393.763 455.213 393.942 455.054 394.092C454.898 394.24 454.709 394.314 454.487 394.314ZM458.106 397.983V401.869H456.832V395.324H458.055V396.389H458.136C458.287 396.043 458.522 395.764 458.843 395.554C459.167 395.344 459.575 395.239 460.066 395.239C460.513 395.239 460.903 395.332 461.238 395.52C461.574 395.705 461.834 395.98 462.018 396.347C462.203 396.713 462.295 397.166 462.295 397.706V401.869H461.021V397.859C461.021 397.385 460.897 397.014 460.65 396.747C460.403 396.477 460.064 396.342 459.632 396.342C459.336 396.342 459.074 396.406 458.843 396.534C458.616 396.662 458.436 396.849 458.302 397.097C458.172 397.341 458.106 397.636 458.106 397.983ZM466.748 404.46C466.228 404.46 465.781 404.392 465.406 404.256C465.034 404.119 464.73 403.939 464.494 403.715C464.258 403.49 464.082 403.244 463.966 402.977L465.061 402.526C465.138 402.651 465.24 402.783 465.368 402.922C465.498 403.064 465.674 403.185 465.896 403.284C466.12 403.384 466.409 403.433 466.761 403.433C467.244 403.433 467.643 403.315 467.959 403.08C468.274 402.847 468.432 402.474 468.432 401.963V400.676H468.351C468.274 400.815 468.163 400.97 468.018 401.141C467.876 401.311 467.68 401.459 467.43 401.584C467.18 401.709 466.855 401.771 466.454 401.771C465.937 401.771 465.471 401.651 465.057 401.409C464.645 401.165 464.318 400.805 464.076 400.331C463.838 399.854 463.718 399.267 463.718 398.571C463.718 397.875 463.836 397.278 464.072 396.781C464.311 396.284 464.638 395.903 465.052 395.639C465.467 395.372 465.937 395.239 466.463 395.239C466.869 395.239 467.197 395.307 467.447 395.443C467.697 395.577 467.892 395.733 468.031 395.912C468.173 396.091 468.282 396.249 468.359 396.385H468.453V395.324H469.701V402.014C469.701 402.577 469.571 403.038 469.309 403.399C469.048 403.76 468.694 404.027 468.248 404.2C467.805 404.374 467.305 404.46 466.748 404.46ZM466.736 400.715C467.102 400.715 467.412 400.629 467.665 400.459C467.92 400.286 468.113 400.038 468.244 399.717C468.378 399.394 468.444 399.006 468.444 398.554C468.444 398.114 468.379 397.726 468.248 397.391C468.118 397.055 467.926 396.794 467.673 396.607C467.42 396.416 467.108 396.321 466.736 396.321C466.352 396.321 466.032 396.421 465.777 396.619C465.521 396.815 465.328 397.082 465.197 397.421C465.069 397.759 465.005 398.136 465.005 398.554C465.005 398.983 465.071 399.359 465.201 399.683C465.332 400.007 465.525 400.26 465.781 400.442C466.04 400.624 466.358 400.715 466.736 400.715Z" fill="#3F6091"/>
<rect width="18.9429" height="8.11837" transform="matrix(1 0 0 -1 492.623 380.241)" fill="#71F596"/>
<path d="M494.628 401.869H493.23L496.371 393.142H497.892L501.032 401.869H499.635L497.167 394.727H497.099L494.628 401.869ZM494.862 398.452H499.396V399.56H494.862V398.452ZM502.249 401.869V395.324H503.523V401.869H502.249ZM502.893 394.314C502.671 394.314 502.481 394.24 502.322 394.092C502.165 393.942 502.087 393.763 502.087 393.555C502.087 393.345 502.165 393.166 502.322 393.019C502.481 392.868 502.671 392.793 502.893 392.793C503.114 392.793 503.303 392.868 503.459 393.019C503.618 393.166 503.698 393.345 503.698 393.555C503.698 393.763 503.618 393.942 503.459 394.092C503.303 394.24 503.114 394.314 502.893 394.314ZM505.237 401.869V395.324H506.469V396.364H506.537C506.656 396.011 506.867 395.734 507.168 395.533C507.472 395.328 507.816 395.226 508.199 395.226C508.279 395.226 508.372 395.229 508.48 395.234C508.591 395.24 508.678 395.247 508.74 395.256V396.474C508.689 396.46 508.598 396.445 508.468 396.428C508.337 396.408 508.206 396.398 508.075 396.398C507.774 396.398 507.506 396.462 507.27 396.59C507.037 396.715 506.852 396.889 506.716 397.114C506.58 397.335 506.512 397.588 506.512 397.872V401.869H505.237ZM512.059 401.997C511.53 401.997 511.059 401.862 510.644 401.592C510.232 401.32 509.908 400.932 509.672 400.429C509.439 399.923 509.323 399.317 509.323 398.609C509.323 397.902 509.441 397.297 509.677 396.794C509.915 396.291 510.242 395.906 510.657 395.639C511.072 395.372 511.542 395.239 512.067 395.239C512.474 395.239 512.8 395.307 513.047 395.443C513.297 395.577 513.491 395.733 513.627 395.912C513.766 396.091 513.874 396.249 513.951 396.385H514.028V393.142H515.302V401.869H514.057V400.851H513.951C513.874 400.99 513.763 401.149 513.618 401.328C513.476 401.507 513.28 401.663 513.03 401.797C512.78 401.93 512.457 401.997 512.059 401.997ZM512.34 400.911C512.707 400.911 513.016 400.814 513.269 400.621C513.525 400.425 513.718 400.153 513.849 399.807C513.982 399.46 514.049 399.057 514.049 398.597C514.049 398.142 513.983 397.744 513.853 397.403C513.722 397.063 513.53 396.797 513.278 396.607C513.025 396.416 512.712 396.321 512.34 396.321C511.957 396.321 511.637 396.421 511.381 396.619C511.126 396.818 510.932 397.09 510.802 397.433C510.674 397.777 510.61 398.165 510.61 398.597C510.61 399.034 510.675 399.428 510.806 399.777C510.937 400.126 511.13 400.403 511.385 400.608C511.644 400.81 511.962 400.911 512.34 400.911ZM517.12 401.869V395.324H518.352V396.364H518.42C518.539 396.011 518.749 395.734 519.051 395.533C519.355 395.328 519.698 395.226 520.082 395.226C520.161 395.226 520.255 395.229 520.363 395.234C520.474 395.24 520.561 395.247 520.623 395.256V396.474C520.572 396.46 520.481 396.445 520.35 396.428C520.22 396.408 520.089 396.398 519.958 396.398C519.657 396.398 519.389 396.462 519.153 396.59C518.92 396.715 518.735 396.889 518.599 397.114C518.463 397.335 518.394 397.588 518.394 397.872V401.869H517.12ZM524.248 402.001C523.635 402.001 523.099 401.861 522.642 401.58C522.184 401.298 521.829 400.905 521.577 400.399C521.324 399.894 521.197 399.303 521.197 398.626C521.197 397.948 521.324 397.354 521.577 396.845C521.829 396.337 522.184 395.942 522.642 395.661C523.099 395.379 523.635 395.239 524.248 395.239C524.862 395.239 525.398 395.379 525.855 395.661C526.312 395.942 526.667 396.337 526.92 396.845C527.173 397.354 527.3 397.948 527.3 398.626C527.3 399.303 527.173 399.894 526.92 400.399C526.667 400.905 526.312 401.298 525.855 401.58C525.398 401.861 524.862 402.001 524.248 402.001ZM524.253 400.932C524.65 400.932 524.98 400.827 525.241 400.617C525.503 400.406 525.696 400.126 525.821 399.777C525.949 399.428 526.013 399.043 526.013 398.622C526.013 398.205 525.949 397.821 525.821 397.472C525.696 397.119 525.503 396.837 525.241 396.624C524.98 396.411 524.65 396.304 524.253 396.304C523.852 396.304 523.52 396.411 523.256 396.624C522.994 396.837 522.8 397.119 522.672 397.472C522.547 397.821 522.484 398.205 522.484 398.622C522.484 399.043 522.547 399.428 522.672 399.777C522.8 400.126 522.994 400.406 523.256 400.617C523.52 400.827 523.852 400.932 524.253 400.932ZM528.722 404.324V395.324H529.966V396.385H530.073C530.146 396.249 530.253 396.091 530.392 395.912C530.531 395.733 530.725 395.577 530.972 395.443C531.219 395.307 531.546 395.239 531.952 395.239C532.48 395.239 532.952 395.372 533.367 395.639C533.781 395.906 534.107 396.291 534.343 396.794C534.581 397.297 534.7 397.902 534.7 398.609C534.7 399.317 534.583 399.923 534.347 400.429C534.111 400.932 533.787 401.32 533.375 401.592C532.963 401.862 532.493 401.997 531.965 401.997C531.567 401.997 531.242 401.93 530.989 401.797C530.739 401.663 530.543 401.507 530.401 401.328C530.259 401.149 530.149 400.99 530.073 400.851H529.996V404.324H528.722ZM529.97 398.597C529.97 399.057 530.037 399.46 530.171 399.807C530.304 400.153 530.497 400.425 530.75 400.621C531.003 400.814 531.313 400.911 531.679 400.911C532.06 400.911 532.378 400.81 532.634 400.608C532.889 400.403 533.083 400.126 533.213 399.777C533.347 399.428 533.414 399.034 533.414 398.597C533.414 398.165 533.348 397.777 533.218 397.433C533.09 397.09 532.896 396.818 532.638 396.619C532.382 396.421 532.063 396.321 531.679 396.321C531.31 396.321 530.997 396.416 530.742 396.607C530.489 396.797 530.297 397.063 530.166 397.403C530.036 397.744 529.97 398.142 529.97 398.597ZM544.166 395.435C544.121 395.031 543.933 394.719 543.604 394.497C543.274 394.273 542.859 394.161 542.359 394.161C542.001 394.161 541.692 394.217 541.43 394.331C541.169 394.442 540.966 394.595 540.821 394.791C540.679 394.984 540.608 395.205 540.608 395.452C540.608 395.659 540.656 395.838 540.753 395.989C540.852 396.139 540.981 396.266 541.14 396.368C541.302 396.467 541.476 396.551 541.66 396.619C541.845 396.685 542.023 396.739 542.193 396.781L543.045 397.003C543.324 397.071 543.609 397.163 543.902 397.28C544.194 397.396 544.466 397.55 544.716 397.74C544.966 397.93 545.167 398.166 545.321 398.448C545.477 398.729 545.555 399.065 545.555 399.457C545.555 399.952 545.427 400.391 545.172 400.774C544.919 401.158 544.551 401.46 544.068 401.682C543.588 401.903 543.007 402.014 542.325 402.014C541.672 402.014 541.106 401.911 540.629 401.703C540.152 401.496 539.778 401.202 539.508 400.821C539.238 400.438 539.089 399.983 539.061 399.457H540.382C540.407 399.773 540.51 400.036 540.689 400.246C540.871 400.453 541.102 400.608 541.383 400.71C541.667 400.81 541.979 400.859 542.317 400.859C542.689 400.859 543.02 400.801 543.309 400.685C543.602 400.565 543.832 400.401 544 400.19C544.167 399.977 544.251 399.729 544.251 399.445C544.251 399.186 544.177 398.974 544.03 398.81C543.885 398.645 543.687 398.509 543.437 398.401C543.19 398.293 542.91 398.198 542.598 398.115L541.567 397.834C540.868 397.644 540.314 397.364 539.905 396.994C539.498 396.625 539.295 396.136 539.295 395.528C539.295 395.026 539.432 394.587 539.704 394.212C539.977 393.837 540.346 393.546 540.812 393.338C541.278 393.128 541.804 393.023 542.389 393.023C542.98 393.023 543.501 393.126 543.953 393.334C544.407 393.541 544.765 393.827 545.027 394.19C545.288 394.551 545.425 394.966 545.436 395.435H544.166ZM549.847 402.001C549.203 402.001 548.647 401.864 548.181 401.588C547.718 401.31 547.36 400.919 547.107 400.416C546.857 399.911 546.732 399.318 546.732 398.639C546.732 397.969 546.857 397.378 547.107 396.867C547.36 396.355 547.713 395.956 548.164 395.669C548.619 395.382 549.15 395.239 549.758 395.239C550.127 395.239 550.485 395.3 550.832 395.422C551.178 395.544 551.49 395.736 551.765 395.997C552.041 396.259 552.258 396.598 552.417 397.016C552.576 397.43 552.656 397.935 552.656 398.528V398.98H547.453V398.026H551.407C551.407 397.69 551.339 397.394 551.203 397.135C551.066 396.874 550.874 396.668 550.627 396.517C550.383 396.367 550.096 396.291 549.767 396.291C549.409 396.291 549.096 396.379 548.829 396.555C548.565 396.729 548.36 396.956 548.215 397.237C548.073 397.516 548.002 397.818 548.002 398.145V398.891C548.002 399.328 548.079 399.7 548.232 400.007C548.389 400.314 548.606 400.548 548.884 400.71C549.163 400.869 549.488 400.949 549.86 400.949C550.102 400.949 550.322 400.915 550.521 400.847C550.72 400.776 550.892 400.671 551.036 400.531C551.181 400.392 551.292 400.22 551.369 400.016L552.575 400.233C552.478 400.588 552.305 400.899 552.055 401.166C551.808 401.43 551.497 401.636 551.122 401.784C550.749 401.929 550.325 402.001 549.847 402.001ZM555.974 402.014C555.559 402.014 555.184 401.938 554.849 401.784C554.514 401.628 554.248 401.402 554.052 401.107C553.859 400.811 553.763 400.449 553.763 400.02C553.763 399.651 553.834 399.347 553.976 399.108C554.118 398.869 554.309 398.68 554.551 398.541C554.792 398.402 555.062 398.297 555.361 398.226C555.659 398.155 555.963 398.101 556.273 398.064C556.665 398.019 556.983 397.982 557.227 397.953C557.471 397.922 557.649 397.872 557.76 397.804C557.871 397.736 557.926 397.625 557.926 397.472V397.442C557.926 397.07 557.821 396.781 557.611 396.577C557.403 396.372 557.094 396.27 556.682 396.27C556.253 396.27 555.915 396.365 555.667 396.555C555.423 396.743 555.254 396.952 555.16 397.182L553.963 396.909C554.105 396.511 554.312 396.19 554.585 395.946C554.861 395.699 555.177 395.52 555.535 395.409C555.893 395.296 556.27 395.239 556.665 395.239C556.926 395.239 557.203 395.27 557.496 395.332C557.791 395.392 558.067 395.503 558.322 395.665C558.581 395.827 558.792 396.058 558.957 396.359C559.122 396.658 559.204 397.046 559.204 397.523V401.869H557.96V400.974H557.909C557.827 401.139 557.703 401.301 557.538 401.46C557.373 401.619 557.162 401.751 556.903 401.857C556.645 401.962 556.335 402.014 555.974 402.014ZM556.251 400.992C556.604 400.992 556.905 400.922 557.155 400.783C557.407 400.644 557.599 400.462 557.73 400.237C557.863 400.01 557.93 399.767 557.93 399.509V398.665C557.885 398.71 557.797 398.753 557.666 398.793C557.538 398.83 557.392 398.862 557.227 398.891C557.062 398.916 556.902 398.94 556.746 398.963C556.589 398.983 556.459 399 556.354 399.014C556.106 399.046 555.881 399.098 555.676 399.172C555.474 399.246 555.312 399.352 555.19 399.492C555.071 399.628 555.011 399.81 555.011 400.037C555.011 400.352 555.128 400.591 555.361 400.753C555.594 400.912 555.89 400.992 556.251 400.992ZM565.806 396.922L564.651 397.126C564.603 396.979 564.526 396.838 564.421 396.705C564.319 396.571 564.18 396.462 564.004 396.376C563.828 396.291 563.607 396.249 563.343 396.249C562.982 396.249 562.681 396.33 562.44 396.492C562.198 396.651 562.078 396.857 562.078 397.109C562.078 397.328 562.159 397.504 562.32 397.638C562.482 397.771 562.744 397.881 563.105 397.966L564.144 398.205C564.747 398.344 565.195 398.558 565.491 398.848C565.786 399.138 565.934 399.514 565.934 399.977C565.934 400.369 565.82 400.719 565.593 401.026C565.369 401.33 565.055 401.568 564.651 401.742C564.251 401.915 563.786 402.001 563.258 402.001C562.525 402.001 561.927 401.845 561.464 401.533C561.001 401.217 560.717 400.77 560.612 400.19L561.843 400.003C561.92 400.324 562.078 400.567 562.316 400.732C562.555 400.894 562.866 400.974 563.249 400.974C563.667 400.974 564.001 400.888 564.251 400.715C564.501 400.538 564.626 400.324 564.626 400.071C564.626 399.867 564.549 399.695 564.396 399.555C564.245 399.416 564.014 399.311 563.701 399.24L562.593 398.997C561.982 398.858 561.531 398.636 561.238 398.332C560.948 398.028 560.803 397.644 560.803 397.178C560.803 396.791 560.911 396.453 561.127 396.163C561.343 395.874 561.642 395.648 562.022 395.486C562.403 395.321 562.839 395.239 563.33 395.239C564.038 395.239 564.595 395.392 565.001 395.699C565.407 396.003 565.676 396.411 565.806 396.922ZM570.092 402.001C569.479 402.001 568.943 401.861 568.486 401.58C568.028 401.298 567.673 400.905 567.42 400.399C567.167 399.894 567.041 399.303 567.041 398.626C567.041 397.948 567.167 397.354 567.42 396.845C567.673 396.337 568.028 395.942 568.486 395.661C568.943 395.379 569.479 395.239 570.092 395.239C570.706 395.239 571.241 395.379 571.699 395.661C572.156 395.942 572.511 396.337 572.764 396.845C573.017 397.354 573.143 397.948 573.143 398.626C573.143 399.303 573.017 399.894 572.764 400.399C572.511 400.905 572.156 401.298 571.699 401.58C571.241 401.861 570.706 402.001 570.092 402.001ZM570.096 400.932C570.494 400.932 570.824 400.827 571.085 400.617C571.346 400.406 571.54 400.126 571.665 399.777C571.792 399.428 571.856 399.043 571.856 398.622C571.856 398.205 571.792 397.821 571.665 397.472C571.54 397.119 571.346 396.837 571.085 396.624C570.824 396.411 570.494 396.304 570.096 396.304C569.696 396.304 569.363 396.411 569.099 396.624C568.838 396.837 568.643 397.119 568.515 397.472C568.39 397.821 568.328 398.205 568.328 398.622C568.328 399.043 568.39 399.428 568.515 399.777C568.643 400.126 568.838 400.406 569.099 400.617C569.363 400.827 569.696 400.932 570.096 400.932ZM575.84 397.983V401.869H574.566V395.324H575.789V396.389H575.869C576.02 396.043 576.256 395.764 576.577 395.554C576.901 395.344 577.308 395.239 577.8 395.239C578.246 395.239 578.637 395.332 578.972 395.52C579.307 395.705 579.567 395.98 579.752 396.347C579.936 396.713 580.029 397.166 580.029 397.706V401.869H578.754V397.859C578.754 397.385 578.631 397.014 578.384 396.747C578.137 396.477 577.797 396.342 577.365 396.342C577.07 396.342 576.807 396.406 576.577 396.534C576.35 396.662 576.169 396.849 576.036 397.097C575.905 397.341 575.84 397.636 575.84 397.983ZM586.642 396.922L585.487 397.126C585.439 396.979 585.362 396.838 585.257 396.705C585.155 396.571 585.016 396.462 584.84 396.376C584.664 396.291 584.443 396.249 584.179 396.249C583.818 396.249 583.517 396.33 583.276 396.492C583.034 396.651 582.914 396.857 582.914 397.109C582.914 397.328 582.994 397.504 583.156 397.638C583.318 397.771 583.58 397.881 583.941 397.966L584.98 398.205C585.583 398.344 586.031 398.558 586.327 398.848C586.622 399.138 586.77 399.514 586.77 399.977C586.77 400.369 586.656 400.719 586.429 401.026C586.205 401.33 585.891 401.568 585.487 401.742C585.087 401.915 584.622 402.001 584.094 402.001C583.361 402.001 582.763 401.845 582.3 401.533C581.837 401.217 581.553 400.77 581.448 400.19L582.679 400.003C582.756 400.324 582.914 400.567 583.152 400.732C583.391 400.894 583.702 400.974 584.085 400.974C584.503 400.974 584.837 400.888 585.087 400.715C585.337 400.538 585.462 400.324 585.462 400.071C585.462 399.867 585.385 399.695 585.232 399.555C585.081 399.416 584.85 399.311 584.537 399.24L583.429 398.997C582.818 398.858 582.367 398.636 582.074 398.332C581.784 398.028 581.639 397.644 581.639 397.178C581.639 396.791 581.747 396.453 581.963 396.163C582.179 395.874 582.477 395.648 582.858 395.486C583.239 395.321 583.675 395.239 584.166 395.239C584.874 395.239 585.431 395.392 585.837 395.699C586.243 396.003 586.512 396.411 586.642 396.922Z" fill="#3F6091"/>
<defs>
<linearGradient id="paint0_linear_17_69881" x1="331.5" y1="-87.4673" x2="331.5" y2="576.435" gradientUnits="userSpaceOnUse">
<stop stop-color="#9D6CFF"/>
<stop offset="0.539" stop-color="#825ECB"/>
<stop offset="1" stop-color="#6745AC"/>
</linearGradient>
</defs>
</svg>
