<svg width="505" height="390" viewBox="0 0 505 390" fill="none" xmlns="http://www.w3.org/2000/svg">
<path d="M286.936 54.3303L301.685 40.7041H332.623" stroke="#BFD2EE" stroke-width="1.60308" stroke-linecap="square"/>
<path d="M443.235 187.386L427.605 177.767L403.158 177.767" stroke="#BFD2EE" stroke-width="1.60308" stroke-linecap="square"/>
<path d="M372.7 287.177L377.91 302.807H402.758" stroke="#BFD2EE" stroke-width="1.60308" stroke-linecap="square"/>
<path d="M302.966 336.472L318.596 353.304H339.837" stroke="#BFD2EE" stroke-width="1.60308" stroke-linecap="square"/>
<path d="M111.398 187.386H93.3638L72.123 203.016" stroke="#BFD2EE" stroke-width="1.60308" stroke-linecap="square"/>
<path d="M335.422 45.085H333.791L337.455 34.9031H339.23L342.894 45.085H341.264L338.385 36.7526H338.306L335.422 45.085ZM335.695 41.0977H340.985V42.3904H335.695V41.0977ZM344.314 45.085V37.4486H345.8V45.085H344.314ZM345.064 36.2703C344.806 36.2703 344.584 36.1842 344.398 36.0118C344.216 35.8361 344.125 35.6273 344.125 35.3854C344.125 35.1401 344.216 34.9313 344.398 34.759C344.584 34.5833 344.806 34.4955 345.064 34.4955C345.323 34.4955 345.543 34.5833 345.726 34.759C345.911 34.9313 346.004 35.1401 346.004 35.3854C346.004 35.6273 345.911 35.8361 345.726 36.0118C345.543 36.1842 345.323 36.2703 345.064 36.2703ZM347.8 45.085V37.4486H349.237V38.6617H349.316C349.456 38.2507 349.701 37.9275 350.052 37.6922C350.407 37.4536 350.808 37.3343 351.255 37.3343C351.348 37.3343 351.458 37.3376 351.583 37.3442C351.713 37.3508 351.814 37.3591 351.887 37.3691V38.7909C351.827 38.7744 351.721 38.7561 351.569 38.7362C351.416 38.713 351.264 38.7014 351.111 38.7014C350.76 38.7014 350.447 38.776 350.172 38.9252C349.9 39.071 349.684 39.2748 349.525 39.5367C349.366 39.7952 349.287 40.0902 349.287 40.4216V45.085H347.8ZM355.758 45.2341C355.142 45.2341 354.592 45.0767 354.108 44.7618C353.627 44.4436 353.249 43.9912 352.974 43.4046C352.702 42.8146 352.567 42.107 352.567 41.2817C352.567 40.4564 352.704 39.7504 352.979 39.1638C353.258 38.5771 353.639 38.128 354.123 37.8165C354.607 37.5049 355.155 37.3492 355.768 37.3492C356.242 37.3492 356.623 37.4287 356.912 37.5878C357.203 37.7436 357.429 37.9259 357.588 38.1347C357.75 38.3435 357.876 38.5274 357.966 38.6865H358.055V34.9031H359.542V45.085H358.09V43.8968H357.966C357.876 44.0592 357.747 44.2448 357.578 44.4536C357.412 44.6624 357.184 44.8447 356.892 45.0004C356.6 45.1562 356.222 45.2341 355.758 45.2341ZM356.086 43.9664C356.514 43.9664 356.875 43.8537 357.17 43.6283C357.469 43.3996 357.694 43.0831 357.846 42.6787C358.002 42.2744 358.08 41.8037 358.08 41.2668C358.08 40.7365 358.004 40.2725 357.851 39.8747C357.699 39.477 357.475 39.1671 357.18 38.945C356.885 38.723 356.521 38.6119 356.086 38.6119C355.639 38.6119 355.266 38.728 354.968 38.96C354.67 39.192 354.444 39.5085 354.292 39.9095C354.143 40.3106 354.068 40.763 354.068 41.2668C354.068 41.7772 354.144 42.2362 354.297 42.6439C354.449 43.0516 354.675 43.3747 354.973 43.6134C355.274 43.8487 355.646 43.9664 356.086 43.9664ZM361.663 45.085V37.4486H363.1V38.6617H363.18C363.319 38.2507 363.564 37.9275 363.915 37.6922C364.27 37.4536 364.671 37.3343 365.119 37.3343C365.211 37.3343 365.321 37.3376 365.447 37.3442C365.576 37.3508 365.677 37.3591 365.75 37.3691V38.7909C365.69 38.7744 365.584 38.7561 365.432 38.7362C365.279 38.713 365.127 38.7014 364.974 38.7014C364.623 38.7014 364.31 38.776 364.035 38.9252C363.763 39.071 363.548 39.2748 363.388 39.5367C363.229 39.7952 363.15 40.0902 363.15 40.4216V45.085H361.663ZM369.98 45.2391C369.264 45.2391 368.639 45.075 368.105 44.7469C367.572 44.4188 367.157 43.9597 366.862 43.3698C366.567 42.7798 366.42 42.0904 366.42 41.3016C366.42 40.5094 366.567 39.8167 366.862 39.2235C367.157 38.6302 367.572 38.1695 368.105 37.8414C368.639 37.5132 369.264 37.3492 369.98 37.3492C370.695 37.3492 371.32 37.5132 371.854 37.8414C372.387 38.1695 372.802 38.6302 373.097 39.2235C373.392 39.8167 373.539 40.5094 373.539 41.3016C373.539 42.0904 373.392 42.7798 373.097 43.3698C372.802 43.9597 372.387 44.4188 371.854 44.7469C371.32 45.075 370.695 45.2391 369.98 45.2391ZM369.985 43.9912C370.449 43.9912 370.833 43.8686 371.138 43.6233C371.443 43.378 371.668 43.0516 371.814 42.6439C371.963 42.2362 372.038 41.7871 372.038 41.2966C372.038 40.8094 371.963 40.3619 371.814 39.9543C371.668 39.5433 371.443 39.2135 371.138 38.9649C370.833 38.7164 370.449 38.5921 369.985 38.5921C369.517 38.5921 369.129 38.7164 368.821 38.9649C368.516 39.2135 368.289 39.5433 368.14 39.9543C367.994 40.3619 367.921 40.8094 367.921 41.2966C367.921 41.7871 367.994 42.2362 368.14 42.6439C368.289 43.0516 368.516 43.378 368.821 43.6233C369.129 43.8686 369.517 43.9912 369.985 43.9912ZM375.199 47.9486V37.4486H376.65V38.6865H376.775C376.861 38.5274 376.985 38.3435 377.147 38.1347C377.31 37.9259 377.535 37.7436 377.824 37.5878C378.112 37.4287 378.493 37.3492 378.967 37.3492C379.583 37.3492 380.134 37.5049 380.618 37.8165C381.101 38.128 381.481 38.5771 381.756 39.1638C382.034 39.7504 382.174 40.4564 382.174 41.2817C382.174 42.107 382.036 42.8146 381.761 43.4046C381.486 43.9912 381.108 44.4436 380.627 44.7618C380.147 45.0767 379.598 45.2341 378.982 45.2341C378.518 45.2341 378.138 45.1562 377.843 45.0004C377.552 44.8447 377.323 44.6624 377.157 44.4536C376.992 44.2448 376.864 44.0592 376.775 43.8968H376.685V47.9486H375.199ZM376.655 41.2668C376.655 41.8037 376.733 42.2744 376.889 42.6787C377.045 43.0831 377.27 43.3996 377.565 43.6283C377.86 43.8537 378.221 43.9664 378.649 43.9664C379.093 43.9664 379.464 43.8487 379.762 43.6134C380.061 43.3747 380.286 43.0516 380.439 42.6439C380.594 42.2362 380.672 41.7772 380.672 41.2668C380.672 40.763 380.596 40.3106 380.444 39.9095C380.294 39.5085 380.069 39.192 379.767 38.96C379.469 38.728 379.096 38.6119 378.649 38.6119C378.218 38.6119 377.853 38.723 377.555 38.945C377.26 39.1671 377.036 39.477 376.884 39.8747C376.731 40.2725 376.655 40.7365 376.655 41.2668ZM393.217 37.5779C393.164 37.1072 392.945 36.7426 392.561 36.4841C392.176 36.2223 391.692 36.0914 391.109 36.0914C390.691 36.0914 390.33 36.1576 390.025 36.2902C389.72 36.4195 389.483 36.5985 389.314 36.8271C389.148 37.0525 389.066 37.3094 389.066 37.5977C389.066 37.8397 389.122 38.0485 389.235 38.2242C389.351 38.3998 389.501 38.5473 389.687 38.6666C389.876 38.7826 390.078 38.8804 390.294 38.96C390.509 39.0362 390.716 39.0992 390.915 39.1489L391.909 39.4074C392.234 39.4869 392.567 39.5947 392.909 39.7306C393.25 39.8664 393.566 40.0454 393.858 40.2675C394.15 40.4896 394.385 40.7646 394.564 41.0928C394.746 41.4209 394.838 41.8137 394.838 42.271C394.838 42.8477 394.688 43.3598 394.39 43.8073C394.095 44.2547 393.666 44.6077 393.102 44.8662C392.542 45.1247 391.865 45.254 391.069 45.254C390.307 45.254 389.647 45.133 389.09 44.8911C388.534 44.6491 388.098 44.3061 387.783 43.8619C387.468 43.4145 387.294 42.8842 387.261 42.271H388.802C388.832 42.6389 388.951 42.9455 389.16 43.1908C389.372 43.4327 389.642 43.6134 389.97 43.7327C390.302 43.8487 390.665 43.9067 391.059 43.9067C391.493 43.9067 391.879 43.8387 392.218 43.7029C392.559 43.5637 392.827 43.3714 393.023 43.1262C393.218 42.8776 393.316 42.5876 393.316 42.2561C393.316 41.9545 393.23 41.7076 393.058 41.5154C392.889 41.3231 392.658 41.164 392.367 41.0381C392.078 40.9121 391.752 40.8011 391.387 40.705L390.184 40.3769C389.369 40.1548 388.722 39.8283 388.245 39.3975C387.771 38.9666 387.534 38.3965 387.534 37.6872C387.534 37.1006 387.693 36.5885 388.012 36.151C388.33 35.7135 388.761 35.3738 389.304 35.1318C389.848 34.8866 390.461 34.7639 391.144 34.7639C391.833 34.7639 392.441 34.8849 392.968 35.1269C393.499 35.3688 393.916 35.7019 394.221 36.1262C394.526 36.5471 394.685 37.031 394.698 37.5779H393.217ZM399.845 45.2391C399.093 45.2391 398.445 45.0783 397.901 44.7568C397.361 44.432 396.943 43.9763 396.648 43.3896C396.357 42.7997 396.211 42.1086 396.211 41.3165C396.211 40.5343 396.357 39.8449 396.648 39.2483C396.943 38.6517 397.354 38.186 397.881 37.8513C398.412 37.5165 399.031 37.3492 399.741 37.3492C400.172 37.3492 400.589 37.4204 400.994 37.5629C401.398 37.7055 401.761 37.9292 402.082 38.2341C402.404 38.539 402.657 38.9351 402.843 39.4223C403.029 39.9062 403.121 40.4945 403.121 41.1872V41.7142H397.051V40.6006H401.665C401.665 40.2095 401.585 39.8631 401.426 39.5615C401.267 39.2566 401.043 39.0163 400.755 38.8406C400.47 38.665 400.135 38.5771 399.751 38.5771C399.333 38.5771 398.969 38.6799 398.657 38.8854C398.349 39.0876 398.11 39.3527 397.941 39.6808C397.775 40.0057 397.692 40.3586 397.692 40.7398V41.6098C397.692 42.1202 397.782 42.5544 397.961 42.9124C398.143 43.2703 398.397 43.5438 398.722 43.7327C399.046 43.9183 399.426 44.0111 399.86 44.0111C400.142 44.0111 400.399 43.9713 400.631 43.8918C400.863 43.8089 401.063 43.6863 401.232 43.5239C401.401 43.3615 401.531 43.161 401.62 42.9223L403.027 43.1759C402.914 43.5902 402.712 43.9531 402.42 44.2646C402.132 44.5729 401.769 44.8132 401.332 44.9855C400.897 45.1546 400.402 45.2391 399.845 45.2391ZM406.993 45.254C406.509 45.254 406.072 45.1645 405.681 44.9855C405.289 44.8032 404.98 44.5397 404.751 44.195C404.526 43.8503 404.413 43.4278 404.413 42.9273C404.413 42.4964 404.496 42.1418 404.661 41.8634C404.827 41.585 405.051 41.3646 405.333 41.2021C405.614 41.0397 405.929 40.9171 406.277 40.8343C406.625 40.7514 406.98 40.6884 407.341 40.6453C407.798 40.5923 408.17 40.5492 408.455 40.5161C408.74 40.4796 408.947 40.4216 409.076 40.3421C409.205 40.2625 409.27 40.1333 409.27 39.9543V39.9195C409.27 39.4853 409.147 39.1489 408.902 38.9102C408.66 38.6716 408.299 38.5523 407.818 38.5523C407.318 38.5523 406.923 38.6633 406.635 38.8854C406.35 39.1041 406.153 39.3477 406.044 39.6162L404.646 39.298C404.812 38.834 405.054 38.4595 405.372 38.1744C405.694 37.8861 406.063 37.6773 406.481 37.548C406.899 37.4155 407.338 37.3492 407.798 37.3492C408.103 37.3492 408.427 37.3856 408.768 37.4585C409.113 37.5281 409.434 37.6574 409.732 37.8463C410.034 38.0352 410.281 38.3054 410.473 38.6567C410.665 39.0047 410.762 39.4571 410.762 40.0139V45.085H409.31V44.0409H409.25C409.154 44.2332 409.01 44.4221 408.818 44.6077C408.625 44.7933 408.378 44.9474 408.077 45.07C407.775 45.1927 407.414 45.254 406.993 45.254ZM407.316 44.0608C407.727 44.0608 408.079 43.9796 408.37 43.8172C408.665 43.6548 408.889 43.4427 409.041 43.1808C409.197 42.9157 409.275 42.6323 409.275 42.3307V41.3463C409.222 41.3994 409.119 41.4491 408.967 41.4955C408.818 41.5386 408.647 41.5767 408.455 41.6098C408.262 41.6396 408.075 41.6678 407.893 41.6943C407.711 41.7175 407.558 41.7374 407.436 41.754C407.147 41.7905 406.884 41.8518 406.645 41.9379C406.41 42.0241 406.221 42.1484 406.078 42.3108C405.939 42.4699 405.869 42.682 405.869 42.9472C405.869 43.3151 406.005 43.5935 406.277 43.7824C406.549 43.968 406.895 44.0608 407.316 44.0608ZM418.464 39.3129L417.116 39.5516C417.06 39.3792 416.971 39.2152 416.848 39.0594C416.729 38.9036 416.566 38.776 416.361 38.6766C416.155 38.5771 415.898 38.5274 415.59 38.5274C415.169 38.5274 414.818 38.6219 414.536 38.8108C414.254 38.9964 414.114 39.2367 414.114 39.5317C414.114 39.7869 414.208 39.9924 414.397 40.1482C414.586 40.3039 414.891 40.4316 415.312 40.531L416.525 40.8094C417.228 40.9718 417.751 41.222 418.096 41.5601C418.441 41.8982 418.613 42.3373 418.613 42.8776C418.613 43.335 418.48 43.7426 418.215 44.1006C417.953 44.4552 417.587 44.7336 417.116 44.9358C416.649 45.138 416.107 45.2391 415.491 45.2391C414.636 45.2391 413.938 45.0568 413.398 44.6922C412.857 44.3243 412.526 43.8023 412.403 43.1262L413.84 42.9074C413.93 43.2819 414.114 43.5653 414.392 43.7575C414.67 43.9465 415.033 44.0409 415.481 44.0409C415.968 44.0409 416.357 43.9398 416.649 43.7377C416.941 43.5322 417.087 43.2819 417.087 42.9869C417.087 42.7483 416.997 42.5478 416.818 42.3854C416.643 42.223 416.372 42.1003 416.008 42.0175L414.715 41.7341C414.003 41.5717 413.476 41.3132 413.134 40.9585C412.796 40.6039 412.627 40.1548 412.627 39.6112C412.627 39.1605 412.753 38.7661 413.005 38.428C413.257 38.0899 413.605 37.8264 414.049 37.6375C414.493 37.4453 415.002 37.3492 415.575 37.3492C416.401 37.3492 417.05 37.5281 417.524 37.8861C417.998 38.2407 418.311 38.7164 418.464 39.3129ZM423.464 45.2391C422.748 45.2391 422.123 45.075 421.59 44.7469C421.056 44.4188 420.642 43.9597 420.347 43.3698C420.052 42.7798 419.904 42.0904 419.904 41.3016C419.904 40.5094 420.052 39.8167 420.347 39.2235C420.642 38.6302 421.056 38.1695 421.59 37.8414C422.123 37.5132 422.748 37.3492 423.464 37.3492C424.18 37.3492 424.805 37.5132 425.338 37.8414C425.872 38.1695 426.286 38.6302 426.581 39.2235C426.876 39.8167 427.024 40.5094 427.024 41.3016C427.024 42.0904 426.876 42.7798 426.581 43.3698C426.286 43.9597 425.872 44.4188 425.338 44.7469C424.805 45.075 424.18 45.2391 423.464 45.2391ZM423.469 43.9912C423.933 43.9912 424.317 43.8686 424.622 43.6233C424.927 43.378 425.153 43.0516 425.298 42.6439C425.448 42.2362 425.522 41.7871 425.522 41.2966C425.522 40.8094 425.448 40.3619 425.298 39.9543C425.153 39.5433 424.927 39.2135 424.622 38.9649C424.317 38.7164 423.933 38.5921 423.469 38.5921C423.002 38.5921 422.614 38.7164 422.306 38.9649C422.001 39.2135 421.774 39.5433 421.624 39.9543C421.479 40.3619 421.406 40.8094 421.406 41.2966C421.406 41.7871 421.479 42.2362 421.624 42.6439C421.774 43.0516 422.001 43.378 422.306 43.6233C422.614 43.8686 423.002 43.9912 423.469 43.9912ZM430.169 40.5509V45.085H428.683V37.4486H430.11V38.6915H430.204C430.38 38.2871 430.655 37.9623 431.029 37.7171C431.407 37.4718 431.883 37.3492 432.456 37.3492C432.977 37.3492 433.432 37.4585 433.824 37.6773C434.215 37.8927 434.518 38.2142 434.733 38.6418C434.949 39.0693 435.056 39.598 435.056 40.2277V45.085H433.57V40.4067C433.57 39.8532 433.426 39.4207 433.137 39.1091C432.849 38.7942 432.453 38.6368 431.949 38.6368C431.605 38.6368 431.298 38.7114 431.029 38.8605C430.764 39.0097 430.554 39.2284 430.398 39.5168C430.246 39.8018 430.169 40.1465 430.169 40.5509ZM442.772 39.3129L441.425 39.5516C441.369 39.3792 441.279 39.2152 441.157 39.0594C441.037 38.9036 440.875 38.776 440.669 38.6766C440.464 38.5771 440.207 38.5274 439.899 38.5274C439.478 38.5274 439.127 38.6219 438.845 38.8108C438.563 38.9964 438.422 39.2367 438.422 39.5317C438.422 39.7869 438.517 39.9924 438.706 40.1482C438.895 40.3039 439.199 40.4316 439.62 40.531L440.833 40.8094C441.536 40.9718 442.06 41.222 442.404 41.5601C442.749 41.8982 442.922 42.3373 442.922 42.8776C442.922 43.335 442.789 43.7426 442.524 44.1006C442.262 44.4552 441.896 44.7336 441.425 44.9358C440.958 45.138 440.416 45.2391 439.799 45.2391C438.944 45.2391 438.247 45.0568 437.706 44.6922C437.166 44.3243 436.835 43.8023 436.712 43.1262L438.149 42.9074C438.238 43.2819 438.422 43.5653 438.701 43.7575C438.979 43.9465 439.342 44.0409 439.789 44.0409C440.277 44.0409 440.666 43.9398 440.958 43.7377C441.249 43.5322 441.395 43.2819 441.395 42.9869C441.395 42.7483 441.306 42.5478 441.127 42.3854C440.951 42.223 440.681 42.1003 440.316 42.0175L439.024 41.7341C438.311 41.5717 437.784 41.3132 437.443 40.9585C437.105 40.6039 436.936 40.1548 436.936 39.6112C436.936 39.1605 437.062 38.7661 437.314 38.428C437.565 38.0899 437.913 37.8264 438.358 37.6375C438.802 37.4453 439.31 37.3492 439.884 37.3492C440.709 37.3492 441.359 37.5281 441.833 37.8861C442.307 38.2407 442.62 38.7164 442.772 39.3129ZM378.197 62.2242C377.514 62.2242 376.904 62.1065 376.367 61.8712C375.834 61.6359 375.411 61.3094 375.1 60.8918C374.791 60.4709 374.626 59.9836 374.603 59.4301H376.164C376.184 59.7317 376.285 59.9936 376.467 60.2156C376.652 60.4344 376.894 60.6034 377.193 60.7227C377.491 60.8421 377.822 60.9017 378.187 60.9017C378.588 60.9017 378.943 60.8321 379.251 60.6929C379.563 60.5537 379.806 60.3598 379.982 60.1112C380.157 59.8593 380.245 59.5693 380.245 59.2412C380.245 58.8998 380.157 58.5999 379.982 58.3414C379.809 58.0795 379.556 57.874 379.221 57.7249C378.89 57.5757 378.489 57.5012 378.018 57.5012H377.158V56.2483H378.018C378.396 56.2483 378.727 56.1804 379.012 56.0445C379.301 55.9086 379.526 55.7197 379.688 55.4777C379.851 55.2325 379.932 54.9458 379.932 54.6176C379.932 54.3028 379.861 54.0293 379.718 53.7973C379.579 53.562 379.38 53.378 379.122 53.2455C378.867 53.1129 378.565 53.0466 378.217 53.0466C377.885 53.0466 377.576 53.1079 377.287 53.2306C377.002 53.3499 376.77 53.5222 376.591 53.7476C376.412 53.9697 376.316 54.2365 376.303 54.548H374.816C374.833 53.9978 374.995 53.5139 375.304 53.0963C375.615 52.6787 376.026 52.3522 376.536 52.1169C377.047 51.8816 377.614 51.7639 378.237 51.7639C378.89 51.7639 379.453 51.8915 379.927 52.1468C380.404 52.3986 380.772 52.7351 381.031 53.156C381.293 53.5769 381.422 54.0376 381.419 54.5381C381.422 55.1082 381.263 55.5921 380.941 55.9898C380.623 56.3875 380.199 56.6543 379.669 56.7902V56.8698C380.345 56.9725 380.868 57.241 381.24 57.6752C381.614 58.1093 381.8 58.6479 381.796 59.2909C381.8 59.8511 381.644 60.3532 381.329 60.7973C381.018 61.2414 380.592 61.5911 380.051 61.8463C379.511 62.0982 378.893 62.2242 378.197 62.2242ZM387.22 62.254C386.435 62.2507 385.764 62.0435 385.207 61.6325C384.65 61.2216 384.224 60.6233 383.929 59.8378C383.634 59.0523 383.487 58.106 383.487 56.999C383.487 55.8953 383.634 54.9524 383.929 54.1702C384.228 53.388 384.655 52.7914 385.212 52.3804C385.772 51.9694 386.442 51.7639 387.22 51.7639C387.999 51.7639 388.667 51.9711 389.224 52.3854C389.781 52.7964 390.207 53.393 390.502 54.1752C390.8 54.954 390.949 55.8953 390.949 56.999C390.949 58.1093 390.802 59.0573 390.507 59.8428C390.212 60.625 389.786 61.2232 389.229 61.6375C388.672 62.0485 388.003 62.254 387.22 62.254ZM387.22 60.9266C387.91 60.9266 388.448 60.5902 388.836 59.9173C389.227 59.2445 389.423 58.2718 389.423 56.999C389.423 56.1539 389.333 55.4396 389.154 54.8563C388.979 54.2696 388.725 53.8255 388.394 53.5239C388.066 53.219 387.675 53.0665 387.22 53.0665C386.534 53.0665 385.996 53.4046 385.605 54.0807C385.214 54.7568 385.016 55.7296 385.013 56.999C385.013 57.8475 385.101 58.5651 385.277 59.1517C385.456 59.7351 385.709 60.1775 386.037 60.4791C386.365 60.7774 386.76 60.9266 387.22 60.9266ZM398.027 60.1759V59.6389C398.027 59.2545 398.107 58.9031 398.266 58.585C398.428 58.2635 398.664 58.0066 398.972 57.8144C399.284 57.6188 399.66 57.521 400.101 57.521C400.551 57.521 400.929 57.6172 401.234 57.8094C401.539 58.0016 401.769 58.2585 401.925 58.58C402.084 58.9015 402.164 59.2545 402.164 59.6389V60.1759C402.164 60.5603 402.084 60.9133 401.925 61.2348C401.766 61.553 401.532 61.8099 401.224 62.0054C400.919 62.1977 400.545 62.2938 400.101 62.2938C399.653 62.2938 399.275 62.1977 398.967 62.0054C398.659 61.8099 398.425 61.553 398.266 61.2348C398.107 60.9133 398.027 60.5603 398.027 60.1759ZM399.186 59.6389V60.1759C399.186 60.4609 399.254 60.7194 399.39 60.9514C399.526 61.1834 399.763 61.2994 400.101 61.2994C400.435 61.2994 400.669 61.1834 400.802 60.9514C400.934 60.7194 401 60.4609 401 60.1759V59.6389C401 59.3539 400.936 59.0954 400.807 58.8634C400.681 58.6314 400.445 58.5154 400.101 58.5154C399.769 58.5154 399.534 58.6314 399.395 58.8634C399.255 59.0954 399.186 59.3539 399.186 59.6389ZM392.907 54.3492V53.8122C392.907 53.4278 392.986 53.0748 393.145 52.7533C393.308 52.4318 393.543 52.1749 393.851 51.9827C394.163 51.7905 394.539 51.6943 394.98 51.6943C395.431 51.6943 395.808 51.7905 396.113 51.9827C396.418 52.1749 396.649 52.4318 396.804 52.7533C396.96 53.0748 397.038 53.4278 397.038 53.8122V54.3492C397.038 54.7336 396.959 55.0866 396.799 55.4081C396.644 55.7263 396.412 55.9832 396.103 56.1787C395.799 56.3709 395.424 56.4671 394.98 56.4671C394.529 56.4671 394.15 56.3709 393.841 56.1787C393.536 55.9832 393.304 55.7263 393.145 55.4081C392.986 55.0866 392.907 54.7336 392.907 54.3492ZM394.07 53.8122V54.3492C394.07 54.6342 394.136 54.8927 394.269 55.1247C394.405 55.3567 394.642 55.4727 394.98 55.4727C395.311 55.4727 395.543 55.3567 395.676 55.1247C395.812 54.8927 395.88 54.6342 395.88 54.3492V53.8122C395.88 53.5272 395.815 53.2687 395.686 53.0367C395.557 52.8047 395.321 52.6887 394.98 52.6887C394.648 52.6887 394.413 52.8047 394.274 53.0367C394.138 53.2687 394.07 53.5272 394.07 53.8122ZM393.379 62.085L400.379 51.9031H401.567L394.567 62.085H393.379Z" fill="#3F6091"/>
<path d="M450.83 186.141V184.818H458.71V186.141H455.533V195H454.002V186.141H450.83ZM462.516 195.154C461.764 195.154 461.116 194.993 460.572 194.672C460.032 194.347 459.614 193.891 459.319 193.305C459.028 192.715 458.882 192.024 458.882 191.232C458.882 190.449 459.028 189.76 459.319 189.163C459.614 188.567 460.025 188.101 460.552 187.766C461.083 187.432 461.702 187.264 462.412 187.264C462.843 187.264 463.26 187.335 463.665 187.478C464.069 187.621 464.432 187.844 464.753 188.149C465.075 188.454 465.328 188.85 465.514 189.337C465.7 189.821 465.792 190.41 465.792 191.102V191.629H459.722V190.516H464.336C464.336 190.125 464.256 189.778 464.097 189.477C463.938 189.172 463.714 188.931 463.426 188.756C463.141 188.58 462.806 188.492 462.422 188.492C462.004 188.492 461.639 188.595 461.328 188.8C461.02 189.003 460.781 189.268 460.612 189.596C460.446 189.921 460.363 190.274 460.363 190.655V191.525C460.363 192.035 460.453 192.469 460.632 192.827C460.814 193.185 461.068 193.459 461.392 193.648C461.717 193.833 462.097 193.926 462.531 193.926C462.813 193.926 463.07 193.886 463.302 193.807C463.534 193.724 463.734 193.601 463.903 193.439C464.072 193.277 464.201 193.076 464.291 192.837L465.698 193.091C465.585 193.505 465.383 193.868 465.091 194.18C464.803 194.488 464.44 194.728 464.003 194.901C463.568 195.07 463.073 195.154 462.516 195.154ZM469.664 195.169C469.18 195.169 468.743 195.08 468.351 194.901C467.96 194.718 467.65 194.455 467.422 194.11C467.196 193.765 467.084 193.343 467.084 192.842C467.084 192.411 467.167 192.057 467.332 191.778C467.498 191.5 467.722 191.28 468.003 191.117C468.285 190.955 468.6 190.832 468.948 190.749C469.296 190.666 469.651 190.603 470.012 190.56C470.469 190.507 470.841 190.464 471.126 190.431C471.411 190.395 471.618 190.337 471.747 190.257C471.876 190.178 471.941 190.048 471.941 189.869V189.835C471.941 189.4 471.818 189.064 471.573 188.825C471.331 188.587 470.97 188.467 470.489 188.467C469.989 188.467 469.594 188.578 469.306 188.8C469.021 189.019 468.824 189.263 468.714 189.531L467.317 189.213C467.483 188.749 467.725 188.375 468.043 188.089C468.365 187.801 468.734 187.592 469.152 187.463C469.57 187.33 470.009 187.264 470.469 187.264C470.774 187.264 471.097 187.301 471.439 187.374C471.784 187.443 472.105 187.572 472.403 187.761C472.705 187.95 472.952 188.22 473.144 188.572C473.336 188.92 473.432 189.372 473.432 189.929V195H471.981V193.956H471.921C471.825 194.148 471.681 194.337 471.489 194.523C471.296 194.708 471.049 194.862 470.748 194.985C470.446 195.108 470.085 195.169 469.664 195.169ZM469.987 193.976C470.398 193.976 470.749 193.895 471.041 193.732C471.336 193.57 471.56 193.358 471.712 193.096C471.868 192.831 471.946 192.547 471.946 192.246V191.261C471.893 191.314 471.79 191.364 471.638 191.411C471.489 191.454 471.318 191.492 471.126 191.525C470.933 191.555 470.746 191.583 470.564 191.609C470.382 191.633 470.229 191.652 470.106 191.669C469.818 191.705 469.555 191.767 469.316 191.853C469.081 191.939 468.892 192.063 468.749 192.226C468.61 192.385 468.54 192.597 468.54 192.862C468.54 193.23 468.676 193.509 468.948 193.697C469.22 193.883 469.566 193.976 469.987 193.976ZM475.412 195V187.364H476.839V188.607H476.934C477.093 188.186 477.353 187.857 477.714 187.622C478.075 187.384 478.508 187.264 479.012 187.264C479.522 187.264 479.95 187.384 480.294 187.622C480.642 187.861 480.899 188.189 481.065 188.607H481.145C481.327 188.199 481.617 187.874 482.015 187.632C482.412 187.387 482.886 187.264 483.437 187.264C484.129 187.264 484.694 187.481 485.132 187.915C485.573 188.35 485.793 189.004 485.793 189.879V195H484.307V190.018C484.307 189.501 484.166 189.127 483.884 188.895C483.602 188.663 483.266 188.547 482.875 188.547C482.391 188.547 482.015 188.696 481.746 188.994C481.478 189.289 481.343 189.669 481.343 190.133V195H479.862V189.924C479.862 189.51 479.733 189.177 479.474 188.925C479.216 188.673 478.879 188.547 478.465 188.547C478.183 188.547 477.923 188.621 477.684 188.771C477.449 188.916 477.258 189.12 477.113 189.382C476.97 189.644 476.899 189.947 476.899 190.292V195H475.412ZM459.657 201.818V212H458.116V203.359H458.056L455.62 204.95V203.479L458.16 201.818H459.657ZM462.197 210.011V208.768L466.597 201.818H467.577V203.648H466.955L463.808 208.629V208.709H469.839V210.011H462.197ZM467.025 212V209.634L467.035 209.067V201.818H468.491V212H467.025ZM476.886 210.091V209.554C476.886 209.17 476.965 208.818 477.124 208.5C477.287 208.179 477.522 207.922 477.83 207.729C478.142 207.534 478.518 207.436 478.959 207.436C479.41 207.436 479.788 207.532 480.093 207.724C480.397 207.917 480.628 208.174 480.784 208.495C480.943 208.817 481.022 209.17 481.022 209.554V210.091C481.022 210.475 480.943 210.828 480.784 211.15C480.624 211.468 480.391 211.725 480.083 211.92C479.778 212.113 479.403 212.209 478.959 212.209C478.512 212.209 478.134 212.113 477.825 211.92C477.517 211.725 477.284 211.468 477.124 211.15C476.965 210.828 476.886 210.475 476.886 210.091ZM478.044 209.554V210.091C478.044 210.376 478.112 210.634 478.248 210.866C478.384 211.098 478.621 211.214 478.959 211.214C479.294 211.214 479.527 211.098 479.66 210.866C479.793 210.634 479.859 210.376 479.859 210.091V209.554C479.859 209.269 479.794 209.01 479.665 208.778C479.539 208.546 479.304 208.43 478.959 208.43C478.628 208.43 478.392 208.546 478.253 208.778C478.114 209.01 478.044 209.269 478.044 209.554ZM471.765 204.264V203.727C471.765 203.343 471.845 202.99 472.004 202.668C472.166 202.347 472.401 202.09 472.71 201.898C473.021 201.705 473.397 201.609 473.838 201.609C474.289 201.609 474.667 201.705 474.972 201.898C475.277 202.09 475.507 202.347 475.663 202.668C475.819 202.99 475.896 203.343 475.896 203.727V204.264C475.896 204.649 475.817 205.002 475.658 205.323C475.502 205.641 475.27 205.898 474.962 206.094C474.657 206.286 474.282 206.382 473.838 206.382C473.387 206.382 473.008 206.286 472.7 206.094C472.395 205.898 472.163 205.641 472.004 205.323C471.845 205.002 471.765 204.649 471.765 204.264ZM472.928 203.727V204.264C472.928 204.549 472.995 204.808 473.127 205.04C473.263 205.272 473.5 205.388 473.838 205.388C474.17 205.388 474.402 205.272 474.534 205.04C474.67 204.808 474.738 204.549 474.738 204.264V203.727C474.738 203.442 474.673 203.184 474.544 202.952C474.415 202.72 474.18 202.604 473.838 202.604C473.507 202.604 473.271 202.72 473.132 202.952C472.996 203.184 472.928 203.442 472.928 203.727ZM472.237 212L479.237 201.818H480.426L473.426 212H472.237Z" fill="#3F6091"/>
<path d="M419.878 301.493C419.825 301.022 419.606 300.658 419.222 300.399C418.837 300.137 418.353 300.006 417.77 300.006C417.352 300.006 416.991 300.073 416.686 300.205C416.381 300.335 416.144 300.513 415.975 300.742C415.81 300.968 415.727 301.224 415.727 301.513C415.727 301.755 415.783 301.964 415.896 302.139C416.012 302.315 416.162 302.462 416.348 302.582C416.537 302.698 416.739 302.795 416.955 302.875C417.17 302.951 417.377 303.014 417.576 303.064L418.57 303.322C418.895 303.402 419.228 303.51 419.57 303.646C419.911 303.781 420.228 303.96 420.519 304.183C420.811 304.405 421.046 304.68 421.225 305.008C421.408 305.336 421.499 305.729 421.499 306.186C421.499 306.763 421.35 307.275 421.051 307.722C420.756 308.17 420.327 308.523 419.764 308.781C419.203 309.04 418.526 309.169 417.73 309.169C416.968 309.169 416.308 309.048 415.752 308.806C415.195 308.564 414.759 308.221 414.444 307.777C414.129 307.33 413.955 306.799 413.922 306.186H415.463C415.493 306.554 415.612 306.861 415.821 307.106C416.033 307.348 416.303 307.528 416.631 307.648C416.963 307.764 417.326 307.822 417.72 307.822C418.154 307.822 418.541 307.754 418.879 307.618C419.22 307.479 419.488 307.286 419.684 307.041C419.88 306.793 419.977 306.503 419.977 306.171C419.977 305.87 419.891 305.623 419.719 305.43C419.55 305.238 419.319 305.079 419.028 304.953C418.739 304.827 418.413 304.716 418.048 304.62L416.845 304.292C416.03 304.07 415.384 303.743 414.906 303.312C414.432 302.882 414.195 302.312 414.195 301.602C414.195 301.016 414.354 300.504 414.673 300.066C414.991 299.629 415.422 299.289 415.965 299.047C416.509 298.802 417.122 298.679 417.805 298.679C418.494 298.679 419.102 298.8 419.629 299.042C420.16 299.284 420.577 299.617 420.882 300.041C421.187 300.462 421.346 300.946 421.359 301.493H419.878ZM426.506 309.154C425.754 309.154 425.106 308.993 424.562 308.672C424.022 308.347 423.605 307.891 423.31 307.305C423.018 306.715 422.872 306.024 422.872 305.232C422.872 304.449 423.018 303.76 423.31 303.163C423.605 302.567 424.016 302.101 424.543 301.766C425.073 301.432 425.693 301.264 426.402 301.264C426.833 301.264 427.25 301.335 427.655 301.478C428.059 301.621 428.422 301.844 428.744 302.149C429.065 302.454 429.319 302.85 429.504 303.337C429.69 303.821 429.783 304.41 429.783 305.102V305.629H423.712V304.516H428.326C428.326 304.125 428.246 303.778 428.087 303.477C427.928 303.172 427.704 302.931 427.416 302.756C427.131 302.58 426.796 302.492 426.412 302.492C425.994 302.492 425.63 302.595 425.318 302.8C425.01 303.003 424.771 303.268 424.602 303.596C424.436 303.921 424.354 304.274 424.354 304.655V305.525C424.354 306.035 424.443 306.469 424.622 306.827C424.804 307.185 425.058 307.459 425.383 307.648C425.708 307.833 426.087 307.926 426.521 307.926C426.803 307.926 427.06 307.886 427.292 307.807C427.524 307.724 427.724 307.601 427.893 307.439C428.062 307.277 428.192 307.076 428.281 306.837L429.688 307.091C429.575 307.505 429.373 307.868 429.082 308.18C428.793 308.488 428.43 308.728 427.993 308.901C427.559 309.07 427.063 309.154 426.506 309.154ZM434.723 309.154C433.971 309.154 433.323 308.993 432.779 308.672C432.239 308.347 431.821 307.891 431.526 307.305C431.235 306.715 431.089 306.024 431.089 305.232C431.089 304.449 431.235 303.76 431.526 303.163C431.821 302.567 432.232 302.101 432.759 301.766C433.29 301.432 433.909 301.264 434.619 301.264C435.05 301.264 435.467 301.335 435.872 301.478C436.276 301.621 436.639 301.844 436.96 302.149C437.282 302.454 437.535 302.85 437.721 303.337C437.907 303.821 437.999 304.41 437.999 305.102V305.629H431.929V304.516H436.543C436.543 304.125 436.463 303.778 436.304 303.477C436.145 303.172 435.921 302.931 435.633 302.756C435.348 302.58 435.013 302.492 434.629 302.492C434.211 302.492 433.846 302.595 433.535 302.8C433.227 303.003 432.988 303.268 432.819 303.596C432.653 303.921 432.57 304.274 432.57 304.655V305.525C432.57 306.035 432.66 306.469 432.839 306.827C433.021 307.185 433.275 307.459 433.6 307.648C433.924 307.833 434.304 307.926 434.738 307.926C435.02 307.926 435.277 307.886 435.509 307.807C435.741 307.724 435.941 307.601 436.11 307.439C436.279 307.277 436.408 307.076 436.498 306.837L437.905 307.091C437.792 307.505 437.59 307.868 437.298 308.18C437.01 308.488 436.647 308.728 436.21 308.901C435.775 309.07 435.28 309.154 434.723 309.154ZM442.507 309.149C441.891 309.149 441.341 308.992 440.857 308.677C440.376 308.359 439.998 307.906 439.723 307.32C439.451 306.73 439.316 306.022 439.316 305.197C439.316 304.371 439.453 303.665 439.728 303.079C440.007 302.492 440.388 302.043 440.872 301.732C441.356 301.42 441.904 301.264 442.517 301.264C442.991 301.264 443.372 301.344 443.661 301.503C443.952 301.659 444.178 301.841 444.337 302.05C444.499 302.259 444.625 302.442 444.715 302.602H444.804V298.818H446.291V309H444.839V307.812H444.715C444.625 307.974 444.496 308.16 444.327 308.369C444.161 308.577 443.933 308.76 443.641 308.915C443.349 309.071 442.971 309.149 442.507 309.149ZM442.835 307.881C443.263 307.881 443.624 307.769 443.919 307.543C444.218 307.315 444.443 306.998 444.595 306.594C444.751 306.189 444.829 305.719 444.829 305.182C444.829 304.652 444.753 304.187 444.6 303.79C444.448 303.392 444.224 303.082 443.929 302.86C443.634 302.638 443.27 302.527 442.835 302.527C442.388 302.527 442.015 302.643 441.717 302.875C441.419 303.107 441.193 303.424 441.041 303.825C440.892 304.226 440.817 304.678 440.817 305.182C440.817 305.692 440.893 306.151 441.046 306.559C441.198 306.967 441.424 307.29 441.722 307.528C442.023 307.764 442.395 307.881 442.835 307.881ZM452.237 309V298.818H458.551V300.141H453.773V303.243H458.098V304.56H453.773V309H452.237ZM464.679 305.833V301.364H466.171V309H464.709V307.678H464.63C464.454 308.085 464.172 308.425 463.785 308.697C463.4 308.965 462.921 309.099 462.348 309.099C461.857 309.099 461.423 308.992 461.045 308.776C460.671 308.558 460.376 308.234 460.16 307.807C459.948 307.379 459.842 306.851 459.842 306.221V301.364H461.329V306.042C461.329 306.562 461.473 306.977 461.761 307.285C462.049 307.593 462.424 307.747 462.885 307.747C463.163 307.747 463.44 307.678 463.715 307.538C463.993 307.399 464.224 307.189 464.406 306.907C464.592 306.625 464.683 306.267 464.679 305.833ZM469.655 304.466V309H468.168V301.364H469.595V302.607H469.69C469.865 302.202 470.14 301.877 470.515 301.632C470.893 301.387 471.368 301.264 471.942 301.264C472.462 301.264 472.918 301.374 473.309 301.592C473.7 301.808 474.003 302.129 474.219 302.557C474.434 302.984 474.542 303.513 474.542 304.143V309H473.055V304.322C473.055 303.768 472.911 303.336 472.623 303.024C472.334 302.709 471.938 302.552 471.435 302.552C471.09 302.552 470.783 302.626 470.515 302.776C470.25 302.925 470.039 303.143 469.883 303.432C469.731 303.717 469.655 304.062 469.655 304.466ZM479.394 309.149C478.778 309.149 478.227 308.992 477.744 308.677C477.263 308.359 476.885 307.906 476.61 307.32C476.338 306.73 476.202 306.022 476.202 305.197C476.202 304.371 476.34 303.665 476.615 303.079C476.893 302.492 477.275 302.043 477.758 301.732C478.242 301.42 478.791 301.264 479.404 301.264C479.878 301.264 480.259 301.344 480.547 301.503C480.839 301.659 481.065 301.841 481.224 302.05C481.386 302.259 481.512 302.442 481.601 302.602H481.691V298.818H483.177V309H481.726V307.812H481.601C481.512 307.974 481.383 308.16 481.214 308.369C481.048 308.577 480.819 308.76 480.528 308.915C480.236 309.071 479.858 309.149 479.394 309.149ZM479.722 307.881C480.15 307.881 480.511 307.769 480.806 307.543C481.104 307.315 481.33 306.998 481.482 306.594C481.638 306.189 481.716 305.719 481.716 305.182C481.716 304.652 481.64 304.187 481.487 303.79C481.335 303.392 481.111 303.082 480.816 302.86C480.521 302.638 480.156 302.527 479.722 302.527C479.275 302.527 478.902 302.643 478.604 302.875C478.305 303.107 478.08 303.424 477.927 303.825C477.778 304.226 477.704 304.678 477.704 305.182C477.704 305.692 477.78 306.151 477.932 306.559C478.085 306.967 478.31 307.29 478.609 307.528C478.91 307.764 479.281 307.881 479.722 307.881ZM485.299 309V301.364H486.786V309H485.299ZM486.05 300.185C485.791 300.185 485.569 300.099 485.384 299.927C485.201 299.751 485.11 299.542 485.11 299.3C485.11 299.055 485.201 298.846 485.384 298.674C485.569 298.498 485.791 298.411 486.05 298.411C486.308 298.411 486.529 298.498 486.711 298.674C486.897 298.846 486.989 299.055 486.989 299.3C486.989 299.542 486.897 299.751 486.711 299.927C486.529 300.099 486.308 300.185 486.05 300.185ZM490.272 304.466V309H488.785V301.364H490.212V302.607H490.307C490.482 302.202 490.757 301.877 491.132 301.632C491.51 301.387 491.985 301.264 492.559 301.264C493.079 301.264 493.535 301.374 493.926 301.592C494.317 301.808 494.62 302.129 494.836 302.557C495.051 302.984 495.159 303.513 495.159 304.143V309H493.672V304.322C493.672 303.768 493.528 303.336 493.24 303.024C492.952 302.709 492.556 302.552 492.052 302.552C491.707 302.552 491.4 302.626 491.132 302.776C490.867 302.925 490.656 303.143 490.501 303.432C490.348 303.717 490.272 304.062 490.272 304.466ZM500.354 312.023C499.748 312.023 499.226 311.943 498.788 311.784C498.354 311.625 497.999 311.415 497.724 311.153C497.449 310.891 497.244 310.604 497.108 310.293L498.386 309.766C498.475 309.911 498.594 310.066 498.744 310.228C498.896 310.394 499.101 310.535 499.36 310.651C499.622 310.767 499.958 310.825 500.369 310.825C500.933 310.825 501.398 310.687 501.766 310.412C502.134 310.14 502.318 309.706 502.318 309.109V307.608H502.224C502.134 307.77 502.005 307.951 501.836 308.15C501.67 308.349 501.441 308.521 501.15 308.667C500.858 308.813 500.479 308.886 500.011 308.886C499.408 308.886 498.864 308.745 498.381 308.463C497.9 308.178 497.519 307.759 497.237 307.205C496.959 306.648 496.82 305.964 496.82 305.152C496.82 304.34 496.957 303.644 497.232 303.064C497.511 302.484 497.892 302.04 498.376 301.732C498.86 301.42 499.408 301.264 500.021 301.264C500.495 301.264 500.878 301.344 501.17 301.503C501.461 301.659 501.688 301.841 501.851 302.05C502.016 302.259 502.144 302.442 502.234 302.602H502.343V301.364H503.8V309.169C503.8 309.825 503.647 310.364 503.342 310.785C503.037 311.206 502.625 311.517 502.104 311.719C501.587 311.922 501.004 312.023 500.354 312.023ZM500.339 307.653C500.767 307.653 501.128 307.553 501.423 307.354C501.722 307.152 501.947 306.864 502.099 306.489C502.255 306.112 502.333 305.659 502.333 305.132C502.333 304.618 502.257 304.166 502.104 303.775C501.952 303.384 501.728 303.079 501.433 302.86C501.138 302.638 500.774 302.527 500.339 302.527C499.892 302.527 499.519 302.643 499.221 302.875C498.922 303.104 498.697 303.415 498.545 303.81C498.396 304.204 498.321 304.645 498.321 305.132C498.321 305.633 498.397 306.072 498.55 306.45C498.702 306.827 498.927 307.122 499.226 307.335C499.527 307.547 499.899 307.653 500.339 307.653ZM450.472 326L454.916 317.21V317.136H449.776V315.818H456.507V317.18L452.078 326H450.472ZM463.551 324.091V323.554C463.551 323.17 463.63 322.818 463.79 322.5C463.952 322.179 464.187 321.922 464.495 321.729C464.807 321.534 465.183 321.436 465.624 321.436C466.075 321.436 466.453 321.532 466.758 321.724C467.062 321.917 467.293 322.174 467.449 322.495C467.608 322.817 467.687 323.17 467.687 323.554V324.091C467.687 324.475 467.608 324.828 467.449 325.15C467.29 325.468 467.056 325.725 466.748 325.92C466.443 326.113 466.068 326.209 465.624 326.209C465.177 326.209 464.799 326.113 464.491 325.92C464.182 325.725 463.949 325.468 463.79 325.15C463.63 324.828 463.551 324.475 463.551 324.091ZM464.709 323.554V324.091C464.709 324.376 464.777 324.634 464.913 324.866C465.049 325.098 465.286 325.214 465.624 325.214C465.959 325.214 466.192 325.098 466.325 324.866C466.458 324.634 466.524 324.376 466.524 324.091V323.554C466.524 323.269 466.459 323.01 466.33 322.778C466.204 322.546 465.969 322.43 465.624 322.43C465.293 322.43 465.057 322.546 464.918 322.778C464.779 323.01 464.709 323.269 464.709 323.554ZM458.43 318.264V317.727C458.43 317.343 458.51 316.99 458.669 316.668C458.831 316.347 459.066 316.09 459.375 315.898C459.686 315.705 460.062 315.609 460.503 315.609C460.954 315.609 461.332 315.705 461.637 315.898C461.942 316.09 462.172 316.347 462.328 316.668C462.484 316.99 462.562 317.343 462.562 317.727V318.264C462.562 318.649 462.482 319.002 462.323 319.323C462.167 319.641 461.935 319.898 461.627 320.094C461.322 320.286 460.947 320.382 460.503 320.382C460.053 320.382 459.673 320.286 459.365 320.094C459.06 319.898 458.828 319.641 458.669 319.323C458.51 319.002 458.43 318.649 458.43 318.264ZM459.593 317.727V318.264C459.593 318.549 459.66 318.808 459.792 319.04C459.928 319.272 460.165 319.388 460.503 319.388C460.835 319.388 461.067 319.272 461.199 319.04C461.335 318.808 461.403 318.549 461.403 318.264V317.727C461.403 317.442 461.339 317.184 461.209 316.952C461.08 316.72 460.845 316.604 460.503 316.604C460.172 316.604 459.937 316.72 459.797 316.952C459.661 317.184 459.593 317.442 459.593 317.727ZM458.902 326L465.902 315.818H467.091L460.091 326H458.902Z" fill="#3F6091"/>
<path d="M345.504 357V346.818H349.134C349.926 346.818 350.582 346.962 351.102 347.251C351.623 347.539 352.012 347.933 352.271 348.434C352.529 348.931 352.658 349.491 352.658 350.114C352.658 350.741 352.528 351.304 352.266 351.805C352.007 352.302 351.616 352.696 351.092 352.988C350.572 353.276 349.917 353.42 349.129 353.42H346.633V352.118H348.989C349.49 352.118 349.896 352.032 350.207 351.859C350.519 351.684 350.748 351.445 350.894 351.143C351.039 350.842 351.112 350.499 351.112 350.114C351.112 349.73 351.039 349.388 350.894 349.09C350.748 348.792 350.517 348.558 350.203 348.389C349.891 348.22 349.48 348.136 348.97 348.136H347.041V357H345.504ZM354.34 357V349.364H355.777V350.577H355.856C355.996 350.166 356.241 349.843 356.592 349.607C356.947 349.369 357.348 349.249 357.795 349.249C357.888 349.249 357.998 349.253 358.123 349.259C358.253 349.266 358.354 349.274 358.427 349.284V350.706C358.367 350.689 358.261 350.671 358.109 350.651C357.956 350.628 357.804 350.616 357.651 350.616C357.3 350.616 356.987 350.691 356.712 350.84C356.44 350.986 356.224 351.19 356.065 351.452C355.906 351.71 355.827 352.005 355.827 352.337V357H354.34ZM359.713 357V349.364H361.2V357H359.713ZM360.464 348.185C360.205 348.185 359.983 348.099 359.798 347.927C359.615 347.751 359.524 347.542 359.524 347.3C359.524 347.055 359.615 346.846 359.798 346.674C359.983 346.498 360.205 346.411 360.464 346.411C360.722 346.411 360.943 346.498 361.125 346.674C361.311 346.846 361.403 347.055 361.403 347.3C361.403 347.542 361.311 347.751 361.125 347.927C360.943 348.099 360.722 348.185 360.464 348.185ZM369.732 349.364L366.963 357H365.372L362.598 349.364H364.194L366.128 355.24H366.207L368.136 349.364H369.732ZM373.133 357.169C372.649 357.169 372.211 357.08 371.82 356.901C371.429 356.718 371.119 356.455 370.891 356.11C370.665 355.765 370.552 355.343 370.552 354.842C370.552 354.411 370.635 354.057 370.801 353.778C370.967 353.5 371.19 353.28 371.472 353.117C371.754 352.955 372.069 352.832 372.417 352.749C372.765 352.666 373.119 352.603 373.481 352.56C373.938 352.507 374.309 352.464 374.594 352.431C374.879 352.395 375.087 352.337 375.216 352.257C375.345 352.178 375.41 352.048 375.41 351.869V351.835C375.41 351.4 375.287 351.064 375.042 350.825C374.8 350.587 374.439 350.467 373.958 350.467C373.458 350.467 373.063 350.578 372.775 350.8C372.49 351.019 372.293 351.263 372.183 351.531L370.786 351.213C370.952 350.749 371.194 350.375 371.512 350.089C371.833 349.801 372.203 349.592 372.621 349.463C373.038 349.33 373.477 349.264 373.938 349.264C374.243 349.264 374.566 349.301 374.908 349.374C375.252 349.443 375.574 349.572 375.872 349.761C376.174 349.95 376.421 350.22 376.613 350.572C376.805 350.92 376.901 351.372 376.901 351.929V357H375.449V355.956H375.39C375.294 356.148 375.15 356.337 374.957 356.523C374.765 356.708 374.518 356.862 374.217 356.985C373.915 357.108 373.554 357.169 373.133 357.169ZM373.456 355.976C373.867 355.976 374.218 355.895 374.51 355.732C374.805 355.57 375.029 355.358 375.181 355.096C375.337 354.831 375.415 354.547 375.415 354.246V353.261C375.362 353.314 375.259 353.364 375.106 353.411C374.957 353.454 374.787 353.492 374.594 353.525C374.402 353.555 374.215 353.583 374.033 353.609C373.85 353.633 373.698 353.652 373.575 353.669C373.287 353.705 373.023 353.767 372.785 353.853C372.549 353.939 372.36 354.063 372.218 354.226C372.079 354.385 372.009 354.597 372.009 354.862C372.009 355.23 372.145 355.509 372.417 355.697C372.689 355.883 373.035 355.976 373.456 355.976ZM382.446 349.364V350.557H378.275V349.364H382.446ZM379.393 347.534H380.88V354.758C380.88 355.046 380.923 355.263 381.009 355.409C381.095 355.552 381.206 355.649 381.342 355.702C381.481 355.752 381.632 355.777 381.794 355.777C381.914 355.777 382.018 355.769 382.108 355.752C382.197 355.736 382.267 355.722 382.316 355.712L382.585 356.94C382.499 356.973 382.376 357.007 382.217 357.04C382.058 357.076 381.859 357.096 381.62 357.099C381.229 357.106 380.865 357.036 380.527 356.891C380.189 356.745 379.915 356.519 379.706 356.214C379.498 355.91 379.393 355.527 379.393 355.066V347.534ZM387.299 357.154C386.547 357.154 385.899 356.993 385.355 356.672C384.815 356.347 384.398 355.891 384.103 355.305C383.811 354.715 383.665 354.024 383.665 353.232C383.665 352.449 383.811 351.76 384.103 351.163C384.398 350.567 384.809 350.101 385.335 349.766C385.866 349.432 386.486 349.264 387.195 349.264C387.626 349.264 388.043 349.335 388.448 349.478C388.852 349.621 389.215 349.844 389.536 350.149C389.858 350.454 390.112 350.85 390.297 351.337C390.483 351.821 390.576 352.41 390.576 353.102V353.629H384.505V352.516H389.119C389.119 352.125 389.039 351.778 388.88 351.477C388.721 351.172 388.497 350.931 388.209 350.756C387.924 350.58 387.589 350.492 387.205 350.492C386.787 350.492 386.423 350.595 386.111 350.8C385.803 351.003 385.564 351.268 385.395 351.596C385.229 351.921 385.147 352.274 385.147 352.655V353.525C385.147 354.035 385.236 354.469 385.415 354.827C385.597 355.185 385.851 355.459 386.176 355.648C386.501 355.833 386.88 355.926 387.314 355.926C387.596 355.926 387.853 355.886 388.085 355.807C388.317 355.724 388.517 355.601 388.686 355.439C388.855 355.277 388.985 355.076 389.074 354.837L390.481 355.091C390.368 355.505 390.166 355.868 389.875 356.18C389.586 356.488 389.223 356.728 388.786 356.901C388.352 357.07 387.856 357.154 387.299 357.154ZM401.603 349.493C401.55 349.022 401.331 348.658 400.946 348.399C400.562 348.137 400.078 348.006 399.495 348.006C399.077 348.006 398.716 348.073 398.411 348.205C398.106 348.335 397.869 348.513 397.7 348.742C397.534 348.968 397.451 349.224 397.451 349.513C397.451 349.755 397.508 349.964 397.62 350.139C397.736 350.315 397.887 350.462 398.073 350.582C398.262 350.698 398.464 350.795 398.679 350.875C398.895 350.951 399.102 351.014 399.301 351.064L400.295 351.322C400.62 351.402 400.953 351.51 401.294 351.646C401.636 351.781 401.952 351.96 402.244 352.183C402.536 352.405 402.771 352.68 402.95 353.008C403.132 353.336 403.223 353.729 403.223 354.186C403.223 354.763 403.074 355.275 402.776 355.722C402.481 356.17 402.052 356.523 401.488 356.781C400.928 357.04 400.25 357.169 399.455 357.169C398.693 357.169 398.033 357.048 397.476 356.806C396.919 356.564 396.483 356.221 396.169 355.777C395.854 355.33 395.68 354.799 395.647 354.186H397.188C397.218 354.554 397.337 354.861 397.546 355.106C397.758 355.348 398.028 355.528 398.356 355.648C398.688 355.764 399.05 355.822 399.445 355.822C399.879 355.822 400.265 355.754 400.603 355.618C400.945 355.479 401.213 355.286 401.409 355.041C401.604 354.793 401.702 354.503 401.702 354.171C401.702 353.87 401.616 353.623 401.443 353.43C401.274 353.238 401.044 353.079 400.752 352.953C400.464 352.827 400.138 352.716 399.773 352.62L398.57 352.292C397.755 352.07 397.108 351.743 396.631 351.312C396.157 350.882 395.92 350.312 395.92 349.602C395.92 349.016 396.079 348.504 396.397 348.066C396.715 347.629 397.146 347.289 397.69 347.047C398.233 346.802 398.847 346.679 399.529 346.679C400.219 346.679 400.827 346.8 401.354 347.042C401.884 347.284 402.302 347.617 402.607 348.041C402.912 348.462 403.071 348.946 403.084 349.493H401.603ZM407.162 357.169C406.678 357.169 406.241 357.08 405.85 356.901C405.458 356.718 405.149 356.455 404.92 356.11C404.694 355.765 404.582 355.343 404.582 354.842C404.582 354.411 404.665 354.057 404.83 353.778C404.996 353.5 405.22 353.28 405.502 353.117C405.783 352.955 406.098 352.832 406.446 352.749C406.794 352.666 407.149 352.603 407.51 352.56C407.967 352.507 408.339 352.464 408.624 352.431C408.909 352.395 409.116 352.337 409.245 352.257C409.374 352.178 409.439 352.048 409.439 351.869V351.835C409.439 351.4 409.316 351.064 409.071 350.825C408.829 350.587 408.468 350.467 407.987 350.467C407.487 350.467 407.092 350.578 406.804 350.8C406.519 351.019 406.322 351.263 406.212 351.531L404.815 351.213C404.981 350.749 405.223 350.375 405.541 350.089C405.863 349.801 406.232 349.592 406.65 349.463C407.068 349.33 407.507 349.264 407.967 349.264C408.272 349.264 408.595 349.301 408.937 349.374C409.282 349.443 409.603 349.572 409.901 349.761C410.203 349.95 410.45 350.22 410.642 350.572C410.834 350.92 410.93 351.372 410.93 351.929V357H409.479V355.956H409.419C409.323 356.148 409.179 356.337 408.987 356.523C408.794 356.708 408.547 356.862 408.246 356.985C407.944 357.108 407.583 357.169 407.162 357.169ZM407.485 355.976C407.896 355.976 408.247 355.895 408.539 355.732C408.834 355.57 409.058 355.358 409.21 355.096C409.366 354.831 409.444 354.547 409.444 354.246V353.261C409.391 353.314 409.288 353.364 409.136 353.411C408.987 353.454 408.816 353.492 408.624 353.525C408.431 353.555 408.244 353.583 408.062 353.609C407.88 353.633 407.727 353.652 407.604 353.669C407.316 353.705 407.053 353.767 406.814 353.853C406.579 353.939 406.39 354.063 406.247 354.226C406.108 354.385 406.038 354.597 406.038 354.862C406.038 355.23 406.174 355.509 406.446 355.697C406.718 355.883 407.064 355.976 407.485 355.976ZM414.397 346.818V357H412.91V346.818H414.397ZM419.688 357.154C418.936 357.154 418.288 356.993 417.744 356.672C417.204 356.347 416.786 355.891 416.491 355.305C416.2 354.715 416.054 354.024 416.054 353.232C416.054 352.449 416.2 351.76 416.491 351.163C416.786 350.567 417.197 350.101 417.724 349.766C418.254 349.432 418.874 349.264 419.584 349.264C420.014 349.264 420.432 349.335 420.836 349.478C421.241 349.621 421.604 349.844 421.925 350.149C422.247 350.454 422.5 350.85 422.686 351.337C422.871 351.821 422.964 352.41 422.964 353.102V353.629H416.894V352.516H421.508C421.508 352.125 421.428 351.778 421.269 351.477C421.11 351.172 420.886 350.931 420.598 350.756C420.313 350.58 419.978 350.492 419.593 350.492C419.176 350.492 418.811 350.595 418.5 350.8C418.191 351.003 417.953 351.268 417.784 351.596C417.618 351.921 417.535 352.274 417.535 352.655V353.525C417.535 354.035 417.625 354.469 417.804 354.827C417.986 355.185 418.24 355.459 418.564 355.648C418.889 355.833 419.269 355.926 419.703 355.926C419.985 355.926 420.241 355.886 420.473 355.807C420.705 355.724 420.906 355.601 421.075 355.439C421.244 355.277 421.373 355.076 421.463 354.837L422.87 355.091C422.757 355.505 422.555 355.868 422.263 356.18C421.975 356.488 421.612 356.728 421.174 356.901C420.74 357.07 420.245 357.154 419.688 357.154ZM375.396 363.818V374H373.855V365.359H373.795L371.359 366.95V365.479L373.9 363.818H375.396ZM381.511 374.139C380.888 374.139 380.328 374.02 379.831 373.781C379.337 373.539 378.942 373.208 378.647 372.787C378.352 372.366 378.195 371.885 378.175 371.345H379.667C379.703 371.783 379.897 372.142 380.248 372.424C380.6 372.706 381.021 372.847 381.511 372.847C381.902 372.847 382.249 372.757 382.55 372.578C382.855 372.396 383.094 372.146 383.266 371.827C383.442 371.509 383.53 371.146 383.53 370.739C383.53 370.324 383.44 369.955 383.261 369.63C383.082 369.305 382.835 369.05 382.52 368.864C382.209 368.679 381.851 368.584 381.446 368.581C381.138 368.581 380.828 368.634 380.517 368.74C380.205 368.846 379.953 368.985 379.761 369.158L378.354 368.949L378.926 363.818H384.524V365.136H380.204L379.88 367.984H379.94C380.139 367.792 380.402 367.631 380.731 367.502C381.062 367.373 381.417 367.308 381.794 367.308C382.414 367.308 382.966 367.456 383.45 367.751C383.937 368.046 384.32 368.448 384.598 368.959C384.88 369.466 385.019 370.049 385.016 370.709C385.019 371.368 384.87 371.957 384.569 372.474C384.27 372.991 383.856 373.398 383.326 373.697C382.799 373.992 382.194 374.139 381.511 374.139ZM392.147 372.091V371.554C392.147 371.17 392.226 370.818 392.385 370.5C392.548 370.179 392.783 369.922 393.091 369.729C393.403 369.534 393.779 369.436 394.22 369.436C394.67 369.436 395.048 369.532 395.353 369.724C395.658 369.917 395.889 370.174 396.044 370.495C396.203 370.817 396.283 371.17 396.283 371.554V372.091C396.283 372.475 396.203 372.828 396.044 373.15C395.885 373.468 395.652 373.725 395.343 373.92C395.038 374.113 394.664 374.209 394.22 374.209C393.772 374.209 393.394 374.113 393.086 373.92C392.778 373.725 392.544 373.468 392.385 373.15C392.226 372.828 392.147 372.475 392.147 372.091ZM393.305 371.554V372.091C393.305 372.376 393.373 372.634 393.509 372.866C393.645 373.098 393.882 373.214 394.22 373.214C394.554 373.214 394.788 373.098 394.921 372.866C395.053 372.634 395.12 372.376 395.12 372.091V371.554C395.12 371.269 395.055 371.01 394.926 370.778C394.8 370.546 394.564 370.43 394.22 370.43C393.888 370.43 393.653 370.546 393.514 370.778C393.375 371.01 393.305 371.269 393.305 371.554ZM387.026 366.264V365.727C387.026 365.343 387.105 364.99 387.264 364.668C387.427 364.347 387.662 364.09 387.97 363.898C388.282 363.705 388.658 363.609 389.099 363.609C389.55 363.609 389.928 363.705 390.233 363.898C390.537 364.09 390.768 364.347 390.924 364.668C391.079 364.99 391.157 365.343 391.157 365.727V366.264C391.157 366.649 391.078 367.002 390.919 367.323C390.763 367.641 390.531 367.898 390.223 368.094C389.918 368.286 389.543 368.382 389.099 368.382C388.648 368.382 388.269 368.286 387.96 368.094C387.656 367.898 387.424 367.641 387.264 367.323C387.105 367.002 387.026 366.649 387.026 366.264ZM388.189 365.727V366.264C388.189 366.549 388.255 366.808 388.388 367.04C388.524 367.272 388.761 367.388 389.099 367.388C389.43 367.388 389.662 367.272 389.795 367.04C389.931 366.808 389.999 366.549 389.999 366.264V365.727C389.999 365.442 389.934 365.184 389.805 364.952C389.676 364.72 389.44 364.604 389.099 364.604C388.768 364.604 388.532 364.72 388.393 364.952C388.257 365.184 388.189 365.442 388.189 365.727ZM387.498 374L394.498 363.818H395.686L388.686 374H387.498Z" fill="#3F6091"/>
<g filter="url(#filter0_d_9_53406)">
<path d="M84.1388 359.627H82.5082L86.1722 349.445H87.9471L91.6112 359.627H89.9805L87.1019 351.295H87.0224L84.1388 359.627ZM84.4123 355.64H89.7021V356.932H84.4123V355.64ZM95.6978 359.776C95.0813 359.776 94.5311 359.619 94.0472 359.304C93.5666 358.986 93.1888 358.533 92.9137 357.947C92.6419 357.357 92.506 356.649 92.506 355.824C92.506 354.998 92.6436 354.292 92.9187 353.706C93.1971 353.119 93.5782 352.67 94.0621 352.358C94.546 352.047 95.0946 351.891 95.7077 351.891C96.1817 351.891 96.5629 351.971 96.8512 352.13C97.1429 352.286 97.3683 352.468 97.5273 352.677C97.6897 352.885 97.8157 353.069 97.9052 353.229H97.9947V349.445H99.4812V359.627H98.0295V358.439H97.9052C97.8157 358.601 97.6864 358.787 97.5174 358.996C97.3517 359.204 97.123 359.387 96.8313 359.542C96.5397 359.698 96.1618 359.776 95.6978 359.776ZM96.0259 358.508C96.4535 358.508 96.8147 358.396 97.1097 358.17C97.408 357.942 97.6334 357.625 97.7859 357.221C97.9416 356.816 98.0195 356.346 98.0195 355.809C98.0195 355.278 97.9433 354.814 97.7908 354.417C97.6384 354.019 97.4147 353.709 97.1197 353.487C96.8247 353.265 96.4601 353.154 96.0259 353.154C95.5785 353.154 95.2056 353.27 94.9073 353.502C94.609 353.734 94.3836 354.05 94.2312 354.452C94.082 354.853 94.0075 355.305 94.0075 355.809C94.0075 356.319 94.0837 356.778 94.2362 357.186C94.3886 357.594 94.614 357.917 94.9123 358.155C95.2139 358.391 95.5851 358.508 96.0259 358.508ZM108.135 351.991L105.366 359.627H103.775L101.001 351.991H102.597L104.531 357.867H104.611L106.54 351.991H108.135ZM109.532 359.627V351.991H111.019V359.627H109.532ZM110.283 350.812C110.025 350.812 109.803 350.726 109.617 350.554C109.435 350.378 109.344 350.169 109.344 349.927C109.344 349.682 109.435 349.473 109.617 349.301C109.803 349.125 110.025 349.037 110.283 349.037C110.542 349.037 110.762 349.125 110.944 349.301C111.13 349.473 111.223 349.682 111.223 349.927C111.223 350.169 111.13 350.378 110.944 350.554C110.762 350.726 110.542 350.812 110.283 350.812ZM118.741 353.855L117.394 354.094C117.337 353.921 117.248 353.757 117.125 353.601C117.006 353.446 116.844 353.318 116.638 353.219C116.433 353.119 116.176 353.069 115.868 353.069C115.447 353.069 115.095 353.164 114.814 353.353C114.532 353.538 114.391 353.779 114.391 354.074C114.391 354.329 114.485 354.534 114.674 354.69C114.863 354.846 115.168 354.974 115.589 355.073L116.802 355.351C117.505 355.514 118.029 355.764 118.373 356.102C118.718 356.44 118.89 356.879 118.89 357.42C118.89 357.877 118.758 358.285 118.493 358.643C118.231 358.997 117.864 359.276 117.394 359.478C116.926 359.68 116.385 359.781 115.768 359.781C114.913 359.781 114.215 359.599 113.675 359.234C113.135 358.866 112.803 358.344 112.681 357.668L114.118 357.449C114.207 357.824 114.391 358.107 114.669 358.3C114.948 358.488 115.311 358.583 115.758 358.583C116.245 358.583 116.635 358.482 116.926 358.28C117.218 358.074 117.364 357.824 117.364 357.529C117.364 357.29 117.275 357.09 117.096 356.927C116.92 356.765 116.65 356.642 116.285 356.559L114.993 356.276C114.28 356.114 113.753 355.855 113.412 355.501C113.074 355.146 112.904 354.697 112.904 354.153C112.904 353.702 113.03 353.308 113.282 352.97C113.534 352.632 113.882 352.368 114.326 352.18C114.77 351.987 115.279 351.891 115.853 351.891C116.678 351.891 117.328 352.07 117.801 352.428C118.275 352.783 118.589 353.258 118.741 353.855ZM123.741 359.781C123.025 359.781 122.401 359.617 121.867 359.289C121.333 358.961 120.919 358.502 120.624 357.912C120.329 357.322 120.182 356.632 120.182 355.844C120.182 355.051 120.329 354.359 120.624 353.765C120.919 353.172 121.333 352.711 121.867 352.383C122.401 352.055 123.025 351.891 123.741 351.891C124.457 351.891 125.082 352.055 125.616 352.383C126.149 352.711 126.564 353.172 126.858 353.765C127.153 354.359 127.301 355.051 127.301 355.844C127.301 356.632 127.153 357.322 126.858 357.912C126.564 358.502 126.149 358.961 125.616 359.289C125.082 359.617 124.457 359.781 123.741 359.781ZM123.746 358.533C124.21 358.533 124.595 358.411 124.9 358.165C125.205 357.92 125.43 357.594 125.576 357.186C125.725 356.778 125.8 356.329 125.8 355.839C125.8 355.351 125.725 354.904 125.576 354.496C125.43 354.085 125.205 353.756 124.9 353.507C124.595 353.258 124.21 353.134 123.746 353.134C123.279 353.134 122.891 353.258 122.583 353.507C122.278 353.756 122.051 354.085 121.902 354.496C121.756 354.904 121.683 355.351 121.683 355.839C121.683 356.329 121.756 356.778 121.902 357.186C122.051 357.594 122.278 357.92 122.583 358.165C122.891 358.411 123.279 358.533 123.746 358.533ZM128.96 359.627V351.991H130.397V353.204H130.477C130.616 352.793 130.861 352.47 131.212 352.234C131.567 351.996 131.968 351.876 132.415 351.876C132.508 351.876 132.618 351.88 132.744 351.886C132.873 351.893 132.974 351.901 133.047 351.911V353.333C132.987 353.316 132.881 353.298 132.729 353.278C132.576 353.255 132.424 353.243 132.271 353.243C131.92 353.243 131.607 353.318 131.332 353.467C131.06 353.613 130.844 353.817 130.685 354.079C130.526 354.337 130.447 354.632 130.447 354.964V359.627H128.96ZM140.056 353.855L138.708 354.094C138.652 353.921 138.562 353.757 138.44 353.601C138.32 353.446 138.158 353.318 137.953 353.219C137.747 353.119 137.49 353.069 137.182 353.069C136.761 353.069 136.41 353.164 136.128 353.353C135.846 353.538 135.705 353.779 135.705 354.074C135.705 354.329 135.8 354.534 135.989 354.69C136.178 354.846 136.483 354.974 136.904 355.073L138.117 355.351C138.819 355.514 139.343 355.764 139.688 356.102C140.032 356.44 140.205 356.879 140.205 357.42C140.205 357.877 140.072 358.285 139.807 358.643C139.545 358.997 139.179 359.276 138.708 359.478C138.241 359.68 137.699 359.781 137.083 359.781C136.227 359.781 135.53 359.599 134.99 359.234C134.449 358.866 134.118 358.344 133.995 357.668L135.432 357.449C135.521 357.824 135.705 358.107 135.984 358.3C136.262 358.488 136.625 358.583 137.073 358.583C137.56 358.583 137.949 358.482 138.241 358.28C138.533 358.074 138.678 357.824 138.678 357.529C138.678 357.29 138.589 357.09 138.41 356.927C138.234 356.765 137.964 356.642 137.6 356.559L136.307 356.276C135.594 356.114 135.067 355.855 134.726 355.501C134.388 355.146 134.219 354.697 134.219 354.153C134.219 353.702 134.345 353.308 134.597 352.97C134.849 352.632 135.197 352.368 135.641 352.18C136.085 351.987 136.594 351.891 137.167 351.891C137.992 351.891 138.642 352.07 139.116 352.428C139.59 352.783 139.903 353.258 140.056 353.855ZM101.889 374.638V373.395L106.289 366.445H107.268V368.275H106.646L103.499 373.256V373.336H109.53V374.638H101.889ZM106.716 376.627V374.26L106.726 373.694V366.445H108.183V376.627H106.716ZM116.577 374.718V374.181C116.577 373.796 116.657 373.445 116.816 373.127C116.978 372.805 117.214 372.549 117.522 372.356C117.833 372.161 118.21 372.063 118.65 372.063C119.101 372.063 119.479 372.159 119.784 372.351C120.089 372.544 120.319 372.8 120.475 373.122C120.634 373.443 120.714 373.796 120.714 374.181V374.718C120.714 375.102 120.634 375.455 120.475 375.777C120.316 376.095 120.082 376.352 119.774 376.547C119.469 376.74 119.095 376.836 118.65 376.836C118.203 376.836 117.825 376.74 117.517 376.547C117.209 376.352 116.975 376.095 116.816 375.777C116.657 375.455 116.577 375.102 116.577 374.718ZM117.736 374.181V374.718C117.736 375.003 117.804 375.261 117.939 375.493C118.075 375.725 118.312 375.841 118.65 375.841C118.985 375.841 119.219 375.725 119.351 375.493C119.484 375.261 119.55 375.003 119.55 374.718V374.181C119.55 373.896 119.486 373.637 119.356 373.405C119.23 373.173 118.995 373.057 118.65 373.057C118.319 373.057 118.084 373.173 117.944 373.405C117.805 373.637 117.736 373.896 117.736 374.181ZM111.456 368.891V368.354C111.456 367.97 111.536 367.617 111.695 367.295C111.858 366.974 112.093 366.717 112.401 366.525C112.713 366.332 113.089 366.236 113.53 366.236C113.98 366.236 114.358 366.332 114.663 366.525C114.968 366.717 115.198 366.974 115.354 367.295C115.51 367.617 115.588 367.97 115.588 368.354V368.891C115.588 369.276 115.508 369.629 115.349 369.95C115.193 370.268 114.961 370.525 114.653 370.721C114.348 370.913 113.974 371.009 113.53 371.009C113.079 371.009 112.699 370.913 112.391 370.721C112.086 370.525 111.854 370.268 111.695 369.95C111.536 369.629 111.456 369.276 111.456 368.891ZM112.62 368.354V368.891C112.62 369.176 112.686 369.435 112.819 369.667C112.955 369.899 113.192 370.015 113.53 370.015C113.861 370.015 114.093 369.899 114.226 369.667C114.362 369.435 114.43 369.176 114.43 368.891V368.354C114.43 368.069 114.365 367.811 114.236 367.579C114.106 367.347 113.871 367.231 113.53 367.231C113.198 367.231 112.963 367.347 112.824 367.579C112.688 367.811 112.62 368.069 112.62 368.354ZM111.929 376.627L118.929 366.445H120.117L113.117 376.627H111.929Z" fill="#3F6091"/>
</g>
<path d="M1.38228 217.416V207.234H7.7658V208.557H2.9185V211.659H7.43271V212.976H2.9185V216.094H7.82546V217.416H1.38228ZM12.9151 217.57C12.176 217.57 11.5397 217.403 11.006 217.068C10.4757 216.73 10.0681 216.264 9.78303 215.671C9.49799 215.078 9.35547 214.398 9.35547 213.633C9.35547 212.857 9.5013 212.173 9.79297 211.579C10.0846 210.983 10.4956 210.517 11.0259 210.182C11.5562 209.848 12.181 209.68 12.9002 209.68C13.4802 209.68 13.9973 209.788 14.4513 210.003C14.9054 210.215 15.2717 210.514 15.5501 210.898C15.8318 211.283 15.9992 211.732 16.0522 212.246H14.6055C14.5259 211.888 14.3436 211.579 14.0586 211.321C13.7769 211.062 13.399 210.933 12.9251 210.933C12.5108 210.933 12.1478 211.042 11.8363 211.261C11.5281 211.477 11.2878 211.785 11.1154 212.186C10.9431 212.584 10.8569 213.054 10.8569 213.598C10.8569 214.155 10.9414 214.635 11.1104 215.04C11.2795 215.444 11.5181 215.757 11.8263 215.979C12.1379 216.201 12.5041 216.312 12.9251 216.312C13.2068 216.312 13.462 216.261 13.6907 216.158C13.9227 216.052 14.1166 215.901 14.2724 215.706C14.4315 215.51 14.5425 215.275 14.6055 215H16.0522C15.9992 215.494 15.8384 215.934 15.57 216.322C15.3015 216.71 14.9419 217.015 14.4911 217.237C14.0437 217.459 13.5183 217.57 12.9151 217.57ZM20.8585 217.57C20.1426 217.57 19.5178 217.406 18.9842 217.078C18.4506 216.75 18.0363 216.291 17.7413 215.701C17.4463 215.111 17.2988 214.421 17.2988 213.633C17.2988 212.84 17.4463 212.148 17.7413 211.555C18.0363 210.961 18.4506 210.501 18.9842 210.172C19.5178 209.844 20.1426 209.68 20.8585 209.68C21.5744 209.68 22.1992 209.844 22.7328 210.172C23.2664 210.501 23.6807 210.961 23.9757 211.555C24.2707 212.148 24.4181 212.84 24.4181 213.633C24.4181 214.421 24.2707 215.111 23.9757 215.701C23.6807 216.291 23.2664 216.75 22.7328 217.078C22.1992 217.406 21.5744 217.57 20.8585 217.57ZM20.8635 216.322C21.3275 216.322 21.7119 216.2 22.0169 215.954C22.3218 215.709 22.5472 215.383 22.693 214.975C22.8422 214.567 22.9167 214.118 22.9167 213.628C22.9167 213.14 22.8422 212.693 22.693 212.285C22.5472 211.874 22.3218 211.545 22.0169 211.296C21.7119 211.047 21.3275 210.923 20.8635 210.923C20.3961 210.923 20.0083 211.047 19.7001 211.296C19.3952 211.545 19.1681 211.874 19.019 212.285C18.8732 212.693 18.8002 213.14 18.8002 213.628C18.8002 214.118 18.8732 214.567 19.019 214.975C19.1681 215.383 19.3952 215.709 19.7001 215.954C20.0083 216.2 20.3961 216.322 20.8635 216.322ZM31.7997 211.644L30.4524 211.883C30.3961 211.71 30.3066 211.546 30.1839 211.39C30.0646 211.235 29.9022 211.107 29.6967 211.008C29.4912 210.908 29.2344 210.858 28.9261 210.858C28.5052 210.858 28.1539 210.953 27.8722 211.142C27.5904 211.327 27.4496 211.568 27.4496 211.863C27.4496 212.118 27.544 212.323 27.733 212.479C27.9219 212.635 28.2268 212.763 28.6477 212.862L29.8608 213.14C30.5634 213.303 31.0871 213.553 31.4318 213.891C31.7765 214.229 31.9489 214.668 31.9489 215.209C31.9489 215.666 31.8163 216.074 31.5511 216.432C31.2893 216.786 30.9231 217.065 30.4524 217.267C29.9851 217.469 29.4432 217.57 28.8267 217.57C27.9716 217.57 27.2739 217.388 26.7337 217.023C26.1934 216.655 25.862 216.133 25.7393 215.457L27.1761 215.238C27.2656 215.613 27.4496 215.896 27.728 216.089C28.0064 216.278 28.3693 216.372 28.8168 216.372C29.304 216.372 29.6934 216.271 29.9851 216.069C30.2768 215.863 30.4226 215.613 30.4226 215.318C30.4226 215.079 30.3331 214.879 30.1541 214.716C29.9785 214.554 29.7083 214.431 29.3438 214.349L28.0511 214.065C27.3385 213.903 26.8116 213.644 26.4702 213.29C26.1321 212.935 25.9631 212.486 25.9631 211.942C25.9631 211.492 26.089 211.097 26.3409 210.759C26.5928 210.421 26.9408 210.157 27.3849 209.969C27.8291 209.776 28.3378 209.68 28.9112 209.68C29.7365 209.68 30.3861 209.859 30.8601 210.217C31.334 210.572 31.6473 211.047 31.7997 211.644ZM34.5229 220.28C34.3008 220.28 34.0987 220.261 33.9164 220.225C33.7341 220.192 33.5982 220.155 33.5087 220.116L33.8667 218.898C34.1384 218.97 34.3804 219.002 34.5925 218.992C34.8046 218.982 34.9919 218.903 35.1543 218.753C35.32 218.604 35.4658 218.361 35.5918 218.023L35.7757 217.515L32.9817 209.78H34.5726L36.5066 215.706H36.5861L38.5201 209.78H40.1159L36.9689 218.435C36.8231 218.833 36.6375 219.169 36.4121 219.444C36.1867 219.723 35.9183 219.932 35.6067 220.071C35.2952 220.21 34.9339 220.28 34.5229 220.28ZM47.2353 211.644L45.888 211.883C45.8316 211.71 45.7421 211.546 45.6195 211.39C45.5002 211.235 45.3378 211.107 45.1323 211.008C44.9268 210.908 44.6699 210.858 44.3617 210.858C43.9408 210.858 43.5894 210.953 43.3077 211.142C43.026 211.327 42.8851 211.568 42.8851 211.863C42.8851 212.118 42.9796 212.323 43.1685 212.479C43.3574 212.635 43.6623 212.763 44.0833 212.862L45.2963 213.14C45.999 213.303 46.5227 213.553 46.8674 213.891C47.2121 214.229 47.3844 214.668 47.3844 215.209C47.3844 215.666 47.2518 216.074 46.9867 216.432C46.7248 216.786 46.3586 217.065 45.888 217.267C45.4206 217.469 44.8787 217.57 44.2623 217.57C43.4071 217.57 42.7095 217.388 42.1692 217.023C41.629 216.655 41.2975 216.133 41.1749 215.457L42.6117 215.238C42.7012 215.613 42.8851 215.896 43.1635 216.089C43.4419 216.278 43.8049 216.372 44.2523 216.372C44.7395 216.372 45.129 216.271 45.4206 216.069C45.7123 215.863 45.8581 215.613 45.8581 215.318C45.8581 215.079 45.7686 214.879 45.5897 214.716C45.414 214.554 45.1439 214.431 44.7793 214.349L43.4867 214.065C42.7741 213.903 42.2471 213.644 41.9057 213.29C41.5676 212.935 41.3986 212.486 41.3986 211.942C41.3986 211.492 41.5246 211.097 41.7765 210.759C42.0283 210.421 42.3764 210.157 42.8205 209.969C43.2646 209.776 43.7734 209.68 44.3468 209.68C45.1721 209.68 45.8217 209.859 46.2956 210.217C46.7696 210.572 47.0828 211.047 47.2353 211.644ZM52.5835 209.78V210.973H48.4123V209.78H52.5835ZM49.5309 207.95H51.0174V215.174C51.0174 215.462 51.0605 215.679 51.1467 215.825C51.2328 215.968 51.3439 216.065 51.4798 216.118C51.619 216.168 51.7698 216.193 51.9322 216.193C52.0515 216.193 52.1559 216.185 52.2454 216.168C52.3349 216.152 52.4045 216.138 52.4542 216.128L52.7227 217.356C52.6365 217.39 52.5138 217.423 52.3548 217.456C52.1957 217.492 51.9968 217.512 51.7582 217.515C51.3671 217.522 51.0025 217.452 50.6644 217.307C50.3263 217.161 50.0529 216.935 49.8441 216.631C49.6353 216.326 49.5309 215.943 49.5309 215.482V207.95ZM57.437 217.57C56.6846 217.57 56.0366 217.409 55.4931 217.088C54.9528 216.763 54.5352 216.307 54.2402 215.721C53.9486 215.131 53.8027 214.44 53.8027 213.648C53.8027 212.865 53.9486 212.176 54.2402 211.579C54.5352 210.983 54.9462 210.517 55.4732 210.182C56.0035 209.848 56.6233 209.68 57.3326 209.68C57.7634 209.68 58.181 209.751 58.5854 209.894C58.9898 210.037 59.3527 210.26 59.6742 210.565C59.9957 210.87 60.2492 211.266 60.4348 211.753C60.6204 212.237 60.7132 212.826 60.7132 213.518V214.045H54.6429V212.932H59.2566C59.2566 212.541 59.177 212.194 59.0179 211.893C58.8588 211.588 58.6351 211.347 58.3468 211.172C58.0617 210.996 57.727 210.908 57.3425 210.908C56.9249 210.908 56.5603 211.011 56.2488 211.216C55.9405 211.419 55.7019 211.684 55.5328 212.012C55.3671 212.337 55.2843 212.69 55.2843 213.071V213.941C55.2843 214.451 55.3738 214.885 55.5527 215.243C55.735 215.601 55.9886 215.875 56.3134 216.064C56.6382 216.249 57.0177 216.342 57.4519 216.342C57.7336 216.342 57.9905 216.302 58.2225 216.223C58.4545 216.14 58.655 216.017 58.824 215.855C58.9931 215.693 59.1223 215.492 59.2118 215.253L60.6188 215.507C60.5061 215.921 60.3039 216.284 60.0123 216.596C59.7239 216.904 59.361 217.144 58.9235 217.317C58.4893 217.486 57.9938 217.57 57.437 217.57ZM62.3626 217.416V209.78H63.7894V211.023H63.8839C64.043 210.602 64.3031 210.273 64.6644 210.038C65.0257 209.8 65.4582 209.68 65.962 209.68C66.4724 209.68 66.9 209.8 67.2447 210.038C67.5927 210.277 67.8496 210.605 68.0153 211.023H68.0948C68.2771 210.615 68.5671 210.29 68.9648 210.048C69.3626 209.803 69.8365 209.68 70.3867 209.68C71.0794 209.68 71.6445 209.897 72.082 210.331C72.5228 210.766 72.7433 211.42 72.7433 212.295V217.416H71.2567V212.434C71.2567 211.917 71.1159 211.543 70.8342 211.311C70.5524 211.079 70.216 210.963 69.8249 210.963C69.341 210.963 68.9648 211.112 68.6964 211.41C68.4279 211.705 68.2937 212.085 68.2937 212.549V217.416H66.8121V212.34C66.8121 211.926 66.6829 211.593 66.4244 211.341C66.1658 211.089 65.8294 210.963 65.4151 210.963C65.1334 210.963 64.8732 211.037 64.6346 211.187C64.3993 211.332 64.2087 211.536 64.0629 211.798C63.9203 212.06 63.8491 212.363 63.8491 212.708V217.416H62.3626ZM26.697 234.555C26.0142 234.555 25.4044 234.438 24.8675 234.202C24.3338 233.967 23.9113 233.64 23.5997 233.223C23.2915 232.802 23.1257 232.315 23.1025 231.761H24.6636C24.6835 232.063 24.7846 232.325 24.9669 232.547C25.1525 232.765 25.3944 232.934 25.6927 233.054C25.991 233.173 26.3225 233.233 26.6871 233.233C27.0881 233.233 27.4427 233.163 27.751 233.024C28.0625 232.885 28.3061 232.691 28.4818 232.442C28.6575 232.19 28.7453 231.9 28.7453 231.572C28.7453 231.231 28.6575 230.931 28.4818 230.672C28.3095 230.411 28.0559 230.205 27.7211 230.056C27.3897 229.907 26.9887 229.832 26.518 229.832H25.6579V228.579H26.518C26.8959 228.579 27.2273 228.511 27.5123 228.376C27.8007 228.24 28.0261 228.051 28.1885 227.809C28.3509 227.564 28.4321 227.277 28.4321 226.949C28.4321 226.634 28.3608 226.36 28.2183 226.128C28.0791 225.893 27.8802 225.709 27.6217 225.577C27.3665 225.444 27.0649 225.378 26.7169 225.378C26.3854 225.378 26.0756 225.439 25.7872 225.562C25.5022 225.681 25.2702 225.853 25.0912 226.079C24.9122 226.301 24.8161 226.568 24.8028 226.879H23.3163C23.3329 226.329 23.4953 225.845 23.8035 225.427C24.1151 225.01 24.5261 224.683 25.0365 224.448C25.5469 224.213 26.1137 224.095 26.7368 224.095C27.3897 224.095 27.9532 224.223 28.4271 224.478C28.9044 224.73 29.2723 225.066 29.5308 225.487C29.7926 225.908 29.9219 226.369 29.9186 226.869C29.9219 227.439 29.7628 227.923 29.4413 228.321C29.1231 228.719 28.6989 228.985 28.1686 229.121V229.201C28.8447 229.304 29.3684 229.572 29.7396 230.006C30.1141 230.44 30.2997 230.979 30.2964 231.622C30.2997 232.182 30.144 232.684 29.8291 233.128C29.5175 233.573 29.0916 233.922 28.5514 234.177C28.0112 234.429 27.393 234.555 26.697 234.555ZM35.7204 234.585C34.9349 234.582 34.2638 234.375 33.7069 233.964C33.1501 233.553 32.7242 232.954 32.4292 232.169C32.1343 231.383 31.9868 230.437 31.9868 229.33C31.9868 228.226 32.1343 227.283 32.4292 226.501C32.7275 225.719 33.1551 225.122 33.7119 224.711C34.272 224.3 34.9416 224.095 35.7204 224.095C36.4993 224.095 37.1672 224.302 37.724 224.716C38.2808 225.127 38.7067 225.724 39.0017 226.506C39.3 227.285 39.4491 228.226 39.4491 229.33C39.4491 230.44 39.3016 231.388 39.0067 232.174C38.7117 232.956 38.2858 233.554 37.729 233.969C37.1721 234.38 36.5026 234.585 35.7204 234.585ZM35.7204 233.258C36.4098 233.258 36.9484 232.921 37.3362 232.248C37.7273 231.576 37.9229 230.603 37.9229 229.33C37.9229 228.485 37.8334 227.771 37.6544 227.187C37.4787 226.601 37.2252 226.157 36.8937 225.855C36.5656 225.55 36.1745 225.398 35.7204 225.398C35.0344 225.398 34.4958 225.736 34.1047 226.412C33.7136 227.088 33.5164 228.061 33.5131 229.33C33.5131 230.179 33.6009 230.896 33.7765 231.483C33.9555 232.066 34.2091 232.509 34.5372 232.81C34.8653 233.108 35.2597 233.258 35.7204 233.258ZM46.5274 232.507V231.97C46.5274 231.586 46.607 231.234 46.7661 230.916C46.9285 230.595 47.1638 230.338 47.472 230.145C47.7836 229.95 48.1598 229.852 48.6006 229.852C49.0513 229.852 49.4292 229.948 49.7341 230.14C50.039 230.333 50.2694 230.59 50.4252 230.911C50.5843 231.233 50.6638 231.586 50.6638 231.97V232.507C50.6638 232.891 50.5843 233.244 50.4252 233.566C50.2661 233.884 50.0324 234.141 49.7242 234.336C49.4192 234.529 49.0447 234.625 48.6006 234.625C48.1531 234.625 47.7753 234.529 47.4671 234.336C47.1588 234.141 46.9252 233.884 46.7661 233.566C46.607 233.244 46.5274 232.891 46.5274 232.507ZM47.6858 231.97V232.507C47.6858 232.792 47.7538 233.05 47.8896 233.282C48.0255 233.515 48.2625 233.631 48.6006 233.631C48.9353 233.631 49.169 233.515 49.3016 233.282C49.4342 233.05 49.5004 232.792 49.5004 232.507V231.97C49.5004 231.685 49.4358 231.426 49.3066 231.194C49.1806 230.962 48.9453 230.846 48.6006 230.846C48.2691 230.846 48.0338 230.962 47.8946 231.194C47.7554 231.426 47.6858 231.685 47.6858 231.97ZM41.4067 226.68V226.143C41.4067 225.759 41.4862 225.406 41.6453 225.084C41.8077 224.763 42.0431 224.506 42.3513 224.314C42.6628 224.122 43.039 224.025 43.4798 224.025C43.9306 224.025 44.3084 224.122 44.6134 224.314C44.9183 224.506 45.1486 224.763 45.3044 225.084C45.4602 225.406 45.5381 225.759 45.5381 226.143V226.68C45.5381 227.065 45.4585 227.418 45.2994 227.739C45.1437 228.057 44.9117 228.314 44.6034 228.51C44.2985 228.702 43.924 228.798 43.4798 228.798C43.0291 228.798 42.6496 228.702 42.3414 228.51C42.0364 228.314 41.8044 228.057 41.6453 227.739C41.4862 227.418 41.4067 227.065 41.4067 226.68ZM42.57 226.143V226.68C42.57 226.965 42.6363 227.224 42.7689 227.456C42.9048 227.688 43.1418 227.804 43.4798 227.804C43.8113 227.804 44.0433 227.688 44.1759 227.456C44.3118 227.224 44.3797 226.965 44.3797 226.68V226.143C44.3797 225.858 44.3151 225.6 44.1858 225.368C44.0566 225.136 43.8212 225.02 43.4798 225.02C43.1484 225.02 42.9131 225.136 42.7739 225.368C42.638 225.6 42.57 225.858 42.57 226.143ZM41.879 234.416L48.879 224.234H50.0672L43.0672 234.416H41.879Z" fill="#3F6091"/>
<path d="M164.3 353.304L193.155 353.304L207.583 337.273" stroke="#BFD2EE" stroke-width="1.60308" stroke-linecap="square"/>
<path d="M162.096 97.8135C177.433 82.4764 196.182 70.987 216.81 64.2844C237.438 57.5819 259.36 55.8566 280.783 59.2497C302.206 62.6427 322.521 71.0577 340.069 83.8067C357.616 96.5557 371.897 113.277 381.744 132.602L338.883 154.442C332.482 141.88 323.199 131.011 311.794 122.724C300.388 114.438 287.183 108.968 273.258 106.762C259.333 104.557 245.084 105.678 231.675 110.035C218.267 114.392 206.08 121.86 196.111 131.829L162.096 97.8135Z" fill="#71F596"/>
<path d="M381.678 132.472C391.545 151.787 396.702 173.164 396.725 194.854C396.748 216.543 391.637 237.931 381.811 257.267L338.926 235.474C345.313 222.905 348.635 209.003 348.62 194.905C348.605 180.806 345.253 166.912 338.839 154.357L381.678 132.472Z" fill="#D68DEF"/>
<path d="M381.811 257.27C372.641 275.305 359.6 291.092 343.625 303.506L314.108 265.521C324.492 257.452 332.978 247.17 338.938 235.447L381.811 257.27Z" fill="#EE7D31"/>
<path d="M343.955 303.263C328.019 315.727 309.527 324.519 289.8 329.012C270.074 333.504 249.598 333.586 229.836 329.251L240.143 282.263C252.988 285.081 266.297 285.028 279.119 282.108C291.941 279.188 303.961 273.473 314.32 265.371L343.955 303.263Z" fill="#A398EC"/>
<path d="M229.832 329.251C217.487 326.543 205.575 322.145 194.432 316.182L217.129 273.768C224.372 277.644 232.115 280.503 240.139 282.263L229.832 329.251Z" fill="#5B9BD4"/>
<path d="M194.428 316.179C175.505 306.052 159.216 291.633 146.867 274.078C134.518 256.524 126.452 236.321 123.315 215.088C120.178 193.855 122.058 172.183 128.803 151.808C135.548 131.432 146.971 112.919 162.157 97.7518L196.151 131.789C186.28 141.647 178.855 153.681 174.47 166.925C170.086 180.169 168.865 194.256 170.904 208.057C172.943 221.859 178.186 234.99 186.212 246.401C194.239 257.812 204.827 267.184 217.127 273.767L194.428 316.179Z" fill="#FFD92F"/>
<defs>
<filter id="filter0_d_9_53406" x="78.5081" y="349.037" width="65.6965" height="35.7983" filterUnits="userSpaceOnUse" color-interpolation-filters="sRGB">
<feFlood flood-opacity="0" result="BackgroundImageFix"/>
<feColorMatrix in="SourceAlpha" type="matrix" values="0 0 0 0 0 0 0 0 0 0 0 0 0 0 0 0 0 0 127 0" result="hardAlpha"/>
<feOffset dy="4"/>
<feGaussianBlur stdDeviation="2"/>
<feComposite in2="hardAlpha" operator="out"/>
<feColorMatrix type="matrix" values="0 0 0 0 0 0 0 0 0 0 0 0 0 0 0 0 0 0 0.25 0"/>
<feBlend mode="normal" in2="BackgroundImageFix" result="effect1_dropShadow_9_53406"/>
<feBlend mode="normal" in="SourceGraphic" in2="effect1_dropShadow_9_53406" result="shape"/>
</filter>
</defs>
</svg>
