<svg
                className="bi-quote"
                viewBox="0 0 48 48"
                fill="none"
                xmlns="http://www.w3.org/2000/svg"
              >
                <path
                  d="M35.9995 36C36.7952 36 37.5583 35.6839 38.1209 35.1213C38.6835 34.5587 38.9995 33.7956 38.9995 33V25.674C38.9995 24.8783 38.6835 24.1153 38.1209 23.5527C37.5583 22.9901 36.7952 22.674 35.9995 22.674H31.8355C31.8355 21.621 31.8985 20.565 32.0215 19.512C32.2075 18.396 32.5195 17.403 32.9515 16.536C33.3865 15.666 33.9445 14.985 34.6285 14.487C35.3095 13.929 36.1765 13.65 37.2325 13.65V9C35.4955 9 33.9775 9.372 32.6725 10.116C31.3789 10.8525 30.2667 11.8694 29.4175 13.092C28.5653 14.4399 27.9372 15.9171 27.5575 17.466C27.175 19.1753 26.9878 20.9225 26.9995 22.674V33C26.9995 33.7956 27.3156 34.5587 27.8782 35.1213C28.4408 35.6839 29.2039 36 29.9995 36H35.9995ZM17.9995 36C18.7952 36 19.5583 35.6839 20.1209 35.1213C20.6835 34.5587 20.9995 33.7956 20.9995 33V25.674C20.9995 24.8783 20.6835 24.1153 20.1209 23.5527C19.5583 22.9901 18.7952 22.674 17.9995 22.674H13.8355C13.8355 21.621 13.8985 20.565 14.0215 19.512C14.2075 18.396 14.5195 17.403 14.9515 16.536C15.3865 15.666 15.9445 14.985 16.6285 14.487C17.3095 13.929 18.1765 13.65 19.2325 13.65V9C17.4955 9 15.9775 9.372 14.6725 10.116C13.3789 10.8525 12.2667 11.8694 11.4175 13.092C10.5653 14.4399 9.93718 15.9171 9.55754 17.466C9.175 19.1753 8.9878 20.9225 8.99954 22.674V33C8.99954 33.7956 9.31561 34.5587 9.87822 35.1213C10.4408 35.6839 11.2039 36 11.9995 36H17.9995Z"
                  fill="#6941C6"
                />
              </svg>