 <svg
            className="vector4"
            viewBox="0 0 29 29"
            xmlns="http://www.w3.org/2000/svg"
          >
            <path
              d="M25.7614 0.218793L25.7612 0.218869L1.29018 10.2946C1.29015 10.2946 1.29012 10.2946 1.29009 10.2946C0.870665 10.4673 0.511564 10.7599 0.25783 11.1359L0.973682 11.619L0.257826 11.1359C0.0040741 11.5119 -0.133001 11.9544 -0.1362 12.408C-0.139399 12.8616 -0.00857544 13.3061 0.239855 13.6856C0.488285 14.0651 0.843258 14.3628 1.26024 14.5414L10.2777 18.406C10.2777 18.406 10.2777 18.406 10.2778 18.406C10.4135 18.4643 10.5217 18.5725 10.5799 18.7083L14.4445 27.7257C14.4446 27.7257 14.4446 27.7258 14.4446 27.7259C14.6232 28.1428 14.9209 28.4977 15.3003 28.7461C15.6798 28.9945 16.1243 29.1253 16.5779 29.1221C17.0315 29.1189 17.474 28.9818 17.85 28.7281L17.3669 28.0122L17.85 28.7281C18.226 28.4743 18.5186 28.1153 18.6913 27.6958L25.7614 0.218793ZM25.7614 0.218793C26.1819 0.0457608 26.6443 0.00108975 27.0901 0.0904104C27.536 0.179731 27.9454 0.399045 28.2669 0.72071C28.5883 1.04237 28.8073 1.45199 28.8963 1.89793C28.9852 2.34372 28.9402 2.80586 28.767 3.22614C28.767 3.22625 28.7669 3.22635 28.7669 3.22646C28.7669 3.22649 28.7669 3.22652 28.7669 3.22655L18.6913 27.6957L25.7614 0.218793Z"
            />
          </svg>