<?xml version="1.0" standalone="no"?>
<!DOCTYPE svg PUBLIC "-//W3C//DTD SVG 20010904//EN"
 "http://www.w3.org/TR/2001/REC-SVG-20010904/DTD/svg10.dtd">
<svg version="1.0" xmlns="http://www.w3.org/2000/svg"
 width="210.000000pt" height="210.000000pt"  fill="none"  viewBox="0 0 210.000000 210.000000"
 >

<g transform="translate(0.000000,216.000000) scale(0.100000,-0.100000)"
fill="#2E79DE" stroke="none">
<path d="M500 2150 c-58 -5 -125 -14 -149 -20 -150 -38 -277 -164 -317 -314
-27 -101 -36 -351 -31 -847 3 -295 9 -513 16 -559 34 -217 183 -361 406 -392
132 -19 1196 -18 1319 1 198 30 343 157 385 336 22 94 31 301 31 725 0 588
-13 740 -75 845 -63 108 -197 195 -335 216 -92 14 -1097 21 -1250 9z m978
-428 c-10 -166 -72 -240 -318 -382 -190 -108 -234 -146 -244 -207 -15 -85 54
-173 135 -173 24 0 30 -3 22 -11 -16 -16 -150 -16 -205 0 -148 42 -199 197
-117 351 54 102 123 156 434 336 154 90 284 163 289 164 5 0 7 -35 4 -78z
m-175 -514 c54 -16 112 -71 133 -123 24 -65 15 -147 -27 -224 -55 -104 -124
-158 -436 -338 -155 -90 -285 -163 -289 -163 -3 0 -5 35 -2 78 10 166 72 240
318 382 190 108 234 146 244 207 15 85 -54 173 -135 173 -20 0 -29 4 -23 9 21
22 142 21 217 -1z"/>
</g>
</svg>
