<svg xmlns="http://www.w3.org/2000/svg" viewBox="0 0 20 20" fill="none">
  <g clip-path="url(#clip0_4984_1068)">
    <path d="M9.99984 12.4998C11.3805 12.4998 12.4998 11.3805 12.4998 9.99984C12.4998 8.61913 11.3805 7.49984 9.99984 7.49984C8.61913 7.49984 7.49984 8.61913 7.49984 9.99984C7.49984 11.3805 8.61913 12.4998 9.99984 12.4998Z" stroke="#667085" stroke-width="1.66667" stroke-linecap="round" stroke-linejoin="round"/>
    <path d="M15.6059 12.2726C15.5051 12.5011 15.475 12.7545 15.5195 13.0003C15.5641 13.246 15.6812 13.4728 15.8559 13.6514L15.9014 13.6968C16.0422 13.8375 16.154 14.0046 16.2302 14.1886C16.3065 14.3725 16.3457 14.5697 16.3457 14.7688C16.3457 14.9679 16.3065 15.1651 16.2302 15.349C16.154 15.5329 16.0422 15.7 15.9014 15.8407C15.7606 15.9816 15.5935 16.0934 15.4096 16.1696C15.2257 16.2459 15.0285 16.2851 14.8294 16.2851C14.6303 16.2851 14.4331 16.2459 14.2492 16.1696C14.0652 16.0934 13.8981 15.9816 13.7574 15.8407L13.712 15.7953C13.5334 15.6206 13.3066 15.5035 13.0609 15.4589C12.8151 15.4144 12.5617 15.4444 12.3332 15.5453C12.1091 15.6413 11.918 15.8008 11.7834 16.004C11.6488 16.2073 11.5766 16.4455 11.5756 16.6892V16.818C11.5756 17.2199 11.416 17.6052 11.1318 17.8894C10.8477 18.1735 10.4623 18.3332 10.0604 18.3332C9.6586 18.3332 9.27322 18.1735 8.98907 17.8894C8.70492 17.6052 8.54529 17.2199 8.54529 16.818V16.7498C8.53943 16.4991 8.45826 16.2559 8.31235 16.0519C8.16643 15.8479 7.96252 15.6925 7.72711 15.6059C7.49861 15.5051 7.24515 15.475 6.99939 15.5195C6.75364 15.5641 6.52687 15.6812 6.34832 15.8559L6.30287 15.9014C6.16215 16.0422 5.99505 16.154 5.81111 16.2302C5.62717 16.3065 5.43001 16.3457 5.2309 16.3457C5.03178 16.3457 4.83462 16.3065 4.65069 16.2302C4.46675 16.154 4.29965 16.0422 4.15893 15.9014C4.01805 15.7606 3.9063 15.5935 3.83005 15.4096C3.7538 15.2257 3.71455 15.0285 3.71455 14.8294C3.71455 14.6303 3.7538 14.4331 3.83005 14.2492C3.9063 14.0652 4.01805 13.8981 4.15893 13.7574L4.20438 13.712C4.37903 13.5334 4.49619 13.3066 4.54075 13.0609C4.58531 12.8151 4.55523 12.5617 4.45438 12.3332C4.35835 12.1091 4.19889 11.918 3.99564 11.7834C3.79239 11.6488 3.55422 11.5766 3.31044 11.5756H3.18166C2.77981 11.5756 2.39443 11.416 2.11028 11.1318C1.82614 10.8477 1.6665 10.4623 1.6665 10.0604C1.6665 9.6586 1.82614 9.27322 2.11028 8.98907C2.39443 8.70492 2.77981 8.54529 3.18166 8.54529H3.24984C3.50059 8.53943 3.74378 8.45826 3.94779 8.31235C4.1518 8.16643 4.3072 7.96252 4.39378 7.72711C4.49462 7.49861 4.5247 7.24515 4.48014 6.99939C4.43558 6.75364 4.31843 6.52687 4.14378 6.34832L4.09832 6.30287C3.95745 6.16215 3.84569 5.99505 3.76944 5.81111C3.69319 5.62717 3.65395 5.43001 3.65395 5.2309C3.65395 5.03178 3.69319 4.83462 3.76944 4.65069C3.84569 4.46675 3.95745 4.29965 4.09832 4.15893C4.23904 4.01805 4.40614 3.9063 4.59008 3.83005C4.77402 3.7538 4.97118 3.71455 5.17029 3.71455C5.36941 3.71455 5.56657 3.7538 5.7505 3.83005C5.93444 3.9063 6.10154 4.01805 6.24226 4.15893L6.28772 4.20438C6.46626 4.37903 6.69303 4.49619 6.93879 4.54075C7.18454 4.58531 7.43801 4.55523 7.6665 4.45438H7.72711C7.95118 4.35835 8.14228 4.19889 8.27688 3.99564C8.41148 3.79239 8.48371 3.55422 8.48469 3.31044V3.18166C8.48469 2.77981 8.64432 2.39443 8.92846 2.11028C9.21261 1.82614 9.59799 1.6665 9.99984 1.6665C10.4017 1.6665 10.7871 1.82614 11.0712 2.11028C11.3554 2.39443 11.515 2.77981 11.515 3.18166V3.24984C11.516 3.49362 11.5882 3.73179 11.7228 3.93504C11.8574 4.13829 12.0485 4.29774 12.2726 4.39378C12.5011 4.49462 12.7545 4.5247 13.0003 4.48014C13.246 4.43558 13.4728 4.31843 13.6514 4.14378L13.6968 4.09832C13.8375 3.95745 14.0046 3.84569 14.1886 3.76944C14.3725 3.69319 14.5697 3.65395 14.7688 3.65395C14.9679 3.65395 15.1651 3.69319 15.349 3.76944C15.5329 3.84569 15.7 3.95745 15.8407 4.09832C15.9816 4.23904 16.0934 4.40614 16.1696 4.59008C16.2459 4.77402 16.2851 4.97118 16.2851 5.17029C16.2851 5.36941 16.2459 5.56657 16.1696 5.7505C16.0934 5.93444 15.9816 6.10154 15.8407 6.24226L15.7953 6.28772C15.6206 6.46626 15.5035 6.69303 15.4589 6.93879C15.4144 7.18454 15.4444 7.43801 15.5453 7.6665V7.72711C15.6413 7.95118 15.8008 8.14228 16.004 8.27688C16.2073 8.41148 16.4455 8.48371 16.6892 8.48469H16.818C17.2199 8.48469 17.6052 8.64432 17.8894 8.92846C18.1735 9.21261 18.3332 9.59799 18.3332 9.99984C18.3332 10.4017 18.1735 10.7871 17.8894 11.0712C17.6052 11.3554 17.2199 11.515 16.818 11.515H16.7498C16.5061 11.516 16.2679 11.5882 16.0646 11.7228C15.8614 11.8574 15.7019 12.0485 15.6059 12.2726Z" stroke="#667085" stroke-width="1.66667" stroke-linecap="round" stroke-linejoin="round"/>
  </g>
  <defs>
    <clipPath id="clip0_4984_1068">
      <rect width="20" height="20" fill="white"/>
    </clipPath>
  </defs>
</svg>