<svg xmlns="http://www.w3.org/2000/svg" viewBox="0 0 84 84" fill="none">
  <path d="M42.0977 28.3633C43.0132 28.3633 43.8913 28.727 44.5387 29.3744C45.1861 30.0218 45.5498 30.8999 45.5498 31.8154C45.5498 32.731 45.1861 33.6091 44.5387 34.2565C43.8913 34.9039 43.0132 35.2676 42.0977 35.2676C41.1821 35.2676 40.304 34.9039 39.6566 34.2565C39.0092 33.6091 38.6455 32.731 38.6455 31.8154C38.6455 30.8999 39.0092 30.0218 39.6566 29.3744C40.304 28.727 41.1821 28.3633 42.0977 28.3633ZM73.167 38.7197C73.167 57.8792 59.9107 75.7958 42.0977 80.1455C24.2846 75.7958 11.0283 57.8792 11.0283 38.7197V18.0068L42.0977 4.19824L73.167 18.0068V38.7197ZM42.0977 21.459C39.351 21.459 36.7168 22.5501 34.7745 24.4923C32.8323 26.4345 31.7412 29.0687 31.7412 31.8154C31.7412 36.3377 34.6065 40.1696 38.6455 41.585V62.8848H45.5498V55.9805H52.4541V49.0762H45.5498V41.585C49.5888 40.1696 52.4541 36.3377 52.4541 31.8154C52.4541 29.0687 51.363 26.4345 49.4208 24.4923C47.4786 22.5501 44.8444 21.459 42.0977 21.459Z" fill="#4ECB71"/>
</svg>