<svg
                      className="hand-drawn-accents"
                      viewBox="0 0 43 47"
                      fill="none"
                      xmlns="http://www.w3.org/2000/svg"
                    >
                      <path
                        fill-rule="evenodd"
                        clip-rule="evenodd"
                        d="M28.8189 43.4712C32.866 42.3407 37.1031 41.7704 41.2134 41.248C42.0987 41.1384 42.9206 41.7496 42.9839 42.6107C43.1103 43.4725 42.4776 44.2606 41.6555 44.3701C37.6717 44.873 33.5618 45.4112 29.7044 46.4996C28.8824 46.7356 27.9967 46.2497 27.7438 45.4137C27.4908 44.5784 27.9968 43.7079 28.8189 43.4712Z"
                        fill="#475467"
                      />
                      <path
                        fill-rule="evenodd"
                        clip-rule="evenodd"
                        d="M16.5518 27.4432C23.065 20.8269 30.4003 15.0622 36.7871 8.26843C37.3562 7.63393 38.368 7.59993 39.0003 8.19226C39.6327 8.78522 39.6956 9.78228 39.0633 10.4168C32.6765 17.2301 25.3412 23.0136 18.828 29.6494C18.1956 30.2688 17.1841 30.2776 16.5518 29.6683C15.9827 29.0596 15.9194 28.0626 16.5518 27.4432Z"
                        fill="#475467"
                      />
                      <path
                        fill-rule="evenodd"
                        clip-rule="evenodd"
                        d="M4.34589 1.99457C4.15619 5.78142 3.96685 9.56828 3.77715 13.3558C3.77715 14.2232 3.01795 14.8929 2.13266 14.8507C1.24736 14.8079 0.615383 14.0696 0.615383 13.2015C0.805088 9.4084 0.994423 5.61587 1.18413 1.82335C1.24736 0.955948 2.00631 0.290604 2.89161 0.337814C3.71367 0.385024 4.40913 1.12779 4.34589 1.99457Z"
                        fill="#475467"
                      />
                    </svg>