<svg viewBox="88.94999999999993 70.49000000000001 555.9375 281.96000000000004" fill="none" xmlns="http://www.w3.org/2000/svg" xmlns:xlink="http://www.w3.org/1999/xlink" xmlns:blush="http://design.blush" overflow="visible" width="555.9375px" height="281.96000000000004px"><g id="Master/Scenes/Home Office" blush:has-customizable-colors="true" blush:viewBox="88.94999999999993 65.48801916932905 548.525 278.54632587859436" blush:i="0"><g id="Group 148" blush:i="0.0"><path id="Fill 3" fill-rule="evenodd" clip-rule="evenodd" d="M475.148 141.827H468.022C468.992 136.633 469.963 131.438 470.933 126.244C472.338 131.438 473.742 136.633 475.148 141.827" fill="#FFCA22" blush:i="0.0.0"/><path id="Fill 5" fill-rule="evenodd" clip-rule="evenodd" d="M475.148 141.827H468.022C468.992 147.021 469.963 152.216 470.933 157.41C472.338 152.216 473.742 147.021 475.148 141.827" fill="#FFCA22" blush:i="0.0.1"/><path id="Fill 7" fill-rule="evenodd" clip-rule="evenodd" d="M470.989 138.223V145.433C467.138 144.452 463.288 143.469 459.437 142.488C463.288 141.066 467.138 139.644 470.989 138.223" fill="#FFCA22" blush:i="0.0.2"/><path id="Fill 9" fill-rule="evenodd" clip-rule="evenodd" d="M470.989 138.223V145.433C474.838 144.452 478.689 143.469 482.539 142.488C478.689 141.066 474.838 139.644 470.989 138.223" fill="#FFCA22" blush:i="0.0.3"/><path id="Fill 53" fill-rule="evenodd" clip-rule="evenodd" d="M359.569 336.383C359.55 336.53 359.564 336.718 359.564 336.718C359.565 336.77 359.576 336.801 359.555 336.844C359.563 336.881 359.57 336.917 359.578 336.954C359.611 336.307 359.594 335.645 359.679 334.96C359.606 335.546 359.543 336.06 359.569 336.383" fill="#FF9292" blush:i="0.0.4"/><path id="Fill 55" fill-rule="evenodd" clip-rule="evenodd" d="M359.315 338.458L360.049 338.831C359.981 338.526 359.896 338.27 359.845 338.124C359.768 337.854 359.669 337.521 359.612 337.156C359.604 337.1 359.59 337.028 359.577 336.954C359.549 337.462 359.484 337.962 359.315 338.458" fill="#EF31FF" blush:i="0.0.5"/><g id="Group 324" blush:i="0.0.6"><path id="Fill 59" fill-rule="evenodd" clip-rule="evenodd" d="M168.057 249.679C169.421 249.681 170.785 249.683 172.149 249.685C171.596 246.701 171.042 243.718 170.489 240.734C169.678 243.716 168.867 246.698 168.057 249.679" fill="#F5C84E" blush:i="0.0.6.0"/><path id="Fill 61" fill-rule="evenodd" clip-rule="evenodd" d="M168.057 249.679C169.421 249.681 170.785 249.683 172.149 249.685C171.587 252.667 171.027 255.649 170.465 258.631C169.663 255.648 168.859 252.663 168.057 249.679" fill="#F5C84E" blush:i="0.0.6.1"/><path id="Fill 63" fill-rule="evenodd" clip-rule="evenodd" d="M170.448 247.612C170.445 248.992 170.444 250.372 170.442 251.753C172.653 251.191 174.866 250.631 177.078 250.07C174.868 249.251 172.657 248.431 170.448 247.612" fill="#F5C84E" blush:i="0.0.6.2"/><path id="Fill 65" fill-rule="evenodd" clip-rule="evenodd" d="M170.449 247.612C170.446 248.992 170.445 250.372 170.443 251.753C168.233 251.185 166.022 250.619 163.811 250.051C166.023 249.239 168.236 248.425 170.449 247.612" fill="#F5C84E" blush:i="0.0.6.3"/><path id="Fill 67" fill-rule="evenodd" clip-rule="evenodd" d="M106.999 239.702C108.99 239.705 110.981 239.708 112.971 239.711C112.165 235.356 111.356 231.001 110.549 226.646C109.366 230.999 108.182 235.35 106.999 239.702" fill="#F5C84E" blush:i="0.0.6.4"/><path id="Fill 69" fill-rule="evenodd" clip-rule="evenodd" d="M106.999 239.702C108.99 239.705 110.981 239.708 112.971 239.711C112.153 244.063 111.333 248.416 110.514 252.767C109.342 248.413 108.171 244.057 106.999 239.702" fill="#F5C84E" blush:i="0.0.6.5"/><path id="Fill 71" fill-rule="evenodd" clip-rule="evenodd" d="M110.488 236.685C110.485 238.7 110.482 240.714 110.48 242.729C113.708 241.91 116.936 241.091 120.165 240.273C116.939 239.077 113.714 237.881 110.488 236.685" fill="#F5C84E" blush:i="0.0.6.6"/><path id="Fill 73" fill-rule="evenodd" clip-rule="evenodd" d="M110.488 236.685C110.485 238.7 110.482 240.714 110.48 242.729C107.255 241.901 104.029 241.074 100.803 240.247C104.032 239.059 107.26 237.872 110.488 236.685" fill="#F5C84E" blush:i="0.0.6.7"/></g><path id="Union" fill-rule="evenodd" clip-rule="evenodd" d="M244.502 195.417C244.502 195.417 244.502 195.417 244.502 195.417H244.502V195.417H244.502ZM243.065 196.561L243.498 198.17C243.837 199.432 244.177 200.694 244.516 201.956L244.666 201.163L244.666 201.162L244.666 201.161C244.948 199.665 245.229 198.17 245.51 196.673C246.79 196.349 248.07 196.025 249.348 195.7L245.536 194.287C245.289 192.951 245.042 191.616 244.794 190.281L244.794 190.28L244.534 188.878C244.238 189.966 243.942 191.055 243.646 192.143L243.645 192.147C243.436 192.915 243.227 193.683 243.019 194.45C242.705 194.566 242.392 194.681 242.079 194.796C241.271 195.093 240.463 195.39 239.654 195.687C240.732 195.963 241.809 196.239 242.885 196.515C242.945 196.531 243.005 196.546 243.065 196.561Z" fill="#F5C84E" blush:i="0.0.7"/><g id="Group 85" blush:i="0.0.8"><path id="Fill 83" fill-rule="evenodd" clip-rule="evenodd" d="M390.814 111.976L393.09 111.979C392.782 110.32 392.475 108.661 392.167 107C391.716 108.66 391.265 110.318 390.814 111.976" fill="#F5C84E" blush:i="0.0.8.0"/></g><path id="Fill 86" fill-rule="evenodd" clip-rule="evenodd" d="M390.814 111.976L393.09 111.979C392.778 113.637 392.466 115.296 392.153 116.955C391.706 115.295 391.261 113.635 390.814 111.976" fill="#F5C84E" blush:i="0.0.9"/><path id="Fill 88" fill-rule="evenodd" clip-rule="evenodd" d="M392.144 110.826L392.141 113.129C393.371 112.816 394.601 112.505 395.831 112.193C394.602 111.737 393.374 111.281 392.144 110.826" fill="#F5C84E" blush:i="0.0.10"/><path id="Fill 90" fill-rule="evenodd" clip-rule="evenodd" d="M392.144 110.826L392.141 113.129C390.912 112.813 389.683 112.498 388.454 112.182C389.684 111.73 390.914 111.278 392.144 110.826" fill="#F5C84E" blush:i="0.0.11"/><path id="Fill 92" fill-rule="evenodd" clip-rule="evenodd" d="M494.316 234.402C495.453 234.403 496.591 234.405 497.728 234.406C497.266 231.919 496.806 229.431 496.344 226.943C495.668 229.429 494.993 231.916 494.316 234.402" fill="#F5C84E" blush:i="0.0.12"/><path id="Fill 94" fill-rule="evenodd" clip-rule="evenodd" d="M494.316 234.402C495.453 234.403 496.591 234.405 497.728 234.406C497.26 236.892 496.793 239.38 496.324 241.865C495.654 239.378 494.986 236.889 494.316 234.402" fill="#F5C84E" blush:i="0.0.13"/><path id="Fill 96" fill-rule="evenodd" clip-rule="evenodd" d="M496.31 232.679C496.308 233.829 496.307 234.981 496.305 236.131C498.149 235.663 499.994 235.196 501.838 234.729C499.996 234.045 498.152 233.363 496.31 232.679" fill="#F5C84E" blush:i="0.0.14"/><path id="Fill 98" fill-rule="evenodd" clip-rule="evenodd" d="M496.31 232.679C496.308 233.829 496.307 234.981 496.305 236.131C494.463 235.658 492.62 235.186 490.776 234.713C492.622 234.035 494.466 233.357 496.31 232.679" fill="#F5C84E" blush:i="0.0.15"/><path id="Fill 100" fill-rule="evenodd" clip-rule="evenodd" d="M290.249 212.035L291.641 212.037L291.677 184.013L290.287 184.011L290.249 212.035Z" fill="#232996" blush:i="0.0.16"/><path id="Fill 102" fill-rule="evenodd" clip-rule="evenodd" d="M289.774 213.477L291.142 213.224L286.168 185.656L284.799 185.909L289.774 213.477Z" fill="#FF2468" blush:i="0.0.17"/><path id="Fill 104" fill-rule="evenodd" clip-rule="evenodd" d="M443.835 336.992C443.832 339.338 445.684 341.241 447.97 341.244C450.255 341.247 452.111 339.348 452.114 337.004C452.117 334.659 450.267 332.756 447.98 332.753C445.695 332.75 443.838 334.647 443.835 336.992" fill="#232996" blush:i="0.0.18"/><path id="Fill 106" fill-rule="evenodd" clip-rule="evenodd" d="M404.584 279.243L448.372 279.304C450.826 279.306 452.838 277.278 452.841 274.795C452.844 272.249 450.839 270.215 448.384 270.212L404.597 270.151C402.142 270.147 400.131 272.177 400.128 274.66C400.125 277.206 402.13 279.24 404.584 279.243" fill="#232996" blush:i="0.0.19"/><path id="Fill 108" fill-rule="evenodd" clip-rule="evenodd" d="M424.625 335.051L428.187 335.056L428.261 277.816L424.699 277.81L424.625 335.051Z" fill="#232996" blush:i="0.0.20"/><path id="Fill 110" fill-rule="evenodd" clip-rule="evenodd" d="M447.645 339.926C447.341 339.874 447.196 339.655 447.239 339.427C448.561 332.597 445.797 325.829 440.361 322.591C434.277 318.959 427.695 321.7 426.966 322.023C426.754 322.117 426.514 322.019 426.421 321.808C426.329 321.595 426.424 321.348 426.633 321.256C427.889 320.697 434.474 318.108 440.782 321.867C446.521 325.287 449.441 332.408 448.051 339.587C448.013 339.787 447.839 339.926 447.645 339.926" fill="#232996" blush:i="0.0.21"/><path id="Fill 112" fill-rule="evenodd" clip-rule="evenodd" d="M422.641 336.964C422.638 339.309 424.488 341.212 426.774 341.215C429.06 341.218 430.915 339.319 430.918 336.975C430.921 334.63 429.071 332.727 426.785 332.724C424.499 332.721 422.644 334.619 422.641 336.964" fill="#232996" blush:i="0.0.22"/><path id="Fill 114" fill-rule="evenodd" clip-rule="evenodd" d="M405.532 339.868C405.338 339.868 405.164 339.729 405.126 339.529C403.753 332.347 406.694 325.235 412.441 321.829C418.749 318.093 425.333 320.696 426.59 321.256C426.8 321.349 426.894 321.597 426.802 321.807C426.709 322.02 426.459 322.115 426.257 322.022C425.064 321.493 418.821 319.019 412.858 322.553C407.416 325.778 404.634 332.536 405.938 339.369C405.982 339.597 405.835 339.818 405.611 339.86C405.585 339.867 405.558 339.868 405.532 339.868" fill="#232996" blush:i="0.0.23"/><path id="Fill 116" fill-rule="evenodd" clip-rule="evenodd" d="M409.346 336.945C409.343 339.29 407.487 341.188 405.202 341.185C402.916 341.181 401.065 339.278 401.068 336.933C401.072 334.589 402.927 332.69 405.213 332.694C407.499 332.697 409.349 334.6 409.346 336.945" fill="#232996" blush:i="0.0.24"/><path id="Fill 118" fill-rule="evenodd" clip-rule="evenodd" d="M422.63 323.981L430.21 323.991L430.233 306.438L422.653 306.427L422.63 323.981Z" fill="#232996" blush:i="0.0.25"/><path id="Fill 120" fill-rule="evenodd" clip-rule="evenodd" d="M271.758 226.763L368.161 226.896C369.47 226.898 370.542 225.816 370.544 224.492C370.546 223.114 369.477 222.029 368.168 222.027L271.765 221.893C270.457 221.892 269.384 222.974 269.382 224.298C269.38 225.676 270.45 226.761 271.758 226.763" fill="#6632CD" blush:i="0.0.26"/><path id="Fill 124" fill-rule="evenodd" clip-rule="evenodd" d="M267.612 341.07L264.35 340.494L283.19 226.453L286.452 227.029L267.612 341.07Z" fill="#B68DF5" blush:i="0.0.27"/><path id="Fill 147" fill-rule="evenodd" clip-rule="evenodd" d="M375.104 341.07L378.366 340.494L359.526 226.453L356.264 227.029L375.104 341.07Z" fill="#B68DF5" blush:i="0.0.28"/><path id="Fill 126" fill-rule="evenodd" clip-rule="evenodd" d="M280 221.978L295.361 222L296 202.023C290.675 202.016 285.35 202.007 280.024 202C280.016 208.659 280.009 215.319 280 221.978" fill="#56D6A9" blush:i="0.0.29"/><path id="Fill 132" fill-rule="evenodd" clip-rule="evenodd" d="M461.201 343H111.043C110.304 343 109.705 342.552 109.705 342C109.705 341.447 110.304 341 111.043 341H461.201C461.94 341 462.54 341.447 462.54 342C462.54 342.552 461.94 343 461.201 343" fill="#232996" blush:i="0.0.30"/><path id="Fill 134" fill-rule="evenodd" clip-rule="evenodd" d="M103.607 343H99.9901C99.3539 343 98.8335 342.552 98.8335 342C98.8335 341.447 99.3539 341 99.9901 341H103.607C104.245 341 104.763 341.447 104.763 342C104.763 342.552 104.245 343 103.607 343" fill="#232996" blush:i="0.0.31"/><path id="Fill 136" fill-rule="evenodd" clip-rule="evenodd" d="M95.8384 343H90.9569C90.3967 343 89.9385 342.552 89.9385 342C89.9385 341.447 90.3967 341 90.9569 341H95.8384C96.4002 341 96.8568 341.447 96.8568 342C96.8568 342.552 96.4002 343 95.8384 343" fill="#232996" blush:i="0.0.32"/></g><g id="Master/Character/Sitting" blush:has-customizable-colors="true" blush:component="Master/Character/Sitting" blush:width="417.07666015625" blush:height="276" transform="matrix(-1 0 0 1 634.924 68) scale(0.9883333179058057 1)" blush:i="0.1" blush:value="Sitting" blush:viewBox="-8.439999999999998 41.990825688073386 445.2099999999999 236.3302752293578"><g id="Master/Character/Sitting" blush:has-customizable-colors="true" blush:viewBox="-8.439999999999998 41.990825688073386 445.2099999999999 236.3302752293578" blush:i="0.1.0"><g id="Lower Body/Sitting" blush:component="Lower Body/Sitting" blush:defaultValue="Purple Trousers" blush:width="337" blush:height="223" transform="translate(99 54) scale(1 1)" blush:i="0.1.0.0" blush:value="Purple Trousers" blush:viewBox="69.08499999999998 103.92069486404836 143.22500000000002 117.90030211480364"><g id="Lower Body/Sitting/Purple Trousers" blush:viewBox="69.08499999999998 103.92069486404836 143.22500000000002 117.90030211480364" blush:i="0.1.0.0.0"><g id="Group 37" blush:i="0.1.0.0.0.0"><g id="Group 3" blush:i="0.1.0.0.0.0.0"><path id="Fill 1" d="M79.5565 105.88C75.3145 107.848 74.8935 115.832 74.0255 119.841C72.9145 124.975 72.0225 130.156 71.3545 135.366C71.1795 136.731 71.0215 138.129 71.3255 139.47C72.1195 142.975 75.7305 145.027 79.1185 146.227C88.6825 149.616 99.0635 149.649 109.211 149.643L109.232 149.642C120.423 149.636 131.613 149.629 142.804 149.623C142.814 149.623 144.624 154.051 144.877 154.556L151.218 167.87L151.457 168.399L152.847 171.227L154.199 174.07L155.384 176.579L156.399 178.623L162.488 191.371L162.602 191.681L163.769 194.021C163.73 194.035 165.207 197.096 165.207 197.096L165.888 198.472L166.597 199.924L169.692 206.434L170.654 208.454L196.6 196.066L193.8 190.239L189.481 181.235C185.69 173.299 181.898 165.363 178.106 157.427C172.39 145.465 167.423 132.555 159.347 121.979C157.235 119.213 155.358 116.334 152.288 114.324C149.219 112.313 140.823 108.562 131.79 109.646C131.074 108.924 131.771 107.253 130.334 106.36C129.122 105.607 127.621 105.542 126.195 105.5C108.922 104.982 103.597 105.551 86.3245 105.033C84.0305 104.964 81.6385 104.914 79.5565 105.88Z" fill="#3C1D88" blush:i="0.1.0.0.0.0.0.0"/></g><g id="Group 6" blush:i="0.1.0.0.0.0.1"><path id="Fill 4" d="M76.5065 105.506C74.4745 114.036 71.3245 119.275 69.9035 127.895C68.9915 133.424 69.3115 138.948 72.9575 142.683C74.1705 143.925 75.7295 144.758 77.2625 145.572C86.4395 150.442 96.8975 150.377 107.009 149.845L82.8045 206.904C92.7205 207.011 102.635 207.119 112.551 207.226C113.49 205.286 114.428 203.346 115.367 201.407C115.367 201.407 119.719 192.425 119.722 192.42C123.597 184.424 127.497 176.439 131.383 168.449C134.107 162.849 136.612 157.14 140.007 151.954C143.789 146.177 148.788 139.436 148.984 132.248C148.989 131.498 148.957 130.728 148.843 130.008C148.799 123.519 143.09 110.541 120.605 110.541C120.25 108.95 120.611 107.296 120.971 105.706L76.5065 105.506Z" fill="#4A289E" blush:i="0.1.0.0.0.0.1.0"/></g><path id="Fill 7" fill-rule="evenodd" clip-rule="evenodd" d="M82.7208 215.865C83.8138 217.208 86.0108 217.728 89.4158 217.528C93.6888 217.276 98.1718 216.959 101.777 214.653C102.589 214.135 103.368 213.487 103.758 212.606C105.249 209.239 102.095 206.461 99.1318 206.708C97.9168 206.809 97.1318 206.835 96.9298 206.86C95.5838 206.936 92.8428 207.038 86.9788 206.962C86.5468 206.962 86.0898 206.936 85.5828 206.936C84.8468 206.936 84.0598 206.911 83.2468 206.911C83.2218 206.936 83.1968 207.012 83.2218 207.038C83.1708 207.089 83.1708 207.19 83.1458 207.266C82.9678 207.9 82.8408 208.459 82.7138 208.89C82.7138 208.967 82.7138 209.068 82.6888 209.144C81.6398 212.3 81.6138 214.505 82.7208 215.865" fill="#FF9292" blush:i="0.1.0.0.0.0.2"/><path id="Fill 15" fill-rule="evenodd" clip-rule="evenodd" d="M172.425 218.745C179.799 215.184 186.784 209.105 193.306 204.144C193.585 203.932 193.878 203.702 194.003 203.373C194.137 203.021 194.051 202.625 193.931 202.268C192.557 198.177 189.529 197.938 186.407 199.822C186.293 199.877 186.212 199.944 186.121 199.988C185.628 200.252 185.226 200.529 184.814 200.726C183.759 201.345 183.061 201.708 182.888 201.818C181.708 202.468 179.279 203.744 173.958 206.208C173.569 206.394 173.146 206.569 172.688 206.788C172.024 207.106 171.303 207.424 170.571 207.774C170.559 207.808 170.569 207.888 170.603 207.899C170.578 207.968 170.622 208.058 170.633 208.139C170.746 208.788 170.873 209.347 170.946 209.79C170.978 209.859 171.022 209.95 171.031 210.03C171.031 210.03 171.369 211.558 171.627 213.095C171.679 213.379 171.753 213.71 171.804 214.051C171.846 214.256 171.877 214.438 171.907 214.621C172.089 216.065 171.841 217.413 172.425 218.745" fill="#FF9292" blush:i="0.1.0.0.0.0.3"/><g id="Group 19" blush:i="0.1.0.0.0.0.4"><path id="Fill 17" fill-rule="evenodd" clip-rule="evenodd" d="M171.666 220.815C171.889 221.103 172.135 221.323 172.428 221.464C172.743 221.594 173.036 221.735 173.329 221.82C185.901 215.629 198.45 209.393 211 203.157C210.612 200.585 209.581 199.136 208.756 198.237C207.373 196.424 205.625 194.918 203.38 194.361C200.012 193.524 197.81 195.39 192.834 195.994C189.732 196.37 187.025 196.077 184.962 195.664C183.344 195.963 181.064 196.654 180.068 198.496C178.238 201.879 182.532 205.841 181.181 209.584C180.545 211.343 178.504 213.487 171.907 214.621C171.987 215.257 172.058 215.815 172.029 216.167C172.049 216.326 172.034 216.53 172.034 216.53C172.033 216.586 172.021 216.621 172.043 216.667C172.019 216.791 171.993 216.915 171.98 217.005C171.917 217.402 171.809 217.763 171.725 218.057C171.629 218.328 171.414 218.938 171.392 219.596C171.362 220.004 171.423 220.425 171.666 220.815" fill="#EF31FF" blush:i="0.1.0.0.0.0.4.0"/></g><path id="Fill 20" fill-rule="evenodd" clip-rule="evenodd" d="M195.554 197.612C195.941 197.904 196.495 197.827 196.787 197.441L199.253 194.182C199.545 193.796 199.468 193.241 199.082 192.949C198.697 192.657 198.141 192.734 197.849 193.12L195.383 196.379C195.091 196.765 195.168 197.32 195.554 197.612" fill="#0F267A" blush:i="0.1.0.0.0.0.5"/><path id="Fill 22" fill-rule="evenodd" clip-rule="evenodd" d="M190.61 198.385C190.997 198.677 191.551 198.6 191.843 198.214L194.309 194.954C194.601 194.569 194.524 194.014 194.138 193.722C193.753 193.429 193.197 193.506 192.905 193.893L190.439 197.152C190.147 197.537 190.224 198.092 190.61 198.385" fill="#0F267A" blush:i="0.1.0.0.0.0.6"/><path id="Union" fill-rule="evenodd" clip-rule="evenodd" d="M79.0077 220.059C78.8047 219.805 78.6777 219.5 78.6017 219.145C78.5507 218.689 78.6777 218.283 78.8807 217.927C79.1857 217.343 79.6427 216.886 79.8457 216.683C79.8584 216.669 79.8713 216.655 79.8844 216.64C80.0804 216.42 80.3171 216.155 80.5317 215.845C80.5801 215.772 80.6538 215.674 80.7274 215.576L80.7347 215.566C80.7347 215.528 80.7484 215.505 80.7661 215.475C80.7723 215.464 80.779 215.452 80.7857 215.439C80.7857 215.439 80.8867 215.261 80.9377 215.11C81.1125 214.81 81.2863 214.292 81.4856 213.696C81.4862 212.68 81.9341 211.365 82.4192 209.942C82.5086 209.679 82.5993 209.413 82.6887 209.144C82.7137 209.068 82.7137 208.967 82.7137 208.89C82.7782 208.671 82.8426 208.419 82.9138 208.142C82.9828 207.872 83.058 207.578 83.1457 207.266C83.1539 207.241 83.1594 207.213 83.1649 207.185C83.1762 207.129 83.1874 207.072 83.2217 207.038C83.1967 207.012 83.2217 206.936 83.2467 206.911C83.6633 206.911 84.0731 206.918 84.4727 206.924C84.8529 206.93 85.2238 206.936 85.5827 206.936C85.8463 206.936 86.0964 206.943 86.3366 206.95C86.5582 206.956 86.7713 206.962 86.9787 206.962C90.074 207.002 92.2927 206.992 93.9026 206.963C94.1052 205.241 94.4552 203.638 95.8217 202.645C97.5147 201.415 99.8697 201.777 101.458 202.205C103.142 203.469 105.456 204.903 108.415 205.904C110.336 206.553 111.936 206.82 113.338 207.054C115.403 207.398 117.038 207.671 118.632 208.987C120.416 210.459 121.342 212.573 121.806 214.804C122.162 215.972 122.466 217.724 121.705 220.211C107.693 220.415 93.6797 220.618 79.6677 220.77C79.5018 220.622 79.3491 220.448 79.1899 220.266C79.1304 220.197 79.0701 220.128 79.0077 220.059ZM91.8867 213.264C91.5887 213.532 91.2258 213.784 90.7781 213.998C91.2302 213.775 91.5964 213.523 91.8867 213.264Z" fill="#EF31FF" blush:i="0.1.0.0.0.0.7"/><path id="Fill 26" fill-rule="evenodd" clip-rule="evenodd" d="M79.6681 220.77C79.4391 220.567 79.2361 220.313 79.0081 220.059C78.8051 219.805 78.6781 219.5 78.6021 219.145C78.5511 218.689 78.6781 218.283 78.8811 217.927C78.9471 217.8 79.0221 217.682 79.0991 217.569H122.167C122.139 218.339 122.01 219.213 121.704 220.211C107.692 220.415 93.6801 220.618 79.6681 220.77" fill="#0F267A" blush:i="0.1.0.0.0.0.8"/><path id="Fill 28" fill-rule="evenodd" clip-rule="evenodd" d="M181.181 209.584C180.545 211.344 178.504 213.487 171.908 214.621C171.877 214.438 171.846 214.256 171.804 214.051C171.753 213.71 171.679 213.379 171.627 213.095C171.369 211.558 171.032 210.03 171.032 210.03C171.022 209.95 170.978 209.859 170.946 209.79C170.873 209.347 170.746 208.788 170.632 208.139C170.622 208.059 170.578 207.968 170.603 207.899C170.569 207.888 170.559 207.808 170.571 207.774C171.303 207.424 172.024 207.106 172.688 206.788C173.146 206.569 173.569 206.395 173.958 206.208C176.767 204.907 178.765 203.939 180.203 203.219C180.92 205.315 181.939 207.484 181.181 209.584" fill="#EF31FF" blush:i="0.1.0.0.0.0.9"/><path id="Fill 30" fill-rule="evenodd" clip-rule="evenodd" d="M172.029 216.167C172.049 216.326 172.034 216.53 172.034 216.53C172.033 216.587 172.021 216.621 172.043 216.667C172.035 216.708 172.027 216.747 172.019 216.787C171.981 216.083 172.001 215.365 171.907 214.621C171.987 215.258 172.057 215.815 172.029 216.167" fill="#FF9292" blush:i="0.1.0.0.0.0.10"/><path id="Fill 32" fill-rule="evenodd" clip-rule="evenodd" d="M172.307 218.421L171.501 218.826C171.576 218.495 171.669 218.216 171.725 218.058C171.809 217.764 171.917 217.402 171.981 217.006C171.99 216.945 172.004 216.868 172.02 216.787C172.049 217.339 172.121 217.882 172.307 218.421" fill="#EF31FF" blush:i="0.1.0.0.0.0.11"/><path id="Fill 11" fill-rule="evenodd" clip-rule="evenodd" d="M107.568 210.439C107.924 210.766 108.484 210.742 108.811 210.385L111.574 207.374C111.902 207.017 111.878 206.458 111.521 206.13C111.164 205.802 110.604 205.827 110.277 206.183L107.514 209.195C107.187 209.551 107.211 210.112 107.568 210.439" fill="#0F267A" blush:i="0.1.0.0.0.0.12"/><path id="Fill 13" fill-rule="evenodd" clip-rule="evenodd" d="M104.849 207.944C105.205 208.271 105.765 208.247 106.092 207.89L108.855 204.879C109.182 204.522 109.159 203.963 108.801 203.635C108.445 203.307 107.885 203.332 107.558 203.689L104.795 206.7C104.468 207.057 104.492 207.617 104.849 207.944" fill="#0F267A" blush:i="0.1.0.0.0.0.13"/><g id="Group 36" blush:i="0.1.0.0.0.0.14"><path id="Fill 34" fill-rule="evenodd" clip-rule="evenodd" d="M173.329 221.82C173.036 221.735 172.743 221.594 172.428 221.465C172.135 221.323 171.889 221.103 171.666 220.815C171.423 220.425 171.362 220.005 171.392 219.596C171.401 219.321 171.447 219.062 171.501 218.826L209.769 199.589C210.29 200.45 210.765 201.594 211 203.157C198.45 209.393 185.901 215.63 173.329 221.82" fill="#0F267A" blush:i="0.1.0.0.0.0.14.0"/></g></g></g></g><g id="Upper Body" blush:component="Upper Body" blush:defaultValue="Holding Coin" blush:width="422" blush:height="223" transform="translate(-8 43) scale(1 1)" blush:i="0.1.0.1" blush:value="Wondering" blush:viewBox="154.03000000000003 65.04166666666669 97.06000000000009 82.35795454545453"><g id="Upper Body/Wondering" blush:viewBox="154.03000000000003 65.04166666666669 97.06000000000009 82.35795454545453" blush:i="0.1.0.1.0"><g id="Upper Body" blush:i="0.1.0.1.0.0"><path id="Fill 12" fill-rule="evenodd" clip-rule="evenodd" d="M217.376 132.001C220.728 134.406 224.453 135.795 228.481 136.174C232.65 136.566 236.584 135.472 240.173 133.284C240.687 132.971 241.114 132.579 241.763 132.783C244.521 130.664 246.846 128.136 248.361 125.001C250.345 120.896 251.307 116.62 250.79 111.947C250.371 108.171 249.281 104.679 247.549 101.406C244.273 95.2171 239.341 90.4631 233.795 86.3161C227.985 81.9711 221.538 78.7641 214.883 75.9801C213.383 75.3531 211.927 74.5951 210.356 74.1511C208.728 73.6911 206.949 73.6571 205.27 73.5201C199.505 73.0491 193.988 72.9351 188.31 74.1001C184.994 74.7811 181.732 75.7591 178.635 77.1341C177.179 77.7811 175.863 78.6211 174.457 79.3251C172.993 80.0581 171.636 81.0101 170.365 82.0401C166.651 85.0501 163.323 88.4081 160.71 92.4061C157.562 97.2221 155.365 102.894 154.464 108.589C154.047 111.227 153.974 113.906 154.007 116.572C154.053 120.237 154.729 123.77 155.742 127.269C157.313 132.699 159.973 137.57 163.243 142.134C163.484 142.471 163.732 142.88 164.332 142.883C166.726 140.971 169.14 138.98 171.632 137.095C172.296 136.592 172.842 135.778 173.836 135.8C173.891 135.522 173.895 135.23 174.158 135.032C176.135 133.534 178.109 132.032 180.084 130.531C180.098 130.245 180.112 129.959 180.125 129.673C176.112 124.804 174.252 119.185 174.883 112.931C175.255 109.249 176.476 105.724 178.906 102.784C179.625 101.913 180.456 99.9191 181.848 100.244C182.928 100.496 180.903 116.468 180.421 119.189C187.386 119.856 196.848 119.645 203.823 119.189C204.732 119.129 205.422 119.152 206.334 119.189C207.086 120.382 206.837 119.445 207.474 120.743C209.736 125.354 213.192 129 217.376 132.001Z" fill="#B5B1FD" blush:i="0.1.0.1.0.0.0"/><path id="Fill 13" fill-rule="evenodd" clip-rule="evenodd" d="M176.684 140.962C176.872 141.339 177.061 141.721 177.25 142.108C177.06 141.72 176.872 141.339 176.684 140.962M175.995 139.608C176.196 139.996 176.394 140.387 176.592 140.779C176.394 140.386 176.196 139.996 175.995 139.608M177.369 142.35C177.554 142.728 177.74 143.111 177.931 143.505C177.74 143.111 177.554 142.729 177.369 142.35M179.651 131.393C179.461 131.28 179.266 131.216 179.067 131.213C177.706 131.193 175.221 134.227 174.157 135.032C173.895 135.231 173.891 135.523 173.835 135.8C173.75 136.225 174.39 137.176 174.568 137.574C174.903 138.321 175.181 139.099 175.473 139.863C175.702 140.46 175.781 140.958 175.88 141.578C175.351 141.834 174.504 142.053 174.077 142.454C173.484 142.815 172.927 143.239 172.451 143.746C171.966 144.262 171.575 144.855 171.288 145.502C171.156 145.8 170.973 146.045 171.188 146.301C171.399 146.553 171.988 146.528 172.277 146.525C175.654 146.499 179.294 147.191 182.57 146.281C182.963 146.172 183.366 146.036 183.657 145.751C183.943 145.471 184.087 145.079 184.192 144.693C185.036 141.594 183.851 138.623 182.443 135.909C181.954 134.968 180.91 132.134 179.651 131.393" fill="#c09671" blush:color="Skin-500" blush:i="0.1.0.1.0.0.1"/><path id="Subtract" fill-rule="evenodd" clip-rule="evenodd" d="M165.807 85.9627C163.917 87.8777 162.198 89.9463 160.71 92.2223C157.562 97.0383 155.365 102.71 154.464 108.405C154.047 111.043 153.974 113.722 154.007 116.388C154.053 120.053 154.729 123.586 155.742 127.085C156.181 128.603 156.705 130.077 157.304 131.513L158.647 122.853L164.581 134.407L177.402 132.334L177.193 132.545L178.781 131.338L178.787 131.333L180.084 130.347L180.084 130.345C180.098 130.06 180.112 129.775 180.125 129.489C176.112 124.62 174.252 119.001 174.883 112.747C175.255 109.065 176.476 105.54 178.906 102.6C179.072 102.399 179.244 102.138 179.428 101.859C180.039 100.931 180.778 99.8104 181.848 100.06C182.928 100.312 180.903 116.284 180.421 119.005C183.053 119.257 186.041 119.384 189.117 119.419L185.835 117.76L198.657 115.688L200.647 102.853L206.581 114.407L219.402 112.334L210.248 121.547L214.235 129.31C215.226 130.194 216.276 131.028 217.376 131.817C220.728 134.222 224.453 135.611 228.481 135.99C232.65 136.382 236.584 135.288 240.173 133.1C240.253 133.052 240.33 133.002 240.407 132.952C240.824 132.68 241.214 132.427 241.763 132.599C244.521 130.48 246.846 127.952 248.361 124.817C249.742 121.959 250.628 119.018 250.865 115.918L243.59 112.241L234.436 121.455L236.426 108.62L224.835 102.76L237.657 100.688L239.218 90.6236C237.509 89.0338 235.688 87.5477 233.795 86.1323C230.355 83.5594 226.691 81.3856 222.893 79.4623L220.672 86.5563L226.896 90.9763L219.263 91.0586L216.982 98.3436L214.545 91.1095L206.912 91.1919L213.039 86.6386L210.602 79.4046L216.826 83.8246L222.776 79.403C220.197 78.1016 217.557 76.9148 214.883 75.7963C214.445 75.6132 214.011 75.419 213.577 75.2247C212.523 74.7535 211.468 74.2817 210.356 73.9673C209.055 73.5998 207.658 73.5042 206.293 73.4108C205.949 73.3872 205.608 73.3639 205.27 73.3363C200.953 72.9836 196.775 72.8311 192.564 73.2659L187.635 78.2272L197.426 97.2929L178.298 87.6237L163.191 102.827L165.807 85.9627ZM249.621 106.172C249.859 106.93 250.066 107.701 250.242 108.483L249.248 106.547L249.621 106.172ZM243.236 94.8409C244.398 96.2321 245.47 97.703 246.433 99.2689L245.581 99.4066L243.236 94.8409Z" fill="#8B86E7" blush:i="0.1.0.1.0.0.2"/><path id="Fill 14" fill-rule="evenodd" clip-rule="evenodd" d="M209.569 76.0126C209.266 75.2896 207.319 71.5026 207.074 70.9456C206.597 69.8606 206.146 68.6776 205.255 67.8516C203.684 66.3956 200.961 67.0136 199.392 68.1596C197.327 69.6696 195.16 72.2116 194.959 74.8576C194.922 75.3526 194.947 75.8656 195.143 76.3216C196.155 78.6766 198.268 75.2976 199.045 74.3586C199.055 74.2046 199.105 74.0846 199.179 73.9856C199.229 73.9186 199.289 73.8616 199.357 73.8096C199.289 73.8616 199.229 73.9186 199.179 73.9856C199.105 74.0846 199.055 74.2056 199.045 74.3586C200.922 75.8876 202.489 77.7406 204.261 79.3756C204.827 79.8986 204.725 80.5756 204.962 81.1696C206.988 80.5656 208.806 79.5376 210.562 78.3866C210.529 77.4746 209.9 76.8026 209.569 76.0126" fill="#c09671" blush:color="Skin-500" blush:i="0.1.0.1.0.0.3"/><path id="Fill 22" fill-rule="evenodd" clip-rule="evenodd" d="M205.023 117.061C204.657 117.061 204.308 116.86 204.135 116.509C203.84 115.908 194.793 91.5555 192.983 86.6795C192.802 86.1925 193.025 85.6475 193.496 85.4265L211.867 76.8095C212.353 76.5835 212.928 76.7765 213.177 77.2485L229.597 108.381C229.854 108.871 229.667 109.475 229.178 109.733C228.69 109.99 228.085 109.803 227.827 109.315L211.853 79.0255L195.178 86.8465C198.343 95.3675 205.599 114.873 205.94 115.647C206.159 116.145 205.944 116.736 205.451 116.965C205.312 117.03 205.166 117.061 205.023 117.061" fill="#7252BF" blush:i="0.1.0.1.0.0.4"/></g><circle id="Ellipse 17" cx="160" cy="111" r="1" fill="#FFB902" blush:i="0.1.0.1.0.1"/><circle id="Ellipse 18" cx="177.5" cy="92.5" r="0.5" fill="#FFB902" blush:i="0.1.0.1.0.2"/><circle id="Ellipse 19" cx="231" cy="96" r="1" fill="#FFB902" blush:i="0.1.0.1.0.3"/><circle id="Ellipse 20" cx="231" cy="131" r="1" fill="#FFB902" blush:i="0.1.0.1.0.4"/><circle id="Ellipse 21" cx="245.5" cy="117.5" r="0.5" fill="#FFB902" blush:i="0.1.0.1.0.5"/><circle id="Ellipse 22" cx="0.5" cy="0.5" r="0.5" transform="matrix(1 0 0 -1 172 129)" fill="#FFB902" blush:i="0.1.0.1.0.6"/></g></g><g id="Head" blush:component="Head" blush:defaultValue="Cap" blush:width="115" blush:height="61" transform="translate(123 61) scale(1 1)" blush:i="0.1.0.2" blush:value="Bun" blush:viewBox="44.849999999999994 30.212264150943398 30.475000000000026 24.74528301886792"><g id="Head/Bun" blush:viewBox="44.849999999999994 30.212264150943398 30.475000000000026 24.74528301886792" blush:i="0.1.0.2.0"><g id="Group 6" blush:i="0.1.0.2.0.0"><path id="Fill 1" d="M55.2953 39.4895C55.2003 39.7395 55.1243 39.9705 55.0513 40.1875C54.7803 40.9935 54.5513 41.5745 53.5833 41.9975C51.3083 42.9945 50.9363 44.7155 52.6283 46.4985C52.7883 46.6665 52.9883 46.7975 53.1443 46.9255C53.9823 47.1815 54.8173 47.0135 55.7733 47.1455C58.6983 51.4985 62.8923 53.2705 67.9753 51.6705C73.1553 50.0415 75.3233 46.0525 74.9883 40.6575C74.6316 38.8298 73.5853 35.1745 72.2533 35.1745C71.6973 34.7215 71.2113 34.2395 70.5883 33.8635C69.4183 33.1585 68.0853 32.7265 66.7283 32.5815C64.5863 32.3515 62.4003 32.8135 60.4513 33.7305C59.1993 34.3205 58.0223 35.1075 57.1253 36.1625C56.2973 37.1365 55.7433 38.3005 55.2953 39.4895Z" fill="#c09671" blush:color="Skin-500" blush:i="0.1.0.2.0.0.0"/><g id="Group 5" blush:i="0.1.0.2.0.0.1"><path id="Fill 3" d="M56.2875 40.6048C55.7315 40.8488 55.3795 41.6168 54.6005 41.3228C54.9003 42.8819 56.2875 47.7 56.2875 48.5C56.2875 51.0026 55.7474 53.6143 53.333 54.2728L53.1357 54.3266C52.7146 54.4415 52.2778 54.4901 51.8421 54.463C48.4377 54.2515 43.2508 53.6246 45.5 52.5C48.5 51 50.5 41.3228 51 40.2648C51.5 39.2068 54.1005 33.3338 61 31C66.5196 29.133 71.1568 33.3539 72.5355 35.4478C70.0865 34.9668 67.6225 34.5578 65.3145 33.8338C63.5025 35.6238 61.9215 37.3268 59.9025 38.5578C58.7175 39.2808 57.5545 40.0468 56.2875 40.6048Z" fill="#3d3027" blush:color="Hair-500" blush:i="0.1.0.2.0.0.1.0"/></g></g></g></g></g></g><g id="Group 286" blush:i="0.2"><g id="Group 118" blush:i="0.2.0"><path id="Stroke 85 (Stroke)" fill-rule="evenodd" clip-rule="evenodd" d="M130.52 275.861C132.194 272.969 135.06 270 139.742 270C144.423 270 147.289 272.969 148.963 275.861C149.801 277.309 150.351 278.754 150.691 279.834C150.862 280.375 150.98 280.826 151.056 281.144C151.094 281.303 151.122 281.428 151.14 281.514C151.149 281.558 151.155 281.591 151.16 281.614L151.165 281.641L151.166 281.648L151.167 281.65C151.167 281.651 151.167 281.651 150.78 281.722C150.393 281.793 150.393 281.793 150.393 281.793L150.392 281.792L150.391 281.787L150.387 281.766C150.383 281.746 150.377 281.716 150.369 281.676C150.352 281.596 150.326 281.478 150.29 281.327C150.218 281.025 150.104 280.592 149.94 280.071C149.611 279.027 149.082 277.639 148.281 276.255C146.677 273.483 144.024 270.787 139.742 270.787C135.459 270.787 132.806 273.483 131.202 276.255C130.401 277.639 129.872 279.027 129.543 280.071C129.379 280.592 129.265 281.025 129.193 281.327C129.156 281.478 129.131 281.596 129.114 281.676C129.106 281.716 129.1 281.746 129.096 281.766L129.092 281.787L129.091 281.792L129.09 281.793C129.09 281.793 129.09 281.793 128.703 281.722C128.316 281.651 128.316 281.651 128.316 281.651L128.316 281.648L128.318 281.641L128.323 281.614C128.327 281.591 128.334 281.558 128.343 281.514C128.361 281.428 128.389 281.303 128.427 281.144C128.503 280.826 128.621 280.375 128.792 279.834C129.132 278.754 129.682 277.309 130.52 275.861Z" fill="#002D7D" blush:i="0.2.0.0"/><path id="Fill 87" fill-rule="evenodd" clip-rule="evenodd" d="M187.383 300.626C187.383 300.626 178.18 288.606 172.024 290.555C165.868 292.506 170.097 301.629 186.388 300.999" fill="white" blush:i="0.2.0.1"/><path id="Fill 89" fill-rule="evenodd" clip-rule="evenodd" d="M173.47 291.397C173.076 291.397 172.697 291.451 172.337 291.565C171.506 291.828 170.15 292.495 170.407 294.004C170.856 296.631 175.833 300.159 185.498 299.967C182.708 296.673 177.38 291.397 173.47 291.397M184.846 302.088C174.869 302.089 169.017 298.303 168.346 294.363C167.972 292.168 169.261 290.322 171.712 289.546C178.373 287.439 187.223 298.687 188.21 299.977C188.564 300.439 188.48 301.104 188.024 301.462C187.781 301.651 187.484 301.719 187.2 301.667C187.017 301.895 186.741 302.045 186.428 302.057C185.89 302.077 185.362 302.088 184.846 302.088" fill="#8F6AD8" blush:i="0.2.0.2"/><path id="Fill 91" fill-rule="evenodd" clip-rule="evenodd" d="M188.858 300.626C188.858 300.626 198.061 288.606 204.217 290.555C210.374 292.506 206.145 301.629 189.853 300.999" fill="white" blush:i="0.2.0.3"/><path id="Fill 93" fill-rule="evenodd" clip-rule="evenodd" d="M190.744 299.966C200.42 300.145 205.387 296.631 205.835 294.004C206.091 292.495 204.736 291.829 203.904 291.566C199.958 290.323 193.814 296.34 190.744 299.966M191.396 302.088C190.88 302.088 190.353 302.077 189.814 302.057C189.501 302.046 189.225 301.894 189.042 301.668C188.759 301.72 188.46 301.652 188.219 301.461C187.761 301.104 187.679 300.439 188.032 299.978C189.02 298.688 197.875 287.442 204.53 289.546C206.981 290.322 208.271 292.168 207.896 294.364C207.226 298.302 201.372 302.088 191.396 302.088" fill="#8F6AD8" blush:i="0.2.0.4"/><path id="Fill 95" fill-rule="evenodd" clip-rule="evenodd" d="M180.236 288.209L187.698 300.523Z" fill="white" blush:i="0.2.0.5"/><path id="Fill 97" fill-rule="evenodd" clip-rule="evenodd" d="M187.699 301.582C187.348 301.582 187.004 301.402 186.806 301.076L179.345 288.762C179.043 288.264 179.198 287.613 179.69 287.307C180.183 287.002 180.826 287.158 181.129 287.657L188.591 299.97C188.892 300.468 188.738 301.12 188.246 301.425C188.075 301.531 187.886 301.582 187.699 301.582" fill="#8F6AD8" blush:i="0.2.0.6"/><path id="Fill 99" fill-rule="evenodd" clip-rule="evenodd" d="M196.006 288.209L188.544 300.523Z" fill="white" blush:i="0.2.0.7"/><path id="Fill 101" fill-rule="evenodd" clip-rule="evenodd" d="M188.543 301.582C188.356 301.582 188.167 301.531 187.997 301.425C187.505 301.119 187.35 300.468 187.652 299.97L195.114 287.657C195.416 287.159 196.06 287.003 196.553 287.307C197.045 287.613 197.2 288.264 196.897 288.762L189.435 301.076C189.238 301.402 188.895 301.582 188.543 301.582" fill="#8F6AD8" blush:i="0.2.0.8"/><path id="Fill 103" fill-rule="evenodd" clip-rule="evenodd" d="M159.122 341H216.445V300H159.122V341Z" fill="#B68DF5" blush:i="0.2.0.9"/><path id="Fill 105" fill-rule="evenodd" clip-rule="evenodd" d="M158.123 311.769H218.12V300.042H158.123V311.769Z" fill="#7252BF" blush:i="0.2.0.10"/><path id="Fill 106_2" fill-rule="evenodd" clip-rule="evenodd" d="M184.357 340.326H192.681V300.042H184.357V340.326Z" fill="black" blush:i="0.2.0.11"/><path id="Fill 107" fill-rule="evenodd" clip-rule="evenodd" d="M183.83 341H192.725V300H183.83V341Z" fill="white" blush:i="0.2.0.12"/><path id="Fill 108_2" fill-rule="evenodd" clip-rule="evenodd" d="M216.642 319.15L159.6 314.086V311.77H216.642V319.15Z" fill="black" blush:i="0.2.0.13"/><path id="Fill 109" fill-rule="evenodd" clip-rule="evenodd" d="M224.699 301.496C224.361 301.496 224.038 301.541 223.728 301.639C222.443 302.046 221.808 302.875 221.986 303.914C222.345 306.024 226.162 309.241 234.982 308.929C232.835 306.304 228.149 301.496 224.699 301.496M233.871 310.099C225.997 310.099 221.386 307.166 220.866 304.11C220.589 302.489 221.556 301.122 223.388 300.541C228.673 298.879 236.063 308.438 236.375 308.846C236.566 309.098 236.521 309.459 236.274 309.654C236.09 309.798 235.847 309.81 235.655 309.705C235.576 309.914 235.381 310.066 235.146 310.075C234.713 310.092 234.286 310.099 233.871 310.099" fill="#D87817" blush:i="0.2.0.14"/><path id="Fill 110_2" fill-rule="evenodd" clip-rule="evenodd" d="M238.055 308.929C246.837 309.248 250.693 306.024 251.053 303.914C251.23 302.875 250.595 302.046 249.31 301.64C245.824 300.522 240.413 306.049 238.055 308.929M239.168 310.1C238.752 310.1 238.327 310.091 237.893 310.075C237.658 310.066 237.461 309.913 237.382 309.705C237.192 309.81 236.949 309.797 236.764 309.654C236.516 309.458 236.471 309.097 236.663 308.846C236.976 308.439 244.374 298.88 249.65 300.541C251.483 301.122 252.45 302.49 252.173 304.109C251.653 307.166 247.042 310.1 239.168 310.1" fill="#D87817" blush:i="0.2.0.15"/><path id="Fill 111" fill-rule="evenodd" clip-rule="evenodd" d="M236.179 309.692C235.988 309.692 235.801 309.593 235.694 309.417L229.686 299.502C229.522 299.232 229.606 298.877 229.873 298.711C230.141 298.545 230.491 298.629 230.653 298.9L236.663 308.816C236.827 309.087 236.743 309.442 236.476 309.607C236.383 309.664 236.281 309.692 236.179 309.692" fill="#D87817" blush:i="0.2.0.16"/><path id="Fill 112_2" fill-rule="evenodd" clip-rule="evenodd" d="M236.859 309.692C236.757 309.692 236.655 309.665 236.561 309.607C236.294 309.442 236.211 309.087 236.376 308.816L242.384 298.9C242.547 298.629 242.897 298.543 243.165 298.711C243.433 298.877 243.516 299.232 243.352 299.502L237.343 309.417C237.237 309.594 237.05 309.692 236.859 309.692" fill="#D87817" blush:i="0.2.0.17"/><path id="Fill 113" fill-rule="evenodd" clip-rule="evenodd" d="M213.554 341.166H259.485V308.729H213.554V341.166Z" fill="#FFB902" blush:i="0.2.0.18"/><path id="Fill 114_2" fill-rule="evenodd" clip-rule="evenodd" d="M212.363 318.173H260.673V308.729H212.363V318.173Z" fill="#D87817" blush:i="0.2.0.19"/><path id="Fill 115" fill-rule="evenodd" clip-rule="evenodd" d="M233.489 341.166H240.191V308.729H233.489V341.166Z" fill="black" blush:i="0.2.0.20"/><path id="Fill 116_2" fill-rule="evenodd" clip-rule="evenodd" d="M233.167 341.166H239.87V308.729H233.167V341.166Z" fill="white" blush:i="0.2.0.21"/><path id="Fill 117" fill-rule="evenodd" clip-rule="evenodd" d="M259.485 324.114L213.554 320.038V318.172H259.485V324.114Z" fill="black" blush:i="0.2.0.22"/><path id="Fill 83_2" fill-rule="evenodd" clip-rule="evenodd" d="M120.216 279L112.67 341H151.577L159.122 279H120.216Z" fill="#FFC000" blush:i="0.2.0.23"/><path id="Fill 84" fill-rule="evenodd" clip-rule="evenodd" d="M154.457 279L145.285 341H169.993L162.413 279H154.457Z" fill="#F39800" blush:i="0.2.0.24"/></g></g><g id="Group 154" blush:i="0.3"><g id="Group 39" blush:i="0.3.0"><path id="Fill 1" fill-rule="evenodd" clip-rule="evenodd" d="M140.513 79.9914V166.562C140.513 167.61 141.366 168.463 142.414 168.463H322.51C323.558 168.463 324.41 167.61 324.41 166.562V79.9914H140.513ZM322.51 169.095H142.413C141.017 169.095 139.881 167.958 139.881 166.562V79.3596H325.042V166.562C325.042 167.958 323.906 169.095 322.51 169.095V169.095Z" fill="#B5B1FD" blush:i="0.3.0.0"/><path id="Fill 3_2" fill-rule="evenodd" clip-rule="evenodd" d="M324.726 79.6984H140.197V77.1632C140.197 73.7596 142.956 71 146.36 71H318.563C321.966 71 324.726 73.7596 324.726 77.1632V79.6984Z" fill="#B5B1FD" blush:i="0.3.0.1"/><path id="Fill 5_2" fill-rule="evenodd" clip-rule="evenodd" d="M153.267 75.4869C153.267 76.3167 152.594 76.989 151.765 76.989C150.935 76.989 150.263 76.3167 150.263 75.4869C150.263 74.6579 150.935 73.9849 151.765 73.9849C152.594 73.9849 153.267 74.6579 153.267 75.4869" fill="#5035B5" blush:i="0.3.0.2"/><path id="Fill 7_2" fill-rule="evenodd" clip-rule="evenodd" d="M159.964 75.4869C159.964 76.3167 159.292 76.989 158.462 76.989C157.632 76.989 156.96 76.3167 156.96 75.4869C156.96 74.6579 157.632 73.9849 158.462 73.9849C159.292 73.9849 159.964 74.6579 159.964 75.4869" fill="#766CFD" blush:i="0.3.0.3"/><path id="Fill 9_2" fill-rule="evenodd" clip-rule="evenodd" d="M166.661 75.4869C166.661 76.3167 165.989 76.989 165.159 76.989C164.329 76.989 163.657 76.3167 163.657 75.4869C163.657 74.6579 164.329 73.9849 165.159 73.9849C165.989 73.9849 166.661 74.6579 166.661 75.4869" fill="white" blush:i="0.3.0.4"/><path id="Fill 11" fill-rule="evenodd" clip-rule="evenodd" d="M296.378 86.7779C295.923 86.2243 295.226 85.9298 294.51 85.9892L282.589 86.9978C281.775 87.066 281.067 87.5842 280.755 88.3393C280.444 89.0951 280.581 89.9609 281.11 90.5827L283.634 93.5521L265.585 107.053L258.883 99.7279C257.983 98.7452 256.49 98.5948 255.413 99.3772L217.347 127.045L207.1 119.822C206.142 119.146 204.849 119.19 203.939 119.932L174.784 143.681C173.664 144.593 173.496 146.242 174.408 147.362C174.926 147.997 175.679 148.327 176.439 148.327C177.02 148.327 177.605 148.134 178.09 147.738L205.707 125.243L215.862 132.402C216.778 133.047 218.003 133.038 218.909 132.38L256.599 104.986L263.322 112.335C264.231 113.328 265.744 113.471 266.822 112.665L287.03 97.5477L289.808 100.815C290.227 101.309 290.836 101.584 291.468 101.584C291.622 101.584 291.776 101.568 291.929 101.535C292.714 101.365 293.343 100.777 293.566 100.005L296.79 88.764C296.988 88.0746 296.834 87.3321 296.378 86.7779" fill="#5035B5" blush:i="0.3.0.5"/><path id="Fill 13" fill-rule="evenodd" clip-rule="evenodd" d="M194.634 156.847H204.555V139.915H194.634V156.847Z" fill="#B5B1FD" blush:i="0.3.0.6"/><path id="Fill 15" fill-rule="evenodd" clip-rule="evenodd" d="M209.193 156.847H219.114V144.715H209.193V156.847Z" fill="#B5B1FD" blush:i="0.3.0.7"/><path id="Fill 16" fill-rule="evenodd" clip-rule="evenodd" d="M223.752 156.846H233.673V135.331H223.752V156.846Z" fill="#B5B1FD" blush:i="0.3.0.8"/><path id="Fill 17" fill-rule="evenodd" clip-rule="evenodd" d="M238.311 156.847H248.232V131.712H238.311V156.847Z" fill="#B5B1FD" blush:i="0.3.0.9"/><path id="Fill 18" fill-rule="evenodd" clip-rule="evenodd" d="M252.87 156.847H262.79V122.107H252.87V156.847Z" fill="#B5B1FD" blush:i="0.3.0.10"/><path id="Fill 19" fill-rule="evenodd" clip-rule="evenodd" d="M300.971 157.025H169.967V89.6353H170.457V156.536H300.971V157.025Z" fill="#5035B5" blush:i="0.3.0.11"/><path id="Stroke 20 (Stroke)" fill-rule="evenodd" clip-rule="evenodd" d="M343.027 81.7442C339.469 81.7442 336.584 84.6294 336.584 88.1879C336.584 91.7464 339.469 94.6316 343.027 94.6316C346.586 94.6316 349.471 91.7464 349.471 88.1879C349.471 84.6294 346.586 81.7442 343.027 81.7442ZM336.07 88.1879C336.07 84.3453 339.185 81.2298 343.027 81.2298C346.871 81.2298 349.985 84.3453 349.985 88.1879C349.985 92.0305 346.871 95.146 343.027 95.146C339.185 95.146 336.07 92.0305 336.07 88.1879Z" fill="white" blush:i="0.3.0.12"/><path id="Stroke 21 (Stroke)" fill-rule="evenodd" clip-rule="evenodd" d="M345.678 85.7871C345.794 85.8692 345.821 86.0297 345.739 86.1456L342.736 90.3883C342.697 90.4446 342.636 90.4825 342.568 90.4936C342.5 90.5047 342.43 90.488 342.374 90.4472L340.043 88.7385C339.928 88.6545 339.903 88.4936 339.987 88.379C340.071 88.2644 340.232 88.2396 340.347 88.3236L342.468 89.8778L345.319 85.8484C345.402 85.7325 345.562 85.705 345.678 85.7871Z" fill="white" blush:i="0.3.0.13"/><path id="Stroke 22 (Stroke)" fill-rule="evenodd" clip-rule="evenodd" d="M123.957 168.439C120.4 168.439 117.514 171.324 117.514 174.883C117.514 178.441 120.4 181.326 123.957 181.326C127.517 181.326 130.401 178.441 130.401 174.883C130.401 171.324 127.517 168.439 123.957 168.439ZM117 174.883C117 171.04 120.116 167.925 123.957 167.925C127.801 167.925 130.916 171.04 130.916 174.883C130.916 178.725 127.801 181.841 123.957 181.841C120.116 181.841 117 178.725 117 174.883Z" fill="white" blush:i="0.3.0.14"/><path id="Stroke 23 (Stroke)" fill-rule="evenodd" clip-rule="evenodd" d="M121.881 172.576C121.981 172.476 122.144 172.476 122.244 172.576L126.035 176.367C126.136 176.468 126.136 176.63 126.035 176.731C125.935 176.831 125.772 176.831 125.671 176.731L121.881 172.94C121.78 172.839 121.78 172.677 121.881 172.576Z" fill="white" blush:i="0.3.0.15"/><path id="Stroke 24 (Stroke)" fill-rule="evenodd" clip-rule="evenodd" d="M126.035 172.576C126.136 172.677 126.136 172.839 126.035 172.94L122.244 176.731C122.144 176.831 121.981 176.831 121.881 176.731C121.78 176.63 121.78 176.468 121.881 176.367L125.671 172.576C125.772 172.476 125.935 172.476 126.035 172.576Z" fill="white" blush:i="0.3.0.16"/><path id="Stroke 25 (Stroke)" fill-rule="evenodd" clip-rule="evenodd" d="M336.069 149.961C336.069 149.819 336.184 149.704 336.327 149.704H341.395C341.537 149.704 341.652 149.819 341.652 149.961V155.028C341.652 155.17 341.537 155.286 341.395 155.286H336.327C336.184 155.286 336.069 155.17 336.069 155.028V149.961ZM336.584 150.218V154.771H341.137V150.218H336.584Z" fill="white" blush:i="0.3.0.17"/><path id="Stroke 26 (Stroke)" fill-rule="evenodd" clip-rule="evenodd" d="M224.812 183.377C224.812 183.235 224.928 183.12 225.07 183.12H230.137C230.279 183.12 230.394 183.235 230.394 183.377V188.444C230.394 188.586 230.279 188.702 230.137 188.702H225.07C224.928 188.702 224.812 188.586 224.812 188.444V183.377ZM225.327 183.634V188.187H229.88V183.634H225.327Z" fill="white" blush:i="0.3.0.18"/><path id="Stroke 27 (Stroke)" fill-rule="evenodd" clip-rule="evenodd" d="M118.944 124.782C118.944 124.64 119.059 124.525 119.201 124.525H124.268C124.41 124.525 124.526 124.64 124.526 124.782V129.849C124.526 129.991 124.41 130.107 124.268 130.107H119.201C119.059 130.107 118.944 129.991 118.944 129.849V124.782ZM119.458 125.039V129.592H124.011V125.039H119.458Z" fill="white" blush:i="0.3.0.19"/><path id="Fill 28" fill-rule="evenodd" clip-rule="evenodd" d="M124.642 100.895H150.382C151.57 100.895 152.533 99.932 152.533 98.744V93.0087C152.533 91.8207 151.57 90.8576 150.382 90.8576H124.642C123.454 90.8576 122.491 91.8207 122.491 93.0087V98.744C122.491 99.932 123.454 100.895 124.642 100.895" fill="#56D6A9" blush:i="0.3.0.20"/><path id="Stroke 29 (Stroke)" fill-rule="evenodd" clip-rule="evenodd" d="M148.054 94.815H128.375V94.439H148.054V94.815Z" fill="white" blush:i="0.3.0.21"/><path id="Stroke 30 (Stroke)" fill-rule="evenodd" clip-rule="evenodd" d="M134.167 97.0571H128.375V96.6811H134.167V97.0571Z" fill="white" blush:i="0.3.0.22"/><path id="Fill 31" fill-rule="evenodd" clip-rule="evenodd" d="M148.957 99.5593V104.099L143.17 99.5593H148.957Z" fill="#56D6A9" blush:i="0.3.0.23"/><path id="Fill 32" fill-rule="evenodd" clip-rule="evenodd" d="M338.148 121.526C338.148 128.169 332.762 133.555 326.119 133.555C319.476 133.555 314.09 128.169 314.09 121.526C314.09 114.883 319.476 109.497 326.119 109.497C332.762 109.497 338.148 114.883 338.148 121.526" fill="#FD3E81" blush:i="0.3.0.24"/><path id="Fill 33" fill-rule="evenodd" clip-rule="evenodd" d="M320.998 125.271H323.324V121.286H320.998V125.271Z" fill="white" blush:i="0.3.0.25"/><path id="Fill 34" fill-rule="evenodd" clip-rule="evenodd" d="M324.558 125.271H326.883V116.288H324.558V125.271Z" fill="white" blush:i="0.3.0.26"/><path id="Fill 35" fill-rule="evenodd" clip-rule="evenodd" d="M328.118 125.271H330.443V118.15H328.118V125.271Z" fill="white" blush:i="0.3.0.27"/><path id="Stroke 36 (Stroke)" fill-rule="evenodd" clip-rule="evenodd" d="M318.603 125.125C318.603 125.031 318.679 124.955 318.773 124.955H333.805C333.899 124.955 333.975 125.031 333.975 125.125C333.975 125.219 333.899 125.295 333.805 125.295H318.773C318.679 125.295 318.603 125.219 318.603 125.125Z" fill="white" blush:i="0.3.0.28"/><path id="Fill 37" fill-rule="evenodd" clip-rule="evenodd" d="M339.748 182.871H307.191C305.522 182.871 304.167 181.517 304.167 179.846V149.877C304.167 148.849 305.002 148.014 306.031 148.014H339.748C340.777 148.014 341.611 148.849 341.611 149.877V181.008C341.611 182.037 340.777 182.871 339.748 182.871" fill="#766CFD" blush:i="0.3.0.29"/><path id="Fill 38" fill-rule="evenodd" clip-rule="evenodd" d="M322.51 168.463C320.838 168.463 319.482 167.107 319.482 165.435C319.482 163.763 320.838 162.407 322.51 162.407C324.182 162.407 325.537 163.763 325.537 165.435V165.452C325.528 167.117 324.176 168.463 322.51 168.463M329.78 164.015L328.575 163.803C328.434 163.278 328.225 162.773 327.953 162.302L328.656 161.3C328.914 160.933 328.87 160.432 328.552 160.114L327.83 159.393C327.508 159.08 327.007 159.045 326.644 159.309L325.642 160.011C325.171 159.739 324.667 159.53 324.141 159.389L323.934 158.157C323.858 157.719 323.483 157.397 323.039 157.389H321.999C321.549 157.388 321.162 157.712 321.086 158.157L320.874 159.358C320.349 159.499 319.844 159.708 319.374 159.98L318.376 159.309C318.007 159.05 317.507 159.094 317.189 159.412L316.467 160.133C316.15 160.451 316.106 160.952 316.364 161.32L317.066 162.322C316.795 162.792 316.586 163.297 316.445 163.822L315.243 164.033C314.799 164.111 314.474 164.497 314.476 164.947V165.968C314.474 166.42 314.799 166.805 315.243 166.882L316.445 167.093C316.586 167.618 316.795 168.123 317.066 168.594L316.364 169.596C316.106 169.964 316.15 170.465 316.467 170.782L317.189 171.503C317.507 171.822 318.007 171.866 318.376 171.608L319.377 170.905C319.848 171.177 320.353 171.386 320.878 171.527L321.089 172.728C321.166 173.173 321.552 173.497 322.003 173.496H323.039C323.491 173.497 323.876 173.173 323.953 172.728L324.164 171.527C324.689 171.386 325.194 171.177 325.665 170.905L326.644 171.592C327.012 171.85 327.513 171.807 327.83 171.488L328.552 170.767C328.87 170.449 328.914 169.949 328.656 169.58L327.953 168.571C328.225 168.1 328.434 167.595 328.575 167.07L329.78 166.859C330.224 166.782 330.549 166.396 330.548 165.946V164.924C330.547 164.475 330.223 164.091 329.78 164.015" fill="#FFFDFA" blush:i="0.3.0.30"/></g></g><path id="Vector 11" d="M368.5 330L367 337.5L354 331.5L356.5 324L368.5 330Z" fill="#EF31FF" blush:i="0.4"/></g></svg>