<svg
                  className="vector"
                  viewBox="0 0 29 29"
                  xmlns="http://www.w3.org/2000/svg"
                >
                  <path
                    d="M3.22492 0.218793L3.2251 0.218869L27.6961 10.2946C27.6962 10.2946 27.6962 10.2946 27.6962 10.2946C28.1157 10.4673 28.4748 10.7599 28.7285 11.1359L28.0126 11.619L28.7285 11.1359C28.9823 11.5119 29.1193 11.9544 29.1225 12.408C29.1257 12.8616 28.9949 13.3061 28.7465 13.6856C28.498 14.0651 28.1431 14.3628 27.7261 14.5414L18.7087 18.406C18.7086 18.406 18.7086 18.406 18.7085 18.406C18.5728 18.4643 18.4646 18.5725 18.4064 18.7083L14.5418 27.7257C14.5418 27.7257 14.5417 27.7258 14.5417 27.7259C14.3631 28.1428 14.0655 28.4977 13.686 28.7461C13.3065 28.9945 12.862 29.1253 12.4085 29.1221C11.9549 29.1189 11.5123 28.9818 11.1363 28.7281L11.6195 28.0122L11.1363 28.7281C10.7604 28.4743 10.4677 28.1153 10.2951 27.6958L3.22492 0.218793ZM3.22492 0.218793C2.8044 0.0457608 2.34207 0.00108975 1.8962 0.0904104C1.45033 0.179731 1.04088 0.399045 0.719462 0.72071C0.398044 1.04237 0.179044 1.45199 0.0900645 1.89793C0.00111449 2.34372 0.0460816 2.80586 0.219295 3.22614C0.21934 3.22625 0.219383 3.22635 0.219428 3.22646C0.21944 3.22649 0.219453 3.22652 0.219465 3.22655L10.295 27.6957L3.22492 0.218793Z"
                    stroke="white"
                    stroke-width="0"
                  />
                </svg>