<svg width="25" height="24" viewBox="0 0 25 24" fill="none" xmlns="http://www.w3.org/2000/svg">
<path d="M21.3359 10H3.33594M16.3359 2V6M8.33594 2V6M8.13594 22H16.5359C18.2161 22 19.0562 22 19.6979 21.673C20.2624 21.3854 20.7213 20.9265 21.009 20.362C21.3359 19.7202 21.3359 18.8802 21.3359 17.2V8.8C21.3359 7.11984 21.3359 6.27976 21.009 5.63803C20.7213 5.07354 20.2624 4.6146 19.6979 4.32698C19.0562 4 18.2161 4 16.5359 4H8.13594C6.45578 4 5.6157 4 4.97397 4.32698C4.40948 4.6146 3.95054 5.07354 3.66292 5.63803C3.33594 6.27976 3.33594 7.11984 3.33594 8.8V17.2C3.33594 18.8802 3.33594 19.7202 3.66292 20.362C3.95054 20.9265 4.40948 21.3854 4.97397 21.673C5.6157 22 6.45578 22 8.13594 22Z" stroke="#B692F6" stroke-width="2" stroke-linecap="round" stroke-linejoin="round"/>
</svg>
