<svg width="20" height="21" viewBox="0 0 20 21" fill="none" xmlns="http://www.w3.org/2000/svg">
<path d="M17.5 8.33692L17.5 3.33692M17.5 3.33692H12.5M17.5 3.33692L10 10.8369M8.33333 3.33691H6.5C5.09987 3.33691 4.3998 3.33691 3.86502 3.6094C3.39462 3.84908 3.01217 4.23153 2.77248 4.70194C2.5 5.23672 2.5 5.93678 2.5 7.33691V14.3369C2.5 15.737 2.5 16.4371 2.77248 16.9719C3.01217 17.4423 3.39462 17.8247 3.86502 18.0644C4.3998 18.3369 5.09987 18.3369 6.5 18.3369H13.5C14.9001 18.3369 15.6002 18.3369 16.135 18.0644C16.6054 17.8247 16.9878 17.4423 17.2275 16.9719C17.5 16.4371 17.5 15.737 17.5 14.3369V12.5036" stroke="white" stroke-width="1.66667" stroke-linecap="round" stroke-linejoin="round"/>
</svg>
