<svg width="18" height="15" viewBox="0 0 18 15" fill="none" xmlns="http://www.w3.org/2000/svg">
<path d="M17.1818 0.977539H0.636364C0.284375 0.977539 0 1.26191 0 1.6139V14.3412C0 14.6932 0.284375 14.9775 0.636364 14.9775H17.1818C17.5338 14.9775 17.8182 14.6932 17.8182 14.3412V1.6139C17.8182 1.26191 17.5338 0.977539 17.1818 0.977539ZM15.575 3.14316L9.30085 8.02527C9.14574 8.14657 8.92898 8.14657 8.77386 8.02527L2.49773 3.14316C2.47407 3.12491 2.45672 3.0997 2.4481 3.07109C2.43949 3.04247 2.44004 3.01187 2.44969 2.98359C2.45934 2.9553 2.47759 2.93075 2.5019 2.91336C2.5262 2.89597 2.55534 2.88663 2.58523 2.88663H15.4875C15.5174 2.88663 15.5465 2.89597 15.5708 2.91336C15.5951 2.93075 15.6134 2.9553 15.623 2.98359C15.6327 3.01187 15.6332 3.04247 15.6246 3.07109C15.616 3.0997 15.5987 3.12491 15.575 3.14316Z" fill="#7F56D9"/>
</svg>
