<svg width="584" height="270" viewBox="0 0 584 270" fill="none" xmlns="http://www.w3.org/2000/svg">
<rect opacity="0.6" x="485.201" y="154.46" width="62.4586" height="63.2216" fill="white" fill-opacity="0.1"/>
<rect opacity="0.5" x="545.814" y="-27.3623" width="62.4586" height="63.2216" fill="white" fill-opacity="0.1"/>
<rect opacity="0.6" x="242.5" y="33.707" width="62.9146" height="62.4662" fill="white" fill-opacity="0.1"/>
<path opacity="0.15" fill-rule="evenodd" clip-rule="evenodd" d="M-0.00390625 471.391L-0.00388142 -96.7134H2.33079L2.33077 471.391H-0.00390625ZM60.6193 471.391V460.146H49.373V457.811H60.6193L60.6193 399.522H49.373V397.188H60.6193L60.6193 338.9H49.3728V336.565H60.6193L60.6193 278.274H49.3728V275.939H60.6193L60.6193 217.65H49.3728V215.316H60.6193L60.6193 157.026H49.3728V154.692H60.6193V96.4033H49.373V94.0686H60.6193L60.6193 35.7793H49.373V33.4446H60.6193V-24.8457H49.373V-27.1804H60.6193L60.6194 -85.4685H49.3728V-87.8032H60.6194V-96.7133L62.954 -96.7133V-87.8032H121.238V-96.7134H123.573V-87.8032H181.865V-96.7134H184.2V-87.8032H242.488V-96.7134H244.823V-87.8032H303.115V-96.7134H305.45V-87.8032H363.738V-96.7134H366.073V-87.8032H424.363V-96.7134H426.698V-87.8032H484.986V-96.7134H487.321V-87.8032H545.611V-96.7134H547.946V-87.8032H606.236V-96.7134H608.571V-87.8032H617.477V-85.4685H608.571V-27.1804H617.477V-24.8457H608.571V33.4446H617.477V35.7793H608.571V94.0686H617.477V96.4033H608.571V154.692H617.477V157.026H608.571V215.316H617.477V217.65H608.571V275.939H617.477V278.274H608.571V336.565H617.477V338.9H608.571V397.188H617.477V399.522H608.571V457.811H617.477V460.146H608.571V471.391H606.236V460.146H547.946V471.391H545.611V460.146H487.321V471.391H484.986V460.146H426.698V471.391H424.363V460.146H366.073V471.391H363.738V460.146H305.45V471.391H303.115V460.146H244.823V471.391H242.488V460.146H184.2V471.391H181.865V460.146H123.573V471.391H121.238V460.146H62.954V471.391H60.6193ZM606.236 -85.4685H547.946V-27.1804H606.236V-85.4685ZM545.611 -85.4685H487.321L487.321 -27.1804H545.611V-85.4685ZM484.986 -85.4685H426.698L426.698 -27.1804H484.986L484.986 -85.4685ZM424.363 -85.4685H366.073L366.073 -27.1804H424.363L424.363 -85.4685ZM363.738 -85.4685H305.45L305.45 -27.1804H363.738L363.738 -85.4685ZM303.115 -85.4685H244.823L244.823 -27.1804H303.115L303.115 -85.4685ZM242.488 -85.4685H184.2L184.2 -27.1804H242.488L242.488 -85.4685ZM181.865 -85.4685H123.573L123.573 -27.1804H181.865L181.865 -85.4685ZM121.238 -85.4685H62.954L62.954 -27.1804H121.238L121.238 -85.4685ZM62.954 33.4446V-24.8457H121.238V33.4446H62.954ZM123.573 33.4446V-24.8457H181.865V33.4446H123.573ZM184.2 33.4446V-24.8457H242.488V33.4446H184.2ZM244.823 33.4446V-24.8457H303.115V33.4446H244.823ZM305.45 33.4446V-24.8457H363.738V33.4446H305.45ZM366.073 33.4446V-24.8457H424.363V33.4446H366.073ZM426.698 33.4446V-24.8457H484.986V33.4446H426.698ZM487.321 33.4446V-24.8457H545.611V33.4446H487.321ZM547.946 33.4446V-24.8457H606.236V33.4446H547.946ZM606.236 35.7793H547.946V94.0686H606.236V35.7793ZM545.611 35.7793H487.321V94.0686H545.611V35.7793ZM484.986 35.7793H426.698V94.0686H484.986V35.7793ZM424.363 35.7793H366.073V94.0686H424.363V35.7793ZM363.738 35.7793H305.45V94.0686H363.738V35.7793ZM303.115 35.7793H244.823V94.0686H303.115V35.7793ZM242.488 35.7793H184.2V94.0686H242.488L242.488 35.7793ZM181.865 35.7793H123.573L123.573 94.0686H181.865L181.865 35.7793ZM121.238 35.7793H62.954L62.954 94.0686H121.238L121.238 35.7793ZM62.954 154.692V96.4033H121.238V154.692H62.954ZM123.573 154.692V96.4033H181.865V154.692H123.573ZM184.2 154.692V96.4033H242.488V154.692H184.2ZM244.823 154.692V96.4033H303.115V154.692H244.823ZM305.45 154.692V96.4033H363.738V154.692H305.45ZM366.073 154.692V96.4033H424.363V154.692H366.073ZM426.698 154.692V96.4033H484.986V154.692H426.698ZM487.321 154.692V96.4033H545.611V154.692H487.321ZM547.946 154.692V96.4033H606.236V154.692H547.946ZM606.236 157.026H547.946V215.316H606.236V157.026ZM545.611 157.026H487.321V215.316H545.611V157.026ZM484.986 157.026H426.698V215.316H484.986V157.026ZM424.363 157.026H366.073V215.316H424.363V157.026ZM363.738 157.026H305.45V215.316H363.738V157.026ZM303.115 157.026H244.823V215.316H303.115V157.026ZM242.488 157.026H184.2V215.316H242.488V157.026ZM181.865 157.026H123.573L123.573 215.316H181.865V157.026ZM121.238 157.026H62.954L62.954 215.316H121.238L121.238 157.026ZM62.954 275.939L62.954 217.65H121.238V275.939H62.954ZM123.573 275.939V217.65H181.865V275.939H123.573ZM184.2 275.939V217.65H242.488V275.939H184.2ZM244.823 275.939V217.65H303.115V275.939H244.823ZM305.45 275.939V217.65H363.738V275.939H305.45ZM366.073 275.939V217.65H424.363V275.939H366.073ZM426.698 275.939V217.65H484.986V275.939H426.698ZM487.321 275.939V217.65H545.611V275.939H487.321ZM547.946 275.939V217.65H606.236V275.939H547.946ZM606.236 278.274H547.946V336.565H606.236V278.274ZM545.611 278.274H487.321V336.565H545.611V278.274ZM484.986 278.274H426.698V336.565H484.986V278.274ZM424.363 278.274H366.073V336.565H424.363V278.274ZM363.738 278.274H305.45V336.565H363.738V278.274ZM303.115 278.274H244.823V336.565H303.115V278.274ZM242.488 278.274H184.2V336.565H242.488V278.274ZM181.865 278.274H123.573V336.565H181.865V278.274ZM121.238 278.274H62.954L62.954 336.565H121.238V278.274ZM62.954 397.188L62.954 338.9H121.238V397.188H62.954ZM123.573 397.188V338.9H181.865V397.188H123.573ZM184.2 397.188V338.9H242.488V397.188H184.2ZM244.823 397.188V338.9H303.115V397.188H244.823ZM305.45 397.188V338.9H363.738V397.188H305.45ZM366.073 397.188V338.9H424.363V397.188H366.073ZM426.698 397.188V338.9H484.986V397.188H426.698ZM487.321 397.188V338.9H545.611V397.188H487.321ZM547.946 397.188V338.9H606.236V397.188H547.946ZM606.236 399.522H547.946V457.811H606.236V399.522ZM545.611 399.522H487.321V457.811H545.611V399.522ZM484.986 399.522H426.698V457.811H484.986V399.522ZM424.363 399.522H366.073V457.811H424.363V399.522ZM363.738 399.522H305.45V457.811H363.738V399.522ZM303.115 399.522H244.823V457.811H303.115V399.522ZM242.488 399.522H184.2V457.811H242.488V399.522ZM181.865 399.522H123.573V457.811H181.865V399.522ZM121.238 399.522H62.954L62.954 457.811H121.238V399.522Z" fill="url(#paint0_radial_2718_10635)"/>
<rect x="363.748" y="96.7324" width="2.33467" height="55.2559" fill="url(#paint1_linear_2718_10635)"/>
<rect x="241.971" y="154.7" width="2.33467" height="69.3348" transform="rotate(90 241.971 154.7)" fill="url(#paint2_linear_2718_10635)"/>
<rect x="548.26" y="272.001" width="2.33467" height="69.3348" transform="rotate(-180 548.26 272.001)" fill="url(#paint3_linear_2718_10635)"/>
<rect x="366.32" y="96.2871" width="2.33467" height="55.2559" transform="rotate(-90 366.32 96.2871)" fill="url(#paint4_linear_2718_10635)"/>
<circle cx="365.11" cy="95.3939" r="2.99838" fill="#D6BBFB"/>
<circle cx="243.821" cy="155.868" r="3.76235" fill="#D6BBFB"/>
<defs>
<radialGradient id="paint0_radial_2718_10635" cx="0" cy="0" r="1" gradientUnits="userSpaceOnUse" gradientTransform="translate(357.161 111.462) rotate(131.783) scale(333.449 333.449)">
<stop stop-color="white"/>
<stop offset="1" stop-color="white" stop-opacity="0"/>
</radialGradient>
<linearGradient id="paint1_linear_2718_10635" x1="364.915" y1="96.7324" x2="364.915" y2="151.988" gradientUnits="userSpaceOnUse">
<stop stop-color="#D6BBFB"/>
<stop offset="0.48" stop-color="#D6BBFB" stop-opacity="0"/>
</linearGradient>
<linearGradient id="paint2_linear_2718_10635" x1="243.138" y1="154.7" x2="243.138" y2="224.035" gradientUnits="userSpaceOnUse">
<stop stop-color="#D6BBFB"/>
<stop offset="1" stop-color="#D6BBFB" stop-opacity="0"/>
</linearGradient>
<linearGradient id="paint3_linear_2718_10635" x1="549.427" y1="272.001" x2="549.427" y2="341.336" gradientUnits="userSpaceOnUse">
<stop stop-color="#D6BBFB"/>
<stop offset="1" stop-color="#D6BBFB" stop-opacity="0"/>
</linearGradient>
<linearGradient id="paint4_linear_2718_10635" x1="367.488" y1="96.2871" x2="367.488" y2="151.543" gradientUnits="userSpaceOnUse">
<stop stop-color="#D6BBFB"/>
<stop offset="0.48" stop-color="#D6BBFB" stop-opacity="0"/>
</linearGradient>
</defs>
</svg>
