<svg width="28" height="29" viewBox="0 0 28 29" fill="none" xmlns="http://www.w3.org/2000/svg">
<path d="M15.1987 3.32175C16.0501 3.31848 16.9014 3.32704 17.7525 3.34741L17.9789 3.35558C18.2402 3.36491 18.498 3.37658 18.8095 3.39058C20.0509 3.44891 20.8979 3.64491 21.641 3.93308C22.411 4.22941 23.0597 4.63075 23.7084 5.27941C24.3015 5.86229 24.7605 6.56735 25.0535 7.34558C25.3417 8.08875 25.5377 8.93691 25.596 10.1782C25.61 10.4886 25.6217 10.7476 25.631 11.0089L25.638 11.2352C25.6588 12.086 25.6677 12.9369 25.6649 13.7879L25.666 14.6582V16.1866C25.6689 17.0379 25.66 17.8893 25.6392 18.7404L25.6322 18.9667C25.6229 19.2281 25.6112 19.4859 25.5972 19.7974C25.5389 21.0387 25.3405 21.8857 25.0535 22.6289C24.7615 23.408 24.3023 24.1136 23.7084 24.6962C23.125 25.2893 22.4196 25.7483 21.641 26.0414C20.8979 26.3296 20.0509 26.5256 18.8095 26.5839C18.498 26.5979 18.2402 26.6096 17.9789 26.6189L17.7525 26.6259C16.9014 26.6467 16.0501 26.6556 15.1987 26.6527L14.3284 26.6539H12.8012C11.9498 26.6568 11.0985 26.6478 10.2474 26.6271L10.021 26.6201C9.74408 26.61 9.46719 26.5984 9.19037 26.5851C7.94904 26.5267 7.10204 26.3284 6.3577 26.0414C5.57917 25.749 4.87398 25.2899 4.29154 24.6962C3.69776 24.1132 3.2383 23.4077 2.9452 22.6289C2.65704 21.8857 2.46104 21.0387 2.4027 19.7974C2.38971 19.5206 2.37804 19.2437 2.3677 18.9667L2.36187 18.7404C2.34036 17.8893 2.33064 17.038 2.3327 16.1866V13.7879C2.32945 12.9369 2.338 12.086 2.35837 11.2352L2.36654 11.0089C2.37587 10.7476 2.38754 10.4886 2.40154 10.1782C2.45987 8.93575 2.65587 8.08991 2.94404 7.34558C3.23731 6.56697 3.69766 5.8621 4.2927 5.28058C4.87475 4.68646 5.57949 4.22658 6.3577 3.93308C7.10204 3.64491 7.94787 3.44891 9.19037 3.39058L10.021 3.35558L10.2474 3.34975C11.0981 3.32825 11.9491 3.31853 12.8 3.32058L15.1987 3.32175ZM13.9994 9.15508C13.2265 9.14415 12.4591 9.28694 11.7418 9.57516C11.0246 9.86338 10.3718 10.2913 9.82136 10.834C9.27092 11.3767 8.83384 12.0234 8.53551 12.7365C8.23717 13.4496 8.08354 14.2148 8.08354 14.9878C8.08354 15.7608 8.23717 16.5261 8.53551 17.2392C8.83384 17.9523 9.27092 18.599 9.82136 19.1417C10.3718 19.6844 11.0246 20.1123 11.7418 20.4005C12.4591 20.6887 13.2265 20.8315 13.9994 20.8206C15.5465 20.8206 17.0302 20.206 18.1242 19.112C19.2181 18.0181 19.8327 16.5343 19.8327 14.9872C19.8327 13.4402 19.2181 11.9564 18.1242 10.8625C17.0302 9.7685 15.5465 9.15508 13.9994 9.15508ZM13.9994 11.4884C14.4643 11.4798 14.9263 11.564 15.3583 11.736C15.7903 11.908 16.1838 12.1643 16.5156 12.49C16.8475 12.8158 17.1111 13.2044 17.2911 13.6331C17.471 14.0619 17.5638 14.5222 17.5638 14.9872C17.5639 15.4522 17.4713 15.9126 17.2915 16.3414C17.1117 16.7702 16.8482 17.1589 16.5164 17.4848C16.1847 17.8106 15.7914 18.0671 15.3594 18.2392C14.9274 18.4113 14.4655 18.4957 14.0005 18.4872C13.0723 18.4872 12.182 18.1185 11.5257 17.4621C10.8693 16.8057 10.5005 15.9155 10.5005 14.9872C10.5005 14.059 10.8693 13.1688 11.5257 12.5124C12.182 11.856 13.0723 11.4872 14.0005 11.4872L13.9994 11.4884ZM20.1244 7.40508C19.748 7.42015 19.392 7.58026 19.1311 7.85188C18.8701 8.12351 18.7244 8.48557 18.7244 8.86225C18.7244 9.23892 18.8701 9.60099 19.1311 9.87261C19.392 10.1442 19.748 10.3044 20.1244 10.3194C20.5111 10.3194 20.8821 10.1658 21.1556 9.89228C21.4291 9.61879 21.5827 9.24786 21.5827 8.86108C21.5827 8.47431 21.4291 8.10337 21.1556 7.82988C20.8821 7.55639 20.5111 7.40275 20.1244 7.40275V7.40508Z" fill="#7F56D9"/>
</svg>
