<svg width="28" height="29" viewBox="0 0 28 29" fill="none" xmlns="http://www.w3.org/2000/svg">
<g clip-path="url(#clip0_2639_2935)">
<path fill-rule="evenodd" clip-rule="evenodd" d="M21 4.4873C21.9283 4.4873 22.8185 4.85605 23.4749 5.51243C24.1313 6.16881 24.5 7.05905 24.5 7.9873V21.9873C24.5 22.9156 24.1313 23.8058 23.4749 24.4622C22.8185 25.1186 21.9283 25.4873 21 25.4873H7C6.07174 25.4873 5.1815 25.1186 4.52513 24.4622C3.86875 23.8058 3.5 22.9156 3.5 21.9873V7.9873C3.5 7.05905 3.86875 6.16881 4.52513 5.51243C5.1815 4.85605 6.07174 4.4873 7 4.4873H21ZM9.33333 12.654C9.02391 12.654 8.72717 12.7769 8.50838 12.9957C8.28958 13.2145 8.16667 13.5112 8.16667 13.8206V19.654C8.16667 19.9634 8.28958 20.2601 8.50838 20.4789C8.72717 20.6977 9.02391 20.8206 9.33333 20.8206C9.64275 20.8206 9.9395 20.6977 10.1583 20.4789C10.3771 20.2601 10.5 19.9634 10.5 19.654V13.8206C10.5 13.5112 10.3771 13.2145 10.1583 12.9957C9.9395 12.7769 9.64275 12.654 9.33333 12.654ZM12.8333 11.4873C12.5239 11.4873 12.2272 11.6102 12.0084 11.829C11.7896 12.0478 11.6667 12.3446 11.6667 12.654V19.654C11.6667 19.9634 11.7896 20.2601 12.0084 20.4789C12.2272 20.6977 12.5239 20.8206 12.8333 20.8206C13.1428 20.8206 13.4395 20.6977 13.6583 20.4789C13.8771 20.2601 14 19.9634 14 19.654V15.384C14.4552 14.8889 15.0087 14.4943 15.6252 14.2255C16.0137 14.0598 16.5982 13.9921 17.0042 14.1205C17.1389 14.1546 17.2588 14.2316 17.346 14.3398C17.4067 14.4215 17.5 14.6035 17.5 14.9873V19.654C17.5 19.9634 17.6229 20.2601 17.8417 20.4789C18.0605 20.6977 18.3572 20.8206 18.6667 20.8206C18.9761 20.8206 19.2728 20.6977 19.4916 20.4789C19.7104 20.2601 19.8333 19.9634 19.8333 19.654V14.9873C19.8333 14.2056 19.635 13.5103 19.222 12.9526C18.842 12.447 18.3101 12.0761 17.7042 11.8945C16.6518 11.5643 15.4863 11.7475 14.7082 12.0811C14.4588 12.1878 14.2161 12.3094 13.9813 12.4451C13.9324 12.1763 13.7907 11.9332 13.5809 11.7582C13.3711 11.5831 13.1066 11.4873 12.8333 11.4873ZM9.33333 9.15397C9.02391 9.15397 8.72717 9.27689 8.50838 9.49568C8.28958 9.71447 8.16667 10.0112 8.16667 10.3206C8.16667 10.6301 8.28958 10.9268 8.50838 11.1456C8.72717 11.3644 9.02391 11.4873 9.33333 11.4873C9.64275 11.4873 9.9395 11.3644 10.1583 11.1456C10.3771 10.9268 10.5 10.6301 10.5 10.3206C10.5 10.0112 10.3771 9.71447 10.1583 9.49568C9.9395 9.27689 9.64275 9.15397 9.33333 9.15397Z" fill="#7F56D9"/>
</g>
<defs>
<clipPath id="clip0_2639_2935">
<rect width="28" height="28" fill="white" transform="translate(0 0.987305)"/>
</clipPath>
</defs>
</svg>
