<svg width="174" height="61" viewBox="0 0 174 61" fill="none" xmlns="http://www.w3.org/2000/svg">
<path opacity="0.5" d="M60.0625 60.0703C60.0625 52.191 58.5106 44.3888 55.4953 37.1093C52.48 29.8298 48.0604 23.2154 42.4889 17.6439C36.9174 12.0724 30.303 7.65282 23.0235 4.63754C15.744 1.62226 7.94181 0.0703122 0.0625 0.0703125L0.0625026 60.0703H60.0625Z" fill="#6941C6"/>
<path opacity="0.5" d="M60.0625 0.0703125C60.0625 7.94963 58.5106 15.7518 55.4953 23.0313C52.48 30.3109 48.0604 36.9252 42.4889 42.4967C36.9174 48.0682 30.303 52.4878 23.0235 55.5031C15.744 58.5184 7.94181 60.0703 0.0625 60.0703L0.0625026 0.0703125H60.0625Z" fill="#6941C6"/>
<path d="M79.3344 44.0703V16.492H85.1652V28.6518H85.5288L95.4532 16.492H102.442L92.2079 28.8403L102.563 44.0703H95.5879L88.0335 32.7319L85.1652 36.2331V44.0703H79.3344ZM104.72 44.0703V16.492H110.551V39.263H122.374V44.0703H104.72ZM125.477 44.0703V16.492H144.06V21.2993H131.308V27.8707H143.104V32.6781H131.308V39.263H144.114V44.0703H125.477ZM173.28 30.2811C173.28 33.2885 172.71 35.8471 171.57 37.9568C170.439 40.0664 168.895 41.6779 166.938 42.791C164.99 43.8953 162.799 44.4474 160.367 44.4474C157.916 44.4474 155.716 43.8908 153.768 42.7776C151.82 41.6644 150.281 40.053 149.149 37.9433C148.018 35.8336 147.453 33.2796 147.453 30.2811C147.453 27.2737 148.018 24.7152 149.149 22.6055C150.281 20.4959 151.82 18.8889 153.768 17.7847C155.716 16.6715 157.916 16.1149 160.367 16.1149C162.799 16.1149 164.99 16.6715 166.938 17.7847C168.895 18.8889 170.439 20.4959 171.57 22.6055C172.71 24.7152 173.28 27.2737 173.28 30.2811ZM167.369 30.2811C167.369 28.3331 167.077 26.6902 166.494 25.3526C165.919 24.015 165.107 23.0005 164.056 22.3093C163.006 21.618 161.776 21.2724 160.367 21.2724C158.957 21.2724 157.727 21.618 156.677 22.3093C155.627 23.0005 154.81 24.015 154.226 25.3526C153.652 26.6902 153.364 28.3331 153.364 30.2811C153.364 32.2292 153.652 33.8721 154.226 35.2097C154.81 36.5473 155.627 37.5618 156.677 38.253C157.727 38.9443 158.957 39.2899 160.367 39.2899C161.776 39.2899 163.006 38.9443 164.056 38.253C165.107 37.5618 165.919 36.5473 166.494 35.2097C167.077 33.8721 167.369 32.2292 167.369 30.2811Z" fill="black"/>
</svg>
