<svg width="14" height="15" viewBox="0 0 14 15" fill="none" xmlns="http://www.w3.org/2000/svg">
<path d="M13.1833 14.9775C11.5111 14.9775 9.88111 14.608 8.29341 13.8692C6.70571 13.1303 5.29924 12.1451 4.07398 10.9136C2.84873 9.68213 1.86355 8.27229 1.11844 6.68407C0.373332 5.09586 0.000518516 3.4659 0 1.7942V1.38587C0 1.24328 0.0129629 1.10717 0.0388887 0.977539H4.58887L5.30831 4.88586L3.09165 7.12196C3.6361 8.05529 4.32002 8.93029 5.14342 9.74695C5.96683 10.5636 6.87086 11.2701 7.85552 11.8664L10.1111 9.61084L13.9999 10.3886V14.9386C13.8703 14.9516 13.7342 14.9614 13.5916 14.9682C13.449 14.9749 13.3129 14.978 13.1833 14.9775Z" fill="#7F56D9"/>
</svg>
