<svg width="56" height="56" viewBox="0 0 56 56" fill="none" xmlns="http://www.w3.org/2000/svg">
<path d="M50.5194 34.6438C53.1945 41.102 54.6016 48.0131 54.6657 55H0.667971L0.667969 1.00229C7.6549 1.06639 14.566 2.47348 21.0242 5.14856C27.6365 7.88745 33.6445 11.9019 38.7053 16.9627C43.7661 22.0235 47.7805 28.0315 50.5194 34.6438Z" fill="#FCFCFD" fill-opacity="0.7" stroke="white"/>
<path d="M54.6657 1C54.6016 7.98693 53.1945 14.898 50.5194 21.3562C47.7805 27.9685 43.7661 33.9765 38.7053 39.0373C33.6445 44.0981 27.6365 48.1126 21.0242 50.8514C14.566 53.5265 7.6549 54.9336 0.667969 54.9977L0.667971 1H54.6657Z" fill="#FCFCFD" fill-opacity="0.7" stroke="white"/>
</svg>
