<svg width="71" height="24" viewBox="0 0 71 24" fill="none" xmlns="http://www.w3.org/2000/svg">
<path d="M21.9715 14.8991C23.1388 17.7172 23.7528 20.733 23.7808 23.7818H0.218183L0.218182 0.219183C3.26703 0.247153 6.28277 0.861155 9.10091 2.02846C11.9863 3.22361 14.6079 4.97537 16.8163 7.18371C19.0246 9.39206 20.7764 12.0137 21.9715 14.8991Z" fill="#FCFCFD" fill-opacity="0.7" stroke="white" stroke-width="0.436364"/>
<path d="M23.7808 0.218182C23.7528 3.26702 23.1388 6.28277 21.9715 9.10091C20.7764 11.9862 19.0246 14.6079 16.8163 16.8163C14.6079 19.0246 11.9862 20.7764 9.10091 21.9715C6.28277 23.1388 3.26702 23.7528 0.218182 23.7808L0.218183 0.218182H23.7808Z" fill="#FCFCFD" fill-opacity="0.7" stroke="white" stroke-width="0.436364"/>
<path d="M31.7088 17.5V6.46866H34.0411V11.3326H34.1865L38.1563 6.46866H40.9518L36.8582 11.408L41.0003 17.5H38.2102L35.1884 12.9647L34.0411 14.3651V17.5H31.7088ZM41.8631 17.5V6.46866H44.1954V15.5771H48.9247V17.5H41.8631ZM50.1659 17.5V6.46866H57.5991V8.3916H52.4982V11.0202H57.2167V12.9431H52.4982V15.5771H57.6206V17.5H50.1659ZM69.2872 11.9843C69.2872 13.1873 69.0592 14.2107 68.6031 15.0546C68.1507 15.8984 67.533 16.543 66.7502 16.9883C65.971 17.43 65.0948 17.6508 64.1216 17.6508C63.1413 17.6508 62.2615 17.4282 61.4823 16.9829C60.7031 16.5376 60.0872 15.8931 59.6348 15.0492C59.1823 14.2053 58.9561 13.1837 58.9561 11.9843C58.9561 10.7814 59.1823 9.75795 59.6348 8.91408C60.0872 8.07021 60.7031 7.42744 61.4823 6.98575C62.2615 6.54048 63.1413 6.31784 64.1216 6.31784C65.0948 6.31784 65.971 6.54048 66.7502 6.98575C67.533 7.42744 68.1507 8.07021 68.6031 8.91408C69.0592 9.75795 69.2872 10.7814 69.2872 11.9843ZM66.9226 11.9843C66.9226 11.2051 66.8059 10.548 66.5724 10.0129C66.3426 9.47786 66.0177 9.07208 65.5975 8.79558C65.1774 8.51908 64.6854 8.38083 64.1216 8.38083C63.5579 8.38083 63.0659 8.51908 62.6458 8.79558C62.2256 9.07208 61.8989 9.47786 61.6654 10.0129C61.4356 10.548 61.3207 11.2051 61.3207 11.9843C61.3207 12.7636 61.4356 13.4207 61.6654 13.9558C61.8989 14.4908 62.2256 14.8966 62.6458 15.1731C63.0659 15.4496 63.5579 15.5878 64.1216 15.5878C64.6854 15.5878 65.1774 15.4496 65.5975 15.1731C66.0177 14.8966 66.3426 14.4908 66.5724 13.9558C66.8059 13.4207 66.9226 12.7636 66.9226 11.9843Z" fill="white"/>
</svg>
