<svg width="368" height="298" viewBox="0 0 368 298" fill="none" xmlns="http://www.w3.org/2000/svg">
<g clip-path="url(#clip0)">
<path d="M299.056 106.975C300.17 87.7909 298.22 68.6063 292.858 49.9788C292.579 48.8646 291.431 47.7156 290.316 47.4371C271.689 42.0751 252.504 40.0905 233.32 41.2395L218.348 26.2679C200.556 8.47598 171.797 8.47598 154.005 26.2679L139.033 40.9261C119.848 39.812 100.664 41.7618 82.0364 47.1237C80.9222 47.4023 79.7732 48.5512 79.4947 49.6654C74.1327 68.2929 72.1481 87.4775 73.2971 106.662L58.3255 121.634C40.5336 139.426 40.5336 168.185 58.3255 185.977L73.2971 200.949C72.1829 220.133 74.1327 239.318 79.4947 257.945C79.7732 259.059 80.9222 260.208 82.0364 260.487C100.664 265.849 119.848 267.834 139.033 266.685L154.005 281.656C171.797 299.448 200.556 299.448 218.348 281.656L233.32 266.685C252.504 267.799 271.689 265.849 290.316 260.487C291.431 260.208 292.579 259.059 292.858 257.945C298.22 239.318 300.205 220.133 299.056 200.949L314.027 185.977C331.819 168.185 331.819 139.426 314.027 121.634L299.056 106.975Z" fill="#C7FA73" stroke="white" stroke-width="2"/>
<mask id="mask0" mask-type="alpha" maskUnits="userSpaceOnUse" x="44" y="-1" width="292" height="296">
<path d="M335.645 83.5587C336.759 64.3741 312.525 41.8434 307.163 23.2159C306.885 22.1017 288.485 15.2878 287.371 15.0092C268.743 9.6473 268.419 -2.07023 249.234 -0.921243L218.348 26.2677C200.556 8.47579 171.797 8.47579 154.005 26.2677L139.033 40.926C119.848 39.8118 100.664 41.7616 82.0364 47.1235C80.9222 47.4021 79.7732 48.5511 79.4947 49.6652C74.1328 68.2927 72.1481 87.4773 73.2971 106.662L58.3255 121.634C40.5336 139.425 40.5336 168.185 58.3255 185.977L73.2971 200.948C72.183 220.133 74.1328 239.318 79.4947 257.945C79.7732 259.059 80.9222 260.208 82.0364 260.487C100.664 265.849 112.743 282.805 131.928 281.656H154.005C171.797 299.448 200.556 299.448 218.348 281.656L233.32 266.684C252.504 267.799 271.689 265.849 290.316 260.487C291.431 260.208 292.58 259.059 292.858 257.945C298.22 239.318 300.205 220.133 299.056 200.948L314.027 185.977C331.819 168.185 331.819 139.425 314.027 121.634L335.645 83.5587Z" fill="#C7FA73"/>
</mask>
<g mask="url(#mask0)">
<path d="M127.787 127.587C127.787 127.309 128.065 127.309 128.344 127.309L143.873 124.21L192.13 116.864C192.409 116.864 192.687 116.864 192.687 117.142L194.115 120.519C194.115 120.798 194.115 121.076 194.115 121.076C183.669 133.506 176.044 137.441 170.682 139.983C167.027 141.689 169.394 140.54 162.361 142.907M154.144 158.157L137.118 153.805H136.84L122.146 141.41C121.868 141.132 121.868 140.853 121.868 140.574L154.144 158.157Z" stroke="black" stroke-width="1.2" stroke-miterlimit="10"/>
<path d="M182.521 121.076L218.905 126.995L228.793 91.4465L221.725 76.4748L200.556 69.1283L182.521 121.076Z" fill="black"/>
<path d="M220.89 120.241L185.341 112.894L185.062 114.009L182.521 121.077L218.905 126.996L220.89 120.241Z" fill="#C7FA73"/>
<path d="M218.94 127.553L182.555 121.634C182.277 121.634 182.277 121.634 182.277 121.355C182.277 121.077 182.277 121.077 182.277 120.798L200.347 68.8848" stroke="black" stroke-width="1.2" stroke-miterlimit="10"/>
<path d="M127.508 129.816L126.951 130.93L122.425 140.818L137.083 153.248L157.312 150.915C158.81 148.791 159.993 146.424 162.326 142.907C156.407 134.447 135.691 128.144 127.508 129.816Z" fill="white" stroke="black" stroke-width="1.2"/>
<path d="M191.852 183.714C174.93 203.177 158.009 215.607 150.941 211.359C143.594 206.833 146.693 183.157 159.68 153.248C157.138 150.149 150.662 143.36 139.66 139.982C129.772 136.884 121.311 138.276 117.655 139.147C90.5668 202.62 88.8607 253.419 117.655 269.783C144.186 285.033 182.834 264.7 187.082 262.437C189.902 251.713 193.001 240.989 195.821 230.265L191.852 183.714Z" fill="#C7FA73"/>
<path d="M102.962 254.254C93.3522 211.08 111.701 161.987 124.688 138.311C121.589 138.59 119.048 138.868 117.342 139.147C94.2226 187.126 90.8105 230.578 102.962 254.254Z" fill="white"/>
<path d="M193.244 199.799L191.817 183.714C176.288 201.506 160.794 213.344 152.891 212.229C161.351 216.721 188.161 202.898 193.244 199.799Z" fill="black"/>
<path d="M140.495 275.981C131.478 275.981 123.853 273.996 117.063 270.34C102.962 262.437 95.3368 244.366 95.3368 219.82C95.3368 195.552 102.962 166.757 116.785 139.112C116.785 138.833 117.063 138.833 117.063 138.833C122.146 137.719 130.329 136.849 139.346 139.669C149.235 142.768 155.989 148.687 159.645 152.935C147.215 181.416 143.281 206.833 150.627 211.046C156.825 214.701 173.468 203.42 190.703 183.4C190.981 183.122 190.981 183.122 191.26 183.122C191.538 183.122 191.538 183.4 191.538 183.679L195.473 230.23C195.473 230.23 195.473 230.23 195.473 230.509L191.434 260.313C191.434 260.591 186.455 262.959 186.455 262.959C185.341 263.516 174.025 269.714 159.924 273.404C153.482 275.145 146.693 275.981 140.495 275.981Z" fill="#C7FA73" stroke="black" stroke-width="1.2" stroke-miterlimit="10"/>
<path d="M299.056 117.421L299.334 123.34L298.22 136.048L277.921 163.694L283.84 190.782L279.592 216.756L273.395 219.019L253.932 147.051L244.914 128.702V76.5099L275.379 78.773L295.992 88.9398L302.189 100.221L299.056 117.421Z" fill="#C7FA73"/>
<path d="M330.949 161.43C329.521 155.511 329.904 149.314 327.363 142.524C324.264 134.342 319.076 126.995 315.699 120.798C313.435 129.537 280.428 146.18 273.36 149.871C275.345 158.053 277.016 167.941 277.886 178.944C279.001 193.602 277.886 206.589 276.459 216.756" fill="#C7FA73"/>
<path d="M275.937 216.721C277.643 204.291 278.2 191.617 277.329 178.909C276.772 169.299 275.066 159.446 272.803 150.115C272.803 149.836 272.803 149.557 273.081 149.557C284.084 144.196 313.157 128.945 315.141 121.042C315.141 120.763 315.42 120.763 315.698 120.485C315.977 120.485 316.256 120.485 316.256 120.763C319.354 126.682 324.821 133.75 327.919 142.489C330.183 148.687 329.8 155.198 331.506 161.396" stroke="black" stroke-width="1.2" stroke-miterlimit="10"/>
<path d="M275.345 78.7727C276.772 81.3144 278.443 84.6917 279.592 88.661C281.02 93.1873 281.577 97.4002 281.856 100.499C286.66 96.8431 292.301 95.6941 295.121 97.6788C298.777 100.22 299.369 109.238 292.579 116.863C293.136 117.699 294.007 119.127 295.121 120.241C296.514 121.668 298.22 122.782 299.055 123.339C302.711 117.978 306.681 110.352 309.779 100.778C311.764 94.3014 312.878 88.3476 313.435 83.5776C301.04 81.8715 288.053 80.444 275.345 78.7727Z" fill="black"/>
<path d="M299.334 123.897C299.334 123.897 299.056 123.897 299.334 123.897C297.35 123.061 295.957 121.912 294.808 120.798C293.694 119.684 292.823 118.535 292.266 117.142C292.266 116.864 292.266 116.585 292.266 116.585C295.922 112.651 297.628 107.567 297.071 103.32C296.792 101.056 295.957 99.3852 294.808 98.2362C292.266 96.2516 286.626 97.4005 282.099 101.056C281.821 101.056 281.821 101.335 281.542 101.056C281.264 101.056 281.264 100.778 281.264 100.499C280.985 96.5649 280.428 92.5957 279.279 88.6613C278.165 85.284 276.737 81.9066 275.031 79.0516C275.031 78.773 275.031 78.4945 275.031 78.4945C275.031 78.2159 275.31 78.2159 275.588 78.2159L313.958 83.0208C314.236 83.0208 314.515 83.2993 314.515 83.5779C313.958 89.4969 312.53 95.4159 310.859 101.056C308.317 108.96 304.661 116.585 300.135 123.897C299.613 123.897 299.613 123.897 299.334 123.897ZM293.415 117.142C293.972 118.256 294.843 119.127 295.678 120.241C296.792 121.355 297.941 122.226 299.056 122.783C303.582 116.028 306.959 108.682 309.501 100.778C311.207 95.4159 312.321 89.7754 313.157 84.135L276.459 79.6087C277.886 82.4289 279.279 85.5277 280.115 88.6265C281.229 92.2823 281.821 95.973 282.099 99.6289C286.904 96.2516 292.266 95.3811 295.365 97.3657C296.792 98.4799 297.907 100.465 298.185 103.006C298.777 107.533 297.071 112.894 293.415 117.142Z" fill="black"/>
<path d="M126.951 57.325C124.967 49.6999 123.853 48.5857 119.048 46.044L116.227 43.5023L89.4178 22.3331L57.8032 119.405L96.451 123.339C119.326 123.339 129.215 66.6213 126.951 57.325Z" fill="black"/>
<path d="M197.214 50.2573L226.844 42.0751C229.385 35.8776 240.666 12.7237 246.028 6.52618C249.963 1.72133 259.572 0.328615 266.048 5.9691C269.704 9.34642 275.066 13.0371 281.577 16.693C292.858 23.1691 302.468 21.7764 305.01 24.5966C308.108 29.68 309.814 53.948 310.371 63.2443C317.161 68.0492 326.179 75.0824 332.376 79.6087C333.804 80.7229 333.804 84.2395 332.376 85.3885C327.014 89.9148 303.652 85.0403 254.837 80.514" fill="#C7FA73"/>
<path d="M197.214 50.2573L226.844 42.0751C229.385 35.8776 240.666 12.7237 246.028 6.52618C249.963 1.72133 259.572 0.328615 266.048 5.9691C269.704 9.34642 275.066 13.0371 281.577 16.693C292.858 23.1691 302.468 21.7764 305.01 24.5966C308.108 29.68 309.814 53.948 310.371 63.2443C317.161 68.0492 326.179 75.0824 332.376 79.6087C333.804 80.7229 333.804 84.2395 332.376 85.3885C327.014 89.9148 303.652 85.0403 254.837 80.514" stroke="black" stroke-width="1.2" stroke-miterlimit="10"/>
<path d="M257.031 8.19734C262.393 6.21273 266.327 9.90341 269.147 8.47588C268.033 7.64025 266.884 6.76981 266.048 5.93418C259.572 0.293703 249.963 1.68641 246.028 6.49127C240.666 12.6888 229.385 35.8427 226.844 42.0402L196.587 49.8742L200.382 56.8029C217.304 53.1471 228.828 47.9941 232.206 42.9107C234.19 38.6629 236.453 34.4499 238.403 30.2022C248.257 14.1512 254.21 9.34632 257.031 8.19734Z" fill="white"/>
<path d="M193.802 46.6011L164.45 18.3987L127.508 128.144L164.972 129.467C165.808 129.467 165.947 129.641 166.818 129.641C167.096 129.641 167.305 129.572 167.584 129.572L168.35 128.458C181.058 127.901 194.08 114.914 200.312 94.0229C206.232 73.9678 203.133 54.7833 193.802 46.6011Z" fill="black"/>
<path d="M207.067 125.011C202.819 126.996 200.869 128.388 195.786 132.079C192.13 134.899 188.997 137.72 186.768 140.261C189.31 165.922 190.703 195.273 189.588 227.724C188.439 253.141 186.211 276.538 182.799 297.429C188.161 296.872 194.637 296.872 201.705 297.429C211.001 298.264 218.905 300.249 225.137 302.512C223.745 242.138 222.317 187.683 220.89 127.274L207.067 125.011Z" fill="black"/>
<path d="M268.869 91.1679C266.327 88.6262 261.801 93.431 260.965 94.8237C259.259 85.8059 254.489 73.6545 243.486 71.6699C240.666 69.4067 236.418 68.014 230.778 69.1282C227.401 67.7007 222.874 66.865 216.955 68.5711C210.758 67.1436 204.804 67.1436 204.525 68.8497C203.968 71.6699 208.773 73.0974 218.348 77.8675C222.596 82.1152 224.267 86.3282 224.267 90.8545C224.546 100.464 218.069 110.596 217.478 122.191C217.478 125.846 217.861 130.442 218.696 134.655L217.93 145.135L220.576 149.557L257.831 147.294L257.274 141.654C256.996 138.833 257.274 135.735 257.831 132.914C262.392 120.241 269.704 101.892 268.869 91.1679Z" fill="#C7FA73"/>
<path d="M231.057 92.282C231.335 86.6415 230.569 82.3937 230.012 79.2949C228.202 72.0528 237.846 79.2949 239.796 78.4593C241.119 78.1111 240.527 71.7743 237.428 70.0682C235.444 69.7897 232.554 70.0682 231.335 70.8342C227.958 69.4067 225.973 67.7006 220.054 69.3719C213.857 67.9443 203.968 67.4569 203.69 69.1281C203.133 71.9484 207.555 71.4261 217.513 78.1459C221.76 82.3937 223.432 86.6067 223.432 91.133C223.71 100.743 217.234 110.875 216.677 122.469C216.677 126.125 217.826 130.477 218.661 134.69L217.513 143.743L218.07 146.18L221.168 138.276C222.283 128.388 223.989 120.798 225.695 115.436C227.958 106.697 230.5 101.335 231.057 92.282Z" fill="white"/>
<path d="M256.996 141.724C256.996 139.46 257.866 133.507 257.866 133.507C248.57 127.588 224.302 130.408 217.791 135.77V137.476L217.512 145.379L258.145 143.673L256.996 141.724Z" fill="white"/>
<path d="M218.069 135.735L217.791 144.474L257.309 142.768V141.34C257.309 139.356 257.866 134.864 257.866 133.437C253.618 131.173 246.028 130.059 236.976 130.616C228.793 131.522 221.482 133.506 218.069 135.735Z" fill="white" stroke="black" stroke-width="1.2" stroke-miterlimit="10"/>
<path d="M229.002 78.5294C229.176 78.8776 229.629 79.0168 229.977 78.8427C230.325 78.6687 230.465 78.216 230.291 77.8678L229.002 78.5294ZM220.89 69.999L220.646 70.6954L220.89 69.999ZM204.247 68.6063V69.3375H204.421L204.56 69.2678L204.247 68.6063ZM203.968 68.8849L204.665 69.1286L204.699 69.0241V68.9197H203.968V68.8849ZM217.512 77.3456L218.035 76.8233L217.93 76.7189L217.791 76.6492L217.512 77.3456ZM224.023 90.6111L223.292 90.646L224.023 90.6111ZM220.89 105.827L221.586 106.07L220.89 105.827ZM217.234 121.912L217.965 121.947L217.234 121.912ZM218.07 134.064L218.801 134.099V134.029V133.959L218.07 134.064ZM217.791 144.231L217.06 144.196V144.474L217.234 144.683L217.791 144.231ZM230.291 77.8678C229.142 75.5699 226.774 71.1132 221.099 69.3027L220.646 70.6954C225.695 72.297 227.853 76.2662 228.967 78.4946L230.291 77.8678ZM221.133 69.3375C218.244 68.3278 214.588 67.6662 211.35 67.4225C209.748 67.2832 208.216 67.2832 206.963 67.3529C205.744 67.4225 204.63 67.5966 203.933 67.9448L204.595 69.233C205.013 69.0241 205.848 68.85 207.067 68.7804C208.251 68.7108 209.713 68.7456 211.245 68.85C214.379 69.0938 217.895 69.7205 220.646 70.6954L221.133 69.3375ZM204.247 67.8751C204.038 67.8751 203.864 67.91 203.69 68.0492C203.516 68.1537 203.411 68.293 203.376 68.4322C203.307 68.5367 203.307 68.6759 203.272 68.7456C203.272 68.7804 203.272 68.8152 203.272 68.85V68.8849C203.272 68.8849 203.272 68.8849 204.003 68.8849C204.734 68.8849 204.734 68.8849 204.734 68.8849C204.734 68.8849 204.734 68.8849 204.734 68.9197V68.9545C204.734 68.9893 204.734 69.0241 204.699 69.0589C204.665 69.0938 204.63 69.1982 204.525 69.233C204.421 69.3027 204.351 69.3027 204.282 69.3027V67.8751H204.247ZM203.272 68.6411C203.028 69.3375 203.202 69.9642 203.62 70.5213C204.003 71.0436 204.595 71.531 205.326 71.9836C206.789 72.9237 209.017 74.0031 211.802 75.3958L212.464 74.1075C209.609 72.68 207.485 71.6355 206.127 70.765C205.431 70.3124 205.013 69.9642 204.804 69.6508C204.595 69.3723 204.595 69.233 204.665 69.0589L203.272 68.6411ZM211.837 75.4654C213.543 76.301 215.249 77.1715 217.234 78.0071L217.791 76.684C215.841 75.8484 214.17 75.0128 212.464 74.1772L211.837 75.4654ZM216.99 77.8678C220.855 81.7326 223.014 85.8063 223.257 90.646L224.72 90.5763C224.441 85.284 222.074 80.897 218.035 76.8581L216.99 77.8678ZM223.292 90.646C223.571 95.2767 221.934 100.221 220.228 105.618L221.621 106.07C223.292 100.743 225.033 95.5205 224.755 90.5763L223.292 90.646ZM220.228 105.618C218.522 110.701 216.816 116.133 216.538 121.878L218 121.947C218.278 116.411 219.95 111.154 221.621 106.07L220.228 105.618ZM216.503 121.878C216.224 125.916 216.781 129.955 217.338 134.168L218.766 133.959C218.209 129.712 217.652 125.847 217.93 121.982L216.503 121.878ZM217.373 134.029L217.095 144.196L218.557 144.231L218.835 134.064L217.373 134.029ZM217.269 144.683L221.203 149.209L222.282 148.269L218.348 143.743L217.269 144.683Z" fill="black"/>
<path d="M239.796 78.4593C237.637 74.9427 231.614 67.0739 219.288 69.337" stroke="black" stroke-width="1.2" stroke-miterlimit="10" stroke-linecap="round"/>
<path d="M248.848 79.6085C245.193 71.7048 239.239 68.606 231.057 69.9988" stroke="black" stroke-width="1.2" stroke-miterlimit="10" stroke-linecap="round"/>
<path d="M261.243 101.614C261.243 93.4314 256.717 75.0825 243.765 72.5408" stroke="black" stroke-width="1.2" stroke-miterlimit="10" stroke-linecap="round"/>
<path d="M257.031 132.984C256.891 133.367 257.1 133.785 257.483 133.889C257.866 134.028 258.284 133.819 258.389 133.436L257.031 132.984ZM260.686 124.453L259.99 124.245L260.686 124.453ZM268.59 87.7904L269.321 87.7555C269.321 87.5814 269.252 87.4074 269.112 87.2681L268.59 87.7904ZM267.476 87.5118L267.65 88.2082L267.476 87.5118ZM260.338 95.6244C260.164 95.9725 260.338 96.4252 260.686 96.5993C261.035 96.7734 261.487 96.5993 261.661 96.2511L260.338 95.6244ZM258.389 133.436C259.224 130.964 260.547 127.761 261.383 124.662L259.99 124.279C259.155 127.378 257.901 130.373 257.031 132.984L258.389 133.436ZM261.383 124.662C263.228 118.326 265.282 111.258 266.814 104.712C268.381 98.2009 269.461 92.1078 269.286 87.7555L267.824 87.7904C267.963 91.9337 266.919 97.8179 265.387 104.364C263.855 110.875 261.801 117.908 259.955 124.245L261.383 124.662ZM269.112 87.2681C268.938 87.094 268.695 86.8851 268.346 86.7806C267.998 86.6762 267.65 86.711 267.267 86.7806L267.615 88.1734C267.824 88.1037 267.894 88.1385 267.894 88.1385C267.894 88.1385 267.929 88.1385 268.033 88.243L269.112 87.2681ZM267.302 86.8155C266.884 86.9199 266.397 87.1985 265.909 87.5814C265.387 87.9644 264.83 88.5215 264.238 89.2527C263.019 90.6802 261.661 92.7693 260.373 95.6592L261.696 96.2511C262.95 93.4657 264.238 91.5159 265.352 90.1928C265.909 89.5312 266.397 89.0438 266.814 88.7304C267.232 88.3823 267.546 88.243 267.685 88.2082L267.302 86.8155Z" fill="black"/>
<path d="M222.874 290.952L217.512 145.066C221.168 142.803 229.942 137.998 241.78 137.998C251.077 137.998 258.458 139.878 262.393 142.524C268.033 172.99 282.726 249.171 288.645 279.671" fill="#C7FA73"/>
<path d="M240.388 137.998C236.732 138.833 232.484 140.54 227.679 143.081C225.137 144.474 222.874 146.18 220.89 147.608C220.611 151.263 220.333 154.954 220.054 158.331C218.627 183.714 220.611 261.601 222.317 284.755C221.203 255.96 218.383 172.189 217.234 143.708C220.054 142.002 223.988 141.445 228.793 140.017C233.32 138.59 237.254 137.998 240.388 137.998Z" fill="white"/>
<path d="M222.317 290.953L216.955 144.23C216.955 143.952 216.955 143.952 217.234 143.673C219.497 142.246 228.236 137.476 241.78 137.476C248.848 137.476 256.16 138.869 262.671 142.002C262.95 142.002 262.95 142.281 262.95 142.559L289.202 279.672" stroke="black" stroke-width="1.2" stroke-miterlimit="10"/>
</g>
<path d="M196.657 50.3965L226.809 42.0402C229.35 35.8427 240.631 12.6888 245.993 6.49127C249.928 1.68641 259.538 0.293703 266.014 5.93418C269.67 9.31151 275.031 13.0022 281.542 16.6581C292.823 23.1342 302.433 21.7415 304.975 24.5617C308.074 29.6451 309.78 53.9131 310.337 63.2094C317.126 68.0143 326.144 75.0475 332.342 79.5738C333.769 80.6879 333.769 84.2045 332.342 85.3535C326.98 89.8798 303.617 85.0054 254.802 80.479" stroke="black" stroke-width="1.2" stroke-miterlimit="10"/>
<path d="M58.9522 119.962L96.4858 122.782C101.291 122.782 106.095 119.962 110.308 114.6C123.017 98.5144 128.1 64.3582 126.394 57.325C124.688 49.9784 123.295 48.8643 118.769 46.6011L115.949 44.0594L90.2882 22.3331L58.9522 119.962Z" fill="black" stroke="black" stroke-width="1.2" stroke-miterlimit="10"/>
<path d="M88.3732 44.0594L115.949 57.325C115.949 57.325 128.066 64.393 126.394 57.325C124.688 49.9784 123.295 48.8643 118.769 46.6011L115.949 44.0594L90.2882 22.3331L88.3732 44.0594Z" fill="#C7FA73" stroke="black" stroke-width="1.2" stroke-miterlimit="10"/>
<path d="M58.9522 121.042L96.4858 122.748C101.291 122.748 106.095 119.928 110.308 114.566C123.017 98.4798 128.1 64.3236 126.394 57.2904C124.688 49.9439 116.367 111.084 111.875 108.821L64.3142 102.937L58.9522 121.042Z" fill="#C7FA73" stroke="black" stroke-width="1.2" stroke-miterlimit="10"/>
<path d="M127.508 128.702L167.584 129.537C180.292 128.98 193.836 113.73 199.755 93.7098C205.396 74.2467 203.133 55.8977 193.558 47.1585L167.061 20.7666L127.508 128.702Z" fill="black" stroke="black" stroke-width="1.2" stroke-miterlimit="10"/>
<path d="M127.508 128.702L167.584 129.537C174.164 129.259 180.954 125.011 186.803 118.221L136.074 105.304L127.508 128.702Z" fill="#C7FA73" stroke="black" stroke-width="1.2" stroke-miterlimit="10"/>
<path d="M158.81 36.0164L202.75 72.4358C202.576 61.6771 199.442 52.5548 193.488 47.1581L167.061 18.6423L158.81 36.0164Z" fill="#C7FA73" stroke="black" stroke-width="1.2" stroke-miterlimit="10"/>
<path d="M149.235 16.4142C150.941 16.4142 152.333 16.6927 154.04 16.9713C161.386 19.2344 167.027 26.581 169.847 37.5834C172.667 49.4214 172.11 64.1145 167.862 78.4943C164.206 91.4813 157.695 103.041 150.07 111.502C142.724 119.405 134.82 123.618 127.787 123.618C126.081 123.618 124.688 123.34 122.982 123.061C115.636 120.798 109.995 113.451 107.175 102.449C104.355 90.6109 104.912 75.9178 109.159 61.538C112.815 48.551 119.326 36.9915 126.951 28.5308C134.263 20.6271 142.167 16.4142 149.235 16.4142Z" fill="#C7FA73"/>
<path d="M159.123 19.513C157.73 18.6773 151.776 16.9713 150.384 16.4142C150.105 16.4142 149.548 16.4142 149.269 16.4142C142.201 16.4142 134.298 20.662 126.986 28.5308C119.361 36.7129 112.885 48.551 109.194 61.538C105.26 75.3607 104.389 89.1834 106.653 100.743L110.308 103.285L112.572 104.712C107.175 82.9858 132.313 21.1842 159.123 19.513Z" fill="white"/>
<path d="M134.855 125.046C132.87 125.046 131.199 124.767 129.493 124.21C112.572 119.127 105.782 91.7598 114.243 62.6869C121.868 36.7129 139.068 18.6773 154.875 18.6773C156.86 18.6773 158.531 18.9558 160.237 19.5129C164.171 20.6271 167.584 23.1688 170.404 26.2676C167.027 19.5129 161.943 14.7081 155.432 12.7234C153.448 12.1664 151.498 11.8878 149.513 11.8878C132.313 11.8878 113.407 31.908 105.225 60.1453C95.9286 91.7598 103.24 121.668 121.868 127.309C123.853 127.866 125.802 128.144 127.787 128.144C132.592 128.144 137.397 126.717 142.167 123.897C139.625 124.454 137.118 125.046 134.855 125.046Z" fill="black"/>
<path d="M127.508 128.702C125.524 128.702 123.261 128.423 121.311 127.866C112.293 125.046 105.225 116.585 102.126 103.598C99.0274 90.8896 99.5845 75.3956 104.111 59.8669C112.293 31.6645 131.199 11.3309 148.991 11.3309C150.976 11.3309 153.239 11.6095 155.188 12.1666C161.386 14.1512 166.748 18.9212 170.439 25.9892C170.439 26.2678 170.439 26.5463 170.16 26.8248C169.882 27.1034 169.603 26.8248 169.325 26.8248C166.504 23.4475 163.127 21.1844 159.436 20.0702C157.73 19.5131 156.059 19.2346 154.074 19.2346C146.728 19.2346 138.546 23.4823 131.234 31.3512C123.887 39.2548 117.69 50.5358 114.034 62.9657C110.099 76.7884 109.229 90.8896 112.049 102.484C114.869 113.765 120.789 121.39 128.692 123.653C132.627 124.767 136.596 124.489 141.122 123.096C141.401 123.096 141.679 123.096 141.958 123.375C141.958 123.653 141.958 123.932 141.679 124.21C137.397 127.274 132.313 128.702 127.508 128.702ZM149.235 12.4451C141.052 12.4451 132.035 17.25 124.131 25.7107C115.949 34.4499 109.473 46.6013 105.504 60.1455C96.2072 91.4815 103.519 121.077 121.868 126.439C123.852 126.996 125.802 127.274 127.787 127.274C130.886 127.274 134.263 126.439 137.675 125.011C134.855 125.29 132.035 125.011 129.493 124.454C121.032 121.912 114.835 114.009 112.014 102.449C109.194 90.8896 109.751 76.475 113.999 62.3738C121.624 36.3997 138.824 17.807 155.188 17.807C157.173 17.807 159.123 18.0856 160.829 18.6427C163.371 19.4783 165.634 20.6273 167.897 22.2985C164.52 17.7722 160.55 14.3949 155.78 13.0022C153.169 12.7236 151.219 12.4451 149.235 12.4451Z" fill="black"/>
<path d="M175.209 36.1558C171.831 23.1688 165.042 14.4295 155.746 11.6093C153.761 11.0522 151.498 10.7737 149.548 10.7737C131.478 10.7737 112.293 31.3858 104.111 59.8668C99.5845 75.3955 98.7489 90.8894 102.126 103.876C105.504 116.863 112.293 125.603 121.589 128.423C123.574 128.98 125.837 129.259 127.787 129.259C145.857 129.259 165.042 108.646 173.224 80.1655C177.716 64.6368 178.308 49.1429 175.209 36.1558ZM127.508 122.504C126.116 122.504 124.41 122.225 122.982 121.947C115.914 119.962 110.865 112.929 108.01 102.205C105.19 90.3671 105.747 76.2311 109.995 61.8514C113.651 49.1429 119.883 37.5834 127.474 29.4012C134.542 21.7761 142.132 17.5631 148.921 17.5631C150.349 17.5631 152.02 17.8417 153.448 18.1202C160.516 20.1048 165.564 27.138 168.419 37.8619C171.239 49.7 170.682 63.836 166.435 78.2157C162.779 90.9242 156.546 102.484 148.956 110.666C141.888 118.256 134.263 122.504 127.508 122.504Z" fill="white"/>
<path d="M127.508 129.816C125.245 129.816 122.982 129.537 121.032 128.98C111.423 126.16 104.389 117.421 101.012 103.877C97.9132 90.8896 98.4703 75.0823 103.275 59.5884C111.701 30.7941 131.164 10.182 149.235 10.182C151.498 10.182 153.761 10.4605 155.711 11.0176C165.32 13.8379 172.354 22.5771 175.731 36.1213C178.83 49.1083 178.273 64.9156 173.468 80.4095C165.32 108.96 145.857 129.816 127.508 129.816ZM127.508 123.061C125.802 123.061 124.41 122.783 122.982 122.504C115.914 120.52 110.274 113.208 107.732 102.484C104.912 90.6459 105.469 76.2313 109.716 61.8516C113.372 48.8646 119.883 37.3051 127.508 29.1229C134.576 21.4978 142.48 17.2848 149.235 17.2848C150.941 17.2848 152.333 17.5634 153.761 17.8419C160.829 19.8265 166.469 27.1383 169.011 37.8621C171.831 49.7002 171.274 64.1148 167.027 78.4945C163.371 91.4815 156.86 103.041 149.235 111.223C142.167 118.813 134.576 123.061 127.508 123.061ZM127.508 123.061C125.802 123.061 124.41 122.783 122.982 122.504C115.914 120.52 110.274 113.208 107.732 102.484C104.912 90.6459 105.469 76.2313 109.716 61.8516C113.372 48.8646 119.883 37.3051 127.508 29.1229C134.576 21.4978 142.48 17.2848 149.235 17.2848C150.941 17.2848 152.333 17.5634 153.761 17.8419C160.829 19.8265 166.469 27.1383 169.011 37.8621C171.831 49.7002 171.274 64.1148 167.027 78.4945C163.371 91.4815 156.86 103.041 149.235 111.223C142.167 118.813 134.576 123.061 127.508 123.061Z" fill="white" stroke="black" stroke-width="1.2" stroke-miterlimit="10"/>
<path d="M78.1368 22.6119C79.5643 22.6119 80.957 22.8905 82.3845 23.169C88.8606 25.1536 93.6655 31.3512 95.9287 40.9609C98.4704 51.4062 97.9133 63.8014 94.2226 76.5099C90.8453 87.7908 85.4833 97.9576 78.6939 105.026C72.4963 111.78 65.4283 115.471 59.5093 115.471C58.0817 115.471 56.689 115.192 55.2615 114.914C48.7854 112.929 43.9805 106.732 41.7174 97.122C39.1757 86.6767 39.7328 74.2815 43.4234 61.573C46.8008 50.2921 52.1627 40.1253 58.9522 33.0573C65.1497 26.2678 71.9044 22.6119 78.1368 22.6119Z" fill="#C7FA73"/>
<path d="M86.0404 24.8751C84.9263 24.0395 83.4987 23.4476 82.3846 23.169C80.957 22.8905 79.5643 22.6119 78.1368 22.6119C71.9392 22.6119 65.1498 26.2678 58.9522 33.0573C52.1976 40.4038 46.8356 50.5358 43.4235 61.573C39.7676 74.2467 39.1757 86.9552 41.7174 97.0872C43.702 99.0718 45.9652 101.022 47.915 103.006C44.5377 86.3633 59.5093 29.6451 86.0404 24.8751Z" fill="white"/>
<path d="M65.7068 116.863C64.0007 116.863 62.608 116.585 60.902 116.306C46.2437 112.059 40.3247 88.0691 47.6364 62.9654C54.1125 40.4035 69.3627 24.5962 82.9068 24.5962C84.6129 24.5962 86.0056 24.8748 87.7116 25.1533C91.089 26.2675 94.1878 28.2521 96.4509 31.0724C93.3521 25.1533 89.1044 20.9056 83.4639 19.2343C81.7578 18.6772 80.0866 18.3987 78.3805 18.3987C63.4088 18.3987 47.0445 35.5987 40.0113 60.1452C31.8291 87.512 38.3052 113.765 54.391 118.256C56.0971 118.813 57.7684 119.092 59.4744 119.092C63.7222 119.092 67.9351 117.664 71.9044 115.436C69.676 116.271 67.6914 116.863 65.7068 116.863Z" fill="black"/>
<path d="M59.2307 119.962C57.5247 119.962 55.5749 119.684 53.8688 119.127C45.9652 116.864 40.0461 109.239 37.2259 97.9577C34.4057 86.9552 35.2413 73.4111 38.932 60.1455C46.2437 35.599 62.6081 17.8071 77.8583 17.8071C79.5643 17.8071 81.5141 18.0857 83.2202 18.6428C88.8607 20.3488 93.387 24.5618 96.4858 30.7593C96.4858 31.0379 96.4858 31.3164 96.2072 31.595C95.9287 31.8735 95.6502 31.595 95.3716 31.595C92.8299 28.7747 90.0097 26.7901 86.9109 25.6759C85.4834 25.1189 83.8121 25.1189 82.3846 25.1189C75.9085 25.1189 68.8405 28.7747 62.6429 35.5642C56.1668 42.6322 50.8048 52.2071 47.6712 62.931C44.0154 75.0476 43.4235 87.199 45.9652 97.0872C48.5069 106.975 53.5903 113.452 60.3449 115.436C63.7222 116.272 67.4129 116.272 71.0688 115.158C71.3473 115.158 71.6259 115.158 71.9044 115.436C71.9044 115.715 71.9044 115.993 71.6259 116.272C67.6915 118.814 63.4437 119.962 59.2307 119.962ZM78.1368 19.2347C71.0688 19.2347 63.4785 23.4824 56.4105 30.7942C49.3425 38.4193 43.702 48.8646 40.0461 60.7026C32.1425 87.7909 38.3401 113.452 54.1473 118.256C55.8534 118.814 57.5247 119.092 59.2307 119.092C61.7724 119.092 64.5927 118.535 67.1344 117.386C64.8712 117.665 62.6081 117.386 60.3797 116.829C53.0332 114.566 47.6712 107.811 45.1295 97.6443C42.5878 87.4775 43.1449 75.0824 46.8356 62.931C53.3117 40.3691 68.5619 24.2832 82.6631 24.2832C84.3692 24.2832 86.0404 24.5618 87.468 24.8403C89.4526 25.3974 91.4024 26.5464 93.1085 27.6606C90.2882 24.0047 86.9109 21.463 82.9417 20.0355C81.5141 19.5132 79.8081 19.2347 78.1368 19.2347Z" fill="black"/>
<path d="M98.366 39.8117C95.5457 28.5307 89.3482 20.9056 81.166 18.3639C79.4599 17.8069 77.5101 17.5283 75.5255 17.5283C59.7182 17.5283 43.0753 35.5987 36.0073 60.1453C32.0729 73.6894 31.481 87.2335 34.0227 98.5145C36.8429 109.795 43.0405 117.421 51.2227 119.962C52.9287 120.519 54.8785 120.798 56.8632 120.798C72.6704 120.798 89.3133 102.727 96.3813 78.1809C100.594 64.3582 101.186 50.8141 98.366 39.8117ZM53.2073 114.043C47.2883 112.337 42.762 106.14 40.4988 97.1218C37.9571 86.955 38.5142 74.5598 42.2049 62.1299C45.5822 51.1275 50.9441 40.9607 57.4551 33.9275C63.3741 27.4514 70.1635 23.7607 75.804 23.7607C77.2316 23.7607 78.3457 24.0392 79.4599 24.3178C85.3789 26.0239 89.9052 32.2214 92.1684 41.2392C94.7101 51.406 94.153 63.8011 90.4623 76.2311C87.085 87.2335 81.7231 97.4003 75.2121 104.433C67.8656 112.337 59.9619 115.714 53.2073 114.043Z" fill="white"/>
<path d="M56.8631 121.355C54.8785 121.355 52.9287 121.076 51.2226 120.519C42.7619 117.978 36.5644 110.352 33.7441 98.5144C30.9239 87.2334 31.481 73.4108 35.7287 59.8667C43.0753 34.7631 59.9967 16.6926 76.0825 16.6926C78.0671 16.6926 80.0169 16.9712 81.723 17.5283C90.1837 20.07 96.3813 27.695 99.2015 39.5331C102.022 50.814 101.465 64.6367 97.2169 78.1808C89.8704 103.006 72.9489 121.355 56.8631 121.355ZM56.8631 115.157C55.4356 115.157 54.3214 114.879 52.9287 114.6C46.7311 112.894 41.9263 106.697 39.6631 97.1217C37.1214 86.9549 37.6785 74.2812 41.3692 61.8513C44.7465 50.8489 50.1085 40.6821 56.8979 33.3355C63.0955 26.5809 69.885 22.8902 75.804 22.8902C77.2315 22.8902 78.3457 23.1687 79.7384 23.4473C85.936 25.1533 90.7408 31.3509 93.004 40.9258C95.5457 51.0926 94.9886 63.7663 91.2979 76.1962C87.9206 87.1986 82.5586 97.3654 75.7692 104.712C69.5716 111.501 63.0955 115.157 56.8631 115.157Z" fill="white" stroke="black" stroke-width="1.2" stroke-miterlimit="10"/>
<path d="M315.37 123.047C315.37 123.047 309.835 116.977 308.129 116.385C306.423 115.793 305.984 114.6 304.452 114.357C303.686 114.217 302.99 114.148 302.363 114.113C301.771 114.078 301.214 114.078 300.796 114.183L300.657 114.217L300.553 114.287C300.03 114.67 299.682 114.983 299.508 115.332C299.299 115.749 299.369 116.132 299.438 116.307C299.404 116.376 299.23 116.515 298.881 116.794L298.603 116.968L298.568 117.281L296.618 134.551L296.444 136.048L297.698 135.247C299.299 134.238 300.936 133.263 302.572 132.323C305.009 130.86 307.377 129.468 309.396 128.145C311.068 127.03 312.565 125.881 313.714 124.767C314.382 124.175 314.887 123.626 315.37 123.047Z" fill="black" stroke="black" stroke-width="1.2"/>
<path d="M309.222 49.7002C298.22 45.1738 285.512 40.9609 271.132 36.9917C257.309 33.3358 244.322 31.0726 232.763 29.3666C230.221 34.7285 227.958 39.5334 226.844 41.7965C239.552 44.0597 253.096 46.8799 267.476 50.5358C282.726 54.4702 297.106 58.718 310.371 63.2443C310.058 60.1455 309.501 55.0621 309.222 49.7002Z" fill="black"/>
<path d="M310.928 63.8011C296.549 58.9963 281.298 55.0619 266.919 51.3712C253.653 47.9939 239.83 44.3032 226.286 41.7615C227.122 39.4983 229.942 34.6935 232.762 29.053C245.75 30.759 258.737 33.3008 271.41 36.6781C284.397 40.0554 296.966 44.3032 309.362 49.3866C309.675 53.6343 310.337 58.7177 310.928 63.8011C310.928 63.8011 310.928 63.8359 310.928 63.8011Z" fill="black"/>
<path d="M310.928 63.8011C296.549 58.9963 281.298 55.0619 266.919 51.3712C253.653 47.9939 239.83 44.3032 226.286 41.7615C227.122 39.4983 229.942 34.6935 232.762 29.053C245.75 30.759 258.737 33.3008 271.41 36.6781C284.397 40.0554 296.966 44.3032 309.362 49.3866C309.675 53.6343 310.337 58.7177 310.928 63.8011ZM310.928 63.8011C310.928 63.8359 310.928 63.8011 310.928 63.8011Z" stroke="black" stroke-width="1.2" stroke-miterlimit="10" stroke-linecap="round" stroke-linejoin="round"/>
<path d="M81.4793 85.5621C81.4793 87.5467 81.2008 89.4965 80.6437 91.2026C80.0866 92.9087 78.9376 94.5799 77.8234 96.0075C76.7093 97.435 75.2817 98.8277 73.889 99.9419C72.4615 101.056 70.5117 101.926 68.5271 102.205C68.5271 102.205 68.5271 102.205 68.2486 102.205C68.8056 101.648 69.6761 101.091 70.2332 100.499C70.7902 99.9419 71.6607 99.3848 72.2178 98.5143C73.3319 97.0868 74.4809 95.9726 75.5951 94.5799C76.7093 93.1524 77.5797 91.7597 78.6939 90.3322C79.251 89.4965 79.5295 88.9046 80.1214 88.069C80.6089 87.2334 80.8874 86.3978 81.4793 85.5621C81.2008 85.5621 81.4793 85.5621 81.4793 85.5621Z" fill="#C7FA73"/>
<path d="M156.581 86.3629C156.581 87.1986 156.86 87.7905 156.86 88.6261C156.86 89.4617 156.86 90.0536 156.86 90.6107C156.86 92.0382 156.581 93.4309 156.024 94.5451C155.189 97.0868 154.04 99.6285 152.368 101.892C150.941 104.155 148.991 106.139 146.728 107.811C145.614 108.646 144.465 109.517 143.351 110.074C142.793 110.352 142.236 110.631 141.366 110.909C140.809 111.188 139.938 111.467 139.381 111.467C139.381 111.467 139.103 111.467 139.103 111.188C139.103 111.188 139.103 111.188 139.103 110.909C139.938 110.074 141.087 109.203 141.923 108.089C142.759 107.254 143.629 106.105 144.465 105.269C146.171 103.284 147.842 101.335 149.27 99.0714C150.697 97.0868 152.09 94.8237 153.204 92.5953C153.761 91.4812 154.318 90.3322 154.91 89.218C155.467 88.1038 156.024 86.9548 156.338 85.5621C156.303 86.0844 156.303 86.0844 156.581 86.3629C156.581 86.0844 156.581 86.0844 156.581 86.3629Z" fill="white"/>
<path d="M163.336 69.1633C163.893 70.2774 164.172 71.1479 164.172 71.9835C164.172 72.8191 164.172 73.6896 163.893 74.2467C163.614 75.0823 163.336 75.6742 162.779 76.2313C162.222 76.7884 161.665 77.3454 160.516 77.9373L160.794 76.8232L161.073 75.709C161.351 74.8734 161.63 74.2815 161.63 73.4458C161.908 72.6102 162.187 72.0183 162.465 71.1827L162.744 70.0685L163.336 69.1633C163.057 68.8847 163.336 68.8847 163.336 69.1633C163.336 68.8847 163.336 69.1633 163.336 69.1633Z" fill="white"/>
<path d="M54.0429 81.0015C54.3214 78.4598 55.1571 74.8039 56.0275 70.5561C56.0275 69.9991 55.749 69.1286 55.1919 69.1286L52.9287 68.5715C52.3716 68.5715 51.5012 68.8501 51.5012 69.4072C50.6656 73.6549 50.0737 77.3108 49.5166 80.131C49.5166 80.6881 49.7951 81.2452 50.6307 81.5586L52.8939 81.8371C53.2073 82.1505 53.7643 81.5934 54.0429 81.0015Z" fill="black"/>
<path d="M79.7384 42.6321C73.5408 55.6191 70.1287 75.3608 68.736 83.2644C68.736 83.8215 69.0145 84.3786 69.8501 84.6919L72.1133 84.9705C72.6704 84.9705 73.2274 84.6919 73.5408 84.1348C74.655 76.5098 78.3457 56.7681 83.9861 44.6167C84.2647 44.0596 83.9861 43.1891 83.4291 42.9106L81.1659 42.075C80.574 41.7964 80.0169 42.075 79.7384 42.6321Z" fill="black"/>
<path d="M63.3741 61.2597C61.1109 69.7205 59.9968 77.3456 59.1263 81.8719C59.1263 82.4289 59.4049 82.986 60.2405 83.2994L62.5036 83.5779C63.0607 83.5779 63.6178 83.2994 63.9312 82.4638C64.4883 77.9375 65.9158 70.3472 68.1789 62.4436C68.4575 61.8865 67.9004 61.016 67.3433 61.016L65.0802 60.4589C64.2097 60.1456 63.6526 60.7027 63.3741 61.2597Z" fill="black"/>
<path d="M154.597 42.9105C148.956 51.9283 142.48 68.5712 138.789 77.6238C137.675 73.9679 136.526 67.7356 136.248 62.6522C136.248 62.0951 135.969 61.8165 135.412 61.538L132.592 60.7024C132.035 60.4238 131.478 60.7024 131.164 61.2595C125.245 69.7202 119.048 84.4133 116.785 89.7752C116.506 90.6108 117.063 91.2027 117.62 91.4813L120.162 91.7598C120.719 91.7598 121.276 91.4813 121.276 90.9242C123.261 86.3979 127.195 76.823 131.721 69.4765C132.557 75.1169 134.82 81.593 136.248 84.7266C136.526 85.0052 136.805 85.2837 137.083 85.5623L139.625 86.1194C140.182 86.1194 140.739 85.8408 141.018 85.2837C143.559 78.2157 152.299 55.6538 158.496 45.487C158.775 44.9299 158.775 44.3728 158.218 43.7809C157.661 43.2238 156.825 42.9453 156.233 42.3534C155.711 42.3534 154.875 42.3534 154.597 42.9105Z" fill="black"/>
<path d="M154.84 86.3629C154.84 87.1986 155.119 87.7905 155.119 88.6261C155.119 89.4617 155.119 90.0536 155.119 90.6107C155.119 92.0382 154.84 93.4309 154.283 94.5451C153.448 97.0868 152.299 99.6285 150.627 101.892C149.2 104.155 147.25 106.139 144.987 107.811C143.873 108.646 142.724 109.517 141.61 110.074C141.052 110.352 140.495 110.631 139.625 110.909C139.068 111.188 138.232 111.467 137.64 111.467C137.64 111.467 137.362 111.467 137.362 111.188C137.362 111.188 137.362 111.188 137.362 110.909C138.197 110.074 139.346 109.203 140.182 108.089C141.018 107.254 141.888 106.105 142.724 105.269C144.43 103.284 146.101 101.335 147.529 99.0714C148.956 97.0868 150.349 94.8237 151.463 92.5953C152.02 91.4812 152.577 90.3322 153.169 89.218C153.726 88.1038 154.283 86.9548 154.562 85.5621C154.562 86.0844 154.562 86.0844 154.84 86.3629C154.84 86.0844 154.84 86.0844 154.84 86.3629Z" fill="#C7FA73"/>
<path d="M161.595 69.1633C162.152 70.2774 162.431 71.1479 162.431 71.9835C162.431 72.8191 162.431 73.6896 162.152 74.2467C161.874 75.0823 161.595 75.6742 161.038 76.2313C160.481 76.7884 159.924 77.3454 158.775 77.9373L159.053 76.8232L159.332 75.709C159.61 74.8734 159.889 74.2815 159.889 73.4458C160.167 72.6102 160.446 72.0183 160.725 71.1827L161.003 70.0685L161.595 69.1633C161.316 68.8847 161.595 68.8847 161.595 69.1633C161.595 68.8847 161.595 69.1633 161.595 69.1633Z" fill="#C7FA73"/>
<path d="M58.3255 185.977L73.2971 200.948C72.1829 220.133 74.1327 239.317 79.4947 257.945C79.7732 259.059 80.9222 260.208 82.0364 260.487M154.005 281.656C171.797 299.448 200.556 299.448 218.348 281.656L233.32 266.684C252.504 267.798 271.689 265.849 290.316 260.487C291.43 260.208 292.579 259.059 292.858 257.945C298.22 239.317 300.205 220.133 299.056 200.948L314.027 185.977C331.819 168.185 331.819 139.425 314.027 121.633L306.417 114.183L305.715 113.489" stroke="white" stroke-width="2"/>
</g>
<defs>
<clipPath id="clip0">
<rect width="368" height="297.99" fill="white"/>
</clipPath>
</defs>
</svg>
