<svg width="16" height="17" viewBox="0 0 16 17" fill="none" xmlns="http://www.w3.org/2000/svg">
<path d="M6.863 9.77176H1.14872C0.517533 9.77176 0.00585938 9.26009 0.00585938 8.62891C0.00585938 7.99772 0.517534 7.48605 1.14872 7.48605H6.863V1.77176C6.863 1.14058 7.37468 0.628906 8.00586 0.628906C8.63704 0.628906 9.14872 1.14058 9.14872 1.77176V7.48605H14.863C15.4942 7.48605 16.0059 7.99772 16.0059 8.62891C16.0059 9.26009 15.4942 9.77176 14.863 9.77176H9.14872V15.4861C9.14872 16.1172 8.63704 16.6289 8.00586 16.6289C7.37468 16.6289 6.863 16.1172 6.863 15.486V9.77176Z" fill="#7F56D9"/>
</svg>
