<svg width="140" height="141" viewBox="0 0 140 141" fill="none" xmlns="http://www.w3.org/2000/svg">
<rect y="0.478516" width="140" height="140" rx="14" fill="#9E77ED"/>
<path fill-rule="evenodd" clip-rule="evenodd" d="M69.8896 30.4804C71.1242 30.4648 71.8744 30.5429 72.7651 30.793C73.4371 30.9649 74.5467 31.3868 75.2343 31.7306C75.9219 32.0588 76.9377 32.6996 77.4847 33.1528C78.0473 33.606 78.8443 34.403 79.2506 34.9187C79.6726 35.4344 80.2821 36.4189 80.6259 37.1066C80.9697 37.7942 81.3291 38.7318 81.6417 39.9977H90.1119C98.2851 39.9977 98.6133 40.0133 99.2228 40.3102C99.6395 40.5186 99.9521 40.8312 100.16 41.2479C100.457 41.8574 100.473 42.1856 100.473 58.829L101.286 59.0322C101.739 59.1416 102.677 59.501 103.364 59.8448C104.052 60.1886 105.036 60.7981 105.552 61.2201C106.068 61.6264 106.865 62.4234 107.318 62.986C107.771 63.533 108.412 64.5488 108.756 65.2364C109.084 65.924 109.506 67.0648 109.678 67.7681C109.881 68.5807 110.006 69.5653 110.006 70.4248C110.006 71.253 109.881 72.3314 109.693 73.1284C109.506 73.8629 109.099 75.0193 108.756 75.7069C108.412 76.3946 107.802 77.3791 107.38 77.8948C106.974 78.4105 106.177 79.2075 105.615 79.6607C105.068 80.1139 104.052 80.7547 103.364 81.0985C102.677 81.4267 101.661 81.833 101.098 81.9893C100.379 82.1768 99.5197 82.2549 98.1289 82.2549C96.738 82.2549 95.8785 82.1768 95.1596 81.9893C94.597 81.833 93.5812 81.4267 92.8936 81.0985C92.206 80.7547 91.1902 80.1139 90.6432 79.6607C90.0806 79.2075 89.2836 78.4105 88.8773 77.8948C88.4553 77.3791 87.8459 76.3946 87.502 75.7069C87.1582 75.0193 86.7988 74.0817 86.4862 72.8158H53.5118L53.3087 73.6284C53.1993 74.0816 52.8399 75.0193 52.496 75.7069C52.1522 76.3946 51.5115 77.4103 51.0583 77.9573C50.6051 78.5199 49.8081 79.3169 49.2924 79.7232C48.7767 80.1452 47.7921 80.7547 47.1045 81.0985C46.4169 81.4423 45.4792 81.8017 44.2134 82.1143V96.2573H58.3564L58.5596 95.4447C58.669 94.9915 59.0284 94.0538 59.3722 93.3662C59.716 92.6786 60.3568 91.6628 60.81 91.1158C61.2632 90.5532 62.0602 89.7562 62.5759 89.3499C63.0916 88.9279 64.0762 88.3185 64.7638 87.9747C65.4514 87.6465 66.4672 87.2402 67.0298 87.0839C67.7487 86.8963 68.6082 86.8182 69.999 86.8182C71.3899 86.8182 72.2494 86.8963 72.9683 87.0839C73.5309 87.2402 74.5467 87.6465 75.2343 87.9747C75.9219 88.3185 76.9377 88.9592 77.4847 89.4124C78.0473 89.8656 78.8443 90.6626 79.2506 91.1783C79.6726 91.694 80.2821 92.6786 80.6259 93.3662C80.9697 94.0538 81.3291 94.9915 81.6417 96.2573H95.3159L95.394 90.6314L95.9879 90.0531C96.5036 89.5218 96.6755 89.4593 98.3633 89.3499L103.833 93.1162C106.833 95.179 109.443 97.07 109.6 97.3044C109.771 97.5544 109.943 98.0233 109.975 98.3671C110.022 98.789 109.943 99.1953 109.725 99.6173C109.459 100.149 108.646 100.774 103.895 104.04C98.7696 107.556 98.3164 107.837 97.6913 107.822C97.3319 107.822 96.8474 107.728 96.5974 107.603C96.3629 107.478 96.0035 107.197 95.7847 106.962C95.394 106.556 95.394 106.493 95.3159 100.946H81.6417L81.4385 101.758C81.3291 102.211 80.9697 103.149 80.6259 103.837C80.2821 104.524 79.6726 105.509 79.2506 106.025C78.8443 106.54 78.0473 107.337 77.4847 107.791C76.9377 108.244 75.9219 108.884 75.2343 109.213C74.5467 109.556 73.4371 109.978 72.7651 110.15C71.9212 110.385 71.093 110.479 69.999 110.479C68.9051 110.479 68.0768 110.385 67.2173 110.15C66.561 109.978 65.4514 109.556 64.7638 109.213C64.0762 108.884 63.0604 108.244 62.5134 107.791C61.9508 107.337 61.1538 106.54 60.7475 106.025C60.3255 105.509 59.716 104.524 59.3722 103.837C59.0284 103.149 58.669 102.211 58.3564 100.946H49.8706C41.7129 100.946 41.3848 100.93 40.7753 100.633C40.3585 100.425 40.046 100.112 39.8376 99.6954C39.5407 99.0859 39.5251 98.7578 39.5251 82.1143L38.7124 81.9111C38.2592 81.8017 37.3216 81.4423 36.634 81.0985C35.9463 80.7547 34.9618 80.1452 34.4461 79.7232C33.9304 79.3169 33.1334 78.5199 32.6801 77.9573C32.2269 77.4103 31.5862 76.3946 31.2424 75.7069C30.9142 75.0193 30.4923 73.8785 30.3204 73.1596C30.1172 72.3626 29.9922 71.3781 29.9922 70.5029C29.9922 69.6903 30.1172 68.612 30.3047 67.815C30.4923 67.0805 30.8986 65.924 31.2424 65.2364C31.5862 64.5488 32.1957 63.5642 32.6176 63.0485C33.024 62.5328 33.821 61.7358 34.3836 61.2826C34.9305 60.8294 35.9463 60.1886 36.634 59.8448C37.3216 59.5167 38.3374 59.1103 38.9 58.9541C39.6188 58.7665 40.4784 58.6884 41.8692 58.6884C43.2601 58.6884 44.1196 58.7665 44.8385 58.9541C45.4011 59.1103 46.4169 59.5167 47.1045 59.8448C47.7921 60.1886 48.7767 60.7981 49.2924 61.2201C49.8081 61.6264 50.6051 62.4234 51.0583 62.986C51.5115 63.533 52.1522 64.5488 52.496 65.2364C52.8399 65.924 53.1993 66.8617 53.5118 68.1275H86.4862L86.6894 67.3149C86.7988 66.8617 87.1582 65.924 87.502 65.2364C87.8459 64.5488 88.4553 63.5642 88.8773 63.0485C89.2836 62.5328 90.0806 61.7358 90.6432 61.2826C91.1902 60.8294 92.206 60.1886 92.8936 59.8448C93.5812 59.501 94.5189 59.1416 95.7847 58.829V44.686H81.6417L81.4385 45.4986C81.3291 45.9518 80.9697 46.8895 80.6259 47.5771C80.2821 48.2647 79.6726 49.2493 79.2506 49.765C78.8443 50.2807 78.0473 51.0777 77.4847 51.5309C76.9377 51.9841 75.9219 52.6248 75.2343 52.9687C74.5467 53.2968 73.5309 53.7032 72.9683 53.8594C72.2494 54.047 71.3899 54.1251 69.999 54.1251C68.6082 54.1251 67.7487 54.047 67.0298 53.8594C66.4672 53.7032 65.4514 53.2968 64.7638 52.9687C64.0762 52.6248 63.0447 51.9685 62.4509 51.484C61.8727 51.0152 61.0444 50.1557 60.6068 49.5618C60.1692 48.9836 59.5754 48.0147 59.2941 47.4208C59.0128 46.827 58.6533 45.9049 58.5283 45.3892C58.3877 44.8735 58.2627 44.4359 58.2314 44.4047C58.2158 44.3891 55.981 45.8893 53.2774 47.749C50.5738 49.6087 48.1672 51.234 47.9171 51.3434C47.6827 51.4684 47.1983 51.5622 46.8232 51.5622C46.4481 51.5622 45.948 51.4215 45.6511 51.2496C45.3854 51.0777 45.026 50.7026 44.8854 50.4213C44.6509 50.015 44.6041 49.4368 44.5259 44.686H40.619C37.0246 44.686 36.6652 44.6547 36.087 44.3734C35.6702 44.1651 35.3577 43.8525 35.1493 43.4358C34.9774 43.092 34.8368 42.6075 34.8368 42.3418C34.8368 42.0762 34.9774 41.5917 35.1493 41.2479C35.3577 40.8312 35.6702 40.5186 36.087 40.3102C36.6652 40.0289 37.0246 39.9977 44.5259 39.9977L44.5728 37.3722C44.6041 35.2469 44.6509 34.6686 44.8854 34.2623C45.026 33.981 45.4167 33.5903 45.7293 33.4028C46.1981 33.1528 46.495 33.0902 47.1045 33.1528C47.8234 33.2153 48.3078 33.5122 53.043 36.7784C57.4188 39.7945 58.2158 40.2946 58.3095 40.0446C58.3564 39.8883 58.5596 39.2788 58.7471 38.6693C58.9346 38.0599 59.3097 37.1534 59.6066 36.6377C59.8879 36.122 60.4662 35.2781 60.8725 34.778C61.2944 34.2623 62.0602 33.5122 62.5759 33.0902C63.0916 32.6839 63.998 32.0901 64.6075 31.7775C65.2013 31.4806 66.264 31.0587 66.9516 30.8555C67.8893 30.5898 68.6238 30.4961 69.874 30.4804H69.8896ZM66.4984 36.0908C66.0609 36.3408 65.342 36.919 64.8888 37.3722C64.4512 37.8254 63.8574 38.6224 63.6073 39.1382C63.3573 39.6539 63.0604 40.5759 62.951 41.1698C62.8103 42.0293 62.8103 42.5137 62.951 43.4358C63.0604 44.139 63.3417 45.0142 63.6542 45.608C63.9511 46.2175 64.5137 46.9364 65.092 47.4833C65.6077 47.9834 66.4203 48.5617 66.8891 48.7961C67.358 49.0305 68.28 49.2962 68.9207 49.4055C69.8428 49.5462 70.3272 49.5462 71.1867 49.4055C71.7962 49.2962 72.7339 48.9836 73.2809 48.7023C73.8903 48.4054 74.6092 47.8428 75.1562 47.2646C75.6563 46.7488 76.2345 45.9362 76.4689 45.4674C76.7033 44.9985 76.969 44.0765 77.0784 43.4358C77.219 42.5137 77.219 42.0293 77.0784 41.1698C76.969 40.5759 76.7033 39.6851 76.4689 39.2163C76.2345 38.7475 75.6563 37.9505 75.1874 37.4504C74.703 36.9503 73.9528 36.3252 73.5309 36.0908C73.0933 35.8407 72.2963 35.5282 71.7337 35.4031C71.1711 35.2625 70.3585 35.1687 69.9365 35.1687C69.499 35.1687 68.7332 35.2781 68.2175 35.4031C67.7018 35.5282 66.9204 35.8407 66.4984 36.0908ZM49.3393 44.686C49.4174 44.686 50.2144 44.1703 51.1364 43.5452C52.0585 42.9357 52.8086 42.3887 52.8086 42.3418C52.8086 42.295 52.0585 41.748 51.1364 41.1385C50.2144 40.5134 49.4174 39.9977 49.3393 39.9977C49.2767 39.9977 49.2299 41.0604 49.2299 42.3418C49.2299 43.6389 49.2767 44.686 49.3393 44.686ZM38.3686 64.2206C37.931 64.4706 37.2122 65.0489 36.759 65.5021C36.3214 65.9553 35.7275 66.7523 35.4775 67.268C35.2275 67.7837 34.9305 68.7057 34.8211 69.2996C34.6805 70.1591 34.6805 70.6436 34.8211 71.5656C34.9305 72.2688 35.2118 73.144 35.5244 73.7378C35.8213 74.3473 36.3839 75.0662 36.9621 75.6132C37.4778 76.1133 38.2905 76.6915 38.7593 76.9259C39.2281 77.1603 40.1502 77.426 40.7909 77.5354C41.7129 77.676 42.1974 77.676 43.0569 77.5354C43.6508 77.426 44.6041 77.1134 45.151 76.8321C45.7605 76.5352 46.4794 75.9726 47.0264 75.3944C47.5264 74.8787 48.1047 74.066 48.3391 73.5972C48.5735 73.1284 48.8392 72.2063 48.9486 71.5656C49.0892 70.6436 49.0892 70.1591 48.9486 69.2996C48.8392 68.7057 48.5735 67.815 48.3391 67.3461C48.1047 66.8773 47.5264 66.0803 47.0576 65.5802C46.5732 65.0801 45.823 64.455 45.4011 64.2206C44.9635 63.9705 44.1665 63.658 43.6039 63.533C43.0413 63.3923 42.2287 63.2986 41.8067 63.2986C41.3691 63.2986 40.6034 63.4079 40.0877 63.533C39.572 63.658 38.7906 63.9705 38.3686 64.2206ZM94.6283 64.2206C94.1907 64.4706 93.4718 65.0489 93.0186 65.5021C92.581 65.9553 91.9872 66.7523 91.7371 67.268C91.4871 67.7837 91.1902 68.7057 91.0808 69.2996C90.9401 70.1591 90.9401 70.6436 91.0808 71.5656C91.1902 72.2688 91.4715 73.144 91.784 73.7378C92.081 74.3473 92.6435 75.0662 93.2218 75.6132C93.7375 76.1133 94.5501 76.6915 95.019 76.9259C95.4878 77.1603 96.4098 77.426 97.0506 77.5354C97.9726 77.676 98.457 77.676 99.3166 77.5354C99.926 77.426 100.864 77.1134 101.411 76.8321C102.02 76.5352 102.739 75.9726 103.286 75.3944C103.786 74.8787 104.364 74.066 104.599 73.5972C104.833 73.1284 105.099 72.2063 105.208 71.5656C105.349 70.6436 105.349 70.1591 105.208 69.2996C105.099 68.7057 104.833 67.815 104.599 67.3461C104.364 66.8773 103.786 66.0803 103.317 65.5802C102.833 65.0801 102.083 64.455 101.661 64.2206C101.223 63.9705 100.426 63.658 99.8635 63.533C99.3009 63.3923 98.4883 63.2986 98.0664 63.2986C97.6288 63.2986 96.863 63.4079 96.3473 63.533C95.8316 63.658 95.0502 63.9705 94.6283 64.2206ZM66.2484 92.5223C65.7796 92.8349 65.1076 93.3975 64.7481 93.7725C64.3731 94.1476 63.873 94.8821 63.6073 95.3978C63.3573 95.9135 63.0604 96.8199 62.951 97.4294C62.8103 98.2889 62.8103 98.7734 62.951 99.6954C63.0604 100.383 63.3417 101.274 63.6542 101.868C63.9668 102.493 64.4981 103.196 65.092 103.743C65.6077 104.227 66.4203 104.821 66.8891 105.056C67.358 105.274 68.28 105.556 68.9207 105.665C69.8428 105.806 70.3272 105.806 71.1867 105.665C71.7962 105.556 72.7339 105.243 73.2809 104.962C73.8903 104.665 74.6092 104.102 75.1562 103.524C75.6563 103.008 76.2345 102.196 76.4689 101.727C76.7033 101.258 76.969 100.336 77.0784 99.6954C77.219 98.7734 77.219 98.2889 77.0784 97.4294C76.969 96.8199 76.7033 95.9448 76.4689 95.4759C76.2345 95.0071 75.6563 94.2101 75.1874 93.71C74.703 93.2099 73.9528 92.5848 73.5309 92.3504C73.0933 92.1004 72.2963 91.7878 71.7337 91.6628C71.1711 91.5221 70.3585 91.4128 69.9365 91.4284C69.499 91.4284 68.6863 91.5534 68.1237 91.694C67.5611 91.8347 66.7172 92.2098 66.2484 92.5223ZM100.145 100.914C100.207 100.883 100.989 100.383 101.864 99.7736C102.739 99.1641 103.458 98.6484 103.458 98.6015C103.458 98.5546 102.739 98.0389 101.864 97.4294C100.989 96.8199 100.223 96.3198 100.16 96.2886C100.098 96.2573 100.051 97.2888 100.035 98.5859C100.035 99.8829 100.082 100.93 100.145 100.899V100.914Z" fill="white"/>
</svg>
