<svg width="140" height="141" viewBox="0 0 140 141" fill="none" xmlns="http://www.w3.org/2000/svg">
<rect y="0.478516" width="140" height="140" rx="14" fill="#F9FAFB"/>
<path fill-rule="evenodd" clip-rule="evenodd" d="M104.66 30L105.679 30.3608C106.244 30.5647 107.013 30.9412 107.405 31.2078C107.797 31.4588 108.409 32.0235 108.785 32.4471C109.162 32.8706 109.601 33.5294 109.789 33.9216C109.962 34.3137 110.213 34.9412 110.323 35.3333C110.495 35.9137 110.542 41.7333 110.542 69.9216C110.542 97.7177 110.495 103.945 110.323 104.588C110.213 105.012 109.93 105.749 109.711 106.188C109.476 106.643 109.021 107.318 108.691 107.678C108.378 108.039 107.75 108.557 107.327 108.824C106.887 109.106 106.119 109.482 104.66 110H70.3854C37.554 110 36.0795 109.984 35.3266 109.718C34.8873 109.561 34.2599 109.294 33.9148 109.137C33.5697 108.965 32.8638 108.416 32.3462 107.882C31.8128 107.365 31.2324 106.58 31.0285 106.157C30.8246 105.718 30.5579 105.059 30.4481 104.667C30.2756 104.086 30.2285 98.2667 30.2285 70.0784C30.2285 42.6902 30.2756 36.0392 30.4324 35.4118C30.5422 34.9725 30.8089 34.2667 31.0128 33.8431C31.2168 33.4039 31.8128 32.6353 32.3305 32.1176C32.8638 31.5843 33.5697 31.0353 33.9148 30.8627C34.2599 30.7059 34.856 30.4549 35.2481 30.298C35.9069 30.0471 38.1501 30.0314 104.66 30ZM36.1109 35.098C35.7658 35.302 35.3579 35.7098 35.2168 35.9922C34.9815 36.4471 34.9501 37.1686 34.9344 42.6745V48.8235H105.836C105.836 36.902 105.821 36.5569 105.523 35.9608C105.313 35.5425 105 35.2288 104.581 35.0196C103.954 34.7059 103.64 34.7059 70.3383 34.7059H36.7383L36.1109 35.098ZM34.9344 78.4863C34.9344 102.627 34.9501 103.443 35.2324 104.008C35.405 104.353 35.7815 104.745 36.1266 104.949L36.7383 105.294C103.64 105.31 103.954 105.294 104.581 104.996C105 104.787 105.313 104.473 105.523 104.055C105.836 103.427 105.836 103.114 105.836 78.4863V53.5451H34.9344V78.4863Z" fill="#1D2939"/>
<path d="M82.4641 68.9016C82.668 68.5095 82.9974 68.1644 83.3739 67.9604H83.3582C83.6876 67.8036 84.2052 67.6624 84.5033 67.6624C84.8013 67.6624 85.2719 67.7879 85.5386 67.9291C85.8052 68.0702 88.7542 70.3761 92.0954 73.0585C96.4248 76.5251 98.2288 78.0624 98.3856 78.4232C98.5111 78.7055 98.6209 79.1604 98.6209 79.4114C98.6209 79.6624 98.5111 80.1173 98.3856 80.384C98.2288 80.7604 96.4248 82.2977 92.0954 85.7644C88.7542 88.4467 85.8052 90.7526 85.5386 90.8938C85.2719 91.0349 84.817 91.1604 84.5346 91.1761C84.268 91.1761 83.7503 91.0349 83.4052 90.8624C82.9869 90.6532 82.6732 90.3395 82.4641 89.9212C82.2915 89.5761 82.1503 89.0742 82.1503 88.8232C82.1503 88.5722 82.2758 88.1016 82.417 87.8036C82.6209 87.3957 84.0327 86.1722 87.515 83.4114C90.1817 81.2938 92.3464 79.5055 92.3464 79.4114C92.3464 79.3173 90.1817 77.5291 87.515 75.4114C84.0327 72.6506 82.6209 71.4271 82.417 71.0193C82.2758 70.7212 82.1503 70.2506 82.1503 69.9997C82.1503 69.733 82.2915 69.2467 82.4641 68.9016Z" fill="#7F56D9"/>
<path d="M48.6915 73.0585C52.0327 70.3761 54.9817 68.0702 55.2484 67.9291C55.515 67.7879 55.9699 67.6624 56.2366 67.6467C56.519 67.6467 57.0366 67.7879 57.3817 67.9604C57.8 68.1696 58.1137 68.4833 58.3229 68.9016C58.4954 69.2467 58.6366 69.733 58.6366 69.9997C58.6366 70.2506 58.5111 70.7212 58.3543 71.0193C58.166 71.4271 56.7543 72.6506 53.2719 75.4114C50.6052 77.5291 48.4405 79.3173 48.4405 79.4114C48.4405 79.5055 50.6052 81.2938 53.2562 83.4114C56.7543 86.1722 58.166 87.3957 58.3543 87.8036C58.5111 88.1016 58.6366 88.5722 58.6366 88.8232C58.6366 89.0742 58.4954 89.5761 58.3229 89.9212C58.1137 90.3395 57.8 90.6532 57.3817 90.8624C57.0366 91.0349 56.519 91.1761 56.2366 91.1761C55.9699 91.1604 55.515 91.0349 55.2484 90.8938C54.9817 90.7526 52.0327 88.4467 48.6915 85.7644C44.3621 82.2977 42.5582 80.7604 42.4013 80.3997C42.2758 80.1173 42.166 79.6624 42.166 79.4114C42.166 79.1604 42.2758 78.7055 42.4013 78.4389C42.5582 78.0624 44.3621 76.5251 48.6915 73.0585Z" fill="#7F56D9"/>
<path d="M75.3268 61.9997C75.5621 61.5291 75.8915 61.1683 76.2994 60.9487C76.6288 60.7448 77.1464 60.5879 77.4288 60.5879C77.6954 60.5879 78.2131 60.7291 78.5582 60.9016C78.9765 61.1108 79.2902 61.4245 79.4994 61.8428C79.6719 62.1879 79.8131 62.6742 79.8131 62.9408C79.8131 63.2075 76.8484 70.3291 72.817 79.7565C68.9582 88.7604 65.6484 96.4467 65.4444 96.8546C65.1778 97.4036 64.8954 97.7016 64.4405 97.9212C64.0954 98.0938 63.6092 98.2349 63.3425 98.2349C63.0915 98.2349 62.5895 98.0938 62.2444 97.9212C61.8261 97.7121 61.5124 97.3983 61.3033 96.98C61.1307 96.6349 60.9895 96.133 60.9895 95.882C60.9895 95.6153 63.9543 88.4938 67.9856 79.0663C71.8288 70.0624 75.1386 62.3918 75.3268 61.9997Z" fill="#7F56D9"/>
<path d="M82.4635 40.667C82.6674 40.2749 82.9968 39.9298 83.3733 39.7258H83.3576C83.9223 39.4435 84.3302 39.4278 91.5145 39.4121C98.7772 39.4121 99.1223 39.4278 99.7184 39.7258C100.137 39.935 100.45 40.2487 100.66 40.667C100.832 41.0121 100.973 41.4984 100.973 41.7651C100.973 42.0317 100.832 42.518 100.66 42.8631C100.45 43.2814 100.137 43.5951 99.7184 43.8043C99.1223 44.1023 98.7772 44.118 91.5615 44.118C84.3458 44.118 84.0007 44.1023 83.4047 43.8043C82.9864 43.5951 82.6726 43.2814 82.4635 42.8631C82.2909 42.518 82.1498 42.0317 82.1498 41.7651C82.1498 41.4984 82.2909 41.0121 82.4635 40.667Z" fill="#7F56D9"/>
<path d="M58.9498 40.667C59.1537 40.2749 59.4831 39.9298 59.8439 39.7258C60.1733 39.569 60.6752 39.4278 60.9419 39.4121C61.2243 39.4121 61.7419 39.5533 62.087 39.7258C62.5053 39.935 62.819 40.2487 63.0282 40.667C63.2007 41.0121 63.3419 41.4984 63.3419 41.7651C63.3419 42.0317 63.2007 42.518 63.0282 42.8631C62.819 43.2814 62.5053 43.5951 62.087 43.8043C61.7419 43.9768 61.24 44.118 60.989 44.118C60.7223 44.118 60.236 43.9768 59.8909 43.8043C59.4726 43.5951 59.1589 43.2814 58.9498 42.8631C58.7772 42.518 58.636 42.0317 58.636 41.7651C58.636 41.4984 58.7772 41.0121 58.9498 40.667Z" fill="#7F56D9"/>
<path d="M49.538 40.667C49.7419 40.2749 50.0713 39.9298 50.4321 39.7258C50.7615 39.569 51.2635 39.4278 51.5301 39.4121C51.8125 39.4121 52.3301 39.5533 52.6752 39.7258C53.0935 39.935 53.4073 40.2487 53.6164 40.667C53.789 41.0121 53.9301 41.4984 53.9301 41.7651C53.9301 42.0317 53.789 42.518 53.6164 42.8631C53.4073 43.2814 53.0935 43.5951 52.6752 43.8043C52.3301 43.9768 51.8282 44.118 51.5772 44.118C51.3105 44.118 50.8243 43.9768 50.4792 43.8043C50.0609 43.5951 49.7471 43.2814 49.538 42.8631C49.3654 42.518 49.2243 42.0317 49.2243 41.7651C49.2243 41.4984 49.3654 41.0121 49.538 40.667Z" fill="#7F56D9"/>
<path d="M40.1262 40.667C40.3301 40.2749 40.6596 39.9298 41.0203 39.7258C41.3498 39.569 41.8517 39.4278 42.1184 39.4121C42.4007 39.4121 42.9184 39.5533 43.2635 39.7258C43.6818 39.935 43.9955 40.2487 44.2047 40.667C44.3772 41.0121 44.5184 41.4984 44.5184 41.7651C44.5184 42.0317 44.3772 42.518 44.2047 42.8631C43.9955 43.2814 43.6818 43.5951 43.2635 43.8043C42.9184 43.9768 42.4164 44.118 42.1654 44.118C41.8988 44.118 41.4125 43.9768 41.0674 43.8043C40.6491 43.5951 40.3354 43.2814 40.1262 42.8631C39.9537 42.518 39.8125 42.0317 39.8125 41.7651C39.8125 41.4984 39.9537 41.0121 40.1262 40.667Z" fill="#7F56D9"/>
</svg>
