<svg width="140" height="141" viewBox="0 0 140 141" fill="none" xmlns="http://www.w3.org/2000/svg">
<rect y="0.478516" width="140" height="140" rx="14" fill="#F9FAFB"/>
<path fill-rule="evenodd" clip-rule="evenodd" d="M91.143 30.8117C93.0469 30.7942 94.1124 30.8816 95.4225 31.1437C96.3832 31.336 97.798 31.703 98.5666 31.9476C99.3351 32.1923 100.68 32.734 101.536 33.1534C102.392 33.5728 103.737 34.3243 104.505 34.8311C105.309 35.3553 106.759 36.6136 107.912 37.767C109.029 38.8854 110.322 40.3883 110.794 41.1048C111.283 41.8213 111.999 43.0795 112.418 43.9008C112.82 44.7222 113.379 46.0853 113.676 46.9591C113.955 47.8154 114.322 49.1959 114.497 50.0173C114.724 51.0833 114.811 52.3066 114.811 54.3861C114.811 56.4657 114.724 57.689 114.497 58.755C114.322 59.5763 113.973 60.8695 113.728 61.6385C113.484 62.4074 113.012 63.6307 112.68 64.3472C112.348 65.0636 111.562 66.4442 110.933 67.4054C110.165 68.5937 109.169 69.7645 107.842 71.0752C106.776 72.1412 105.361 73.3645 104.68 73.8189C103.999 74.2557 102.864 74.9373 102.147 75.3392C101.431 75.7237 99.8941 76.3528 98.7413 76.7198C97.5884 77.1043 96.0513 77.5237 95.3351 77.646C94.584 77.7858 92.8373 77.8906 91.2303 77.8906C89.2565 77.8732 87.9989 77.7858 86.9509 77.5761C86.1299 77.4013 84.8373 77.0518 84.0688 76.8072C83.3002 76.5625 82.0775 76.0907 81.3613 75.7586C80.6452 75.4266 79.2653 74.6402 78.3046 74.0111C77.1517 73.2422 75.9116 72.1936 74.6364 70.9179C73.5709 69.8519 72.3133 68.384 71.8417 67.6675C71.3701 66.951 70.6364 65.6928 70.2172 64.8714C69.8155 64.0501 69.2565 62.6695 68.9596 61.8132C68.6801 60.9569 68.3133 59.5763 68.1386 58.755C67.9116 57.689 67.8242 56.4657 67.8242 54.3861C67.8242 52.3066 67.9116 51.0833 68.1386 50.0173C68.3133 49.1959 68.6801 47.8328 68.9596 46.9591C69.2565 46.0853 69.8155 44.7222 70.2172 43.9008C70.6364 43.0795 71.3526 41.8213 71.8417 41.1048C72.3133 40.3883 73.6059 38.8854 74.7238 37.7844C75.8242 36.666 77.3264 35.3728 78.0426 34.901C78.7587 34.4117 80.0164 33.6952 80.8373 33.2758C81.6583 32.8738 82.9509 32.3321 83.7194 32.07C84.488 31.8078 85.9028 31.4234 86.8635 31.2137C88.191 30.934 89.2216 30.8292 91.143 30.8117ZM86.9509 36.5961C86.1299 36.7883 84.8723 37.2077 84.1561 37.5048C83.4399 37.8194 82.1299 38.5184 81.274 39.0951C80.4181 39.6543 79.1081 40.7028 78.3744 41.4368C77.6408 42.1708 76.5928 43.464 76.0338 44.3377C75.4574 45.194 74.7587 46.5047 74.4443 47.2212C74.1474 47.9377 73.7107 49.2483 73.4836 50.1046C73.1343 51.4503 73.0819 52.0794 73.0819 54.4735C73.0993 56.7104 73.1692 57.5317 73.4487 58.5802C73.6583 59.2967 74.06 60.52 74.357 61.2889C74.6539 62.0579 75.3701 63.4384 75.964 64.3472C76.5578 65.2559 77.6408 66.6015 78.3744 67.3355C79.1081 68.0694 80.453 69.1529 81.3613 69.7471C82.2696 70.3412 83.6495 71.0577 84.4181 71.3548C85.1867 71.6519 86.4094 72.0538 87.1255 72.2461C88.1736 72.5432 88.9945 72.6131 91.143 72.6305C93.0295 72.6305 94.2172 72.5432 95.0731 72.3509C95.7544 72.1936 97.012 71.8092 97.8679 71.4946C98.7413 71.1626 100.139 70.4636 100.995 69.9393C101.868 69.3976 103.213 68.3316 104.069 67.4927C105.012 66.5665 106.008 65.3782 106.671 64.3472C107.265 63.4384 107.981 62.0579 108.278 61.2889C108.575 60.52 108.977 59.2967 109.187 58.5802C109.466 57.4968 109.536 56.7453 109.536 54.3861C109.536 52.0269 109.466 51.2755 109.187 50.192C108.977 49.4755 108.575 48.2522 108.278 47.4833C107.981 46.7144 107.265 45.3338 106.671 44.4251C106.077 43.5164 104.995 42.1708 104.261 41.4368C103.527 40.7028 102.182 39.6194 101.274 39.0252C100.366 38.431 98.9858 37.7145 98.2172 37.4174C97.4487 37.1204 96.226 36.7184 95.5098 36.5262C94.6364 36.299 93.4487 36.1767 91.929 36.1243C90.6888 36.0893 89.3788 36.1068 89.0469 36.1417C88.715 36.1942 87.7718 36.3864 86.9509 36.5961Z" fill="#7F56D9"/>
<path d="M89.044 42.3277C89.2711 41.8908 89.6379 41.5064 90.0571 41.2792H90.0397C90.4065 41.1044 90.9654 40.9472 91.2624 40.9297C91.5768 40.9297 92.1532 41.087 92.5375 41.2792C93.0033 41.5122 93.3526 41.8617 93.5855 42.3277C93.7776 42.7122 93.9349 43.3064 93.9349 43.6384C93.9349 44.0054 94.0222 44.25 94.1445 44.25C94.2667 44.25 94.913 44.5122 95.5942 44.8442C96.2755 45.1762 97.0266 45.683 97.2886 45.9801C97.568 46.2772 97.83 46.8189 97.8825 47.1859C97.9523 47.5354 97.9174 48.1121 97.8126 48.4441C97.7078 48.7762 97.3934 49.2655 97.1314 49.5276C96.8694 49.7723 96.3279 50.0694 95.9436 50.1567C95.4545 50.2791 95.0528 50.2791 94.6335 50.1567C94.3017 50.0519 93.7776 49.8247 93.4982 49.6325C93.2187 49.4577 92.5025 49.2655 91.9261 49.1956C91.1925 49.1257 90.6161 49.1781 90.0047 49.3703C89.5156 49.5276 88.9567 49.8247 88.7296 50.0169C88.52 50.2092 88.3453 50.4363 88.3453 50.5412C88.3453 50.6461 88.52 50.8383 88.7296 50.9781C88.9567 51.1179 90.4239 51.5198 92.0135 51.8519C93.603 52.1839 95.2798 52.6557 95.7689 52.8654C96.2405 53.0926 96.9567 53.4946 97.3235 53.7742C97.6903 54.0712 98.2318 54.6305 98.4938 55.0499C98.7733 55.4518 99.1226 56.2732 99.2798 56.8673C99.472 57.5838 99.5244 58.2828 99.4545 58.8421C99.4021 59.3139 99.1226 60.1877 98.8431 60.7644C98.5462 61.3935 98.0047 62.11 97.4982 62.5643C97.0266 62.9837 96.1707 63.543 95.5942 63.8226L95.5031 63.864C94.9548 64.1135 94.3973 64.3671 94.2318 64.4167C94.0222 64.4866 93.9349 64.7138 93.9349 65.1332C93.9349 65.4653 93.7776 66.0594 93.5855 66.4439C93.3526 66.9099 93.0033 67.2594 92.5375 67.4924C92.1532 67.6846 91.5768 67.8419 91.2624 67.8419C90.9654 67.8244 90.4065 67.6497 90.0222 67.44C89.6379 67.2128 89.2187 66.7759 89.0266 66.3915C88.8519 66.0419 88.6947 65.4827 88.6947 65.1682C88.6947 64.6614 88.6248 64.5915 87.8737 64.3119C87.4021 64.1546 86.6335 63.7527 86.1619 63.4381C85.6728 63.1235 85.1488 62.5818 84.9742 62.2498C84.7471 61.8129 84.6772 61.4109 84.7471 60.8517C84.7995 60.4148 84.9742 59.8731 85.1488 59.6459C85.3235 59.4187 85.6554 59.0867 85.8999 58.8945C86.1619 58.6848 86.651 58.545 87.1226 58.545C87.6816 58.5275 88.1881 58.6673 88.8694 58.9993C89.3934 59.2789 90.2143 59.5411 90.7034 59.576C91.2449 59.6459 91.9436 59.5585 92.5375 59.4013C93.0615 59.244 93.6728 58.9644 93.8825 58.7547C94.1095 58.5624 94.2842 58.3353 94.2842 58.2304C94.2842 58.1256 94.1095 57.9333 93.8825 57.7935C93.6728 57.6537 92.2056 57.2518 90.6161 56.9197C88.817 56.5353 87.3148 56.1159 86.6335 55.7838C86.0397 55.4868 85.2187 54.9275 84.7995 54.5256C84.3977 54.1062 83.9087 53.4596 83.734 53.0751C83.5418 52.6907 83.3148 51.9043 83.2274 51.3276C83.0702 50.4538 83.0877 50.0868 83.3497 49.1432C83.5244 48.514 83.8737 47.6927 84.1357 47.3082C84.3977 46.9238 84.9742 46.3121 85.3934 45.9626C85.8126 45.6131 86.5986 45.1238 87.1226 44.8966C87.6466 44.652 88.2231 44.4248 88.3803 44.3549C88.6073 44.285 88.6947 44.0578 88.6947 43.6384C88.6947 43.3064 88.8519 42.7122 89.044 42.3277Z" fill="#7F56D9"/>
<path fill-rule="evenodd" clip-rule="evenodd" d="M53.4998 72.6835C54.1635 72.7184 55.5085 72.8757 56.4692 73.0155C57.7793 73.2252 60.3993 74.0116 66.9496 76.1786C71.7531 77.7689 77.2552 79.5863 79.1766 80.2154C81.098 80.8271 83.1417 81.5785 83.7181 81.8756C84.2945 82.1727 85.1504 82.8018 85.622 83.2911C86.1286 83.8154 86.74 84.7241 87.1068 85.493C87.6308 86.6114 87.7356 87.0309 87.788 88.2891C87.8229 89.1104 87.7705 90.1065 87.6657 90.526C87.5085 91.1026 87.526 91.2599 87.6832 91.2599C87.8055 91.2599 88.4517 90.9803 89.133 90.6658C89.8317 90.3162 92.9234 88.1668 96.3819 85.5979C99.7181 83.1164 102.984 80.8271 103.701 80.4776C104.993 79.831 105.046 79.8135 107.019 79.8135C108.958 79.8135 109.098 79.8484 110.268 80.3902C110.95 80.7222 111.771 81.229 112.102 81.5086C112.434 81.8057 112.993 82.4173 113.325 82.8542C113.674 83.2911 114.164 84.1998 114.426 84.8814C114.792 85.86 114.897 86.4017 114.897 87.5551C114.897 88.726 114.81 89.2153 114.408 90.1764C114.146 90.823 113.622 91.7667 113.238 92.291C112.696 93.0249 111.316 94.1434 106.95 97.3589C103.875 99.6307 100.853 101.85 100.225 102.304C99.5958 102.741 98.3731 103.51 97.5172 104.017C96.6613 104.524 95.1941 105.31 94.2858 105.765C93.3775 106.219 91.7181 106.953 90.6177 107.39C89.5172 107.827 87.7006 108.456 86.6002 108.805C85.4998 109.137 83.7705 109.574 82.7574 109.784C81.7443 109.994 80.1024 110.291 79.0893 110.431C78.0762 110.588 75.6133 110.745 73.5871 110.798C71.2465 110.832 69.3775 110.798 68.4343 110.658C67.6133 110.535 66.1985 110.326 65.2902 110.203C64.3819 110.064 58.6177 108.805 52.4867 107.425C46.3731 106.027 41.3251 104.891 41.2727 104.891C41.2203 104.891 41.1854 105.433 41.1854 106.114C41.1854 106.988 41.0806 107.53 40.836 108.036C40.6031 108.502 40.2538 108.852 39.788 109.085C39.1242 109.417 38.74 109.434 33.2727 109.434C27.6133 109.417 27.4561 109.417 26.7924 109.032C26.4081 108.805 25.9889 108.368 25.7967 108.001C25.4823 107.372 25.4648 106.726 25.4648 93.7065C25.4648 80.4251 25.4823 80.0581 25.8142 79.3766C26.0471 78.9106 26.3964 78.5611 26.8622 78.3281C27.5085 77.996 27.9103 77.9786 37.6046 77.9611L38.3906 77.297C38.8273 76.9126 39.8055 76.2485 40.574 75.7941C41.3426 75.3398 42.6002 74.7106 43.3688 74.3786C44.1373 74.0641 45.6395 73.5922 46.6876 73.3476C47.7531 73.0854 49.4299 72.8233 50.443 72.7359C51.4561 72.666 52.836 72.6485 53.4998 72.6835ZM45.8142 79.0271C45.2378 79.2193 44.3295 79.6387 43.8055 79.9358C43.2814 80.2329 42.4779 80.7397 42.0063 81.0542L41.1854 81.6484C41.1854 98.8967 41.2028 99.4734 41.4823 99.5433C41.657 99.5957 46.705 100.749 52.7138 102.095C58.7225 103.458 64.4168 104.716 65.3775 104.891C66.3382 105.066 68.1897 105.31 69.4823 105.433C70.8622 105.555 72.8884 105.59 74.3731 105.537C75.7705 105.485 77.7618 105.31 78.8273 105.153C79.8928 104.996 81.6046 104.664 82.6701 104.419C83.7356 104.174 85.622 103.615 86.8622 103.196C88.1024 102.759 90.3207 101.833 91.7531 101.134C93.2028 100.435 95.4386 99.1414 96.7312 98.2851C98.0238 97.4113 101.29 95.0521 103.963 93.0599C106.653 91.0677 108.993 89.2328 109.168 88.9881C109.36 88.7435 109.535 88.2017 109.587 87.7648C109.657 87.2056 109.587 86.8037 109.36 86.3668C109.185 86.0348 108.766 85.5804 108.434 85.3532C108.015 85.0911 107.561 84.9513 107.037 84.9688C106.478 84.9688 106.024 85.1086 105.465 85.4755C105.028 85.7377 102.129 87.8697 99.002 90.1939C94.8622 93.2696 92.8535 94.6502 91.5784 95.2793C90.5827 95.7861 89.0806 96.3453 88.0849 96.6074C86.8972 96.9045 85.657 97.0793 84.2421 97.1492C82.7225 97.2191 81.6919 97.1666 80.5391 96.9569C79.5609 96.7822 75.491 95.5589 70.3207 93.8638C65.5871 92.3085 61.4124 90.8929 61.0631 90.7182C60.6264 90.5085 60.2771 90.1415 60.05 89.6871C59.8579 89.3027 59.7006 88.726 59.7006 88.4289C59.7006 88.1143 59.8404 87.5726 60.0325 87.2406C60.2072 86.9085 60.6614 86.4542 61.0282 86.2445C61.395 86.0173 61.9365 85.8425 62.2334 85.8425C62.5303 85.8425 66.4954 87.0833 71.0544 88.5862C76.8186 90.491 79.5958 91.3298 80.1373 91.3298C80.6614 91.3298 81.1155 91.2017 81.4998 90.9454C81.7967 90.7357 82.181 90.3162 82.3207 90.0366C82.4605 89.757 82.5827 89.1978 82.5827 88.8134C82.5827 88.4289 82.4605 87.8697 82.3207 87.5901C82.181 87.3105 81.8491 86.9085 81.5871 86.7163C81.3076 86.5066 75.7181 84.5843 69.133 82.3999C62.5478 80.2329 56.574 78.363 55.8579 78.2232C55.1417 78.1009 53.4823 77.996 52.1897 77.996C50.5653 77.996 49.36 78.1009 48.3469 78.3281C47.526 78.5028 46.3906 78.8174 45.8142 79.0271ZM30.705 104.192H35.9452V83.2212H30.705V104.192Z" fill="#1D2939"/>
</svg>
