<svg width="80" height="80" viewBox="0 0 80 80" fill="none" xmlns="http://www.w3.org/2000/svg">
<rect width="80" height="80" rx="4" fill="#9E77ED"/>
<g clip-path="url(#clip0_2775_13239)">
<path d="M61.6668 24.1746H37.304C36.3403 19.0357 31.9625 15.2386 26.739 15.0108C21.5155 14.7831 16.8238 18.1847 15.4164 23.2201C14.0089 28.2556 16.2568 33.5969 20.8414 36.1106V60.6059C20.8406 61.3715 21.1823 62.0974 21.7729 62.5847L24.0358 64.4318C24.4759 64.7983 25.0302 64.9994 25.603 65C25.6846 65 25.768 64.9958 25.8529 64.9875C26.514 64.9222 27.1211 64.5938 27.5376 64.0761L30.2729 60.7251C30.6406 60.2671 30.8405 59.697 30.8395 59.1096V57.5016C30.8383 57.2804 30.7503 57.0686 30.5945 56.9117L28.6849 55.0021L30.5954 53.0916C30.9206 52.7663 30.9206 52.2388 30.5954 51.9135L28.6849 50.003L30.5954 48.0926C30.9206 47.7672 30.9206 47.2398 30.5954 46.9145L28.6849 45.004L30.5945 43.0944C30.7503 42.9375 30.8383 42.7256 30.8395 42.5045V36.5198C32.7714 35.654 34.4217 34.2635 35.6027 32.5064H63.3332V52.5026C63.3332 53.4229 62.5871 54.1689 61.6668 54.1689H31.6726C31.2124 54.1689 30.8395 54.5419 30.8395 55.0021C30.8395 55.4622 31.2124 55.8352 31.6726 55.8352H61.6668C63.5074 55.8352 64.9995 54.3431 64.9995 52.5026V27.5074C64.9996 25.6667 63.5075 24.1746 61.6668 24.1746ZM29.1731 42.1594L26.9177 44.4149C26.5924 44.7402 26.5924 45.2676 26.9177 45.5929L28.8281 47.5034L26.9177 49.4139C26.5924 49.7392 26.5924 50.2667 26.9177 50.592L28.8281 52.5025L26.9177 54.4129C26.5924 54.7382 26.5924 55.2657 26.9177 55.591L29.1731 57.8464V59.1096C29.1749 59.3147 29.1061 59.5142 28.9781 59.6745L26.2437 63.0239C26.1061 63.197 25.9046 63.3075 25.6846 63.3304C25.4702 63.353 25.256 63.2864 25.0922 63.1463L22.8318 61.3016C22.6261 61.1307 22.5073 60.8768 22.5078 60.6093V36.8488C24.6489 37.6248 26.9783 37.7153 29.1732 37.108V42.1594H29.1731ZM26.2571 35.839C20.9653 35.839 16.6756 31.5492 16.6756 26.2575C16.6756 20.9658 20.9654 16.6761 26.2571 16.6761C31.5488 16.6761 35.8385 20.9659 35.8385 26.2575C35.8325 31.5467 31.5463 35.833 26.2571 35.839ZM63.3332 30.8399H36.5192C36.7589 30.3008 36.956 29.7437 37.1083 29.1736H50.8356C51.2958 29.1736 51.6687 28.8006 51.6687 28.3404C51.6687 27.8803 51.2958 27.5073 50.8356 27.5073H37.4316C37.4787 27.0923 37.5032 26.6751 37.5049 26.2575C37.5049 26.1167 37.4891 25.98 37.4841 25.8409H61.6669C62.5872 25.8409 63.3333 26.587 63.3333 27.5073V30.8399H63.3332Z" fill="white"/>
<path d="M60.8335 27.5073H59.1671C58.707 27.5073 58.334 27.8803 58.334 28.3405C58.334 28.8006 58.7071 29.1736 59.1671 29.1736H60.8335C61.2937 29.1736 61.6666 28.8006 61.6666 28.3405C61.6666 27.8803 61.2937 27.5073 60.8335 27.5073Z" fill="white"/>
<path d="M55.8355 27.5073H54.1691C53.7089 27.5073 53.3359 27.8803 53.3359 28.3405C53.3359 28.8006 53.709 29.1736 54.1691 29.1736H55.8355C56.2956 29.1736 56.6686 28.8006 56.6686 28.3405C56.6686 27.8803 56.2956 27.5073 55.8355 27.5073Z" fill="white"/>
<path d="M26.2571 18.3423C24.1864 18.3423 22.5078 20.0209 22.5078 22.0916C22.5078 24.1623 24.1864 25.8408 26.2571 25.8408C28.3278 25.8408 30.0064 24.1623 30.0064 22.0916C30.004 20.0218 28.3268 18.3446 26.2571 18.3423ZM26.2571 24.1746C25.1067 24.1746 24.1742 23.242 24.1742 22.0917C24.1742 20.9413 25.1067 20.0088 26.2571 20.0088C27.4075 20.0088 28.34 20.9413 28.34 22.0917C28.34 23.2419 27.4075 24.1746 26.2571 24.1746Z" fill="#E9D7FE"/>
<path d="M25.007 39.1716C24.5468 39.1716 24.1738 39.5446 24.1738 40.0048V42.5043C24.1738 42.9645 24.5468 43.3374 25.007 43.3374C25.4671 43.3374 25.8401 42.9645 25.8401 42.5043V40.0048C25.8401 39.5446 25.4671 39.1716 25.007 39.1716Z" fill="white"/>
<path d="M25.007 45.8369C24.5468 45.8369 24.1738 46.2099 24.1738 46.6701V48.3364C24.1738 48.7966 24.5468 49.1696 25.007 49.1696C25.4671 49.1696 25.8401 48.7966 25.8401 48.3364V46.6701C25.8401 46.21 25.4671 45.8369 25.007 45.8369Z" fill="white"/>
<path d="M25.007 50.8362C24.5468 50.8362 24.1738 51.2092 24.1738 51.6693V53.3357C24.1738 53.7959 24.5468 54.1688 25.007 54.1688C25.4671 54.1688 25.8401 53.7958 25.8401 53.3357V51.6693C25.8401 51.2093 25.4671 50.8362 25.007 50.8362Z" fill="white"/>
<path d="M25.007 56.6685C24.5468 56.6685 24.1738 57.0414 24.1738 57.5016V59.168C24.1738 59.6281 24.5468 60.0011 25.007 60.0011C25.4671 60.0011 25.8401 59.628 25.8401 59.168V57.5016C25.8401 57.0414 25.4671 56.6685 25.007 56.6685Z" fill="white"/>
<path d="M35.005 40.8379H38.3377C38.7978 40.8379 39.1708 40.4649 39.1708 40.0048C39.1708 39.5446 38.7978 39.1716 38.3377 39.1716H35.005C34.5449 39.1716 34.1719 39.5446 34.1719 40.0048C34.1719 40.4649 34.5449 40.8379 35.005 40.8379Z" fill="#E9D7FE"/>
<path d="M50.836 40.8379C51.2961 40.8379 51.6691 40.4649 51.6691 40.0048C51.6691 39.5446 51.2961 39.1716 50.836 39.1716H41.671C41.2109 39.1716 40.8379 39.5446 40.8379 40.0048C40.8379 40.4649 41.211 40.8379 41.671 40.8379H50.836Z" fill="#E9D7FE"/>
<path d="M35.005 47.5034H38.3377C38.7978 47.5034 39.1708 47.1305 39.1708 46.6703C39.1708 46.2101 38.7978 45.8372 38.3377 45.8372H35.005C34.5449 45.8372 34.1719 46.2101 34.1719 46.6703C34.1719 47.1305 34.5449 47.5034 35.005 47.5034Z" fill="#E9D7FE"/>
<path d="M41.671 45.8369C41.2109 45.8369 40.8379 46.2099 40.8379 46.6701C40.8379 47.1302 41.211 47.5032 41.671 47.5032H50.836C51.2961 47.5032 51.6691 47.1302 51.6691 46.6701C51.6691 46.2099 51.2961 45.8369 50.836 45.8369H41.671Z" fill="#E9D7FE"/>
<path d="M60.8345 40.8379C61.2947 40.8379 61.6676 40.4649 61.6676 40.0048C61.6676 39.5446 61.2947 39.1716 60.8345 39.1716H54.1691C53.7089 39.1716 53.3359 39.5446 53.3359 40.0048C53.3359 40.4649 53.709 40.8379 54.1691 40.8379H60.8345Z" fill="#E9D7FE"/>
<path d="M35.005 44.1707H60.8333C61.2935 44.1707 61.6665 43.7977 61.6665 43.3375C61.6665 42.8774 61.2935 42.5044 60.8333 42.5044H35.005C34.5449 42.5044 34.1719 42.8774 34.1719 43.3375C34.1719 43.7977 34.5449 44.1707 35.005 44.1707Z" fill="#E9D7FE"/>
</g>
<defs>
<clipPath id="clip0_2775_13239">
<rect width="50" height="50" fill="white" transform="translate(15 15)"/>
</clipPath>
</defs>
</svg>
