<svg width="80" height="80" viewBox="0 0 80 80" fill="none" xmlns="http://www.w3.org/2000/svg">
<rect width="80" height="80" rx="4" fill="#F9FAFB"/>
<g clip-path="url(#clip0_2775_13240)">
<path d="M46.6605 64.9903H53.3259C53.7678 64.9903 54.1916 64.8147 54.5041 64.5022C54.8166 64.1897 54.9922 63.7659 54.9922 63.3239V61.1577C54.9928 60.5917 55.1848 60.0426 55.5371 59.5996L64.0738 49.0442C64.7372 48.2177 65.0592 47.1686 64.9736 46.1123L63.9738 33.4555C63.9166 32.738 63.5912 32.0684 63.0623 31.5801C62.6605 31.2117 62.1616 30.966 61.6246 30.8722C61.0876 30.7784 60.5349 30.8403 60.032 31.0506C59.5291 31.2609 59.0969 31.6109 58.7865 32.059C58.4762 32.5072 58.3007 33.0349 58.2807 33.5797L57.6609 41.0782C57.1983 41.0652 56.7387 41.1557 56.3156 41.3431C55.8925 41.5305 55.5167 41.8101 55.2155 42.1614L46.2314 52.4319C45.4337 53.3433 44.9941 54.5134 44.9941 55.7246V63.3239C44.9941 63.7659 45.1697 64.1897 45.4822 64.5022C45.7947 64.8147 46.2185 64.9903 46.6605 64.9903ZM46.6605 55.7246C46.6606 54.9173 46.9537 54.1375 47.4853 53.53L56.4694 43.2611C56.67 43.0297 56.9367 42.8653 57.2336 42.7899C57.5304 42.7145 57.8432 42.7319 58.1299 42.8396C58.3594 42.9255 58.5646 43.0659 58.7278 43.2487C58.891 43.4315 59.0073 43.6512 59.0667 43.889C59.1261 44.1267 59.1269 44.3753 59.0689 44.6134C59.011 44.8515 58.896 45.0719 58.734 45.2558L53.5358 51.103C53.3889 51.2681 53.3136 51.4849 53.3265 51.7056C53.3393 51.9263 53.4394 52.1329 53.6046 52.2798C53.7697 52.4268 53.9865 52.5021 54.2072 52.4892C54.4279 52.4763 54.6345 52.3763 54.7814 52.2111L59.9796 46.363C60.2875 46.0188 60.5163 45.6113 60.65 45.1693C60.7838 44.7272 60.8192 44.2612 60.7538 43.804C60.6883 43.3468 60.5237 42.9095 60.2714 42.5227C60.019 42.1358 59.6851 41.8089 59.293 41.5648L59.9421 33.7055C59.9513 33.4106 60.0638 33.1282 60.26 32.9077C60.4561 32.6873 60.7234 32.5426 61.0152 32.4991C61.1718 32.4831 61.3301 32.4987 61.4806 32.5448C61.6312 32.5909 61.771 32.6666 61.8918 32.7676C62.0127 32.8685 62.1122 32.9925 62.1844 33.1324C62.2566 33.2723 62.3002 33.4252 62.3125 33.5822L63.3156 46.2439C63.3674 46.8761 63.1754 47.5042 62.779 47.9994L54.2424 58.5582C53.6518 59.2962 53.3287 60.2125 53.3259 61.1577V63.3239H46.6605V55.7246Z" fill="#1D2939"/>
<path d="M26.6645 64.9903H33.3299C33.7718 64.9903 34.1956 64.8147 34.5081 64.5022C34.8207 64.1897 34.9962 63.7659 34.9962 63.3239V55.7245C34.9963 54.5133 34.5566 53.3433 33.7589 52.4318L24.7749 42.1613C24.4737 41.81 24.0978 41.5304 23.6748 41.343C23.2517 41.1556 22.792 41.0651 22.3295 41.0782L21.7104 33.5855C21.6713 32.8961 21.3904 32.2425 20.9171 31.7396C20.4438 31.2368 19.8084 30.9168 19.1226 30.836C18.7243 30.8015 18.3231 30.8498 17.9444 30.978C17.5657 31.1062 17.2176 31.3115 16.9222 31.5809C16.3948 32.0693 16.0713 32.7388 16.0165 33.4555L15.0134 46.1122C14.9282 47.1701 15.2514 48.2205 15.9166 49.0475L24.4507 59.5988C24.8039 60.0418 24.9968 60.5912 24.9981 61.1577V63.3239C24.9981 63.7659 25.1737 64.1897 25.4862 64.5022C25.7987 64.8147 26.2225 64.9903 26.6645 64.9903ZM17.2138 48.0035C16.816 47.5073 16.6232 46.8777 16.6748 46.2439L17.6746 33.5872C17.697 33.2882 17.8325 33.0089 18.0536 32.8063C18.2746 32.6037 18.5645 32.4929 18.8643 32.4965C18.901 32.4965 18.9376 32.4965 18.9751 32.5015C19.2684 32.5458 19.5367 32.6919 19.733 32.9142C19.9294 33.1364 20.0413 33.4207 20.0491 33.7171L20.6973 41.5673C20.4954 41.6936 20.3082 41.842 20.1391 42.0097C19.5672 42.583 19.2355 43.3528 19.2116 44.1622C19.1878 44.9716 19.4736 45.7596 20.0108 46.3655L25.2089 52.2136C25.2817 52.2953 25.3699 52.362 25.4684 52.4097C25.5669 52.4574 25.6738 52.4853 25.7831 52.4917C25.8924 52.498 26.0019 52.4828 26.1053 52.4469C26.2087 52.411 26.304 52.3551 26.3858 52.2823C26.4676 52.2095 26.5342 52.1214 26.582 52.0229C26.6297 51.9243 26.6575 51.8174 26.6639 51.7081C26.6703 51.5988 26.6551 51.4894 26.6191 51.386C26.5832 51.2825 26.5273 51.1872 26.4545 51.1054L21.2564 45.2582C21.0943 45.0744 20.9794 44.854 20.9214 44.6159C20.8634 44.3778 20.8642 44.1292 20.9237 43.8915C20.9831 43.6537 21.0994 43.434 21.2626 43.2512C21.4258 43.0684 21.6309 42.928 21.8604 42.842C22.1471 42.7343 22.4599 42.717 22.7568 42.7924C23.0536 42.8678 23.3203 43.0322 23.5209 43.2636L32.505 53.53C33.0367 54.1375 33.3298 54.9173 33.3299 55.7245V63.3239H26.6645V61.1577C26.6625 60.2103 26.3394 59.2916 25.748 58.5515L17.2138 48.0035Z" fill="#1D2939"/>
<path d="M39.752 46.7179C39.7632 46.7179 39.7744 46.7223 39.7852 46.7223H39.7964C39.8631 46.7223 39.9268 46.7321 39.9932 46.7321C40.0599 46.7321 40.1236 46.723 40.19 46.7223H40.2012C40.2124 46.7223 40.2236 46.7179 40.2344 46.7179C47.9512 46.5855 54.1187 40.2599 54.0526 32.5457C53.9862 24.8315 47.7111 18.6125 39.9932 18.6125C32.2753 18.6125 26.0002 24.8315 25.9341 32.5457C25.8677 40.2599 32.0352 46.5855 39.752 46.7179ZM29.3375 26.019H33.8122C33.0883 27.9117 32.6825 29.9111 32.611 31.9362H27.451C27.5709 29.8366 28.2196 27.801 29.3375 26.019ZM52.5324 31.9362H47.3723C47.3012 29.9111 46.8954 27.9117 46.1715 26.019H50.649C51.7668 27.801 52.4158 29.8366 52.5354 31.9362H52.5324ZM50.649 39.3332H46.1715C46.8954 37.4404 47.3012 35.441 47.3723 33.4159H52.5354C52.4158 35.5155 51.7668 37.5511 50.649 39.3332ZM39.2534 40.8125V44.6277C37.9953 43.5503 36.9384 42.2586 36.1319 40.8125H39.2534ZM35.4053 39.3332C34.6123 37.4563 34.1665 35.4515 34.0903 33.4159H39.2534V39.3332H35.4053ZM40.7334 44.6277V40.8125H43.8545C43.048 42.2586 41.9911 43.5503 40.7334 44.6277ZM40.7334 39.3332V33.4159H45.893C45.8179 35.4512 45.3734 37.4563 44.5811 39.3332H40.7334ZM45.893 31.9362H40.7334V26.019H44.5811C45.3734 27.8958 45.8179 29.9009 45.893 31.9362ZM40.7334 24.5396V20.7244C41.9911 21.8018 43.048 23.0935 43.8545 24.5396H40.7334ZM39.2534 20.7244V24.5396H36.1319C36.9384 23.0935 37.9953 21.8018 39.2534 20.7244ZM39.2534 26.019V31.9362H34.0934C34.1686 29.9009 34.6133 27.8958 35.4053 26.019H39.2534ZM32.6141 33.4159C32.6856 35.441 33.0914 37.4404 33.8149 39.3332H29.3375C28.2186 37.5515 27.5689 35.5158 27.4483 33.4159H32.6141ZM30.4194 40.8125H34.4633C35.2302 42.3622 36.2464 43.7755 37.4713 44.9961C34.719 44.428 32.2364 42.9551 30.4194 40.8125ZM42.5151 44.9961C43.7404 43.7755 44.7566 42.3622 45.5231 40.8125H49.5674C47.75 42.9551 45.2674 44.428 42.5151 44.9961ZM49.5674 24.5396H45.5231C44.7566 22.9899 43.7404 21.5766 42.5151 20.356C45.2674 20.9241 47.75 22.397 49.5674 24.5396ZM37.4713 20.356C36.2464 21.5766 35.2302 22.9899 34.4633 24.5396H30.4194C32.2364 22.397 34.719 20.9241 37.4713 20.356Z" fill="#7F56D9"/>
</g>
<defs>
<clipPath id="clip0_2775_13240">
<rect width="49.9903" height="49.9903" fill="white" transform="translate(15 15)"/>
</clipPath>
</defs>
</svg>
