<svg width="80" height="80" viewBox="0 0 80 80" fill="none" xmlns="http://www.w3.org/2000/svg">
<rect width="80" height="80" rx="4" fill="#F9FAFB"/>
<g clip-path="url(#clip0_2775_13238)">
<path d="M63.6957 25.3607L50.8693 19.1397C49.7916 18.6214 48.5367 18.6214 47.459 19.1397L34.6322 25.3608C33.9543 25.6892 33.4849 26.3341 33.3808 27.08H19.1698C16.8701 27.0827 15.0066 28.9463 15.0039 31.2458V57.0742C15.0066 59.3739 16.8701 61.2374 19.1698 61.2401H60.8284C63.1281 61.2374 64.9916 59.3739 64.9943 57.0742V27.412C64.994 26.5348 64.4885 25.7362 63.6957 25.3607ZM63.3279 57.0742C63.3264 58.454 62.2082 59.5723 60.8283 59.5737H19.1698C17.79 59.5723 16.6717 58.454 16.6703 57.0742V31.2458C16.6717 29.866 17.79 28.7478 19.1698 28.7463H33.3338V35.0496C33.4258 42.2772 36.8437 49.0591 42.5984 53.433L47.5392 57.3451C48.4942 58.0903 49.8339 58.0903 50.7889 57.3451L55.7286 53.4339C59.0841 50.8221 61.7029 47.3828 63.328 43.4534L63.3279 57.0742ZM63.3279 35.0497C63.2339 41.7677 60.0492 48.0676 54.6951 52.1265L49.7546 56.0385C49.4071 56.3087 48.9207 56.3087 48.5732 56.0385L43.6312 52.1257C38.278 48.0666 35.094 41.7671 35 35.0497V27.412C35.0036 27.174 35.1435 26.9591 35.3596 26.8596L48.1867 20.6384C48.8044 20.3412 49.5238 20.3412 50.1415 20.6384L62.9683 26.8596C63.1846 26.959 63.3245 27.174 63.3279 27.412V35.0497Z" fill="#293056"/>
<path d="M49.1194 27.1467C44.5407 27.1529 40.8321 30.8663 40.832 35.445C40.8463 40.0352 44.5736 43.7475 49.1637 43.7434C53.7424 43.7251 57.441 40.0016 57.4287 35.4229C57.4166 30.8443 53.6981 27.1407 49.1194 27.1467ZM49.1194 42.0772C45.4609 42.0711 42.4984 39.1037 42.4984 35.4452C42.512 31.775 45.4936 28.8083 49.1638 28.8132C52.8223 28.8316 55.7748 31.8089 55.7626 35.4674C55.7503 39.1258 52.7779 42.0833 49.1194 42.0772Z" fill="#7F56D9"/>
<path d="M51.302 33.1563L47.801 36.6574L47.0264 35.8828C46.7009 35.5587 46.1743 35.5592 45.8495 35.884C45.5246 36.2089 45.5241 36.7354 45.8482 37.0609L47.2119 38.4246C47.3681 38.581 47.58 38.6687 47.801 38.6687C48.0219 38.6687 48.2338 38.581 48.39 38.4246L52.4802 34.3344C52.8027 34.0086 52.8015 33.4834 52.4772 33.1592C52.1529 32.8351 51.6278 32.8338 51.302 33.1563Z" fill="#7F56D9"/>
<path d="M33.3345 51.2419H20.1925C19.7323 51.2419 19.3594 51.6149 19.3594 52.0751C19.3594 52.5352 19.7323 52.9082 20.1925 52.9082H33.3345C33.7947 52.9082 34.1676 52.5352 34.1676 52.0751C34.1676 51.6149 33.7947 51.2419 33.3345 51.2419Z" fill="#293056"/>
<path d="M26.6692 54.5747H20.1925C19.7323 54.5747 19.3594 54.9477 19.3594 55.4078C19.3594 55.868 19.7323 56.241 20.1925 56.241H26.6691C27.1293 56.241 27.5022 55.868 27.5022 55.4078C27.5022 54.9477 27.1294 54.5747 26.6692 54.5747Z" fill="#293056"/>
<path d="M32.3592 44.9436L32.3588 44.9428L29.4642 43.5164C29.3772 43.4747 29.3212 43.3875 29.3194 43.291V42.4684C29.3577 42.4188 29.3969 42.3659 29.4374 42.3098C29.8065 41.7942 30.1068 41.2327 30.3308 40.6394C30.8332 40.3267 31.1383 39.7764 31.1374 39.1846V37.9902C31.1367 37.6442 31.0311 37.3066 30.8344 37.0219V35.6436C30.9006 34.8025 30.6295 33.9697 30.0809 33.3288C29.1822 32.4311 27.9343 31.9741 26.6685 32.0791C25.4023 31.9739 24.1541 32.4313 23.2557 33.3297C22.7073 33.9704 22.4364 34.8029 22.5026 35.6437V37.022C22.3058 37.3067 22.2002 37.6443 22.1995 37.9903V39.1847C22.1994 39.6452 22.3847 40.0863 22.7138 40.4084C22.9318 41.1404 23.27 41.8312 23.7146 42.4522V43.2634C23.7131 43.3567 23.6607 43.4417 23.5779 43.4848L20.875 44.9379C19.8271 45.4971 19.1719 46.5874 19.1699 47.775V48.7424C19.1698 48.9634 19.2576 49.1754 19.4139 49.3317C19.5701 49.4879 19.7821 49.5757 20.0032 49.5757H33.3339C33.5548 49.5758 33.7668 49.488 33.9231 49.3317C34.0793 49.1755 34.1671 48.9635 34.1671 48.7424V47.8336C34.1685 46.6033 33.4662 45.4806 32.3592 44.9436ZM32.5007 47.9093H20.8363V47.775C20.8386 47.2008 21.1568 46.6746 21.6642 46.4057L24.3679 44.9517C24.9907 44.6183 25.3799 43.9697 25.3809 43.2633V42.1714C25.38 41.9751 25.3107 41.7852 25.1849 41.6344C24.7504 41.076 24.4366 40.4336 24.2634 39.7476C24.2022 39.5185 24.0613 39.3189 23.8659 39.1845L23.8895 37.9502C24.0673 37.7921 24.1691 37.5656 24.1691 37.3277V35.6003C24.1691 35.5633 24.1666 35.5263 24.1617 35.4897C24.1386 35.1039 24.2632 34.7237 24.51 34.4263C25.1036 33.9091 25.8857 33.6623 26.6686 33.7452C27.445 33.6652 28.2203 33.9062 28.8145 34.4124C29.0702 34.7111 29.1995 35.0973 29.1754 35.4897C29.1705 35.5264 29.1681 35.5633 29.1681 35.6003V37.3277C29.1765 37.5801 29.2856 37.8187 29.4712 37.99L29.4167 39.2407C29.1571 39.3198 28.9523 39.5205 28.8679 39.7784C28.6882 40.335 28.424 40.8606 28.0843 41.3365C28.0161 41.4336 27.9427 41.527 27.8646 41.6165C27.7283 41.7692 27.653 41.9667 27.653 42.1713V43.2908C27.6515 44.0233 28.0694 44.6919 28.7283 45.0117L31.6225 46.438C32.1586 46.6961 32.4999 47.2383 32.5008 47.8334V47.9093H32.5007Z" fill="#7F56D9"/>
</g>
<defs>
<clipPath id="clip0_2775_13238">
<rect width="49.9903" height="49.9903" fill="white" transform="translate(15 15)"/>
</clipPath>
</defs>
</svg>
