<svg width="21" height="17" viewBox="0 0 21 17" fill="none" xmlns="http://www.w3.org/2000/svg">
<path d="M20.25 0.0322266H0.75C0.335156 0.0322266 0 0.367383 0 0.782227V15.7822C0 16.1971 0.335156 16.5322 0.75 16.5322H20.25C20.6648 16.5322 21 16.1971 21 15.7822V0.782227C21 0.367383 20.6648 0.0322266 20.25 0.0322266ZM18.3563 2.58457L10.9617 8.33848C10.7789 8.48145 10.5234 8.48145 10.3406 8.33848L2.94375 2.58457C2.91587 2.56305 2.89541 2.53335 2.88526 2.49962C2.87511 2.46589 2.87576 2.42984 2.88713 2.3965C2.8985 2.36316 2.92002 2.33422 2.94867 2.31373C2.97731 2.29324 3.01165 2.28222 3.04688 2.28223H18.2531C18.2883 2.28222 18.3227 2.29324 18.3513 2.31373C18.38 2.33422 18.4015 2.36316 18.4129 2.3965C18.4242 2.42984 18.4249 2.46589 18.4147 2.49962C18.4046 2.53335 18.3841 2.56305 18.3563 2.58457Z" fill="#7F56D9"/>
</svg>
