<svg width="24" height="24" viewBox="0 0 24 24" fill="none" xmlns="http://www.w3.org/2000/svg">
<path d="M13.1987 0.132295C14.0501 0.129028 14.9014 0.137584 15.7525 0.157962L15.9789 0.166128C16.2402 0.175462 16.498 0.187128 16.8095 0.201128C18.0509 0.259462 18.8979 0.455462 19.641 0.743628C20.411 1.03996 21.0597 1.44129 21.7084 2.08996C22.3015 2.67284 22.7605 3.3779 23.0535 4.15613C23.3417 4.89929 23.5377 5.74746 23.596 6.98879C23.61 7.29913 23.6217 7.55813 23.631 7.81946L23.638 8.04579C23.6588 8.89652 23.6677 9.74749 23.6649 10.5985L23.666 11.4688V12.9971C23.6689 13.8485 23.66 14.6998 23.6392 15.551L23.6322 15.7773C23.6229 16.0386 23.6112 16.2965 23.5972 16.608C23.5389 17.8493 23.3405 18.6963 23.0535 19.4395C22.7615 20.2185 22.3023 20.9242 21.7084 21.5068C21.125 22.0998 20.4196 22.5588 19.641 22.852C18.8979 23.1401 18.0509 23.3361 16.8095 23.3945C16.498 23.4085 16.2402 23.4201 15.9789 23.4295L15.7525 23.4365C14.9014 23.4572 14.0501 23.4661 13.1987 23.4633L12.3284 23.4645H10.8012C9.94984 23.4673 9.09848 23.4584 8.24737 23.4376L8.02104 23.4306C7.74408 23.4206 7.46719 23.4089 7.19037 23.3956C5.94904 23.3373 5.10204 23.139 4.3577 22.852C3.57917 22.5595 2.87398 22.1004 2.29154 21.5068C1.69776 20.9238 1.2383 20.2183 0.945204 19.4395C0.657038 18.6963 0.461038 17.8493 0.402704 16.608C0.389711 16.3311 0.378044 16.0542 0.367704 15.7773L0.361871 15.551C0.340362 14.6999 0.330639 13.8485 0.332704 12.9971V10.5985C0.329448 9.74749 0.338005 8.89652 0.358371 8.04579L0.366538 7.81946C0.375871 7.55813 0.387538 7.29913 0.401538 6.98879C0.459871 5.74629 0.655871 4.90046 0.944038 4.15613C1.23731 3.37752 1.69766 2.67265 2.2927 2.09113C2.87475 1.49701 3.57949 1.03713 4.3577 0.743628C5.10204 0.455462 5.94787 0.259462 7.19037 0.201128L8.02104 0.166128L8.24737 0.160295C9.09808 0.138797 9.94905 0.129073 10.8 0.131128L13.1987 0.132295ZM11.9994 5.96563C11.2265 5.9547 10.4591 6.09749 9.74184 6.38571C9.0246 6.67392 8.37179 7.10182 7.82136 7.64453C7.27092 8.18723 6.83384 8.83392 6.53551 9.54702C6.23717 10.2601 6.08354 11.0254 6.08354 11.7984C6.08354 12.5714 6.23717 13.3366 6.53551 14.0497C6.83384 14.7628 7.27092 15.4095 7.82136 15.9522C8.37179 16.4949 9.0246 16.9228 9.74184 17.2111C10.4591 17.4993 11.2265 17.6421 11.9994 17.6311C13.5465 17.6311 15.0302 17.0165 16.1242 15.9226C17.2181 14.8286 17.8327 13.3449 17.8327 11.7978C17.8327 10.2507 17.2181 8.76697 16.1242 7.67301C15.0302 6.57904 13.5465 5.96563 11.9994 5.96563ZM11.9994 8.29896C12.4643 8.29039 12.9263 8.37456 13.3583 8.54654C13.7903 8.71851 14.1838 8.97486 14.5156 9.3006C14.8475 9.62633 15.1111 10.0149 15.2911 10.4437C15.471 10.8725 15.5638 11.3328 15.5638 11.7978C15.5639 12.2628 15.4713 12.7231 15.2915 13.152C15.1117 13.5808 14.8482 13.9695 14.5164 14.2953C14.1847 14.6212 13.7914 14.8776 13.3594 15.0498C12.9274 15.2219 12.4655 15.3062 12.0005 15.2978C11.0723 15.2978 10.182 14.929 9.52566 14.2727C8.86929 13.6163 8.50054 12.7261 8.50054 11.7978C8.50054 10.8695 8.86929 9.9793 9.52566 9.32292C10.182 8.66654 11.0723 8.29779 12.0005 8.29779L11.9994 8.29896ZM18.1244 4.21563C17.748 4.23069 17.392 4.3908 17.1311 4.66243C16.8701 4.93405 16.7244 5.29612 16.7244 5.67279C16.7244 6.04947 16.8701 6.41154 17.1311 6.68316C17.392 6.95479 17.748 7.1149 18.1244 7.12996C18.5111 7.12996 18.8821 6.97632 19.1556 6.70283C19.4291 6.42933 19.5827 6.0584 19.5827 5.67163C19.5827 5.28485 19.4291 4.91392 19.1556 4.64043C18.8821 4.36694 18.5111 4.21329 18.1244 4.21329V4.21563Z" fill="#7F56D9"/>
</svg>
