<svg width="176" height="61" viewBox="0 0 176 61" fill="none" xmlns="http://www.w3.org/2000/svg">
<path opacity="0.5" d="M60.0625 60.2822C60.0625 52.4029 58.5106 44.6008 55.4953 37.3212C52.48 30.0417 48.0604 23.4273 42.4889 17.8558C36.9174 12.2843 30.303 7.86474 23.0235 4.84945C15.744 1.83417 7.94181 0.282226 0.0625 0.282227L0.0625026 60.2822H60.0625Z" fill="#6941C6"/>
<path opacity="0.5" d="M60.0625 0.282227C60.0625 8.16154 58.5106 15.9637 55.4953 23.2432C52.48 30.5228 48.0604 37.1371 42.4889 42.7086C36.9174 48.2801 30.303 52.6997 23.0235 55.715C15.744 58.7303 7.94181 60.2822 0.0625 60.2822L0.0625026 0.282227H60.0625Z" fill="#6941C6"/>
<path d="M79.3344 44.2822V16.7039H85.1652V28.8637H85.5288L95.4532 16.7039H102.442L92.2079 29.0522L102.563 44.2822H95.5879L88.0335 32.9439L85.1652 36.445V44.2822H79.3344ZM104.72 44.2822V16.7039H110.551V39.4749H122.374V44.2822H104.72ZM125.477 44.2822V16.7039H144.06V21.5112H131.308V28.0826H143.104V32.89H131.308V39.4749H144.114V44.2822H125.477ZM173.28 30.4931C173.28 33.5005 172.71 36.059 171.57 38.1687C170.439 40.2783 168.895 41.8898 166.938 43.003C164.99 44.1072 162.799 44.6593 160.367 44.6593C157.916 44.6593 155.716 44.1027 153.768 42.9895C151.82 41.8763 150.281 40.2649 149.149 38.1552C148.018 36.0455 147.453 33.4915 147.453 30.4931C147.453 27.4856 148.018 24.9271 149.149 22.8174C150.281 20.7078 151.82 19.1008 153.768 17.9966C155.716 16.8834 157.916 16.3268 160.367 16.3268C162.799 16.3268 164.99 16.8834 166.938 17.9966C168.895 19.1008 170.439 20.7078 171.57 22.8174C172.71 24.9271 173.28 27.4856 173.28 30.4931ZM167.369 30.4931C167.369 28.545 167.077 26.9021 166.494 25.5645C165.919 24.2269 165.107 23.2124 164.056 22.5212C163.006 21.8299 161.776 21.4843 160.367 21.4843C158.957 21.4843 157.727 21.8299 156.677 22.5212C155.627 23.2124 154.81 24.2269 154.226 25.5645C153.652 26.9021 153.364 28.545 153.364 30.4931C153.364 32.4411 153.652 34.084 154.226 35.4216C154.81 36.7592 155.627 37.7737 156.677 38.4649C157.727 39.1562 158.957 39.5018 160.367 39.5018C161.776 39.5018 163.006 39.1562 164.056 38.4649C165.107 37.7737 165.919 36.7592 166.494 35.4216C167.077 34.084 167.369 32.4411 167.369 30.4931Z" fill="black"/>
</svg>
