<svg width="22" height="22" viewBox="0 0 22 22" fill="none" xmlns="http://www.w3.org/2000/svg">
<path fill-rule="evenodd" clip-rule="evenodd" d="M18 0.297852C18.9283 0.297852 19.8185 0.666601 20.4749 1.32298C21.1313 1.97936 21.5 2.86959 21.5 3.79785V17.7979C21.5 18.7261 21.1313 19.6163 20.4749 20.2727C19.8185 20.9291 18.9283 21.2979 18 21.2979H4C3.07174 21.2979 2.1815 20.9291 1.52513 20.2727C0.868749 19.6163 0.5 18.7261 0.5 17.7979V3.79785C0.5 2.86959 0.868749 1.97936 1.52513 1.32298C2.1815 0.666601 3.07174 0.297852 4 0.297852H18ZM6.33333 8.46452C6.02391 8.46452 5.72717 8.58743 5.50838 8.80623C5.28958 9.02502 5.16667 9.32176 5.16667 9.63118V15.4645C5.16667 15.7739 5.28958 16.0707 5.50838 16.2895C5.72717 16.5083 6.02391 16.6312 6.33333 16.6312C6.64275 16.6312 6.9395 16.5083 7.15829 16.2895C7.37708 16.0707 7.5 15.7739 7.5 15.4645V9.63118C7.5 9.32176 7.37708 9.02502 7.15829 8.80623C6.9395 8.58743 6.64275 8.46452 6.33333 8.46452ZM9.83333 7.29785C9.52391 7.29785 9.22717 7.42077 9.00838 7.63956C8.78958 7.85835 8.66667 8.1551 8.66667 8.46452V15.4645C8.66667 15.7739 8.78958 16.0707 9.00838 16.2895C9.22717 16.5083 9.52391 16.6312 9.83333 16.6312C10.1428 16.6312 10.4395 16.5083 10.6583 16.2895C10.8771 16.0707 11 15.7739 11 15.4645V11.1945C11.4552 10.6994 12.0087 10.3048 12.6252 10.036C13.0137 9.87035 13.5982 9.80268 14.0042 9.93102C14.1389 9.96519 14.2588 10.0422 14.346 10.1504C14.4067 10.232 14.5 10.414 14.5 10.7979V15.4645C14.5 15.7739 14.6229 16.0707 14.8417 16.2895C15.0605 16.5083 15.3572 16.6312 15.6667 16.6312C15.9761 16.6312 16.2728 16.5083 16.4916 16.2895C16.7104 16.0707 16.8333 15.7739 16.8333 15.4645V10.7979C16.8333 10.0162 16.635 9.32085 16.222 8.76318C15.842 8.2575 15.3101 7.8867 14.7042 7.70502C13.6518 7.37485 12.4863 7.55802 11.7082 7.89168C11.4588 7.99839 11.2161 8.11994 10.9813 8.25568C10.9324 7.98687 10.7907 7.74375 10.5809 7.56871C10.3711 7.39367 10.1066 7.29781 9.83333 7.29785ZM6.33333 4.96452C6.02391 4.96452 5.72717 5.08743 5.50838 5.30623C5.28958 5.52502 5.16667 5.82177 5.16667 6.13118C5.16667 6.4406 5.28958 6.73735 5.50838 6.95614C5.72717 7.17493 6.02391 7.29785 6.33333 7.29785C6.64275 7.29785 6.9395 7.17493 7.15829 6.95614C7.37708 6.73735 7.5 6.4406 7.5 6.13118C7.5 5.82177 7.37708 5.52502 7.15829 5.30623C6.9395 5.08743 6.64275 4.96452 6.33333 4.96452Z" fill="#7F56D9"/>
</svg>
