<svg width="18" height="19" viewBox="0 0 18 19" fill="none" xmlns="http://www.w3.org/2000/svg">
<path d="M16.95 18.2822C14.8 18.2822 12.7043 17.8072 10.663 16.8572C8.62167 15.9072 6.81333 14.6406 5.238 13.0572C3.66267 11.4739 2.396 9.66123 1.438 7.61923C0.48 5.57723 0.000666667 3.48156 0 1.33223V0.807227C0 0.623893 0.0166666 0.448893 0.05 0.282227H5.9L6.825 5.30723L3.975 8.18223C4.675 9.38223 5.55433 10.5072 6.613 11.5572C7.67167 12.6072 8.834 13.5156 10.1 14.2822L13 11.3822L18 12.3822V18.2322C17.8333 18.2489 17.6583 18.2616 17.475 18.2702C17.2917 18.2789 17.1167 18.2829 16.95 18.2822Z" fill="#7F56D9"/>
</svg>
