<svg width="120" height="121" viewBox="0 0 120 121" fill="none" xmlns="http://www.w3.org/2000/svg">
<rect y="0.194336" width="120" height="120" rx="14" fill="#F9FAFB"/>
<path fill-rule="evenodd" clip-rule="evenodd" d="M40.9367 20.585C42.2341 20.5693 42.281 20.5693 42.9376 21.1162C43.344 21.46 43.6566 21.8818 43.7817 22.2568C43.9067 22.6787 43.938 25.335 43.8598 32.2881C43.8129 37.96 43.8286 42.21 43.9224 42.9131C44.0005 43.5537 44.2506 44.585 44.4538 45.1787C44.6727 45.7725 45.1416 46.7256 45.5168 47.2725C45.8763 47.8193 46.6736 48.7256 47.2676 49.2881C47.9866 49.9443 48.7838 50.4912 49.6123 50.8818C50.3001 51.21 51.3787 51.585 52.004 51.7256C52.9419 51.9287 54.3175 51.9756 60.2419 51.9756C66.0726 51.9756 67.5732 51.9287 68.558 51.7256C69.2302 51.6006 70.34 51.21 71.0278 50.8818C71.8719 50.4756 72.6535 49.9443 73.4351 49.2256C74.076 48.6162 74.8732 47.6631 75.2484 47.0537C75.6236 46.46 76.0769 45.5068 76.2645 44.9443C76.452 44.3818 76.6553 43.4287 76.7334 42.835C76.8116 42.2412 76.8272 37.4912 76.7803 32.2881C76.7022 25.3506 76.7334 22.6787 76.8585 22.2412C76.9835 21.8818 77.2962 21.46 77.7026 21.1162C78.3435 20.585 78.4216 20.5693 79.5784 20.5693C80.2975 20.5693 81.3292 20.71 82.0795 20.8975C82.7985 21.085 83.9397 21.4912 84.6274 21.8037C85.3152 22.1162 86.1906 22.6006 86.5814 22.8662C86.9722 23.1162 87.7382 23.7568 88.2853 24.2568C88.8324 24.7568 89.6765 25.7725 90.1611 26.5068C90.6613 27.2412 91.2397 28.3193 91.4742 28.9287C91.7086 29.5225 92.0369 30.6943 92.2088 31.5068C92.4902 32.8818 92.5215 33.6318 92.5215 41.3037C92.5215 47.8818 92.4746 50.0225 92.287 51.46C92.1463 52.4756 91.8806 54.0068 91.6774 54.8662C91.4742 55.7256 91.0365 57.1318 90.7238 57.9912C90.3956 58.8506 89.8797 60.085 89.5515 60.7256C89.2232 61.3662 88.5354 62.5537 88.0039 63.335C87.4724 64.1318 85.7686 66.3193 84.2054 68.1787C82.6422 70.0537 81.0634 72.0068 80.7039 72.5225C80.3287 73.0381 79.7191 74.1318 79.3283 74.9443C78.9375 75.7568 78.4529 77.1006 78.2341 77.9131C78.0152 78.7256 77.7651 80.0381 77.6713 80.8037C77.5932 81.585 77.515 85.8818 77.515 90.4443C77.515 96.9756 77.4681 98.8037 77.3118 99.1943C77.1867 99.4756 76.8428 99.8975 75.9518 100.569H69.0739V92.71C69.0739 85.2256 69.0582 84.835 68.7612 84.1943C68.5893 83.835 68.2297 83.3975 67.9327 83.2256C67.5993 83.0173 67.1564 82.9131 66.604 82.9131C65.8693 82.9131 65.7287 82.9756 64.4625 84.1475L64.3843 100.569H56.4121V92.71C56.4121 85.2256 56.3965 84.835 56.0995 84.1943C55.9276 83.835 55.5524 83.3975 55.271 83.21C54.8802 82.9756 54.5676 82.9131 53.8798 82.9443C53.192 82.9756 52.9106 83.085 52.5824 83.3818C52.3479 83.6006 52.0665 83.96 51.9415 84.1943C51.7695 84.5537 51.7226 86.0693 51.7226 100.569H44.6883L44.1256 100.132C43.8129 99.8975 43.4534 99.5225 43.344 99.2725C43.172 98.9287 43.1251 97.2725 43.1251 90.5225C43.1251 85.9131 43.047 81.585 42.9688 80.8037C42.875 80.0381 42.6249 78.7256 42.4061 77.9131C42.1872 77.1006 41.7027 75.7568 41.3119 74.9443C40.9211 74.1318 40.3114 73.0381 39.9363 72.5225C39.5767 72.0068 37.9979 70.0537 36.4348 68.1787C34.8716 66.3193 33.1677 64.1318 32.6362 63.335C32.1048 62.5537 31.417 61.3662 31.0887 60.7256C30.7604 60.085 30.2446 58.8506 29.9163 57.9912C29.6037 57.1318 29.166 55.7256 28.9628 54.8662C28.7596 54.0068 28.4938 52.4912 28.3531 51.5068C28.1499 50.0068 28.1187 48.2725 28.1656 40.8818C28.2125 32.3662 28.2281 32.0068 28.5564 30.7256C28.7596 29.9912 29.2285 28.7568 29.6037 27.9912C29.9945 27.21 30.6823 26.1318 31.1356 25.5693C31.5889 25.0068 32.4487 24.1475 33.0583 23.6475C33.6523 23.1475 34.7622 22.4131 35.5438 22.0381C36.3097 21.6475 37.5446 21.1631 38.2793 20.9756C39.1391 20.7256 40.077 20.6006 40.9367 20.585ZM56.8029 62.085C56.459 62.2568 55.8181 62.7256 55.3961 63.1006C54.9584 63.4912 54.3956 64.1475 54.1143 64.5693C53.8485 64.9912 53.4734 65.7725 53.3014 66.3037C53.0826 66.96 52.9732 67.6943 52.9732 68.4912C52.9732 69.2725 53.0826 70.085 53.2702 70.7256C53.4421 71.2881 53.8642 72.1787 54.2237 72.71C54.5676 73.2568 55.2241 73.9912 55.6618 74.335C56.1151 74.6943 56.8655 75.1631 57.3031 75.3506C57.7565 75.5537 58.6006 75.8037 59.179 75.9131C60.0074 76.0537 60.492 76.0537 61.4143 75.9131C62.0552 75.8037 63.04 75.5068 63.6027 75.2412C64.2593 74.9287 64.9471 74.4287 65.5723 73.8037C66.1507 73.21 66.7135 72.4287 67.0105 71.8193C67.2918 71.2412 67.5888 70.3037 67.6826 69.6318C67.839 68.71 67.8233 68.2412 67.667 67.3662C67.5576 66.7568 67.2293 65.8193 66.9479 65.2568C66.6666 64.6943 66.1038 63.8818 65.6818 63.46C65.2597 63.0225 64.5406 62.46 64.0717 62.1787C63.6027 61.9131 62.7899 61.5693 62.274 61.4443C61.7582 61.3037 60.8516 61.1943 60.2419 61.1943C59.6323 61.21 58.7569 61.335 58.2879 61.4912C57.819 61.6475 57.1468 61.9131 56.8029 62.085Z" fill="#363F72"/>
<path d="M58.1012 67.0068C58.3044 66.7256 58.7265 66.3662 59.0391 66.1943C59.3518 66.0381 59.9145 65.8975 60.2741 65.8818C60.6492 65.8818 61.1807 65.9756 61.4464 66.1006C61.7278 66.21 62.1186 66.4756 62.3062 66.6787C62.4938 66.8818 62.7595 67.335 62.9002 67.6787C63.0721 68.085 63.1347 68.5225 63.0721 68.9287C63.0252 69.2725 62.7751 69.8506 62.5094 70.21C62.1968 70.6631 61.8216 70.96 61.3683 71.1318C60.9306 71.3037 60.4773 71.3506 59.9614 71.2881C59.4299 71.2256 59.0704 71.0537 58.6327 70.6787C58.3201 70.3818 57.9606 69.9131 57.8355 69.6162C57.6948 69.2881 57.6479 68.7725 57.6792 68.3037C57.7261 67.835 57.898 67.3193 58.1012 67.0068Z" fill="#363F72"/>
<path d="M62.7424 35.9913L67.7446 33.21C70.4958 31.6944 72.7624 30.4444 72.7936 30.4288C72.8093 30.4132 72.8249 32.8507 72.8249 35.835C72.8405 41.2569 72.8405 41.2725 72.4654 41.8194C72.184 42.2413 71.1054 42.9444 67.4632 45.0538C64.9152 46.5382 62.7893 47.7569 62.7424 47.7569C62.6955 47.7569 62.6799 45.1163 62.7424 35.9913Z" fill="#9E77ED"/>
<path d="M48.1584 41.8037C47.8145 41.2725 47.7988 41.2256 47.7832 35.8506L47.7676 30.4443L51.5036 32.4756C53.567 33.6006 55.8336 34.835 56.5526 35.2412C57.2717 35.6318 57.897 36.0381 57.9282 36.1162C57.9595 36.1943 57.9595 38.8506 57.897 47.7256L53.2074 45.0381C49.6278 42.96 48.4397 42.21 48.1584 41.8037Z" fill="#9E77ED"/>
<path d="M54.5996 23.46C57.132 22.0068 59.2423 20.7568 59.3048 20.6943C59.3517 20.6162 59.7425 20.5693 60.1645 20.5693C60.8836 20.5693 61.29 20.7725 65.6044 23.2412C68.1524 24.71 70.3408 25.9912 70.4502 26.1006C70.6066 26.2256 69.4811 26.9131 60.3209 31.9756L55.1624 29.1318C52.3174 27.5537 50.0039 26.2412 50.0039 26.1943C50.0039 26.1475 52.0829 24.9287 54.5996 23.46Z" fill="#9E77ED"/>
</svg>
