<svg width="615" height="589" viewBox="0 0 615 589" fill="none" xmlns="http://www.w3.org/2000/svg">
<g clip-path="url(#clip0_4010_3187)">
<rect y="0.420898" width="614.707" height="587.766" rx="19.7761" fill="#1D2939"/>
<g clip-path="url(#clip1_4010_3187)">
<rect y="0.546875" width="614.706" height="587.514" rx="19.7761" fill="#1D2939"/>
<rect opacity="0.2" x="140.08" y="-38.1816" width="355.969" height="645.194" fill="url(#paint0_linear_4010_3187)"/>
<line opacity="0.2" x1="82.0994" y1="0.398926" x2="82.0994" y2="591.143" stroke="white" stroke-width="1.64801"/>
<rect opacity="0.2" x="193.5" y="-38.1816" width="249.132" height="645.523" fill="url(#paint1_linear_4010_3187)"/>
<path d="M140.858 110.249H507.502C513.873 110.249 519.038 115.413 519.038 121.785V406.593C519.038 412.964 513.873 418.129 507.502 418.129H144.204C132.434 418.129 122.877 408.572 122.877 396.802V128.23C122.877 118.309 130.937 110.249 140.858 110.249Z" fill="white"/>
<path d="M209.342 110.249H129.496C125.509 110.249 122.27 113.488 122.27 117.475V408.337C122.27 413.746 126.663 418.14 132.073 418.14H206.274C207.974 418.14 209.342 416.761 209.342 415.072V110.249Z" fill="#EAECF5"/>
<path d="M151.283 133.05C151.283 136.044 148.857 138.46 145.874 138.46C142.892 138.46 140.465 136.033 140.465 133.05C140.465 130.068 142.892 127.641 145.874 127.641C148.857 127.641 151.283 130.068 151.283 133.05Z" fill="#F2F4F7"/>
<path d="M160.442 138.46C163.43 138.46 165.852 136.038 165.852 133.05C165.852 130.063 163.43 127.641 160.442 127.641C157.455 127.641 155.033 130.063 155.033 133.05C155.033 136.038 157.455 138.46 160.442 138.46Z" fill="#98A2B3"/>
<path d="M176.04 138.46C179.028 138.46 181.449 136.038 181.449 133.05C181.449 130.063 179.028 127.641 176.04 127.641C173.053 127.641 170.631 130.063 170.631 133.05C170.631 136.038 173.053 138.46 176.04 138.46Z" fill="#667085"/>
<path d="M345.29 137.084H236.815C233.886 137.084 231.523 134.711 231.523 131.792C231.523 128.863 233.897 126.5 236.815 126.5H345.29C348.219 126.5 350.581 128.874 350.581 131.792C350.581 134.721 348.208 137.084 345.29 137.084Z" fill="#B3B8DB"/>
<path d="M185.727 206.803H148.578C146.472 206.803 144.762 205.092 144.762 202.986C144.762 200.88 146.472 199.17 148.578 199.17H185.727C187.833 199.17 189.543 200.88 189.543 202.986C189.543 205.092 187.833 206.803 185.727 206.803Z" fill="#B3B8DB"/>
<path d="M285.522 167.379H250.34C248.234 167.379 246.523 165.669 246.523 163.563C246.523 161.457 248.234 159.747 250.34 159.747H285.522C287.628 159.747 289.338 161.457 289.338 163.563C289.338 165.669 287.628 167.379 285.522 167.379Z" fill="#9E77ED"/>
<path d="M285.522 187.358H250.34C248.234 187.358 246.523 185.648 246.523 183.542C246.523 181.436 248.234 179.726 250.34 179.726H285.522C287.628 179.726 289.338 181.436 289.338 183.542C289.338 185.648 287.628 187.358 285.522 187.358Z" fill="#9E77ED"/>
<path d="M270.512 247.931H250.34C248.234 247.931 246.523 246.22 246.523 244.114C246.523 242.008 248.234 240.298 250.34 240.298H270.512C272.618 240.298 274.329 242.008 274.329 244.114C274.329 246.22 272.618 247.931 270.512 247.931Z" fill="#9E77ED"/>
<path d="M270.512 268.614H250.34C248.234 268.614 246.523 266.904 246.523 264.798C246.523 262.692 248.234 260.981 250.34 260.981H270.512C272.618 260.981 274.329 262.692 274.329 264.798C274.329 266.904 272.618 268.614 270.512 268.614Z" fill="#9E77ED"/>
<path d="M309.555 287.024H272.566C270.46 287.024 268.75 285.314 268.75 283.208C268.75 281.102 270.46 279.391 272.566 279.391H309.555C311.661 279.391 313.371 281.102 313.371 283.208C313.371 285.314 311.661 287.024 309.555 287.024Z" fill="#9E77ED"/>
<path d="M316.535 300.374H293.551C291.443 300.374 289.734 302.083 289.734 304.19C289.734 306.298 291.443 308.007 293.551 308.007H316.535C318.643 308.007 320.351 306.298 320.351 304.19C320.351 302.083 318.643 300.374 316.535 300.374Z" fill="#FF725E"/>
<path d="M316.535 349.145H293.551C291.445 349.145 289.734 347.435 289.734 345.329C289.734 343.223 291.445 341.512 293.551 341.512H316.535C318.641 341.512 320.351 343.223 320.351 345.329C320.351 347.435 318.641 349.145 316.535 349.145Z" fill="#FF725E"/>
<path d="M316.535 392.601H293.551C291.445 392.601 289.734 390.891 289.734 388.785C289.734 386.679 291.445 384.968 293.551 384.968H316.535C318.641 384.968 320.351 386.679 320.351 388.785C320.351 390.891 318.641 392.601 316.535 392.601Z" fill="#FF725E"/>
<path d="M334.613 287.024H326.371C324.265 287.024 322.555 285.314 322.555 283.208C322.555 281.102 324.265 279.391 326.371 279.391H334.613C336.719 279.391 338.43 281.102 338.43 283.208C338.43 285.314 336.719 287.024 334.613 287.024Z" fill="#9E77ED"/>
<path d="M285.528 208.003H250.346C248.24 208.003 246.529 206.293 246.529 204.187C246.529 202.081 248.24 200.371 250.346 200.371H285.528C287.634 200.371 289.344 202.081 289.344 204.187C289.344 206.293 287.634 208.003 285.528 208.003Z" fill="#D5D9EB"/>
<path d="M330.475 268.616H293.486C291.38 268.616 289.67 266.905 289.67 264.799C289.67 262.693 291.38 260.983 293.486 260.983H330.475C332.581 260.983 334.291 262.693 334.291 264.799C334.291 266.905 332.581 268.616 330.475 268.616Z" fill="#D5D9EB"/>
<path d="M373.047 392.603H332.744C330.638 392.603 328.928 390.892 328.928 388.786C328.928 386.68 330.638 384.97 332.744 384.97H373.047C375.153 384.97 376.863 386.68 376.863 388.786C376.863 390.892 375.153 392.603 373.047 392.603Z" fill="#D5D9EB"/>
<path d="M401.25 392.603H395.445C393.339 392.603 391.629 390.892 391.629 388.786C391.629 386.68 393.339 384.97 395.445 384.97H401.25C403.356 384.97 405.067 386.68 405.067 388.786C405.067 390.892 403.356 392.603 401.25 392.603Z" fill="#D5D9EB"/>
<path d="M370.626 349.146H336.566C334.46 349.146 332.75 347.435 332.75 345.329C332.75 343.223 334.46 341.513 336.566 341.513H370.626C372.732 341.513 374.442 343.223 374.442 345.329C374.442 347.435 372.732 349.146 370.626 349.146Z" fill="#D5D9EB"/>
<path d="M445.298 368.23H336.566C334.46 368.23 332.75 366.52 332.75 364.414C332.75 362.308 334.46 360.597 336.566 360.597H445.298C447.404 360.597 449.114 362.308 449.114 364.414C449.114 366.52 447.404 368.23 445.298 368.23Z" fill="#D5D9EB"/>
<path d="M457.864 349.147H388.441C386.335 349.147 384.625 347.436 384.625 345.33C384.625 343.224 386.335 341.514 388.441 341.514H457.864C459.97 341.514 461.681 343.224 461.681 345.33C461.681 347.436 459.97 349.147 457.864 349.147Z" fill="#D5D9EB"/>
<path d="M362.941 300.376H334.174C332.066 300.376 330.357 302.085 330.357 304.193C330.357 306.301 332.066 308.009 334.174 308.009H362.941C365.049 308.009 366.758 306.301 366.758 304.193C366.758 302.085 365.049 300.376 362.941 300.376Z" fill="#D5D9EB"/>
<path d="M387.826 300.376H380.674C378.566 300.376 376.857 302.085 376.857 304.193C376.857 306.301 378.566 308.009 380.674 308.009H387.826C389.933 308.009 391.642 306.301 391.642 304.193C391.642 302.085 389.933 300.376 387.826 300.376Z" fill="#D5D9EB"/>
<path d="M442.658 300.376H406.695C404.588 300.376 402.879 302.085 402.879 304.192C402.879 306.3 404.588 308.009 406.695 308.009H442.658C444.765 308.009 446.474 306.3 446.474 304.192C446.474 302.085 444.765 300.376 442.658 300.376Z" fill="#D5D9EB"/>
<path d="M404.445 287.024H351.955C349.849 287.024 348.139 285.314 348.139 283.208C348.139 281.102 349.849 279.391 351.955 279.391H404.445C406.551 279.391 408.261 281.102 408.261 283.208C408.261 285.314 406.551 287.024 404.445 287.024Z" fill="#D5D9EB"/>
<path d="M341.893 167.379H306.711C304.605 167.379 302.895 165.669 302.895 163.563C302.895 161.457 304.605 159.747 306.711 159.747H341.893C343.999 159.747 345.709 161.457 345.709 163.563C345.709 165.669 343.999 167.379 341.893 167.379Z" fill="#D5D9EB"/>
<path d="M387.221 187.358H306.701C304.595 187.358 302.885 185.648 302.885 183.542C302.885 181.436 304.595 179.726 306.701 179.726H387.221C389.327 179.726 391.037 181.436 391.037 183.542C391.037 185.648 389.327 187.358 387.221 187.358Z" fill="#D5D9EB"/>
<path d="M473.907 208.003H306.711C304.605 208.003 302.895 206.293 302.895 204.187C302.895 202.081 304.605 200.371 306.711 200.371H473.907C476.013 200.371 477.724 202.081 477.724 204.187C477.724 206.293 476.013 208.003 473.907 208.003Z" fill="#D5D9EB"/>
<path d="M385.542 222.554H306.701C304.595 222.554 302.885 220.843 302.885 218.737C302.885 216.631 304.595 214.921 306.701 214.921H385.542C387.648 214.921 389.359 216.631 389.359 218.737C389.359 220.843 387.648 222.554 385.542 222.554Z" fill="#D5D9EB"/>
<path d="M369.425 247.931H290.584C288.478 247.931 286.768 246.221 286.768 244.115C286.768 242.009 288.478 240.298 290.584 240.298H369.425C371.531 240.298 373.241 242.009 373.241 244.115C373.241 246.221 371.531 247.931 369.425 247.931Z" fill="#D5D9EB"/>
<path d="M413.55 247.931H387.123C385.017 247.931 383.307 246.22 383.307 244.114C383.307 242.008 385.017 240.298 387.123 240.298H413.55C415.656 240.298 417.366 242.008 417.366 244.114C417.366 246.22 415.656 247.931 413.55 247.931Z" fill="#D5D9EB"/>
<path d="M481.112 247.802H431.199C429.093 247.802 427.383 246.091 427.383 243.985C427.383 241.879 429.093 240.169 431.199 240.169H481.112C483.218 240.169 484.929 241.879 484.929 243.985C484.929 246.091 483.218 247.802 481.112 247.802Z" fill="#9E77ED"/>
<path d="M169.638 227.38H148.578C146.472 227.38 144.762 225.67 144.762 223.564C144.762 221.458 146.472 219.748 148.578 219.748H169.638C171.744 219.748 173.454 221.458 173.454 223.564C173.454 225.67 171.744 227.38 169.638 227.38Z" fill="#B3B8DB"/>
<path d="M163.331 289.14H148.578C146.472 289.14 144.762 287.43 144.762 285.324C144.762 283.218 146.472 281.507 148.578 281.507H163.331C165.437 281.507 167.147 283.218 167.147 285.324C167.147 287.43 165.437 289.14 163.331 289.14Z" fill="#B3B8DB"/>
<path d="M189.543 247.973H148.578C146.472 247.973 144.762 246.262 144.762 244.156C144.762 242.05 146.472 240.34 148.578 240.34H189.543C191.649 240.34 193.36 242.05 193.36 244.156C193.36 246.262 191.649 247.973 189.543 247.973Z" fill="#B3B8DB"/>
<path d="M182.359 268.563H148.588C146.482 268.563 144.771 266.853 144.771 264.747C144.771 262.641 146.482 260.93 148.588 260.93H182.359C184.465 260.93 186.175 262.641 186.175 264.747C186.175 266.853 184.465 268.563 182.359 268.563Z" fill="#B3B8DB"/>
<path d="M229.215 167.431C231.358 167.431 233.095 165.693 233.095 163.55C233.095 161.407 231.358 159.669 229.215 159.669C227.071 159.669 225.334 161.407 225.334 163.55C225.334 165.693 227.071 167.431 229.215 167.431Z" fill="#9E77ED"/>
<path d="M233.095 183.477C233.095 185.615 231.363 187.358 229.215 187.358C227.066 187.358 225.334 185.626 225.334 183.477C225.334 181.329 227.066 179.597 229.215 179.597C231.363 179.597 233.095 181.329 233.095 183.477Z" fill="#9E77ED"/>
<path d="M229.215 208.064C231.358 208.064 233.095 206.326 233.095 204.183C233.095 202.04 231.358 200.303 229.215 200.303C227.071 200.303 225.334 202.04 225.334 204.183C225.334 206.326 227.071 208.064 229.215 208.064Z" fill="#9E77ED"/>
<path d="M233.095 224.891C233.095 227.029 231.363 228.772 229.215 228.772C227.066 228.772 225.334 227.04 225.334 224.891C225.334 222.743 227.066 221.011 229.215 221.011C231.363 221.011 233.095 222.743 233.095 224.891Z" fill="#9E77ED"/>
<path d="M229.215 249.491C231.358 249.491 233.095 247.754 233.095 245.611C233.095 243.467 231.358 241.73 229.215 241.73C227.071 241.73 225.334 243.467 225.334 245.611C225.334 247.754 227.071 249.491 229.215 249.491Z" fill="#9E77ED"/>
<path d="M233.095 266.315C233.095 268.453 231.363 270.196 229.215 270.196C227.066 270.196 225.334 268.464 225.334 266.315C225.334 264.166 227.066 262.435 229.215 262.435C231.363 262.435 233.095 264.166 233.095 266.315Z" fill="#9E77ED"/>
<path d="M229.215 290.904C231.358 290.904 233.095 289.166 233.095 287.023C233.095 284.88 231.358 283.143 229.215 283.143C227.071 283.143 225.334 284.88 225.334 287.023C225.334 289.166 227.071 290.904 229.215 290.904Z" fill="#9E77ED"/>
<path d="M233.095 307.729C233.095 309.867 231.363 311.61 229.215 311.61C227.066 311.61 225.334 309.878 225.334 307.729C225.334 305.58 227.066 303.849 229.215 303.849C231.363 303.849 233.095 305.58 233.095 307.729Z" fill="#9E77ED"/>
<path d="M229.215 332.32C231.358 332.32 233.095 330.582 233.095 328.439C233.095 326.296 231.358 324.559 229.215 324.559C227.071 324.559 225.334 326.296 225.334 328.439C225.334 330.582 227.071 332.32 229.215 332.32Z" fill="#9E77ED"/>
<path d="M233.095 349.146C233.095 351.284 231.363 353.026 229.215 353.026C227.066 353.026 225.334 351.294 225.334 349.146C225.334 346.997 227.066 345.265 229.215 345.265C231.363 345.265 233.095 346.997 233.095 349.146Z" fill="#9E77ED"/>
<path d="M229.215 373.746C231.358 373.746 233.095 372.008 233.095 369.865C233.095 367.722 231.358 365.984 229.215 365.984C227.071 365.984 225.334 367.722 225.334 369.865C225.334 372.008 227.071 373.746 229.215 373.746Z" fill="#9E77ED"/>
<path d="M233.095 390.571C233.095 392.709 231.363 394.452 229.215 394.452C227.066 394.452 225.334 392.72 225.334 390.571C225.334 388.422 227.066 386.69 229.215 386.69C231.363 386.69 233.095 388.422 233.095 390.571Z" fill="#9E77ED"/>
<rect x="478.966" y="66.1642" width="88.1683" height="88.1683" rx="44.0842" fill="black"/>
<rect x="478.966" y="66.1642" width="88.1683" height="88.1683" rx="44.0842" stroke="#3D4755" stroke-width="2.47201"/>
<rect x="494.623" y="81.8201" width="56.8562" height="56.8562" rx="28.4281" fill="black"/>
<rect x="494.623" y="81.8201" width="56.8562" height="56.8562" rx="28.4281" stroke="#3D4755" stroke-width="2.47201"/>
<path fill-rule="evenodd" clip-rule="evenodd" d="M535.03 117.461C535.736 116.287 536.281 114.993 536.614 113.632L540.46 112.591V107.894L536.614 106.853C536.268 105.492 535.736 104.21 535.03 103.036L537.026 99.5663L533.713 96.2435L530.253 98.245C529.082 97.5239 527.804 96.99 526.433 96.6433L525.395 92.7866H520.71L519.672 96.6433C518.302 96.9908 517.024 97.5247 515.853 98.245L512.392 96.2435L509.078 99.5663L511.074 103.036C510.369 104.21 509.837 105.492 509.491 106.853L505.645 107.894V112.591L509.491 113.632C509.824 114.992 510.369 116.287 511.074 117.461L509.078 120.931L512.392 124.253L515.853 122.252C517.024 122.973 518.302 123.52 519.672 123.854L520.71 127.71H525.395L526.433 123.854C527.804 123.52 529.082 122.972 530.253 122.252L533.713 124.253L537.026 120.931L535.03 117.461ZM528.988 104.296C532.267 107.583 532.267 112.914 528.988 116.202C525.709 119.489 520.393 119.489 517.114 116.202C513.835 112.914 513.835 107.583 517.114 104.296C520.393 101.008 525.709 101.008 528.988 104.296Z" fill="#B692F6"/>
<path opacity="0.2" d="M84.873 484.809H448.258C455.54 484.809 461.442 478.906 461.442 471.625V420.048V418.065" stroke="white" stroke-width="1.64801"/>
<path opacity="0.2" d="M519.043 264.647L615.152 264.647" stroke="white" stroke-width="1.64801"/>
<path opacity="0.2" d="M83.4512 53.5918H348.429C355.711 53.5918 361.613 59.4945 361.613 66.7758V110.248" stroke="white" stroke-width="1.64801"/>
<rect x="82.5527" y="375.505" width="1.64801" height="63.4846" transform="rotate(-180 82.5527 375.505)" fill="url(#paint2_linear_4010_3187)"/>
<rect x="295.029" y="52.6069" width="1.64801" height="63.4846" transform="rotate(90 295.029 52.6069)" fill="url(#paint3_linear_4010_3187)"/>
<circle cx="296.949" cy="53.4317" r="3.4449" fill="#9E77ED"/>
<circle cx="81.727" cy="377.424" r="3.4449" transform="rotate(90 81.727 377.424)" fill="#9E77ED"/>
<circle cx="461.591" cy="455.545" r="3.4449" fill="#9E77ED"/>
<path d="M461.443 457.869V471.877C461.443 479.158 455.54 485.061 448.259 485.061H414.475" stroke="url(#paint4_linear_4010_3187)" stroke-width="1.64801"/>
</g>
</g>
<defs>
<linearGradient id="paint0_linear_4010_3187" x1="318.065" y1="-2.04534" x2="318.065" y2="588.928" gradientUnits="userSpaceOnUse">
<stop stop-color="white" stop-opacity="0"/>
<stop offset="0.502935" stop-color="white"/>
<stop offset="1" stop-color="white" stop-opacity="0"/>
</linearGradient>
<linearGradient id="paint1_linear_4010_3187" x1="318.066" y1="-2.02695" x2="318.066" y2="589.248" gradientUnits="userSpaceOnUse">
<stop stop-color="white" stop-opacity="0"/>
<stop offset="0.502935" stop-color="white"/>
<stop offset="1" stop-color="white" stop-opacity="0"/>
</linearGradient>
<linearGradient id="paint2_linear_4010_3187" x1="83.3767" y1="375.505" x2="83.3767" y2="438.99" gradientUnits="userSpaceOnUse">
<stop stop-color="#9E77ED"/>
<stop offset="1" stop-color="#9E77ED" stop-opacity="0"/>
</linearGradient>
<linearGradient id="paint3_linear_4010_3187" x1="295.853" y1="52.6069" x2="295.853" y2="116.092" gradientUnits="userSpaceOnUse">
<stop stop-color="#9E77ED"/>
<stop offset="1" stop-color="#9E77ED" stop-opacity="0"/>
</linearGradient>
<linearGradient id="paint4_linear_4010_3187" x1="437.959" y1="457.869" x2="437.959" y2="485.061" gradientUnits="userSpaceOnUse">
<stop stop-color="#9E77ED"/>
<stop offset="1" stop-color="#9E77ED" stop-opacity="0"/>
</linearGradient>
<clipPath id="clip0_4010_3187">
<rect width="614.707" height="587.766" fill="white" transform="translate(0 0.420898)"/>
</clipPath>
<clipPath id="clip1_4010_3187">
<rect y="0.546875" width="614.706" height="587.514" rx="19.7761" fill="white"/>
</clipPath>
</defs>
</svg>
