<svg width="120" height="121" viewBox="0 0 120 121" fill="none" xmlns="http://www.w3.org/2000/svg">
<rect y="0.194336" width="120" height="120" rx="14" fill="#9E77ED"/>
<path d="M32.1493 49.3682C32.7438 49.0088 33.5574 48.5557 33.9955 48.3682C34.4179 48.1651 34.8716 48.0244 34.9968 48.0401C35.1219 48.0557 39.5339 53.8525 44.7751 60.915C50.032 67.9775 54.3658 73.6807 54.3971 73.5713C54.4283 73.4619 52.942 68.165 51.1115 61.79C49.2654 55.3994 47.8103 50.1494 47.8729 50.1026C47.9512 50.0557 48.2171 50.1807 48.4831 50.3838C48.8273 50.6182 49.1871 50.7276 49.7191 50.7276C50.3605 50.7276 50.6265 50.6182 51.4244 50.0713C51.9564 49.6963 52.4101 49.4151 52.4414 49.4463C52.4727 49.4619 54.1467 55.2275 56.1493 62.2588C58.1676 69.2744 59.8417 75.0244 59.8886 75.0244C59.9355 75.0244 61.6096 69.2744 63.6278 62.2588C65.6304 55.2275 67.3045 49.4619 67.3358 49.4463C67.3671 49.4151 67.8208 49.6963 68.3527 50.0713C69.1507 50.6182 69.4166 50.7276 70.0581 50.7276C70.59 50.7276 70.9499 50.6182 71.2941 50.3838C71.56 50.1807 71.826 50.0557 71.8886 50.1026C71.9668 50.1494 70.5118 55.3994 68.6656 61.79C66.8351 68.165 65.3488 73.4619 65.3801 73.5713C65.4114 73.6807 69.7295 67.9932 74.9864 60.9307C80.2276 53.8838 84.5926 48.0713 84.6865 48.0401C84.7647 47.9932 85.2654 48.1494 85.7817 48.3838C86.298 48.6026 87.1585 49.0869 87.7061 49.4463C88.2537 49.8057 88.6761 50.1807 88.6448 50.2744C88.6135 50.3682 84.0294 56.3994 68.2589 76.8838H51.5183L41.3488 63.6807C35.7634 56.3994 31.1637 50.3526 31.148 50.2432C31.1167 50.1182 31.5704 49.7432 32.1493 49.3682Z" fill="white"/>
<path d="M67.9617 22.7588C67.6488 22.0713 67.3984 21.4932 67.3984 21.4775V21.4619C67.3984 21.4463 67.508 21.4307 67.6331 21.4307C67.7583 21.4307 68.5562 21.6807 69.3854 21.9932C70.2303 22.3057 71.607 22.8994 72.4519 23.3213C73.2811 23.7432 74.3763 24.3525 74.8769 24.665C75.3619 24.9775 76.2224 25.5869 76.7857 25.9932C77.3489 26.415 78.2876 27.1963 78.8978 27.7432C79.508 28.2744 80.5562 29.3838 81.229 30.1963C81.9174 31.0088 82.8874 32.29 83.4037 33.0713C83.9043 33.8525 84.7022 35.2588 85.1716 36.1963C85.6253 37.1338 86.2511 38.6494 86.5484 39.5556C86.8457 40.4619 87.2055 41.7744 87.3619 42.4775C87.534 43.1806 87.6279 43.8056 87.581 43.8525C87.534 43.8994 86.9082 43.7431 86.1729 43.4775C85.4376 43.2275 84.2016 42.8994 83.435 42.7588C82.6214 42.6025 81.2603 42.4931 80.2277 42.4931C79.1951 42.4931 77.8183 42.6025 77.0204 42.7588C76.2537 42.8994 75.0803 43.1963 74.4389 43.415C73.7974 43.6338 73.0777 43.8994 72.8274 44.0244C72.5927 44.1494 72.3893 44.2431 72.358 44.2431C72.3424 44.2431 72.2642 43.4463 72.2016 42.4931C72.139 41.5244 71.9669 39.7744 71.8417 38.6181C71.7166 37.4619 71.4975 35.8369 71.3724 35.0244C71.2316 34.2119 70.9969 32.915 70.8404 32.1338C70.684 31.3525 70.3711 30.0244 70.152 29.165C69.933 28.3057 69.4793 26.79 69.1351 25.8057C68.8065 24.8213 68.2589 23.4463 67.9617 22.7588Z" fill="white"/>
<path d="M47.6064 23.2275C48.7329 22.665 50.1723 22.04 50.8137 21.8369C51.4552 21.6182 52.081 21.4307 52.1749 21.4307C52.2844 21.4307 52.3783 21.4463 52.3783 21.4619C52.3783 21.4932 52.1279 22.0713 51.815 22.7588C51.5178 23.4463 50.9702 24.8213 50.6416 25.8057C50.2974 26.79 49.8437 28.3057 49.6247 29.165C49.4056 30.0244 49.0927 31.3525 48.9363 32.1338C48.7798 32.915 48.5451 34.2119 48.4043 35.0244C48.2792 35.8369 48.0601 37.4619 47.935 38.6181C47.8098 39.7744 47.6377 41.5244 47.5751 42.4931C47.4969 43.5713 47.3874 44.2275 47.2935 44.1806C47.1996 44.1338 46.6051 43.8994 45.9637 43.6338C45.3222 43.3838 44.0549 43.0244 43.1475 42.8369C41.9741 42.6025 40.9571 42.5088 39.549 42.5088C38.3913 42.5088 37.0458 42.6181 36.2635 42.7744C35.5282 42.915 34.3391 43.2275 33.6038 43.4775C32.8685 43.7431 32.2427 43.8994 32.1957 43.8525C32.1488 43.8056 32.2427 43.1806 32.3991 42.4775C32.5556 41.7744 32.9311 40.4619 33.2283 39.5556C33.5256 38.6494 34.1357 37.1806 34.5582 36.2744C34.9962 35.3682 35.8567 33.8525 36.4982 32.915C37.124 31.9775 38.2035 30.5713 38.8763 29.79C39.5647 29.0088 40.8163 27.8057 41.6612 27.0869C42.5217 26.3682 43.7577 25.4307 44.3991 25.0088C45.0406 24.5713 46.48 23.7744 47.6064 23.2275Z" fill="white"/>
<path d="M56.9477 23.0713C57.3075 22.4775 57.9803 21.6025 58.434 21.165C59.1694 20.4463 59.3571 20.3369 59.889 20.3369C60.4366 20.3369 60.6244 20.4463 61.3441 21.1494C61.7978 21.6025 62.4705 22.4775 62.8304 23.0713C63.1902 23.6807 63.7691 24.8682 64.1133 25.7275C64.4731 26.5869 64.9894 28.1025 65.2867 29.0869C65.5683 30.0713 65.9907 31.79 66.2254 32.915C66.4445 34.04 66.773 35.8994 66.9295 37.0556C67.1016 38.2119 67.3206 40.2275 67.4301 41.54C67.5396 42.8369 67.6022 43.9463 67.5553 43.9931C67.5083 44.04 66.8043 43.8369 65.9907 43.5556C65.1772 43.2588 63.9099 42.915 63.1746 42.7744C62.3767 42.6181 61.0468 42.5088 59.889 42.5088C58.7313 42.5088 57.4014 42.6181 56.6035 42.7744C55.8682 42.915 54.6009 43.2588 53.7873 43.5556C52.9738 43.8369 52.2697 44.04 52.2228 43.9931C52.1759 43.9463 52.2384 42.8369 52.348 41.54C52.4575 40.2275 52.6765 38.2119 52.8486 37.0556C53.0051 35.8994 53.3336 34.04 53.5527 32.915C53.7873 31.79 54.2098 30.0713 54.4914 29.0869C54.7886 28.1025 55.3049 26.5869 55.6648 25.7275C56.009 24.8682 56.5879 23.6807 56.9477 23.0713Z" fill="white"/>
<path fill-rule="evenodd" clip-rule="evenodd" d="M51.5795 81.9463C51.2823 82.1338 50.9224 82.54 50.7816 82.8369C50.5313 83.3369 50.5 84.0557 50.5 90.915C50.5 97.7744 50.5313 98.5088 50.766 99.04C50.9224 99.3525 51.2979 99.7744 51.5952 99.9775L52.1428 100.337H67.6317C68.4766 99.7744 68.852 99.3525 68.9928 99.04C69.2432 98.5088 69.2745 97.7744 69.2745 90.915C69.2745 84.0557 69.2432 83.3369 68.9928 82.8369C68.852 82.54 68.4766 82.1338 68.1793 81.9307L67.6317 81.5713L52.1271 81.5869L51.5795 81.9463ZM59.8958 96.9098C63.1488 96.9098 65.7858 94.2728 65.7858 91.0198C65.7858 87.7669 63.1488 85.1299 59.8958 85.1299C56.6429 85.1299 54.0059 87.7669 54.0059 91.0198C54.0059 94.2728 56.6429 96.9098 59.8958 96.9098Z" fill="#6941C6"/>
<circle cx="59.8962" cy="91.02" r="3.92357" fill="#6941C6"/>
</svg>
