<svg width="120" height="121" viewBox="0 0 120 121" fill="none" xmlns="http://www.w3.org/2000/svg">
<rect y="0.194336" width="120" height="120" rx="14" fill="#F9FAFB"/>
<path fill-rule="evenodd" clip-rule="evenodd" d="M74.1642 20.2044C74.7738 20.2356 77.947 21.0799 83.2774 22.6278C87.7636 23.9256 91.6246 25.1138 91.8435 25.2702C92.0779 25.4109 92.4062 25.8174 92.5625 26.1614C92.8595 26.7712 92.8752 27.0526 92.797 34.0572C92.7501 39.8422 92.6719 41.5777 92.4844 42.5784C92.3437 43.2663 92.0467 44.439 91.8278 45.2051C91.609 45.9556 91.1557 47.222 90.8118 48.0038C90.4679 48.8012 89.8583 50.0207 89.4675 50.7087C89.0611 51.3966 88.342 52.4911 87.8731 53.1321C87.3885 53.7732 86.4349 54.8989 85.7315 55.6181C85.0437 56.3374 83.9183 57.3693 83.2305 57.9009C82.5427 58.4325 81.4954 59.183 80.8857 59.5426C80.2761 59.9178 79.1975 60.4963 78.4628 60.8403C77.7282 61.1843 76.5402 61.669 75.8055 61.9191C75.0708 62.1537 74.3049 62.3569 74.086 62.3569C73.8672 62.3569 73.1012 62.1537 72.3665 61.9191C71.6319 61.669 70.4751 61.1999 69.7873 60.8872C69.0995 60.5745 68.0053 59.9804 67.3644 59.5895C66.7235 59.183 65.77 58.5419 65.2542 58.1511C64.7383 57.7602 63.7223 56.8846 63.0032 56.1967C62.2842 55.4931 61.2681 54.3673 60.721 53.6794C60.1895 52.9914 59.5018 52.022 59.1891 51.5374C58.8609 51.037 58.3606 50.1145 58.048 49.5048C57.7354 48.8794 57.2508 47.7693 56.9538 47.0344C56.6724 46.2996 56.2973 45.1113 56.1097 44.3764C55.9221 43.6416 55.672 42.3126 55.547 41.4057C55.3907 40.2331 55.3281 37.9191 55.3281 33.2285C55.3281 27.1777 55.3438 26.6617 55.6251 26.1145C55.7814 25.8018 56.0784 25.4265 56.2817 25.2858C56.4849 25.1451 60.2833 24.0037 64.7071 22.7373C69.1308 21.4865 72.8667 20.392 72.9918 20.2982C73.1169 20.22 73.6483 20.1731 74.1642 20.2044ZM75.6961 38.6539L71.7413 42.5784C69.2559 40.1236 68.3023 39.295 68.0366 39.1543C67.7552 39.0135 67.3019 38.9041 67.0518 38.9041C66.8017 38.9041 66.3015 39.0448 65.9576 39.2168C65.5408 39.4253 65.2281 39.738 65.0197 40.1549C64.8478 40.4989 64.7071 40.9836 64.7071 41.2494C64.7071 41.5152 64.8165 41.953 64.9572 42.2188C65.0979 42.5002 66.3015 43.8448 67.6458 45.2051C69.0057 46.5654 70.3657 47.8162 70.694 47.9882C71.0066 48.1445 71.4912 48.2852 71.7413 48.2852C71.9914 48.2852 72.4447 48.1758 72.7261 48.0351C72.9918 47.8944 75.3991 45.6272 78.0408 43.0005C80.6982 40.3582 82.996 37.9347 83.168 37.6064C83.3243 37.2937 83.465 36.8246 83.465 36.5588C83.465 36.293 83.3243 35.8083 83.1523 35.4643C82.9439 35.0474 82.6313 34.7347 82.2144 34.5262C81.8705 34.3542 81.3547 34.2135 81.089 34.2135C80.8076 34.2292 80.3543 34.3386 80.1042 34.4637C79.8541 34.6044 77.8532 36.4806 75.6961 38.6539Z" fill="#9E77ED"/>
<path d="M44.6979 63.3733C45.1668 63.2169 46.0578 62.998 46.6518 62.8886C47.2615 62.7791 48.34 62.6853 49.0747 62.6853C49.8094 62.6697 51.013 62.7791 51.779 62.9042C52.5293 63.0293 53.7173 63.3576 54.4363 63.6078C55.1398 63.8736 56.2183 64.3739 56.8123 64.7492C57.422 65.1088 58.3286 65.7967 59.7823 67.1883L66.3945 67.2039C72.5221 67.2039 73.0535 67.2195 73.8195 67.501C74.2572 67.673 74.9293 68.0951 75.3045 68.4391C75.664 68.7987 76.133 69.4554 76.3518 69.9088C76.6332 70.5029 76.7426 70.9876 76.7426 71.7381C76.7426 72.301 76.6488 73.0671 76.5081 73.458C76.3831 73.8489 75.9767 74.5056 75.6171 74.9121C75.2263 75.3655 74.5854 75.8502 73.2255 76.5069L61.5018 76.585C50.0908 76.6632 49.7625 76.6789 49.3405 76.9759C49.0904 77.1479 48.7465 77.6013 48.5745 77.9922C48.34 78.4925 48.2775 78.8521 48.34 79.243C48.4026 79.5401 48.5745 79.9622 48.7465 80.1811C48.9028 80.4 49.231 80.7127 49.4499 80.8847C49.8719 81.1818 50.1533 81.1974 60.0637 81.2443C66.4258 81.26 70.5838 81.2131 71.1152 81.1193C71.5842 81.0411 72.4595 80.7284 73.0692 80.4313C74.0227 79.9622 75.1482 78.9772 81.9792 72.5981C86.2779 68.5798 90.1076 65.0619 90.4984 64.7648C90.8892 64.4834 91.5926 64.0925 92.0615 63.9049C92.5305 63.7329 93.4059 63.5453 94.0155 63.4984C94.7658 63.4358 95.4223 63.4984 96.1257 63.6704C96.6885 63.8111 97.517 64.155 97.9703 64.4365C98.4392 64.7179 99.0489 65.2026 99.3458 65.5309C99.6585 65.8749 99.9242 66.344 99.9711 66.7036C100.034 67.0163 99.9867 67.5479 99.893 67.8762C99.7523 68.3609 97.7983 70.2997 88.3881 79.2899C81.604 85.7473 76.8208 90.219 76.4612 90.3753C75.9298 90.6255 74.7105 90.6411 44.5572 90.6567L39.7739 95.488L40.1804 95.9258C40.4148 96.176 40.7118 96.5981 40.8525 96.8796C40.9932 97.1454 41.1026 97.5988 41.1026 97.8489C41.1026 98.1147 40.9776 98.5838 40.8056 98.9121C40.6493 99.2248 40.2585 99.647 39.9459 99.8502C39.6176 100.054 39.133 100.194 38.7579 100.194C38.414 100.194 37.945 100.085 37.7106 99.9284C37.4605 99.7877 33.5213 95.9414 28.9413 91.376C24.2205 86.6854 20.4689 82.8235 20.297 82.4952C20.1407 82.1668 20 81.6978 20 81.432C20 81.1818 20.1407 80.6815 20.3126 80.3375C20.5211 79.9206 20.8337 79.6079 21.2505 79.3994C21.5944 79.2274 22.0946 79.0867 22.3447 79.0867C22.5948 79.0867 23.0482 79.1961 23.3139 79.3368C23.5953 79.4776 24.0486 79.7903 24.7676 80.4626L32.4271 73.1766C36.6476 69.1583 40.4461 65.6248 40.8681 65.312C41.3058 64.9993 42.1499 64.499 42.7439 64.2019C43.3379 63.8892 44.2289 63.5296 44.6979 63.3733Z" fill="#363F72"/>
</svg>
