<svg width="746" height="714" viewBox="0 0 746 714" fill="none" xmlns="http://www.w3.org/2000/svg">
<g clip-path="url(#clip0_2596_3697)">
<rect y="0.304688" width="746" height="713" rx="24" fill="#1D2939"/>
<rect opacity="0.2" x="170" y="-46.6953" width="432" height="783" fill="url(#paint0_linear_2596_3697)"/>
<line opacity="0.2" x1="99.6328" y1="0.125" x2="99.6328" y2="717.045" stroke="white" stroke-width="2"/>
<rect opacity="0.2" x="234.828" y="-46.6953" width="302.344" height="783.398" fill="url(#paint1_linear_2596_3697)"/>
<path d="M170.947 133.438H615.902C623.634 133.438 629.902 139.706 629.902 147.438V493.078C629.902 500.81 623.634 507.078 615.902 507.078H175.007C160.723 507.078 149.125 495.479 149.125 481.195V155.259C149.125 143.22 158.907 133.438 170.947 133.438Z" fill="white"/>
<path d="M254.057 133.438H157.157C152.318 133.438 148.387 137.369 148.387 142.208V495.194C148.387 501.759 153.719 507.091 160.284 507.091H250.333C252.396 507.091 254.057 505.417 254.057 503.367V133.438Z" fill="#EAECF5"/>
<path d="M183.598 161.11C183.598 164.742 180.653 167.674 177.033 167.674C173.414 167.674 170.469 164.729 170.469 161.11C170.469 157.49 173.414 154.545 177.033 154.545C180.653 154.545 183.598 157.49 183.598 161.11Z" fill="#F2F4F7"/>
<path d="M194.713 167.674C198.339 167.674 201.278 164.735 201.278 161.11C201.278 157.484 198.339 154.545 194.713 154.545C191.088 154.545 188.148 157.484 188.148 161.11C188.148 164.735 191.088 167.674 194.713 167.674Z" fill="#98A2B3"/>
<path d="M213.643 167.674C217.268 167.674 220.207 164.735 220.207 161.11C220.207 157.484 217.268 154.545 213.643 154.545C210.017 154.545 207.078 157.484 207.078 161.11C207.078 164.735 210.017 167.674 213.643 167.674Z" fill="#667085"/>
<path d="M419.042 166.004H287.399C283.844 166.004 280.977 163.124 280.977 159.582C280.977 156.027 283.857 153.16 287.399 153.16H419.042C422.597 153.16 425.464 156.04 425.464 159.582C425.464 163.137 422.584 166.004 419.042 166.004Z" fill="#B3B8DB"/>
<path d="M225.399 250.615H180.315C177.759 250.615 175.684 248.539 175.684 245.983C175.684 243.427 177.759 241.352 180.315 241.352H225.399C227.954 241.352 230.03 243.427 230.03 245.983C230.03 248.539 227.954 250.615 225.399 250.615Z" fill="#B3B8DB"/>
<path d="M346.507 202.771H303.811C301.255 202.771 299.18 200.695 299.18 198.139C299.18 195.584 301.255 193.508 303.811 193.508H346.507C349.063 193.508 351.139 195.584 351.139 198.139C351.139 200.695 349.063 202.771 346.507 202.771Z" fill="#9E77ED"/>
<path d="M346.507 227.017H303.811C301.255 227.017 299.18 224.941 299.18 222.385C299.18 219.83 301.255 217.754 303.811 217.754H346.507C349.063 217.754 351.139 219.83 351.139 222.385C351.139 224.941 349.063 227.017 346.507 227.017Z" fill="#9E77ED"/>
<path d="M328.292 300.527H303.811C301.255 300.527 299.18 298.451 299.18 295.895C299.18 293.339 301.255 291.264 303.811 291.264H328.292C330.848 291.264 332.924 293.339 332.924 295.895C332.924 298.451 330.848 300.527 328.292 300.527Z" fill="#9E77ED"/>
<path d="M328.292 325.628H303.811C301.255 325.628 299.18 323.553 299.18 320.997C299.18 318.441 301.255 316.365 303.811 316.365H328.292C330.848 316.365 332.924 318.441 332.924 320.997C332.924 323.553 330.848 325.628 328.292 325.628Z" fill="#9E77ED"/>
<path d="M375.673 347.97H330.784C328.228 347.97 326.152 345.894 326.152 343.339C326.152 340.783 328.228 338.707 330.784 338.707H375.673C378.228 338.707 380.304 340.783 380.304 343.339C380.304 345.894 378.228 347.97 375.673 347.97Z" fill="#9E77ED"/>
<path d="M384.146 364.172H356.253C353.695 364.172 351.621 366.246 351.621 368.803C351.621 371.361 353.695 373.435 356.253 373.435H384.146C386.704 373.435 388.778 371.361 388.778 368.803C388.778 366.246 386.704 364.172 384.146 364.172Z" fill="#FF725E"/>
<path d="M384.146 423.359H356.253C353.697 423.359 351.621 421.283 351.621 418.727C351.621 416.171 353.697 414.096 356.253 414.096H384.146C386.702 414.096 388.778 416.171 388.778 418.727C388.778 421.283 386.702 423.359 384.146 423.359Z" fill="#FF725E"/>
<path d="M384.146 476.097H356.253C353.697 476.097 351.621 474.021 351.621 471.466C351.621 468.91 353.697 466.834 356.253 466.834H384.146C386.702 466.834 388.778 468.91 388.778 471.466C388.778 474.021 386.702 476.097 384.146 476.097Z" fill="#FF725E"/>
<path d="M406.083 347.97H396.081C393.525 347.97 391.449 345.894 391.449 343.339C391.449 340.783 393.525 338.707 396.081 338.707H406.083C408.639 338.707 410.715 340.783 410.715 343.339C410.715 345.894 408.639 347.97 406.083 347.97Z" fill="#9E77ED"/>
<path d="M346.515 252.072H303.819C301.263 252.072 299.188 249.996 299.188 247.44C299.188 244.884 301.263 242.809 303.819 242.809H346.515C349.071 242.809 351.147 244.884 351.147 247.44C351.147 249.996 349.071 252.072 346.515 252.072Z" fill="#D5D9EB"/>
<path d="M401.063 325.63H356.175C353.619 325.63 351.543 323.555 351.543 320.999C351.543 318.443 353.619 316.367 356.175 316.367H401.063C403.619 316.367 405.695 318.443 405.695 320.999C405.695 323.555 403.619 325.63 401.063 325.63Z" fill="#D5D9EB"/>
<path d="M452.726 476.099H403.815C401.259 476.099 399.184 474.023 399.184 471.468C399.184 468.912 401.259 466.836 403.815 466.836H452.726C455.282 466.836 457.357 468.912 457.357 471.468C457.357 474.023 455.282 476.099 452.726 476.099Z" fill="#D5D9EB"/>
<path d="M486.954 476.099H479.909C477.353 476.099 475.277 474.023 475.277 471.468C475.277 468.912 477.353 466.836 479.909 466.836H486.954C489.509 466.836 491.585 468.912 491.585 471.468C491.585 474.023 489.509 476.099 486.954 476.099Z" fill="#D5D9EB"/>
<path d="M449.79 423.361H408.456C405.9 423.361 403.824 421.285 403.824 418.729C403.824 416.173 405.9 414.098 408.456 414.098H449.79C452.346 414.098 454.421 416.173 454.421 418.729C454.421 421.285 452.346 423.361 449.79 423.361Z" fill="#D5D9EB"/>
<path d="M540.411 446.521H408.456C405.9 446.521 403.824 444.445 403.824 441.889C403.824 439.334 405.9 437.258 408.456 437.258H540.411C542.966 437.258 545.042 439.334 545.042 441.889C545.042 444.445 542.966 446.521 540.411 446.521Z" fill="#D5D9EB"/>
<path d="M555.66 423.361H471.409C468.853 423.361 466.777 421.285 466.777 418.729C466.777 416.173 468.853 414.098 471.409 414.098H555.66C558.215 414.098 560.291 416.173 560.291 418.729C560.291 421.285 558.215 423.361 555.66 423.361Z" fill="#D5D9EB"/>
<path d="M440.465 364.174H405.553C402.995 364.174 400.922 366.247 400.922 368.805C400.922 371.363 402.995 373.437 405.553 373.437H440.465C443.023 373.437 445.097 371.363 445.097 368.805C445.097 366.247 443.023 364.174 440.465 364.174Z" fill="#D5D9EB"/>
<path d="M470.663 364.174H461.983C459.425 364.174 457.352 366.247 457.352 368.805C457.352 371.363 459.425 373.437 461.983 373.437H470.663C473.22 373.437 475.294 371.363 475.294 368.805C475.294 366.247 473.22 364.174 470.663 364.174Z" fill="#D5D9EB"/>
<path d="M537.205 364.174H493.561C491.003 364.174 488.93 366.247 488.93 368.805C488.93 371.363 491.003 373.437 493.561 373.437H537.205C539.762 373.437 541.836 371.363 541.836 368.805C541.836 366.247 539.762 364.174 537.205 364.174Z" fill="#D5D9EB"/>
<path d="M490.832 347.97H427.132C424.576 347.97 422.5 345.894 422.5 343.339C422.5 340.783 424.576 338.707 427.132 338.707H490.832C493.388 338.707 495.464 340.783 495.464 343.339C495.464 345.894 493.388 347.97 490.832 347.97Z" fill="#D5D9EB"/>
<path d="M414.922 202.771H372.225C369.67 202.771 367.594 200.695 367.594 198.139C367.594 195.584 369.67 193.508 372.225 193.508H414.922C417.477 193.508 419.553 195.584 419.553 198.139C419.553 200.695 417.477 202.771 414.922 202.771Z" fill="#D5D9EB"/>
<path d="M469.927 227.017H372.21C369.654 227.017 367.578 224.941 367.578 222.385C367.578 219.83 369.654 217.754 372.21 217.754H469.927C472.483 217.754 474.559 219.83 474.559 222.385C474.559 224.941 472.483 227.017 469.927 227.017Z" fill="#D5D9EB"/>
<path d="M575.133 252.072H372.225C369.67 252.072 367.594 249.996 367.594 247.44C367.594 244.884 369.67 242.809 372.225 242.809H575.133C577.689 242.809 579.764 244.884 579.764 247.44C579.764 249.996 577.689 252.072 575.133 252.072Z" fill="#D5D9EB"/>
<path d="M467.89 269.73H372.21C369.654 269.73 367.578 267.654 367.578 265.098C367.578 262.543 369.654 260.467 372.21 260.467H467.89C470.446 260.467 472.522 262.543 472.522 265.098C472.522 267.654 470.446 269.73 467.89 269.73Z" fill="#D5D9EB"/>
<path d="M448.332 300.527H352.651C350.095 300.527 348.02 298.451 348.02 295.895C348.02 293.339 350.095 291.264 352.651 291.264H448.332C450.887 291.264 452.963 293.339 452.963 295.895C452.963 298.451 450.887 300.527 448.332 300.527Z" fill="#D5D9EB"/>
<path d="M501.882 300.527H469.811C467.255 300.527 465.18 298.451 465.18 295.895C465.18 293.339 467.255 291.264 469.811 291.264H501.882C504.438 291.264 506.514 293.339 506.514 295.895C506.514 298.451 504.438 300.527 501.882 300.527Z" fill="#D5D9EB"/>
<path d="M583.873 300.371H523.3C520.744 300.371 518.668 298.295 518.668 295.739C518.668 293.183 520.744 291.107 523.3 291.107H583.873C586.429 291.107 588.505 293.183 588.505 295.739C588.505 298.295 586.429 300.371 583.873 300.371Z" fill="#9E77ED"/>
<path d="M205.873 275.587H180.315C177.759 275.587 175.684 273.512 175.684 270.956C175.684 268.4 177.759 266.324 180.315 266.324H205.873C208.429 266.324 210.505 268.4 210.505 270.956C210.505 273.512 208.429 275.587 205.873 275.587Z" fill="#B3B8DB"/>
<path d="M198.219 350.539H180.315C177.759 350.539 175.684 348.463 175.684 345.907C175.684 343.351 177.759 341.275 180.315 341.275H198.219C200.775 341.275 202.85 343.351 202.85 345.907C202.85 348.463 200.775 350.539 198.219 350.539Z" fill="#B3B8DB"/>
<path d="M230.03 300.578H180.315C177.759 300.578 175.684 298.502 175.684 295.946C175.684 293.39 177.759 291.314 180.315 291.314H230.03C232.586 291.314 234.662 293.39 234.662 295.946C234.662 298.502 232.586 300.578 230.03 300.578Z" fill="#B3B8DB"/>
<path d="M221.311 325.566H180.327C177.771 325.566 175.695 323.49 175.695 320.934C175.695 318.379 177.771 316.303 180.327 316.303H221.311C223.866 316.303 225.942 318.379 225.942 320.934C225.942 323.49 223.866 325.566 221.311 325.566Z" fill="#B3B8DB"/>
<path d="M278.174 202.833C280.775 202.833 282.884 200.724 282.884 198.123C282.884 195.523 280.775 193.414 278.174 193.414C275.573 193.414 273.465 195.523 273.465 198.123C273.465 200.724 275.573 202.833 278.174 202.833Z" fill="#9E77ED"/>
<path d="M282.884 222.307C282.884 224.902 280.782 227.017 278.174 227.017C275.567 227.017 273.465 224.915 273.465 222.307C273.465 219.699 275.567 217.598 278.174 217.598C280.782 217.598 282.884 219.699 282.884 222.307Z" fill="#9E77ED"/>
<path d="M278.174 252.145C280.775 252.145 282.884 250.037 282.884 247.436C282.884 244.835 280.775 242.727 278.174 242.727C275.573 242.727 273.465 244.835 273.465 247.436C273.465 250.037 275.573 252.145 278.174 252.145Z" fill="#9E77ED"/>
<path d="M282.884 272.567C282.884 275.162 280.782 277.276 278.174 277.276C275.567 277.276 273.465 275.175 273.465 272.567C273.465 269.959 275.567 267.857 278.174 267.857C280.782 267.857 282.884 269.959 282.884 272.567Z" fill="#9E77ED"/>
<path d="M278.174 302.421C280.775 302.421 282.884 300.312 282.884 297.711C282.884 295.11 280.775 293.002 278.174 293.002C275.573 293.002 273.465 295.11 273.465 297.711C273.465 300.312 275.573 302.421 278.174 302.421Z" fill="#9E77ED"/>
<path d="M282.884 322.838C282.884 325.433 280.782 327.548 278.174 327.548C275.567 327.548 273.465 325.446 273.465 322.838C273.465 320.231 275.567 318.129 278.174 318.129C280.782 318.129 282.884 320.231 282.884 322.838Z" fill="#9E77ED"/>
<path d="M278.174 352.679C280.775 352.679 282.884 350.57 282.884 347.969C282.884 345.368 280.775 343.26 278.174 343.26C275.573 343.26 273.465 345.368 273.465 347.969C273.465 350.57 275.573 352.679 278.174 352.679Z" fill="#9E77ED"/>
<path d="M282.884 373.098C282.884 375.693 280.782 377.808 278.174 377.808C275.567 377.808 273.465 375.706 273.465 373.098C273.465 370.49 275.567 368.389 278.174 368.389C280.782 368.389 282.884 370.49 282.884 373.098Z" fill="#9E77ED"/>
<path d="M278.174 402.94C280.775 402.94 282.884 400.832 282.884 398.231C282.884 395.63 280.775 393.521 278.174 393.521C275.573 393.521 273.465 395.63 273.465 398.231C273.465 400.832 275.573 402.94 278.174 402.94Z" fill="#9E77ED"/>
<path d="M282.884 423.36C282.884 425.955 280.782 428.069 278.174 428.069C275.567 428.069 273.465 425.968 273.465 423.36C273.465 420.752 275.567 418.65 278.174 418.65C280.782 418.65 282.884 420.752 282.884 423.36Z" fill="#9E77ED"/>
<path d="M278.174 453.214C280.775 453.214 282.884 451.105 282.884 448.504C282.884 445.903 280.775 443.795 278.174 443.795C275.573 443.795 273.465 445.903 273.465 448.504C273.465 451.105 275.573 453.214 278.174 453.214Z" fill="#9E77ED"/>
<path d="M282.884 473.633C282.884 476.228 280.782 478.343 278.174 478.343C275.567 478.343 273.465 476.241 273.465 473.633C273.465 471.026 275.567 468.924 278.174 468.924C280.782 468.924 282.884 471.026 282.884 473.633Z" fill="#9E77ED"/>
<rect x="581.266" y="79.9375" width="107" height="107" rx="53.5" fill="black"/>
<rect x="581.266" y="79.9375" width="107" height="107" rx="53.5" stroke="#3D4755" stroke-width="3"/>
<rect x="600.266" y="98.9375" width="69" height="69" rx="34.5" fill="black"/>
<rect x="600.266" y="98.9375" width="69" height="69" rx="34.5" stroke="#3D4755" stroke-width="3"/>
<path fill-rule="evenodd" clip-rule="evenodd" d="M649.303 142.191C650.159 140.766 650.821 139.196 651.225 137.543L655.893 136.28V130.58L651.225 129.317C650.805 127.665 650.159 126.11 649.303 124.685L651.725 120.474L647.704 116.441L643.505 118.87C642.084 117.995 640.533 117.347 638.869 116.927L637.61 112.246H631.924L630.665 116.927C629.001 117.348 627.45 117.996 626.029 118.87L621.83 116.441L617.808 120.474L620.23 124.685C619.374 126.11 618.728 127.666 618.309 129.317L613.641 130.58V136.28L618.309 137.543C618.712 139.195 619.374 140.766 620.23 142.191L617.808 146.401L621.83 150.434L626.029 148.005C627.45 148.88 629.001 149.544 630.665 149.949L631.924 154.629H637.61L638.869 149.949C640.533 149.544 642.084 148.879 643.505 148.005L647.704 150.434L651.725 146.401L649.303 142.191ZM641.97 126.213C645.949 130.203 645.949 136.672 641.97 140.662C637.99 144.652 631.539 144.652 627.559 140.662C623.58 136.672 623.58 130.203 627.559 126.213C631.539 122.223 637.99 122.223 641.97 126.213Z" fill="#B692F6"/>
<path opacity="0.2" d="M103 588H544C552.837 588 560 580.837 560 572V509.406V507" stroke="white" stroke-width="2"/>
<path opacity="0.2" d="M629.902 320.814L746.539 320.814" stroke="white" stroke-width="2"/>
<path opacity="0.2" d="M101.273 64.6797H422.848C431.684 64.6797 438.848 71.8431 438.848 80.6797V133.438" stroke="white" stroke-width="2"/>
<rect x="358.043" y="63.4844" width="2" height="77.0442" transform="rotate(90 358.043 63.4844)" fill="url(#paint2_linear_2596_3697)"/>
<rect x="100.184" y="455.35" width="2" height="77.0442" transform="rotate(-180 100.184 455.35)" fill="url(#paint3_linear_2596_3697)"/>
<circle cx="360.372" cy="64.4854" r="4.18069" fill="#9E77ED"/>
<circle cx="99.1826" cy="457.679" r="4.18069" transform="rotate(90 99.1826 457.679)" fill="#9E77ED"/>
<circle cx="560.181" cy="552.485" r="4.18069" fill="#9E77ED"/>
<path d="M560 555.305V572.305C560 581.141 552.837 588.305 544 588.305H503" stroke="url(#paint4_linear_2596_3697)" stroke-width="2"/>
</g>
<defs>
<linearGradient id="paint0_linear_2596_3697" x1="386" y1="-2.84073" x2="386" y2="714.358" gradientUnits="userSpaceOnUse">
<stop stop-color="white" stop-opacity="0"/>
<stop offset="0.502935" stop-color="white"/>
<stop offset="1" stop-color="white" stop-opacity="0"/>
</linearGradient>
<linearGradient id="paint1_linear_2596_3697" x1="386" y1="-2.81842" x2="386" y2="714.745" gradientUnits="userSpaceOnUse">
<stop stop-color="white" stop-opacity="0"/>
<stop offset="0.502935" stop-color="white"/>
<stop offset="1" stop-color="white" stop-opacity="0"/>
</linearGradient>
<linearGradient id="paint2_linear_2596_3697" x1="359.043" y1="63.4844" x2="359.043" y2="140.529" gradientUnits="userSpaceOnUse">
<stop stop-color="#9E77ED"/>
<stop offset="1" stop-color="#9E77ED" stop-opacity="0"/>
</linearGradient>
<linearGradient id="paint3_linear_2596_3697" x1="101.184" y1="455.35" x2="101.184" y2="532.394" gradientUnits="userSpaceOnUse">
<stop stop-color="#9E77ED"/>
<stop offset="1" stop-color="#9E77ED" stop-opacity="0"/>
</linearGradient>
<linearGradient id="paint4_linear_2596_3697" x1="531.5" y1="555.305" x2="531.5" y2="588.305" gradientUnits="userSpaceOnUse">
<stop stop-color="#9E77ED"/>
<stop offset="1" stop-color="#9E77ED" stop-opacity="0"/>
</linearGradient>
<clipPath id="clip0_2596_3697">
<rect y="0.304688" width="746" height="713" rx="24" fill="white"/>
</clipPath>
</defs>
</svg>
