<svg width="595" height="843" viewBox="0 0 595 843" fill="none" xmlns="http://www.w3.org/2000/svg">
<rect opacity="0.5" width="92.662" height="93.794" transform="matrix(1 0 0 -1 128.812 289.627)" fill="#24253F"/>
<rect opacity="0.8" width="92.662" height="93.794" transform="matrix(1 0 0 -1 488.125 740.02)" fill="#24253F"/>
<rect opacity="0.5" width="93.3385" height="92.6732" transform="matrix(1 0 0 -1 38.1328 649.418)" fill="#24253F"/>
<path opacity="0.15" fill-rule="evenodd" clip-rule="evenodd" d="M-231.699 106.705L-231.699 20.2274H-248.383V16.7637H-231.699V0.0820312H-228.236V16.7637H-141.762V0.0820312H-138.298V16.7637H-51.8203V0.0820312H-48.3567V16.7637H38.1172V0.0820312H41.5808V16.7637H128.059V0.0820312H131.522V16.7637H218V0.0820312H221.464V16.7637H307.941V0.0820312H311.405V16.7637H397.879V0.0820312H401.343V16.7637H487.82V0.0820312H491.284V16.7637H577.758V0.0820312H581.221V16.7637H594.441V20.2274H581.221V106.705H594.441V110.169H581.221V196.643H594.441V200.106H581.221V286.586H594.441V290.05H581.221V376.523H594.441V379.987H581.221V466.465H594.441V469.928H581.221V556.402H594.441V559.866H581.221V646.344H594.441V649.807H581.221V736.283H594.441V739.747H581.221L581.221 826.225H594.441V829.688H581.221V842.906H577.758V829.688H491.284V842.906H487.82V829.688H401.343V842.906H397.879V829.688H311.405V842.906H307.941V829.688H221.464V842.906H218V829.688H131.522V842.906H128.059V829.688H41.5808V842.906H38.1172V829.688H-48.3567V842.906H-51.8203V829.688H-138.298V842.906H-141.762V829.688H-228.236V842.906H-231.699V829.688H-248.383V826.225H-231.699L-231.699 739.747H-248.383V736.283H-231.699L-231.699 649.807H-248.383V646.344H-231.699L-231.699 559.866H-248.383V556.402H-231.699L-231.699 469.928H-248.383V466.465H-231.699L-231.699 379.987H-248.383V376.523H-231.699L-231.699 290.05H-248.383V286.586H-231.699L-231.699 200.106H-248.383V196.643H-231.699L-231.699 110.169H-248.383V106.705H-231.699ZM-228.236 826.225L-228.236 739.747H-141.762L-141.762 826.225H-228.236ZM-138.298 826.225L-138.298 739.747H-51.8203L-51.8203 826.225H-138.298ZM-48.3567 826.225L-48.3567 739.747H38.1172L38.1172 826.225H-48.3567ZM41.5808 826.225L41.5808 739.747H128.059L128.059 826.225H41.5808ZM131.522 826.225L131.522 739.747H218L218 826.225H131.522ZM221.464 826.225L221.464 739.747H307.941L307.941 826.225H221.464ZM311.405 826.225L311.405 739.747H397.879L397.879 826.225H311.405ZM401.343 826.225L401.343 739.747H487.82L487.82 826.225H401.343ZM491.284 826.225L491.284 739.747H577.758L577.758 826.225H491.284ZM491.284 736.283H577.758V649.807H491.284V736.283ZM401.343 736.283H487.82V649.807H401.343V736.283ZM311.405 736.283H397.879V649.807H311.405V736.283ZM221.464 736.283H307.941V649.807H221.464V736.283ZM131.522 736.283H218V649.807H131.522V736.283ZM41.5808 736.283H128.059V649.807H41.5808V736.283ZM-48.3567 736.283H38.1172V649.807H-48.3567V736.283ZM-138.298 736.283H-51.8203V649.807H-138.298V736.283ZM-228.236 736.283H-141.762V649.807H-228.236L-228.236 736.283ZM-228.236 646.344L-228.236 559.866H-141.762L-141.762 646.344H-228.236ZM-138.298 646.344L-138.298 559.866H-51.8203L-51.8203 646.344H-138.298ZM-48.3567 646.344L-48.3567 559.866H38.1172V646.344H-48.3567ZM41.5808 646.344V559.866H128.059V646.344H41.5808ZM131.522 646.344V559.866H218V646.344H131.522ZM221.464 646.344V559.866H307.941V646.344H221.464ZM311.405 646.344V559.866H397.879V646.344H311.405ZM401.343 646.344V559.866H487.82V646.344H401.343ZM491.284 646.344V559.866H577.758V646.344H491.284ZM491.284 556.402H577.758V469.928H491.284V556.402ZM401.343 556.402H487.82V469.928H401.343V556.402ZM311.405 556.402H397.879V469.928H311.405V556.402ZM221.464 556.402H307.941V469.928H221.464V556.402ZM131.522 556.402H218V469.928H131.522V556.402ZM41.5808 556.402H128.059V469.928H41.5808V556.402ZM-48.3567 556.402H38.1172V469.928H-48.3567V556.402ZM-138.298 556.402H-51.8203V469.928H-138.298V556.402ZM-228.236 556.402H-141.762V469.928H-228.236L-228.236 556.402ZM-228.236 466.465L-228.236 379.987H-141.762L-141.762 466.465H-228.236ZM-138.298 466.465L-138.298 379.987H-51.8203V466.465H-138.298ZM-48.3567 466.465V379.987H38.1172V466.465H-48.3567ZM41.5808 466.465V379.987H128.059V466.465H41.5808ZM131.522 466.465V379.987H218V466.465H131.522ZM221.464 466.465V379.987H307.941V466.465H221.464ZM311.405 466.465V379.987H397.879V466.465H311.405ZM401.343 466.465V379.987H487.82V466.465H401.343ZM491.284 466.465V379.987H577.758V466.465H491.284ZM491.284 376.523H577.758V290.05H491.284V376.523ZM401.343 376.523H487.82V290.05H401.343V376.523ZM311.405 376.523H397.879V290.05H311.405V376.523ZM221.464 376.523H307.941V290.05H221.464V376.523ZM131.522 376.523H218V290.05H131.522V376.523ZM41.5808 376.523H128.059V290.05H41.5808V376.523ZM-48.3567 376.523H38.1172V290.05H-48.3567V376.523ZM-138.298 376.523H-51.8203V290.05H-138.298V376.523ZM-228.236 376.523H-141.762V290.05H-228.236L-228.236 376.523ZM-228.236 286.586L-228.236 200.106H-141.762L-141.762 286.586H-228.236ZM-138.298 286.586L-138.298 200.106H-51.8203V286.586H-138.298ZM-48.3567 286.586V200.106H38.1172V286.586H-48.3567ZM41.5808 286.586V200.106H128.059V286.586H41.5808ZM131.522 286.586V200.106H218V286.586H131.522ZM221.464 286.586V200.106H307.941V286.586H221.464ZM311.405 286.586V200.106H397.879V286.586H311.405ZM401.343 286.586V200.106H487.82V286.586H401.343ZM491.284 286.586V200.106H577.758V286.586H491.284ZM491.284 196.643H577.758V110.169H491.284V196.643ZM401.343 196.643H487.82V110.169H401.343V196.643ZM311.405 196.643H397.879V110.169H311.405V196.643ZM221.464 196.643H307.941V110.169H221.464V196.643ZM131.522 196.643H218V110.169H131.522V196.643ZM41.5808 196.643H128.059V110.169H41.5808V196.643ZM-48.3567 196.643H38.1172V110.169H-48.3567V196.643ZM-138.298 196.643H-51.8203V110.169H-138.298V196.643ZM-228.236 196.643H-141.762V110.169H-228.236L-228.236 196.643ZM-228.236 106.705L-228.236 20.2274H-141.762L-141.762 106.705H-228.236ZM-138.298 106.705L-138.298 20.2274H-51.8203V106.705H-138.298ZM-48.3567 106.705V20.2274H38.1172V106.705H-48.3567ZM41.5808 106.705V20.2274H128.059V106.705H41.5808ZM131.522 106.705V20.2274H218V106.705H131.522ZM221.464 106.705V20.2274H307.941V106.705H221.464ZM311.405 106.705V20.2274H397.879V106.705H311.405ZM401.343 106.705V20.2274H487.82V106.705H401.343ZM491.284 106.705V20.2274H577.758V106.705H491.284Z" fill="url(#paint0_radial_2521_3257)"/>
<rect width="3.46366" height="81.9762" transform="matrix(1 0 0 -1 218.012 555.916)" fill="url(#paint1_linear_2521_3257)"/>
<rect width="3.46366" height="102.863" transform="matrix(1 0 0 -1 129.742 285.365)" fill="url(#paint2_linear_2521_3257)"/>
<rect width="3.46366" height="81.9762" transform="matrix(-4.37114e-08 1 1 4.37114e-08 221.828 556.576)" fill="url(#paint3_linear_2521_3257)"/>
<circle cx="4.44832" cy="4.44832" r="4.44832" transform="matrix(1 0 0 -1 215.594 562.35)" fill="#9E77ED"/>
<circle cx="5.58173" cy="5.58173" r="5.58173" transform="matrix(-4.37114e-08 1 1 4.37114e-08 125.891 282.891)" fill="#9E77ED"/>
<rect width="3.46366" height="102.863" transform="matrix(-1 8.74228e-08 8.74228e-08 1 41.6328 380.025)" fill="url(#paint4_linear_2521_3257)"/>
<circle cx="5.58173" cy="5.58173" r="5.58173" transform="matrix(-4.37114e-08 -1 -1 4.37114e-08 45.4766 382.857)" fill="#9E77ED"/>
<defs>
<radialGradient id="paint0_radial_2521_3257" cx="0" cy="0" r="1" gradientUnits="userSpaceOnUse" gradientTransform="translate(208.243 534.063) rotate(-131.783) scale(494.697)">
<stop stop-color="white"/>
<stop offset="1" stop-color="white" stop-opacity="0"/>
</radialGradient>
<linearGradient id="paint1_linear_2521_3257" x1="1.73187" y1="0" x2="1.73187" y2="81.9762" gradientUnits="userSpaceOnUse">
<stop stop-color="#9E77ED"/>
<stop offset="1" stop-color="#9E77ED" stop-opacity="0"/>
</linearGradient>
<linearGradient id="paint2_linear_2521_3257" x1="1.73178" y1="0" x2="1.73178" y2="102.863" gradientUnits="userSpaceOnUse">
<stop stop-color="#9E77ED"/>
<stop offset="1" stop-color="#9E77ED" stop-opacity="0"/>
</linearGradient>
<linearGradient id="paint3_linear_2521_3257" x1="1.73183" y1="0" x2="1.73175" y2="81.9762" gradientUnits="userSpaceOnUse">
<stop stop-color="#9E77ED"/>
<stop offset="1" stop-color="#9E77ED" stop-opacity="0"/>
</linearGradient>
<linearGradient id="paint4_linear_2521_3257" x1="1.73178" y1="0" x2="1.73177" y2="102.863" gradientUnits="userSpaceOnUse">
<stop stop-color="#9E77ED"/>
<stop offset="0.425" stop-color="#9E77ED" stop-opacity="0"/>
</linearGradient>
</defs>
</svg>
