<svg width="927" height="768" viewBox="0 0 927 768" fill="none" xmlns="http://www.w3.org/2000/svg">
<rect opacity="0.6" x="728.75" y="291.682" width="93.6879" height="94.8325" fill="#24253F"/>
<rect opacity="0.5" x="819.672" y="18.9473" width="93.6879" height="94.8325" fill="#24253F"/>
<rect opacity="0.6" x="364.699" y="110.553" width="94.3719" height="93.6993" fill="#24253F"/>
<path opacity="0.15" fill-rule="evenodd" clip-rule="evenodd" d="M0.945312 767.078L0.945349 -85.0781H4.44736L4.44732 767.078H0.945312ZM91.879 767.078V750.211H75.0119V746.709H91.879L91.879 659.275H75.0117V655.773H91.879V568.342H75.0117V564.84H91.879L91.879 477.402H75.0117V473.9H91.879V386.469H75.0117V382.967H91.879L91.879 295.531H75.0117V292.029H91.879V204.598H75.0117V201.096H91.879L91.879 113.66H75.0117V110.158H91.879V22.7246H75.0117V19.2226H91.879L91.879 -68.2109H75.0119V-71.7129H91.879V-85.078L95.3811 -85.078V-71.7129H182.812V-85.0781H186.315V-71.7129H273.75V-85.0781H277.252V-71.7129H364.684V-85.0781H368.186V-71.7129H455.625V-85.0781H459.127V-71.7129H546.562V-85.0781H550.065V-71.7129H637.496V-85.0781H640.998V-71.7129H728.43V-85.0781H731.932V-71.7129H819.367V-85.078L822.869 -85.078V-71.7129H910.305V-85.0781H913.807V-71.7129H927.168V-68.2109H913.807L913.807 19.2226H927.168V22.7246H913.807V110.158H927.168V113.66H913.807V201.096H927.168V204.598H913.807V292.029H927.168V295.531H913.807V382.967H927.168V386.469H913.807V473.9H927.168V477.402H913.807V564.84H927.168V568.342H913.807V655.773H927.168V659.275H913.807V746.709H927.168V750.211H913.807V767.078H910.305V750.211H822.869V767.078H819.367V750.211H731.932V767.078H728.43V750.211H640.998V767.078H637.496V750.211H550.064V767.078H546.562V750.211H459.127V767.078H455.625V750.211H368.186V767.078H364.684V750.211H277.252V767.078H273.75V750.211H186.314V767.078H182.812V750.211H95.381V767.078H91.879ZM910.305 -68.2109H822.869L822.869 19.2226H910.305L910.305 -68.2109ZM819.367 -68.2109H731.932L731.932 19.2226H819.367L819.367 -68.2109ZM728.43 -68.2109H640.998L640.998 19.2226H728.43L728.43 -68.2109ZM637.496 -68.2109H550.065L550.064 19.2226H637.496L637.496 -68.2109ZM546.562 -68.2109H459.127L459.127 19.2226H546.562L546.562 -68.2109ZM455.625 -68.2109H368.186L368.186 19.2226H455.625L455.625 -68.2109ZM364.684 -68.2109H277.252L277.252 19.2226H364.684L364.684 -68.2109ZM273.75 -68.2109H186.315L186.314 19.2226H273.75L273.75 -68.2109ZM182.812 -68.2109H95.3811L95.3811 19.2226H182.812L182.812 -68.2109ZM95.3811 110.158V22.7246H182.812V110.158H95.3811ZM186.314 110.158V22.7246H273.75V110.158H186.314ZM277.252 110.158V22.7246H364.684V110.158H277.252ZM368.186 110.158V22.7246H455.625V110.158H368.186ZM459.127 110.158V22.7246H546.562V110.158H459.127ZM550.064 110.158V22.7246H637.496V110.158H550.064ZM640.998 110.158V22.7246H728.43V110.158H640.998ZM731.932 110.158V22.7246H819.367V110.158H731.932ZM822.869 110.158V22.7246H910.305V110.158H822.869ZM910.305 113.66H822.869V201.096H910.305V113.66ZM819.367 113.66H731.932V201.096H819.367V113.66ZM728.43 113.66H640.998V201.096H728.43V113.66ZM637.496 113.66H550.064V201.096H637.496V113.66ZM546.562 113.66H459.127V201.096H546.562V113.66ZM455.625 113.66H368.186V201.096H455.625V113.66ZM364.684 113.66H277.252V201.096H364.684V113.66ZM273.75 113.66H186.314L186.314 201.096H273.75V113.66ZM182.812 113.66H95.3811L95.381 201.096H182.812L182.812 113.66ZM95.381 292.029V204.598H182.812V292.029H95.381ZM186.314 292.029V204.598H273.75V292.029H186.314ZM277.252 292.029V204.598H364.684V292.029H277.252ZM368.186 292.029V204.598H455.625V292.029H368.186ZM459.127 292.029V204.598H546.562V292.029H459.127ZM550.064 292.029V204.598H637.496V292.029H550.064ZM640.998 292.029V204.598H728.43V292.029H640.998ZM731.932 292.029V204.598H819.367V292.029H731.932ZM822.869 292.029V204.598H910.305V292.029H822.869ZM910.305 295.531H822.869V382.967H910.305V295.531ZM819.367 295.531H731.932V382.967H819.367V295.531ZM728.43 295.531H640.998V382.967H728.43V295.531ZM637.496 295.531H550.064V382.967H637.496V295.531ZM546.562 295.531H459.127V382.967H546.562V295.531ZM455.625 295.531H368.186V382.967H455.625V295.531ZM364.684 295.531H277.252V382.967H364.684V295.531ZM273.75 295.531H186.314L186.314 382.967H273.75V295.531ZM182.812 295.531H95.381L95.381 382.967H182.812V295.531ZM95.381 473.9V386.469H182.812V473.9H95.381ZM186.314 473.9V386.469H273.75V473.9H186.314ZM277.252 473.9V386.469H364.684V473.9H277.252ZM368.186 473.9V386.469H455.625V473.9H368.186ZM459.127 473.9V386.469H546.562V473.9H459.127ZM550.064 473.9V386.469H637.496V473.9H550.064ZM640.998 473.9V386.469H728.43V473.9H640.998ZM731.932 473.9V386.469H819.367V473.9H731.932ZM822.869 473.9V386.469H910.305V473.9H822.869ZM910.305 477.402H822.869V564.84H910.305V477.402ZM819.367 477.402H731.932V564.84H819.367V477.402ZM728.43 477.402H640.998V564.84H728.43V477.402ZM637.496 477.402H550.064V564.84H637.496V477.402ZM546.562 477.402H459.127V564.84H546.562V477.402ZM455.625 477.402H368.186V564.84H455.625V477.402ZM364.684 477.402H277.252V564.84H364.684V477.402ZM273.75 477.402H186.314V564.84H273.75V477.402ZM182.812 477.402H95.381L95.381 564.84H182.812V477.402ZM95.381 655.773V568.342H182.812V655.773H95.381ZM186.314 655.773V568.342H273.75V655.773H186.314ZM277.252 655.773V568.342H364.684V655.773H277.252ZM368.186 655.773V568.342H455.625V655.773H368.186ZM459.127 655.773V568.342H546.562V655.773H459.127ZM550.064 655.773V568.342H637.496V655.773H550.064ZM640.998 655.773V568.342H728.43V655.773H640.998ZM731.932 655.773V568.342H819.367V655.773H731.932ZM822.869 655.773V568.342H910.305V655.773H822.869ZM910.305 659.275H822.869V746.709H910.305V659.275ZM819.367 659.275H731.932V746.709H819.367V659.275ZM728.43 659.275H640.998V746.709H728.43V659.275ZM637.496 659.275H550.064V746.709H637.496V659.275ZM546.562 659.275H459.127V746.709H546.562V659.275ZM455.625 659.275H368.186V746.709H455.625V659.275ZM364.684 659.275H277.252V746.709H364.684V659.275ZM273.75 659.275H186.314V746.709H273.75V659.275ZM182.812 659.275H95.381L95.381 746.709H182.812V659.275Z" fill="url(#paint0_radial_2521_3167)"/>
<rect x="546.57" y="205.09" width="3.50201" height="82.8838" fill="url(#paint1_linear_2521_3167)"/>
<rect x="728.527" y="478.637" width="3.50201" height="104.002" fill="url(#paint2_linear_2521_3167)"/>
<rect x="363.902" y="292.043" width="3.50201" height="104.002" transform="rotate(90 363.902 292.043)" fill="url(#paint3_linear_2521_3167)"/>
<rect x="550.43" y="204.422" width="3.50201" height="82.8838" transform="rotate(-90 550.43 204.422)" fill="url(#paint4_linear_2521_3167)"/>
<circle cx="548.611" cy="203.082" r="4.49757" fill="#9E77ED"/>
<circle cx="730.28" cy="475.493" r="5.64353" transform="rotate(-90 730.28 475.493)" fill="#9E77ED"/>
<circle cx="366.679" cy="293.794" r="5.64353" fill="#9E77ED"/>
<defs>
<radialGradient id="paint0_radial_2521_3167" cx="0" cy="0" r="1" gradientUnits="userSpaceOnUse" gradientTransform="translate(536.693 227.185) rotate(131.783) scale(500.174 500.174)">
<stop stop-color="white"/>
<stop offset="1" stop-color="white" stop-opacity="0"/>
</radialGradient>
<linearGradient id="paint1_linear_2521_3167" x1="548.321" y1="205.09" x2="548.321" y2="287.974" gradientUnits="userSpaceOnUse">
<stop stop-color="#9E77ED"/>
<stop offset="1" stop-color="#9E77ED" stop-opacity="0"/>
</linearGradient>
<linearGradient id="paint2_linear_2521_3167" x1="730.278" y1="478.637" x2="730.278" y2="582.639" gradientUnits="userSpaceOnUse">
<stop stop-color="#9E77ED"/>
<stop offset="1" stop-color="#9E77ED" stop-opacity="0"/>
</linearGradient>
<linearGradient id="paint3_linear_2521_3167" x1="365.653" y1="292.043" x2="365.653" y2="396.045" gradientUnits="userSpaceOnUse">
<stop stop-color="#9E77ED"/>
<stop offset="1" stop-color="#9E77ED" stop-opacity="0"/>
</linearGradient>
<linearGradient id="paint4_linear_2521_3167" x1="552.181" y1="204.422" x2="552.181" y2="287.306" gradientUnits="userSpaceOnUse">
<stop stop-color="#9E77ED"/>
<stop offset="1" stop-color="#9E77ED" stop-opacity="0"/>
</linearGradient>
</defs>
</svg>
